<svg width="1440" height="2304" viewBox="0 0 1440 2304" fill="none" xmlns="http://www.w3.org/2000/svg">
<g opacity="0.4">
<path d="M648.896 1138.27C649.223 1138.01 649.567 1137.78 649.928 1137.54C649.79 1137.59 649.653 1137.63 649.515 1137.65C649.309 1137.85 649.085 1138.08 648.896 1138.27Z" fill="#EFEBD7" fill-opacity="0.43"/>
<path d="M618.082 175.552C696.707 282.724 774.817 393.525 824.912 517.396C873.253 636.968 884.191 767.099 834.078 888.029C795.436 981.255 730.672 1057.47 659.785 1127.59C659.458 1128.82 659.097 1130.08 658.753 1131.32C658.839 1131.3 658.891 1131.27 659.011 1131.25C661.969 1129.2 664.858 1127.14 667.851 1125.14C666.251 1126.64 664.686 1128.2 663.104 1129.74C721.024 1089.17 775.316 1045.57 823.33 992.915C885.515 924.728 931.036 840.479 950.554 750.091C986.634 583.003 937.605 412.408 873.357 258.545C805.153 95.2065 716.261 -58.3297 641.625 -218.607C581.005 -348.738 514.4 -501.242 528.708 -649H185.006C201.223 -471.869 282.738 -302.701 380.366 -153.43C454.434 -40.1007 538.081 66.4872 618.082 175.552Z" fill="#EFEBD7" fill-opacity="0.43"/>
<path d="M662.482 1130.35C662.706 1130.15 662.912 1129.92 663.101 1129.73C664.683 1128.2 666.248 1126.64 667.848 1125.14C664.855 1127.14 661.966 1129.2 659.008 1131.25C660.178 1130.96 661.313 1130.66 662.482 1130.35Z" fill="#EFEBD7" fill-opacity="0.43"/>
<path d="M693.919 2092.45C615.328 1985.28 537.184 1874.48 487.089 1750.6C438.748 1631.03 427.811 1500.9 477.923 1379.97C516.565 1286.75 581.33 1210.53 652.216 1140.41C652.543 1139.18 652.904 1137.92 653.248 1136.68C652.147 1136.98 651.012 1137.27 649.929 1137.54C649.568 1137.78 649.224 1138.01 648.897 1138.27C590.977 1178.83 536.686 1222.43 488.671 1275.09C426.486 1343.27 380.966 1427.52 361.447 1517.91C325.367 1685 374.431 1855.59 438.662 2009.49C506.849 2172.79 595.741 2326.33 670.411 2486.61C730.996 2616.74 797.601 2769.24 783.293 2917H1127.01C1110.78 2739.87 1029.26 2570.7 931.635 2421.43C857.567 2308.1 773.92 2201.51 693.919 2092.45Z" fill="#EFEBD7" fill-opacity="0.43"/>
<path d="M-734.68 -357.233C-655.694 -109.388 -440.953 49.462 -217.785 161.226C-95.8061 222.276 30.9197 272.887 155.599 328.056C273.606 380.301 392.627 436.209 494.778 516.193C594.229 594.078 668.143 698.981 686.389 825.896C701.075 927.892 682.949 1028.44 656.087 1126.54C656.397 1127.81 656.724 1129.1 657.068 1130.37C658.615 1127.04 660.215 1123.72 661.831 1120.4C661.178 1122.58 660.593 1124.75 659.991 1126.93C690.791 1060.84 716.707 993.843 731.721 921.942C750.689 831.244 745.857 736.591 717.258 648.559C665.357 488.66 536.842 366.612 406.694 267.298C264.268 158.612 108.462 69.3248 -37.8345 -33.7893C-160.76 -120.36 -296.118 -222.494 -354.21 -366.451C-392.422 -461.138 -379.37 -557.064 -348.69 -649H-769.229C-773.993 -550.512 -765.085 -452.54 -734.68 -357.233Z" fill="#EFEBD7" fill-opacity="0.43"/>
<path d="M652.219 1140.42C652.15 1140.64 652.081 1140.88 652.012 1141.07C652.735 1139.54 653.474 1137.99 654.196 1136.46C653.887 1136.53 653.543 1136.6 653.251 1136.68C652.907 1137.92 652.545 1139.18 652.219 1140.42Z" fill="#EFEBD7" fill-opacity="0.43"/>
<path d="M2046.68 2625.23C1967.7 2377.42 1752.97 2218.54 1529.79 2106.77C1407.84 2045.72 1281.08 1995.11 1156.44 1939.94C1038.4 1887.7 919.374 1831.79 817.223 1751.81C717.772 1673.94 643.859 1569.02 625.613 1442.1C610.926 1340.11 629.087 1239.55 655.914 1141.46C655.501 1139.74 655.054 1138.04 654.607 1136.34C654.47 1136.37 654.332 1136.42 654.195 1136.46C653.472 1137.99 652.733 1139.54 652.01 1141.07C621.21 1207.16 595.294 1274.16 580.281 1346.06C561.313 1436.75 566.162 1531.41 594.744 1619.46C646.645 1779.34 775.159 1901.39 905.307 2000.7C1047.73 2109.39 1203.54 2198.67 1349.84 2301.79C1472.76 2388.39 1608.12 2490.49 1666.21 2634.45C1704.42 2729.14 1691.37 2825.06 1660.69 2917H2081.23C2085.99 2818.51 2077.09 2720.54 2046.68 2625.23Z" fill="#EFEBD7" fill-opacity="0.43"/>
<path d="M658.753 1131.32C659.097 1130.08 659.458 1128.82 659.785 1127.58C659.854 1127.36 659.923 1127.12 659.992 1126.93C660.593 1124.75 661.178 1122.58 661.832 1120.4C660.215 1123.71 658.616 1127.03 657.068 1130.37C657.171 1130.8 657.292 1131.25 657.395 1131.66C657.842 1131.54 658.289 1131.44 658.753 1131.32Z" fill="#EFEBD7" fill-opacity="0.43"/>
<path d="M-587.113 728.458C-450.963 720.341 -315.879 700.822 -180.366 686.239C-48.309 672.068 86.4995 660.89 218.522 681.2C341.688 700.117 455.413 756.782 532.078 856.886C593.42 936.956 627.057 1031.11 652.354 1127.52C653.249 1128.46 654.16 1129.37 655.089 1130.32C654.796 1126.64 654.504 1122.99 654.246 1119.31C654.779 1121.52 655.364 1123.72 655.914 1125.92C649.586 1053.31 638.7 982.133 615.552 912.485C585.63 822.389 532.92 741.803 461.844 678.913C334.396 566.203 158.074 526.529 -6.21033 506.443C-185.852 484.482 -367.247 485.462 -547.25 467.852C-694.922 453.424 -865.431 430.81 -981.598 329.347C-1091.18 233.645 -1112 88.4318 -1124.8 -48.3027C-1125.33 -53.651 -1126.11 -58.9649 -1127 -64.2788V648.698C-962.011 725.81 -769.695 739.292 -587.113 728.458Z" fill="#EFEBD7" fill-opacity="0.43"/>
<path d="M655.587 1136.31C655.519 1136.25 655.467 1136.2 655.381 1136.15C655.14 1136.2 654.882 1136.25 654.607 1136.34C655.054 1138.04 655.501 1139.74 655.914 1141.46C655.966 1141.67 656.034 1141.88 656.086 1142.08C655.914 1140.16 655.742 1138.23 655.587 1136.31Z" fill="#EFEBD7" fill-opacity="0.43"/>
<path d="M1899.11 1539.54C1762.96 1547.66 1627.88 1567.18 1492.37 1581.76C1360.31 1595.93 1225.5 1607.11 1093.48 1586.8C970.311 1567.88 856.587 1511.22 779.922 1411.12C718.58 1331.05 684.942 1236.91 659.645 1140.48C658.304 1139.09 656.945 1137.7 655.587 1136.31C655.741 1138.23 655.913 1140.16 656.085 1142.08C662.414 1214.69 673.3 1285.87 696.447 1355.52C726.37 1445.61 779.079 1526.2 850.172 1589.09C977.603 1701.8 1153.93 1741.47 1318.24 1761.56C1497.85 1783.52 1679.25 1782.54 1859.25 1800.15C2006.96 1814.58 2177.43 1837.19 2293.6 1938.66C2403.18 2034.36 2424 2179.57 2436.8 2316.3C2437.33 2321.65 2438.1 2326.97 2439 2332.28V1619.34C2274.01 1542.19 2081.71 1528.71 1899.11 1539.54Z" fill="#EFEBD7" fill-opacity="0.43"/>
<path d="M656.619 1131.85C656.859 1131.8 657.117 1131.75 657.393 1131.66C657.289 1131.25 657.169 1130.8 657.066 1130.37C656.722 1129.1 656.395 1127.81 656.086 1126.54C656.034 1126.35 655.965 1126.12 655.914 1125.92C655.363 1123.71 654.779 1121.51 654.245 1119.31C654.503 1122.99 654.796 1126.64 655.088 1130.32C655.587 1130.85 656.103 1131.35 656.619 1131.85Z" fill="#EFEBD7" fill-opacity="0.43"/>
<path d="M-302.449 1171.92C-195.276 1093.33 -84.4747 1015.19 39.3962 965.09C158.968 916.749 289.099 905.812 410.029 955.924C503.255 994.566 579.473 1059.33 649.585 1130.22C650.875 1130.58 652.148 1130.94 653.472 1131.3C651.339 1128.24 649.207 1125.23 647.109 1122.17C648.639 1123.75 650.204 1125.32 651.735 1126.9C611.167 1068.98 567.572 1014.69 514.914 966.672C446.728 904.488 362.479 858.967 272.091 839.448C105.003 803.368 -65.5923 852.397 -219.455 916.663C-382.794 984.85 -536.33 1073.74 -696.607 1148.38C-826.738 1209 -979.242 1275.6 -1127 1261.29V1605.01C-949.869 1588.78 -780.736 1507.26 -631.43 1409.64C-518.101 1335.57 -411.547 1251.92 -302.449 1171.92Z" fill="#EFEBD7" fill-opacity="0.43"/>
<path d="M655.587 1136.3C656.946 1137.7 658.304 1139.09 659.646 1140.48C659.852 1140.71 660.076 1140.91 660.265 1141.1C659.113 1139.48 658.012 1137.87 656.894 1136.25C656.585 1136.17 656.275 1136.06 655.966 1135.98C655.776 1136.03 655.587 1136.1 655.381 1136.15C655.467 1136.2 655.518 1136.25 655.587 1136.3Z" fill="#EFEBD7" fill-opacity="0.43"/>
<path d="M1614.45 1096.08C1507.27 1174.67 1396.51 1252.82 1272.6 1302.91C1153.03 1351.25 1022.9 1362.19 901.97 1312.08C808.744 1273.44 732.526 1208.67 662.414 1137.79C660.573 1137.29 658.733 1136.75 656.893 1136.25C658.011 1137.87 659.112 1139.49 660.264 1141.1C700.832 1199.02 744.427 1253.32 797.084 1301.33C865.271 1363.51 949.52 1409.04 1039.91 1428.55C1207 1464.63 1377.59 1415.57 1531.49 1351.34C1694.79 1283.15 1848.33 1194.26 2008.61 1119.62C2138.74 1059.01 2291.24 992.4 2439 1006.71V663.006C2261.87 679.223 2092.73 760.738 1943.43 858.366C1830.13 932.434 1723.51 1016.08 1614.45 1096.08Z" fill="#EFEBD7" fill-opacity="0.43"/>
<path d="M656.036 1132.02C656.225 1131.97 656.414 1131.92 656.62 1131.85C656.105 1131.35 655.589 1130.85 655.09 1130.32C654.161 1129.38 653.25 1128.46 652.356 1127.52C652.149 1127.31 651.926 1127.09 651.737 1126.9C650.206 1125.32 648.641 1123.75 647.11 1122.17C649.209 1125.23 651.341 1128.24 653.473 1131.3C654.299 1131.52 655.159 1131.77 656.036 1132.02Z" fill="#EFEBD7" fill-opacity="0.43"/>
<path d="M-835.233 2524.68C-587.388 2445.7 -428.538 2230.97 -316.774 2007.79C-255.689 1885.84 -205.113 1759.08 -149.944 1634.44C-97.7336 1516.4 -41.7914 1397.37 38.1926 1295.22C116.078 1195.77 220.981 1121.86 347.896 1103.61C449.892 1088.93 550.444 1107.05 648.536 1133.91C649.809 1133.6 651.099 1133.28 652.371 1132.93C649.035 1131.39 645.716 1129.79 642.397 1128.17C644.581 1128.82 646.748 1129.41 648.932 1130.01C582.843 1099.21 515.843 1073.29 443.942 1058.28C353.244 1039.31 258.591 1044.16 170.559 1072.74C10.6599 1124.64 -111.388 1253.16 -210.702 1383.31C-319.388 1525.75 -408.675 1681.54 -511.789 1827.84C-598.394 1950.76 -700.494 2086.12 -844.451 2144.21C-939.138 2182.46 -1035.06 2169.37 -1127 2138.69V2559.23C-1028.51 2564.03 -930.54 2555.09 -835.233 2524.68Z" fill="#EFEBD7" fill-opacity="0.43"/>
<path d="M656.892 1136.25C658.732 1136.75 660.572 1137.29 662.412 1137.78C662.636 1137.85 662.877 1137.92 663.066 1137.99C661.312 1137.18 659.558 1136.34 657.804 1135.53C657.202 1135.67 656.583 1135.84 655.964 1135.98C656.273 1136.06 656.583 1136.17 656.892 1136.25Z" fill="#EFEBD7" fill-opacity="0.43"/>
<path d="M2147.23 -256.681C1899.39 -177.694 1740.54 37.0465 1628.77 260.214C1567.72 382.193 1517.11 508.919 1461.94 633.598C1409.7 751.605 1353.79 870.626 1273.81 972.778C1195.94 1072.23 1091.02 1146.14 964.105 1164.39C862.108 1179.07 761.557 1160.91 663.464 1134.09C661.573 1134.55 659.681 1135.03 657.806 1135.53C659.561 1136.34 661.315 1137.18 663.069 1137.99C729.157 1168.79 796.157 1194.71 868.059 1209.72C958.756 1228.69 1053.41 1223.86 1141.46 1195.26C1301.34 1143.36 1423.39 1014.84 1522.7 884.694C1631.35 742.267 1720.68 586.461 1823.79 440.165C1910.38 317.24 2012.49 181.881 2156.45 123.789C2251.14 85.5769 2347.06 98.6295 2439 129.309V-291.23C2340.51 -295.993 2242.54 -287.085 2147.23 -256.681Z" fill="#EFEBD7" fill-opacity="0.43"/>
<path d="M656.033 1132.02C655.156 1131.76 654.296 1131.52 653.47 1131.3C652.146 1130.94 650.874 1130.58 649.584 1130.22C649.36 1130.15 649.137 1130.08 648.93 1130.01C646.746 1129.41 644.579 1128.82 642.395 1128.17C645.714 1129.79 649.033 1131.39 652.37 1132.93C653.574 1132.64 654.795 1132.33 656.033 1132.02Z" fill="#EFEBD7" fill-opacity="0.43"/>
<path d="M250.459 2377.11C242.342 2240.96 222.823 2105.88 208.24 1970.37C194.069 1838.31 182.891 1703.5 203.201 1571.48C222.152 1448.31 278.782 1334.59 378.887 1257.92C458.957 1196.58 553.111 1162.94 649.518 1137.64C649.656 1137.63 649.793 1137.59 649.931 1137.54C651.014 1137.27 652.149 1136.97 653.25 1136.68C653.542 1136.6 653.886 1136.53 654.196 1136.46C654.333 1136.42 654.471 1136.37 654.609 1136.34C654.884 1136.25 655.142 1136.2 655.383 1136.15C655.589 1136.1 655.778 1136.03 655.967 1135.98C656.586 1135.84 657.205 1135.67 657.807 1135.53C659.682 1135.03 661.574 1134.55 663.465 1134.09C663.672 1134.03 663.878 1133.96 664.084 1133.91C656.5 1134.58 648.934 1135.2 641.315 1135.75C643.517 1135.22 645.718 1134.64 647.919 1134.09C575.313 1140.41 504.134 1151.3 434.485 1174.45C344.389 1204.37 263.804 1257.08 200.914 1328.15C88.2036 1455.6 48.5297 1631.93 28.4435 1796.21C6.48273 1975.85 7.46295 2157.25 -10.1125 2337.25C-24.5753 2484.92 -47.1896 2655.43 -148.653 2771.6C-244.355 2881.18 -389.568 2902 -526.302 2914.8C-531.65 2915.33 -536.964 2916.1 -542.278 2917H170.698C247.81 2752.01 261.293 2559.71 250.459 2377.11Z" fill="#EFEBD7" fill-opacity="0.43"/>
<path d="M1061.54 -109.113C1069.66 27.037 1089.18 162.121 1103.76 297.634C1117.93 429.691 1129.11 564.499 1108.8 696.522C1089.88 819.688 1033.22 933.412 933.114 1010.08C853.044 1071.42 758.89 1105.06 662.483 1130.35C661.313 1130.66 660.178 1130.96 659.009 1131.25C658.888 1131.27 658.837 1131.3 658.751 1131.32C658.287 1131.44 657.839 1131.54 657.392 1131.66C657.117 1131.75 656.859 1131.8 656.618 1131.85C656.412 1131.92 656.223 1131.97 656.034 1132.02C654.796 1132.33 653.575 1132.64 652.371 1132.93C651.098 1133.28 649.808 1133.6 648.536 1133.91C648.347 1133.97 648.123 1134.03 647.917 1134.09C645.715 1134.64 643.514 1135.22 641.313 1135.75C648.931 1135.2 656.498 1134.58 664.082 1133.91C736.688 1127.59 807.867 1116.7 877.516 1093.55C967.612 1063.63 1048.2 1010.92 1111.09 939.827C1223.8 812.396 1263.44 636.074 1283.56 471.755C1305.52 292.148 1304.54 110.753 1322.15 -69.2498C1336.58 -216.956 1359.19 -387.431 1460.65 -503.598C1556.36 -613.178 1701.57 -634.004 1838.3 -646.799C1843.65 -647.332 1848.97 -648.106 1854.28 -649H1141.3C1064.19 -484.011 1050.71 -291.695 1061.54 -109.113Z" fill="#EFEBD7" fill-opacity="0.43"/>
</g>
</svg>
