<svg width="1440" height="447" viewBox="0 0 1440 447" fill="none" xmlns="http://www.w3.org/2000/svg">
<g clip-path="url(#clip0_243_3751)">
<rect width="1440" height="447" fill="#E9557F"/>
<g opacity="0.59">
<path d="M1761.25 256.849C1762.88 277.702 1763.77 297.865 1762.75 317.623C1559.22 333.689 1361.4 275.146 1159.93 275.146C1123.25 275.146 1086.58 286.141 1059.15 312.592C1041.99 326.062 1026.41 342.168 1011.85 359.937C968.112 413.084 933.587 480.592 893.666 534.266C859.871 577.23 807.698 555.728 773.944 522.014C687.977 436.087 629.637 322.573 512.958 282.733C334.937 221.391 193.714 129.298 34.0709 18.8257C15.6522 3.49027 -11.9758 15.7829 -30.3947 31.1184C-107.153 110.879 -131.698 261.19 -254.503 258.148C-414.145 255.105 -509.322 344.075 -555.369 491.343C-564.578 522.014 -607.542 518.971 -638.253 509.762C-755.298 471.383 -854.329 389.878 -962.529 333.324C-984.152 322.005 -1006.14 311.659 -1028.78 302.856C-1175.8 242.163 -1333.46 286.141 -1486.2 272.996L-1487.38 272.915C-1483.61 253.157 -1481.26 232.913 -1480.69 211.938C-1480.57 192.303 -1480.57 173.235 -1480.57 154.775V138.75H-1374.15C-1357.11 138.75 -1338.25 138.75 -1317.27 139.115C-1107.93 138.507 -939.079 267.357 -757.935 362.493C-721.097 380.871 -665.841 390.081 -653.548 350.201C-592.125 196.806 -466.278 120.088 -303.552 129.338C-272.881 129.338 -242.129 107.836 -217.625 83.2912C-134.7 -5.67854 3.40015 -211.206 95.5343 -76.2296C190.671 61.8298 328.852 117.045 479.285 150.8C623.552 184.554 672.682 334.865 792.404 417.709C829.281 442.213 866.078 411.542 887.581 380.871C922.876 331.782 953.588 274.254 991.358 227.639C1003.98 212.101 1017.36 197.779 1032.01 185.365C1211.29 73.595 1438.64 190.801 1636.66 183.539C1669.69 183.539 1706.36 183.539 1740.32 179.726L1741.58 179.604C1750.18 204.392 1757.11 230.033 1761.33 256.809L1761.25 256.849Z" fill="#F3EED7" fill-opacity="0.3"/>
<path d="M1674.76 26.2113L1672.29 26.5359C1621.94 25.9679 1574.27 29.6598 1522.95 25.9679C1394.58 14.9735 1266.3 3.97903 1137.66 5.92639C1113.31 4.01962 1091.45 6.57553 1071.53 12.661C972.009 43.129 921.256 161.999 859.873 248.94C838.412 279.611 795.408 301.072 767.78 273.485C620.43 141.552 488.415 9.65884 282.726 -11.8432C252.015 -14.886 227.47 -45.5974 230.513 -79.3515C236.639 -146.86 196.758 -198.992 129.21 -208.242C-54.9778 -229.704 -171.616 -91.6442 -315.923 -11.8838C-334.342 0.368317 -355.804 3.45163 -376.17 4.38474C-396.657 5.88583 -417.267 5.88583 -437.755 5.88583C-458.243 5.88583 -478.609 5.88583 -498.731 5.92639C-610.664 -5.79831 -687.381 86.2548 -724.259 184.434C-736.512 224.314 -782.599 245.776 -825.562 227.397C-1006.71 144.513 -1172.48 31.0392 -1372.2 8.80685C-1408.11 6.00754 -1434.84 5.84525 -1452.94 5.84525H-1480.6V-126.981C-1480.6 -126.981 -1471.03 -126.981 -1452.69 -126.494C-1258.4 -122.396 -1098.76 0.368347 -914.573 55.584C-880.819 64.7933 -843.981 58.6267 -822.479 24.9131C-776.432 -54.8473 -718.093 -140.734 -617.885 -126.697C-598.533 -126.981 -578.816 -126.981 -558.937 -126.981H-437.755C-417.267 -126.981 -396.657 -127.265 -375.926 -128.969C-358.887 -131.565 -340.468 -134.648 -325.133 -140.774C-180.826 -211.204 -39.6018 -290.964 126.167 -278.753C224.386 -272.627 347.192 -241.915 368.694 -125.317C371.777 -116.108 377.903 -106.898 387.112 -100.772C497.625 -57.8089 595.844 3.53281 684.855 83.2932C740.111 135.426 810.743 126.257 847.581 58.7484C896.711 -33.3047 970.345 -137.569 1088.16 -126.859H1137.53C1302.86 -131.606 1464.2 -124.303 1629.2 -124.303C1634.96 -70.8318 1653.3 -21.9451 1674.72 26.1708L1674.76 26.2113Z" fill="#F3EED7" fill-opacity="0.3"/>
<path d="M1726.08 437.425C1707.74 475.236 1687.46 512.601 1669.73 550.737L1667.05 550.331C1519.21 553.617 1376.29 535.28 1230.92 537.186C1215.91 537.186 1200.62 537.186 1185.16 537.389C1041.02 543.515 1044.1 721.455 958.131 798.132C908.96 841.096 841.452 782.797 801.531 742.916C605.092 552.725 417.781 356.326 138.416 298.067C116.914 291.941 95.4528 313.403 92.3695 331.822C61.6581 506.678 -73.399 549.682 -226.875 555.767C-245.294 555.767 -263.753 574.227 -276.046 592.605C-303.674 647.821 -300.591 746.04 -377.349 742.957C-541.211 740.279 -681.542 653.054 -829.257 588.102C-850.353 578.852 -871.612 570.007 -893.114 561.934C-1120.75 502.377 -1355.45 579.298 -1586.9 550.088H-1587.55C-1587.22 548.83 -1586.86 547.572 -1586.49 546.315C-1571.52 500.065 -1551.73 456.209 -1533.27 412.272C-1321.65 443.389 -1091.14 352.309 -892.708 459.373C-866.743 472.964 -841.347 487.975 -816.193 503.311C-715.702 564.652 -618.821 631.471 -500.154 635.609C-411.103 635.609 -429.522 525.137 -395.767 463.755C-380.391 442.293 -361.973 417.749 -337.428 417.749C-168.576 423.875 -42.6877 350.24 21.7778 187.636C34.0706 150.799 86.2434 153.882 123.081 175.344C261.262 261.23 393.276 322.612 534.46 393.204C672.641 460.712 780.07 761.335 921.253 647.821C980.607 600.8 1014.04 506.029 1072.46 449.555C1087.06 435.437 1103.25 423.712 1121.87 415.761C1152.54 403.427 1185.57 403.427 1218.55 403.427C1390.69 414.381 1555.48 447.324 1726.08 437.425Z" fill="#F3EED7" fill-opacity="0.3"/>
<path d="M1627.7 670.785H1628.19C1623.84 693.179 1621.69 716.142 1622.51 739.794C1622.38 760.972 1622.38 781.987 1622.38 802.759H1316.04C1169.91 785.922 1136.15 942.36 1080.86 1046.66C1062.48 1074.29 1028.68 1086.55 997.972 1068.13C816.828 954.612 687.896 810.426 531.337 672.367C460.705 611.025 331.815 469.842 264.266 568.021C190.591 669.284 169.129 795.05 43.241 853.349C34.0316 859.475 18.6556 871.809 15.5723 884.02C-27.3912 994.492 -131.778 1034.37 -236.164 979.157C-378.929 905.522 -530.296 857.772 -685.678 827.831C-711.562 822.841 -737.567 818.338 -763.694 814.199C-944.839 788.194 -1128.17 802.84 -1312.44 812.577C-1340.27 813.51 -1368.1 814.24 -1395.9 814.565C-1451.44 815.254 -1506.93 814.565 -1562.35 811.116L-1563.25 811.238C-1564.91 807.181 -1566.57 803.205 -1568.2 799.189C-1581.83 761.743 -1592.25 722.755 -1597 683.28C-1358.25 703.728 -1120.38 659.953 -880.901 675.41C-852.867 681.942 -825.442 689.285 -798.422 697.196C-609.366 752.574 -441.488 836.107 -245.414 865.642C-226.995 868.725 -205.534 859.516 -199.367 844.181C-153.32 727.583 -48.8933 687.703 64.6619 657.032C135.253 635.57 144.463 552.726 159.798 485.218C175.174 417.71 236.557 405.417 291.813 433.045C460.665 506.68 586.512 632.487 718.527 758.294C798.368 831.928 884.296 945.403 1000.97 936.234C1025.56 933.191 1037.81 902.48 1047.02 881.018C1083.9 792.008 1114.57 663.158 1230.68 669.933H1383.39C1404.65 669.933 1424.77 669.933 1443.55 669.933C1504.45 670.866 1566.84 670.866 1627.58 670.744L1627.7 670.785Z" fill="#F3EED7" fill-opacity="0.3"/>
</g>
</g>
<defs>
<clipPath id="clip0_243_3751">
<rect width="1440" height="447" fill="white"/>
</clipPath>
</defs>
</svg>
