<svg width="1440" height="554" viewBox="0 0 1440 554" fill="none" xmlns="http://www.w3.org/2000/svg">
<g clip-path="url(#clip0_243_3700)">
<rect width="1440" height="554" fill="#E9557F"/>
<g opacity="0.4">
<path d="M690.155 368.109C690.355 367.951 690.565 367.814 690.786 367.667C690.702 367.699 690.618 367.72 690.533 367.73C690.407 367.856 690.27 367.993 690.155 368.109Z" fill="url(#paint0_radial_243_3700)" fill-opacity="0.5"/>
<path d="M671.309 -220.696C719.397 -155.149 767.169 -87.3815 797.808 -11.6208C827.374 61.5104 834.063 141.1 803.414 215.062C779.78 272.08 740.17 318.695 696.815 361.577C696.615 362.334 696.394 363.102 696.184 363.859C696.236 363.849 696.268 363.828 696.342 363.817C698.151 362.565 699.918 361.303 701.748 360.083C700.77 360.998 699.812 361.955 698.845 362.891C734.269 338.08 767.474 311.417 796.84 279.211C834.873 237.507 862.714 185.98 874.652 130.697C896.719 28.5051 866.732 -75.8328 827.437 -169.937C785.723 -269.836 731.356 -363.74 685.708 -461.768C648.632 -541.357 607.896 -634.63 616.647 -725H406.436C416.354 -616.665 466.209 -513.2 525.919 -421.905C571.22 -352.591 622.379 -287.401 671.309 -220.696Z" fill="url(#paint1_radial_243_3700)" fill-opacity="0.5"/>
<path d="M698.464 363.27C698.601 363.143 698.727 363.007 698.843 362.891C699.811 361.955 700.768 360.998 701.746 360.083C699.916 361.303 698.149 362.565 696.34 363.817C697.055 363.638 697.749 363.459 698.464 363.27Z" fill="url(#paint2_radial_243_3700)" fill-opacity="0.5"/>
<path d="M717.692 951.696C669.625 886.149 621.831 818.382 591.192 742.621C561.626 669.49 554.937 589.9 585.586 515.938C609.22 458.92 648.831 412.305 692.186 369.423C692.385 368.666 692.606 367.898 692.817 367.141C692.144 367.32 691.449 367.498 690.787 367.667C690.566 367.814 690.355 367.951 690.156 368.109C654.731 392.92 621.526 419.583 592.16 451.789C554.127 493.493 526.286 545.02 514.348 600.303C492.282 702.495 522.289 806.833 561.574 900.958C603.277 1000.84 657.645 1094.74 703.314 1192.77C740.368 1272.36 781.104 1365.63 772.353 1456H982.575C972.646 1347.67 922.791 1244.2 863.081 1152.9C817.78 1083.59 766.621 1018.4 717.692 951.696Z" fill="url(#paint3_radial_243_3700)" fill-opacity="0.5"/>
<path d="M-156.054 -546.553C-107.745 -394.968 23.5928 -297.814 160.084 -229.458C234.688 -192.119 312.195 -161.165 388.45 -127.423C460.624 -95.4698 533.418 -61.276 595.895 -12.3571C656.72 35.2787 701.926 99.4381 713.086 177.061C722.068 239.442 710.982 300.941 694.553 360.935C694.742 361.714 694.942 362.502 695.153 363.281C696.099 361.24 697.077 359.21 698.066 357.18C697.666 358.516 697.309 359.841 696.941 361.177C715.778 320.757 731.629 279.779 740.811 235.803C752.412 180.332 749.457 122.441 731.965 68.5995C700.222 -29.1963 621.622 -103.842 542.022 -164.583C454.912 -231.057 359.62 -285.666 270.144 -348.731C194.962 -401.679 112.175 -464.145 76.6453 -552.19C53.2745 -610.102 61.2576 -668.771 80.0216 -725H-177.184C-180.098 -664.764 -174.649 -604.843 -156.054 -546.553Z" fill="url(#paint4_radial_243_3700)" fill-opacity="0.5"/>
<path d="M692.187 369.424C692.145 369.561 692.103 369.708 692.061 369.824C692.503 368.887 692.955 367.941 693.397 367.005C693.207 367.047 692.997 367.089 692.818 367.141C692.608 367.899 692.387 368.667 692.187 369.424Z" fill="url(#paint5_radial_243_3700)" fill-opacity="0.5"/>
<path d="M1545.05 1277.55C1496.75 1125.99 1365.42 1028.81 1228.92 960.457C1154.33 923.118 1076.81 892.164 1000.57 858.423C928.377 826.469 855.582 792.275 793.106 743.356C732.28 695.731 687.074 631.561 675.915 553.939C666.932 491.557 678.039 430.058 694.447 370.064C694.195 369.012 693.922 367.971 693.648 366.93C693.564 366.951 693.48 366.982 693.396 367.003C692.954 367.939 692.502 368.886 692.06 369.822C673.222 410.243 657.372 451.22 648.19 495.196C636.588 550.668 639.554 608.558 657.035 662.41C688.778 760.195 767.379 834.841 846.979 895.582C934.088 962.056 1029.38 1016.66 1118.86 1079.73C1194.04 1132.7 1276.83 1195.14 1312.36 1283.19C1335.73 1341.1 1327.74 1399.77 1308.98 1456H1566.18C1569.1 1395.76 1563.65 1335.84 1545.05 1277.55Z" fill="url(#paint6_radial_243_3700)" fill-opacity="0.5"/>
<path d="M696.184 363.858C696.394 363.101 696.615 362.333 696.815 361.576C696.857 361.439 696.899 361.292 696.941 361.176C697.309 359.841 697.667 358.515 698.066 357.18C697.078 359.21 696.099 361.239 695.153 363.28C695.216 363.543 695.29 363.816 695.353 364.069C695.626 363.995 695.9 363.932 696.184 363.858Z" fill="url(#paint7_radial_243_3700)" fill-opacity="0.5"/>
<path d="M-65.7998 117.467C17.4707 112.502 100.089 100.564 182.971 91.6451C263.738 82.9783 346.188 76.1417 426.934 88.5634C502.264 100.133 571.819 134.79 618.708 196.015C656.225 244.986 676.798 302.572 692.27 361.535C692.817 362.114 693.375 362.671 693.943 363.25C693.764 360.999 693.585 358.769 693.427 356.518C693.753 357.865 694.111 359.211 694.447 360.557C690.577 316.151 683.919 272.617 669.762 230.019C651.461 174.916 619.223 125.629 575.752 87.1645C497.804 18.2299 389.964 -6.035 289.486 -18.3199C179.615 -31.7513 68.6721 -31.1518 -41.4192 -41.9222C-131.737 -50.7467 -236.022 -64.5778 -307.071 -126.634C-374.091 -185.166 -386.828 -273.979 -394.654 -357.608C-394.98 -360.879 -395.453 -364.129 -396 -367.379V68.6844C-295.091 115.847 -177.469 124.093 -65.7998 117.467Z" fill="url(#paint8_radial_243_3700)" fill-opacity="0.5"/>
<path d="M694.247 366.91C694.205 366.879 694.173 366.847 694.121 366.815C693.974 366.847 693.816 366.879 693.647 366.931C693.921 367.972 694.194 369.014 694.447 370.065C694.478 370.192 694.52 370.318 694.552 370.444C694.447 369.266 694.342 368.088 694.247 366.91Z" fill="url(#paint9_radial_243_3700)" fill-opacity="0.5"/>
<path d="M1454.8 613.534C1371.53 618.499 1288.91 630.437 1206.03 639.356C1125.26 648.023 1042.81 654.859 962.065 642.438C886.736 630.868 817.181 596.211 770.292 534.986C732.774 486.015 712.201 428.44 696.729 369.466C695.909 368.614 695.078 367.762 694.247 366.91C694.342 368.088 694.447 369.266 694.552 370.444C698.423 414.851 705.081 458.384 719.238 500.982C737.539 556.085 769.776 605.372 813.258 643.837C891.195 712.771 999.036 737.036 1099.53 749.321C1209.38 762.752 1320.33 762.153 1430.42 772.923C1520.76 781.748 1625.02 795.579 1696.07 857.635C1763.09 916.167 1775.83 1004.98 1783.65 1088.61C1783.98 1091.88 1784.45 1095.13 1785 1098.38V662.338C1684.09 615.154 1566.48 606.908 1454.8 613.534Z" fill="url(#paint10_radial_243_3700)" fill-opacity="0.5"/>
<path d="M694.878 364.185C695.025 364.153 695.183 364.121 695.352 364.069C695.288 363.816 695.215 363.543 695.152 363.28C694.941 362.502 694.742 361.713 694.552 360.935C694.521 360.819 694.479 360.682 694.447 360.556C694.11 359.21 693.753 357.863 693.427 356.517C693.585 358.768 693.763 360.998 693.942 363.248C694.247 363.575 694.563 363.88 694.878 364.185Z" fill="url(#paint11_radial_243_3700)" fill-opacity="0.5"/>
<path d="M108.304 388.692C173.851 340.625 241.618 292.832 317.379 262.193C390.51 232.627 470.1 225.938 544.062 256.587C601.08 280.221 647.695 319.831 690.577 363.186C691.366 363.407 692.144 363.628 692.954 363.849C691.65 361.977 690.345 360.136 689.062 358.264C689.998 359.232 690.955 360.189 691.891 361.156C667.08 325.732 640.417 292.527 608.211 263.161C566.507 225.128 514.98 197.287 459.697 185.349C357.505 163.282 253.167 193.269 159.063 232.575C59.1638 274.278 -34.7404 328.645 -132.768 374.293C-212.357 411.369 -305.63 452.105 -396 443.354V653.576C-287.665 643.647 -184.221 593.792 -92.9045 534.082C-23.5913 488.781 41.5778 437.622 108.304 388.692Z" fill="url(#paint12_radial_243_3700)" fill-opacity="0.5"/>
<path d="M694.247 366.909C695.078 367.761 695.909 368.613 696.73 369.465C696.856 369.601 696.992 369.728 697.108 369.843C696.403 368.855 695.73 367.866 695.047 366.877C694.857 366.825 694.668 366.761 694.479 366.709C694.363 366.74 694.247 366.782 694.121 366.814C694.174 366.846 694.205 366.877 694.247 366.909Z" fill="url(#paint13_radial_243_3700)" fill-opacity="0.5"/>
<path d="M1280.7 342.309C1215.15 390.376 1147.4 438.17 1071.62 468.808C998.489 498.374 918.9 505.064 844.938 474.414C787.92 450.781 741.304 411.17 698.423 367.815C697.297 367.51 696.172 367.184 695.046 366.879C695.73 367.868 696.403 368.856 697.108 369.845C721.92 405.269 748.583 438.475 780.789 467.841C822.492 505.874 874.02 533.714 929.302 545.652C1031.49 567.719 1135.83 537.711 1229.96 498.427C1329.84 456.723 1423.74 402.356 1521.77 356.708C1601.36 319.632 1694.63 278.896 1785 287.647V77.4357C1676.66 87.3541 1573.22 137.209 1481.9 196.92C1412.61 242.22 1347.4 293.38 1280.7 342.309Z" fill="url(#paint14_radial_243_3700)" fill-opacity="0.5"/>
<path d="M694.521 364.291C694.637 364.26 694.753 364.228 694.879 364.186C694.563 363.881 694.248 363.576 693.943 363.25C693.375 362.671 692.817 362.114 692.27 361.535C692.144 361.409 692.008 361.273 691.892 361.157C690.956 360.189 689.999 359.232 689.062 358.264C690.346 360.137 691.65 361.977 692.954 363.849C693.459 363.986 693.985 364.133 694.521 364.291Z" fill="url(#paint15_radial_243_3700)" fill-opacity="0.5"/>
<path d="M-217.553 1216.05C-65.9681 1167.75 31.1861 1036.42 99.5422 899.916C136.902 825.334 167.835 747.806 201.577 671.572C233.509 599.377 267.724 526.582 316.643 464.106C364.279 403.28 428.438 358.074 506.061 346.915C568.442 337.932 629.941 349.018 689.935 365.447C690.714 365.258 691.502 365.058 692.281 364.848C690.24 363.901 688.21 362.923 686.18 361.934C687.516 362.334 688.841 362.692 690.177 363.06C649.757 344.222 608.779 328.372 564.803 319.19C509.332 307.588 451.441 310.554 397.6 328.035C299.804 359.778 225.158 438.379 164.417 517.979C97.9435 605.099 43.3343 700.381 -19.7313 789.857C-72.6996 865.039 -135.145 947.826 -223.19 983.355C-281.102 1006.75 -339.771 998.743 -396 979.979V1237.18C-335.764 1240.12 -275.843 1234.65 -217.553 1216.05Z" fill="url(#paint16_radial_243_3700)" fill-opacity="0.5"/>
<path d="M695.046 366.879C696.171 367.184 697.296 367.51 698.422 367.815C698.558 367.857 698.706 367.899 698.821 367.941C697.749 367.446 696.676 366.931 695.603 366.437C695.235 366.521 694.856 366.626 694.478 366.71C694.667 366.763 694.856 366.826 695.046 366.879Z" fill="url(#paint17_radial_243_3700)" fill-opacity="0.5"/>
<path d="M1606.55 -485.054C1454.97 -436.745 1357.81 -305.407 1289.46 -168.916C1252.12 -94.3123 1221.16 -16.8056 1187.42 59.4495C1155.47 131.624 1121.28 204.418 1072.36 266.895C1024.73 327.72 960.562 372.926 882.939 384.086C820.558 393.068 759.059 381.961 699.065 365.553C697.908 365.837 696.751 366.131 695.604 366.436C696.677 366.931 697.75 367.446 698.823 367.941C739.243 386.778 780.221 402.629 824.197 411.811C879.668 423.412 937.559 420.457 991.411 402.965C1089.2 371.222 1163.84 292.622 1224.58 213.022C1291.04 125.912 1345.67 30.6198 1408.73 -58.8563C1461.69 -134.039 1524.14 -216.825 1612.19 -252.355C1670.1 -275.726 1728.77 -267.743 1785 -248.979V-506.184C1724.76 -509.098 1664.84 -503.649 1606.55 -485.054Z" fill="url(#paint18_radial_243_3700)" fill-opacity="0.5"/>
<path d="M694.52 364.29C693.984 364.133 693.458 363.985 692.953 363.849C692.143 363.628 691.365 363.407 690.576 363.186C690.439 363.144 690.302 363.102 690.176 363.06C688.84 362.692 687.515 362.334 686.179 361.934C688.209 362.923 690.239 363.901 692.28 364.848C693.016 364.669 693.763 364.48 694.52 364.29Z" fill="url(#paint19_radial_243_3700)" fill-opacity="0.5"/>
<path d="M446.467 1125.8C441.503 1042.53 429.565 959.91 420.645 877.029C411.979 796.262 405.142 713.811 417.564 633.065C429.154 557.736 463.79 488.181 525.015 441.292C573.986 403.774 631.572 383.201 690.536 367.729C690.62 367.719 690.704 367.698 690.788 367.666C691.451 367.498 692.145 367.319 692.818 367.14C692.997 367.088 693.207 367.046 693.397 367.003C693.481 366.982 693.565 366.951 693.649 366.93C693.817 366.877 693.975 366.846 694.122 366.814C694.249 366.783 694.364 366.74 694.48 366.709C694.859 366.625 695.237 366.52 695.605 366.435C696.752 366.13 697.909 365.836 699.066 365.552C699.192 365.52 699.318 365.478 699.444 365.447C694.806 365.857 690.178 366.236 685.519 366.572C686.865 366.246 688.211 365.889 689.558 365.552C645.151 369.423 601.617 376.08 559.019 390.238C503.916 408.539 454.629 440.776 416.165 484.247C347.23 562.195 322.965 670.036 310.68 770.514C297.249 880.384 297.849 991.327 287.099 1101.42C278.254 1191.74 264.423 1296.02 202.367 1367.07C143.834 1434.09 55.0209 1446.83 -28.6073 1454.65C-31.8783 1454.98 -35.1284 1455.45 -38.3784 1456H397.685C444.847 1355.09 453.093 1237.48 446.467 1125.8Z" fill="url(#paint20_radial_243_3700)" fill-opacity="0.5"/>
<path d="M942.533 -394.8C947.498 -311.529 959.436 -228.911 968.355 -146.03C977.022 -65.2623 983.858 17.1879 971.437 97.9341C959.867 173.264 925.21 242.819 863.985 289.708C815.014 327.225 757.428 347.798 698.465 363.27C697.749 363.459 697.055 363.638 696.34 363.817C696.266 363.828 696.235 363.849 696.182 363.859C695.898 363.933 695.625 363.996 695.351 364.069C695.183 364.122 695.025 364.154 694.878 364.185C694.752 364.227 694.636 364.259 694.52 364.29C693.763 364.48 693.016 364.669 692.28 364.848C691.502 365.058 690.713 365.258 689.935 365.447C689.819 365.479 689.682 365.521 689.556 365.552C688.21 365.889 686.863 366.247 685.517 366.573C690.177 366.236 694.804 365.858 699.443 365.447C743.85 361.577 787.383 354.919 829.981 340.762C885.084 322.46 934.372 290.223 972.836 246.742C1041.77 168.804 1066.01 60.9635 1078.32 -39.5354C1091.75 -149.385 1091.15 -260.328 1101.92 -370.419C1110.75 -460.758 1124.58 -565.022 1186.63 -636.071C1245.17 -703.091 1333.98 -715.828 1417.61 -723.654C1420.88 -723.98 1424.13 -724.453 1427.38 -725H991.316C944.153 -624.091 935.907 -506.469 942.533 -394.8Z" fill="url(#paint21_radial_243_3700)" fill-opacity="0.5"/>
</g>
</g>
<defs>
<radialGradient id="paint0_radial_243_3700" cx="0" cy="0" r="1" gradientUnits="userSpaceOnUse" gradientTransform="translate(690.47 367.888) rotate(-90) scale(0.220877 0.315538)">
<stop stop-color="#DCC5A9"/>
<stop offset="1" stop-color="#FFA6B5"/>
</radialGradient>
<radialGradient id="paint1_radial_243_3700" cx="0" cy="0" r="1" gradientUnits="userSpaceOnUse" gradientTransform="translate(644.288 -180.57) rotate(-90) scale(544.43 237.852)">
<stop stop-color="#DCC5A9"/>
<stop offset="1" stop-color="#FFA6B5"/>
</radialGradient>
<radialGradient id="paint2_radial_243_3700" cx="0" cy="0" r="1" gradientUnits="userSpaceOnUse" gradientTransform="translate(699.043 361.95) rotate(-90) scale(1.86693 2.70311)">
<stop stop-color="#DCC5A9"/>
<stop offset="1" stop-color="#FFA6B5"/>
</radialGradient>
<radialGradient id="paint3_radial_243_3700" cx="0" cy="0" r="1" gradientUnits="userSpaceOnUse" gradientTransform="translate(744.719 911.57) rotate(-90) scale(544.43 237.856)">
<stop stop-color="#DCC5A9"/>
<stop offset="1" stop-color="#FFA6B5"/>
</radialGradient>
<radialGradient id="paint4_radial_243_3700" cx="0" cy="0" r="1" gradientUnits="userSpaceOnUse" gradientTransform="translate(284.912 -180.86) rotate(-90) scale(544.14 462.834)">
<stop stop-color="#DCC5A9"/>
<stop offset="1" stop-color="#FFA6B5"/>
</radialGradient>
<radialGradient id="paint5_radial_243_3700" cx="0" cy="0" r="1" gradientUnits="userSpaceOnUse" gradientTransform="translate(692.729 368.414) rotate(-90) scale(1.4094 0.667889)">
<stop stop-color="#DCC5A9"/>
<stop offset="1" stop-color="#FFA6B5"/>
</radialGradient>
<radialGradient id="paint6_radial_243_3700" cx="0" cy="0" r="1" gradientUnits="userSpaceOnUse" gradientTransform="translate(1104.09 911.464) rotate(-90) scale(544.535 462.833)">
<stop stop-color="#DCC5A9"/>
<stop offset="1" stop-color="#FFA6B5"/>
</radialGradient>
<radialGradient id="paint7_radial_243_3700" cx="0" cy="0" r="1" gradientUnits="userSpaceOnUse" gradientTransform="translate(696.61 360.624) rotate(-90) scale(3.44463 1.45673)">
<stop stop-color="#DCC5A9"/>
<stop offset="1" stop-color="#FFA6B5"/>
</radialGradient>
<radialGradient id="paint8_radial_243_3700" cx="0" cy="0" r="1" gradientUnits="userSpaceOnUse" gradientTransform="translate(149.224 -2.06445) rotate(-90) scale(365.314 545.224)">
<stop stop-color="#DCC5A9"/>
<stop offset="1" stop-color="#FFA6B5"/>
</radialGradient>
<radialGradient id="paint9_radial_243_3700" cx="0" cy="0" r="1" gradientUnits="userSpaceOnUse" gradientTransform="translate(694.1 368.63) rotate(-90) scale(1.81434 0.452271)">
<stop stop-color="#DCC5A9"/>
<stop offset="1" stop-color="#FFA6B5"/>
</radialGradient>
<radialGradient id="paint10_radial_243_3700" cx="0" cy="0" r="1" gradientUnits="userSpaceOnUse" gradientTransform="translate(1239.62 732.645) rotate(-90) scale(365.735 545.376)">
<stop stop-color="#DCC5A9"/>
<stop offset="1" stop-color="#FFA6B5"/>
</radialGradient>
<radialGradient id="paint11_radial_243_3700" cx="0" cy="0" r="1" gradientUnits="userSpaceOnUse" gradientTransform="translate(694.389 360.351) rotate(-90) scale(3.83379 0.962391)">
<stop stop-color="#DCC5A9"/>
<stop offset="1" stop-color="#FFA6B5"/>
</radialGradient>
<radialGradient id="paint12_radial_243_3700" cx="0" cy="0" r="1" gradientUnits="userSpaceOnUse" gradientTransform="translate(148.477 415.719) rotate(-90) scale(237.857 544.477)">
<stop stop-color="#DCC5A9"/>
<stop offset="1" stop-color="#FFA6B5"/>
</radialGradient>
<radialGradient id="paint13_radial_243_3700" cx="0" cy="0" r="1" gradientUnits="userSpaceOnUse" gradientTransform="translate(695.615 368.276) rotate(-90) scale(1.56717 1.49355)">
<stop stop-color="#DCC5A9"/>
<stop offset="1" stop-color="#FFA6B5"/>
</radialGradient>
<radialGradient id="paint14_radial_243_3700" cx="0" cy="0" r="1" gradientUnits="userSpaceOnUse" gradientTransform="translate(1240.02 315.287) rotate(-90) scale(237.851 544.977)">
<stop stop-color="#DCC5A9"/>
<stop offset="1" stop-color="#FFA6B5"/>
</radialGradient>
<radialGradient id="paint15_radial_243_3700" cx="0" cy="0" r="1" gradientUnits="userSpaceOnUse" gradientTransform="translate(691.971 361.278) rotate(-90) scale(3.01339 2.90821)">
<stop stop-color="#DCC5A9"/>
<stop offset="1" stop-color="#FFA6B5"/>
</radialGradient>
<radialGradient id="paint16_radial_243_3700" cx="0" cy="0" r="1" gradientUnits="userSpaceOnUse" gradientTransform="translate(148.14 775.093) rotate(-90) scale(462.836 544.14)">
<stop stop-color="#DCC5A9"/>
<stop offset="1" stop-color="#FFA6B5"/>
</radialGradient>
<radialGradient id="paint17_radial_243_3700" cx="0" cy="0" r="1" gradientUnits="userSpaceOnUse" gradientTransform="translate(696.649 367.189) rotate(-90) scale(0.752033 2.17195)">
<stop stop-color="#DCC5A9"/>
<stop offset="1" stop-color="#FFA6B5"/>
</radialGradient>
<radialGradient id="paint18_radial_243_3700" cx="0" cy="0" r="1" gradientUnits="userSpaceOnUse" gradientTransform="translate(1240.3 -44.0877) rotate(-90) scale(462.834 544.698)">
<stop stop-color="#DCC5A9"/>
<stop offset="1" stop-color="#FFA6B5"/>
</radialGradient>
<radialGradient id="paint19_radial_243_3700" cx="0" cy="0" r="1" gradientUnits="userSpaceOnUse" gradientTransform="translate(690.35 363.391) rotate(-90) scale(1.45673 4.17036)">
<stop stop-color="#DCC5A9"/>
<stop offset="1" stop-color="#FFA6B5"/>
</radialGradient>
<radialGradient id="paint20_radial_243_3700" cx="0" cy="0" r="1" gradientUnits="userSpaceOnUse" gradientTransform="translate(330.533 910.723) rotate(-90) scale(545.276 368.911)">
<stop stop-color="#DCC5A9"/>
<stop offset="1" stop-color="#FFA6B5"/>
</radialGradient>
<radialGradient id="paint21_radial_243_3700" cx="0" cy="0" r="1" gradientUnits="userSpaceOnUse" gradientTransform="translate(1056.45 -179.214) rotate(-90) scale(545.786 370.931)">
<stop stop-color="#DCC5A9"/>
<stop offset="1" stop-color="#FFA6B5"/>
</radialGradient>
<clipPath id="clip0_243_3700">
<rect width="1440" height="554" fill="white"/>
</clipPath>
</defs>
</svg>
