<svg width="811" height="294" viewBox="0 0 811 294" fill="none" xmlns="http://www.w3.org/2000/svg">
<path d="M805.473 16.2697L804.835 15.004C802.99 11.3411 797.424 2.95116 784.849 2.95116H701.808C694.746 2.95116 687.928 4.91147 681.518 8.86439C680.381 9.56638 679.299 10.3233 678.223 11.1421L676.297 12.6079L674.483 11.0061C669.458 6.57036 661.733 2.95116 649.569 2.95116H578.195C573.789 2.95116 569.654 3.94824 565.9 5.77691L564.51 6.45374L563.163 5.69698C560.324 4.10307 556.695 2.95116 552.016 2.95116H519.459C512.521 2.95116 506.235 5.36492 501.121 9.81295L499.288 11.4073L497.372 9.91476C492.354 6.00748 484.926 2.95116 473.741 2.95116H346.761C339.801 2.95116 333.47 5.38985 328.358 9.86033L326.519 11.4686L324.595 9.96197C319.579 6.03236 312.131 2.95116 300.901 2.95116H249.065C242.718 2.95116 237.34 3.36302 232.583 4.16914C228.253 4.91048 224.204 6.21738 220.451 8.03687L218.763 8.85506L217.305 7.67408C214.156 5.12225 209.632 2.95116 203.205 2.95116H118.812C111.75 2.95116 104.932 4.91147 98.522 8.86439L98.5143 8.86916C92.0667 12.8181 86.8943 18.2885 83.1247 25.1282L83.1186 25.1393L83.1125 25.1503L32.3914 115.345L32.3873 115.352L32.3833 115.36C24.3971 129.378 27.5906 140.292 30.0603 145.433C31.8318 149.119 36.8504 156.952 47.8515 159.064L51.8689 159.835L49.87 163.405L30.8895 197.296C28.4835 201.783 27.4414 205.892 27.1653 209.466L27.0611 210.814L25.9719 211.616C22.4494 214.207 19.3726 217.714 16.9005 222.063L16.896 222.071L16.8916 222.079L9.83789 234.316C-0.0671898 252.214 2.58697 265.323 6.2592 273.074C7.84401 276.401 10.6872 280.818 15.5585 284.4C20.3952 287.957 27.3937 290.813 37.5256 290.813H102.522C109.627 290.813 116.441 288.829 122.825 284.854L122.834 284.848C123.753 284.28 124.589 283.654 125.562 282.924C125.746 282.786 125.935 282.645 126.13 282.499L128.065 281.056L129.863 282.667C134.861 287.145 142.65 290.839 154.903 290.839H206.738C213.204 290.839 218.653 290.401 223.377 289.5L223.386 289.498C229.208 288.407 234.574 286.357 239.367 283.386C240.322 282.786 241.249 282.127 242.265 281.395L244.296 279.931L246.071 281.696C251.038 286.633 259.015 290.839 272.161 290.839H323.997C330.462 290.839 335.912 290.401 340.635 289.5L340.639 289.499C344.824 288.706 348.797 287.395 352.472 285.62L354.175 284.798L355.634 286.001C358.777 288.594 363.341 290.813 369.857 290.813H402.414C406.689 290.813 410.756 289.863 414.434 288.087L415.804 287.426L417.138 288.159C419.951 289.704 423.564 290.813 428.189 290.813H460.747C471.257 290.813 480.595 285.113 486.343 274.864L486.344 274.863L533.532 190.81L533.536 190.803C540.015 179.337 541.506 170.022 540.941 162.824L540.691 159.641H543.883H545.969C550.245 159.641 554.312 158.691 557.989 156.916L559.36 156.255L560.693 156.987C563.506 158.533 567.12 159.641 571.745 159.641H604.302C609.607 159.641 614.569 158.195 618.916 155.492L620.511 154.501L622.085 155.526C625.645 157.844 630.47 159.641 637.002 159.641H721.395C732.072 159.641 741.437 153.919 746.956 143.896L746.963 143.884L746.97 143.872L773.155 97.3876C773.158 97.3821 773.161 97.3765 773.164 97.3709C777.095 90.1865 778.134 83.8707 777.94 78.81L777.875 77.0975L779.33 76.1919C783.636 73.512 787.403 69.5375 790.265 64.4209L790.268 64.4158L803.45 40.9514C803.451 40.9504 803.451 40.9493 803.452 40.9483M805.473 16.2697L807.519 13.6763C809.605 17.7975 813.613 28.8488 806.025 42.3938L803.452 40.9483M805.473 16.2697C807.337 20.6176 809.698 29.7955 803.452 40.9483M805.473 16.2697L803.452 40.9483" fill="white" stroke="#E82676" stroke-width="5.90232"/>
<g filter="url(#filter0_d_639_4420)">
<path d="M100.472 37.0746L100.477 37.0651L100.482 37.0554C102.403 33.5514 105.031 30.7878 108.388 28.7126C111.748 26.6354 115.229 25.6252 118.789 25.6252H203.182C204.132 25.6252 204.732 25.7439 205.077 25.88C205.24 25.9441 205.319 26.0012 205.35 26.0277C205.365 26.0407 205.371 26.0486 205.373 26.0507C205.374 26.0526 205.375 26.0541 205.377 26.0572C205.378 26.0606 205.398 26.1014 205.404 26.2079C205.411 26.3192 205.403 26.4951 205.348 26.7494C205.237 27.269 204.96 27.9895 204.432 28.9356L182.459 66.7734L182.451 66.7876L182.443 66.8019C180.393 70.4694 177.713 72.0777 174.277 72.0777H141.719C140.743 72.0777 140.116 71.9585 139.746 71.8165C139.57 71.7492 139.48 71.6875 139.441 71.655C139.409 71.6284 139.404 71.6156 139.403 71.6131L139.402 71.6128C139.4 71.6087 139.381 71.5699 139.373 71.4681C139.365 71.3612 139.371 71.1898 139.423 70.9394C139.529 70.4273 139.801 69.7123 140.327 68.769L158.358 37.8432C158.359 37.8417 158.36 37.8403 158.361 37.8388C159.004 36.7445 159.489 35.6715 159.72 34.6456C159.952 33.6131 159.958 32.4818 159.44 31.4385C158.378 29.2964 155.876 28.8177 153.647 28.8177C151.154 28.8177 148.922 29.396 146.958 30.6197C145.008 31.8344 143.443 33.6093 142.151 35.8197L142.142 35.8345L142.134 35.8495L92.2033 124.744C91.5643 125.839 91.0834 126.91 90.8537 127.933C90.6218 128.965 90.6152 130.097 91.1345 131.14C92.1996 133.281 94.7065 133.749 96.9265 133.749C99.4193 133.749 101.651 133.171 103.616 131.947C105.566 130.732 107.131 128.957 108.423 126.747L108.432 126.732L108.44 126.716L125.782 95.7963C128.032 92.0863 130.781 90.489 134.084 90.489H166.641C167.646 90.489 168.289 90.6093 168.665 90.7522C168.871 90.8306 168.953 90.8965 168.979 90.9243C168.99 90.959 169.03 91.1352 168.927 91.5574C168.8 92.0746 168.495 92.7989 167.917 93.7548L167.9 93.7829L167.884 93.8115L146.59 131.821L146.587 131.828L146.583 131.835C144.655 135.339 141.932 136.968 138.305 136.968H53.8172C50.0979 136.968 48.6011 135.92 48.0374 134.727C47.4023 133.383 47.513 131.136 49.6005 127.493L49.6045 127.487L49.6084 127.48L100.472 37.0746Z" fill="url(#paint0_linear_639_4420)" stroke="#E9557F" stroke-width="4"/>
<path d="M274.331 113.051L274.326 113.061L274.32 113.071C271.558 118.124 268.939 122.169 266.493 125.257C264.076 128.307 261.492 130.663 258.726 132.388C255.973 134.105 252.844 135.284 249.311 135.952C245.728 136.63 241.309 136.967 236.048 136.967H184.213C175.949 136.967 171.854 134.836 170.346 131.654C168.757 128.298 169.501 122.931 173.89 115.004C173.891 115.002 173.892 115.001 173.893 114.999L210.663 49.5202C210.663 49.5192 210.664 49.5182 210.664 49.5171C213.527 44.452 216.176 40.3695 218.632 37.2182C221.053 34.1121 223.616 31.7335 226.33 30.0129C229.018 28.3091 232.13 27.1585 235.702 26.5407C239.346 25.9103 243.801 25.5987 249.067 25.5987H300.902C309.166 25.5987 313.261 27.7301 314.769 30.9124C316.353 34.2577 315.576 39.6188 311.11 47.5554L311.109 47.5569L274.331 113.051ZM259.41 35.8194L259.401 35.8343L259.393 35.8492L209.462 124.743C208.823 125.839 208.342 126.91 208.113 127.933C207.881 128.965 207.874 130.097 208.393 131.14C209.459 133.281 211.965 133.749 214.186 133.749C216.678 133.749 218.91 133.17 220.875 131.947C222.825 130.732 224.39 128.957 225.682 126.747L225.69 126.732L225.699 126.717L275.628 37.8251C276.267 36.7354 276.749 35.6671 276.979 34.6453C277.211 33.6128 277.217 32.4815 276.699 31.4382C275.637 29.2962 273.135 28.8174 270.906 28.8174C268.413 28.8174 266.181 29.3957 264.217 30.6194C262.267 31.8341 260.702 33.609 259.41 35.8194Z" fill="url(#paint1_linear_639_4420)" stroke="#E9557F" stroke-width="4"/>
<path d="M314.394 136.968H281.908C281.008 136.968 280.443 136.851 280.117 136.719C279.836 136.606 279.8 136.514 279.798 136.507L279.797 136.507C279.78 136.472 279.697 136.271 279.783 135.748C279.868 135.231 280.099 134.523 280.549 133.599L338.45 30.9075L338.46 30.8891L338.47 30.8705C339.465 29.0161 340.649 27.7266 341.976 26.8947C343.296 26.0673 344.863 25.6252 346.738 25.6252H473.719C481.982 25.6252 486.078 27.7566 487.585 30.9389C489.17 34.2843 488.393 39.6453 483.927 47.5819L436.573 131.686L436.548 131.732L436.525 131.778C435.611 133.617 434.489 134.887 433.202 135.705C431.92 136.521 430.349 136.968 428.404 136.968H395.847C394.946 136.968 394.381 136.851 394.055 136.719C393.775 136.606 393.739 136.514 393.736 136.507L393.736 136.507C393.719 136.472 393.636 136.271 393.722 135.748C393.807 135.231 394.038 134.523 394.488 133.599L448.444 37.8525C449.083 36.7625 449.565 35.6939 449.795 34.6719C450.027 33.6393 450.033 32.508 449.515 31.4647C448.453 29.3227 445.951 28.844 443.722 28.844C441.229 28.844 438.997 29.4223 437.033 30.6459C435.083 31.8606 433.518 33.6356 432.226 35.846L432.218 35.8596L432.21 35.8733L378.217 131.686L378.191 131.731L378.168 131.778C377.254 133.617 376.133 134.887 374.846 135.705C373.563 136.521 371.993 136.968 370.047 136.968H340.193C339.3 136.968 338.738 136.851 338.413 136.72C338.125 136.603 338.092 136.508 338.09 136.503C338.071 136.466 337.988 136.265 338.073 135.744C338.156 135.228 338.385 134.522 338.834 133.599L392.79 37.8528C393.43 36.7627 393.912 35.694 394.142 34.6719C394.374 33.6393 394.38 32.508 393.862 31.4647C392.8 29.3227 390.298 28.844 388.069 28.844C385.576 28.844 383.344 29.4223 381.38 30.6459C379.43 31.8606 377.865 33.6356 376.573 35.846L376.565 35.8596L376.557 35.8733L322.564 131.686L322.538 131.731L322.515 131.778C321.601 133.617 320.48 134.887 319.193 135.705C317.91 136.521 316.339 136.968 314.394 136.968Z" fill="url(#paint2_linear_639_4420)" stroke="#E9557F" stroke-width="4"/>
<path d="M511.173 30.9057L511.183 30.8882L511.192 30.8705C512.187 29.0161 513.371 27.7266 514.698 26.8947C516.018 26.0673 517.585 25.6252 519.46 25.6252H552.018C552.94 25.6252 553.517 25.743 553.848 25.8755C554.003 25.9377 554.078 25.9931 554.108 26.0192C554.133 26.0406 554.138 26.0507 554.141 26.0567L554.141 26.0572C554.147 26.0697 554.229 26.2542 554.124 26.7777C554.02 27.2994 553.756 28.0195 553.252 28.9628L495.475 131.687L495.472 131.692C493.431 135.343 490.711 136.968 487.188 136.968H454.63C453.68 136.968 453.081 136.849 452.735 136.713C452.572 136.649 452.494 136.592 452.463 136.565C452.448 136.552 452.441 136.544 452.44 136.542C452.438 136.54 452.437 136.539 452.436 136.536C452.434 136.532 452.415 136.492 452.408 136.385C452.401 136.274 452.41 136.098 452.464 135.844C452.576 135.322 452.855 134.598 453.387 133.646C453.387 133.645 453.388 133.644 453.388 133.644L511.173 30.9057Z" fill="url(#paint3_linear_639_4420)" stroke="#E9557F" stroke-width="4"/>
<path d="M569.909 30.9057L569.919 30.8882L569.929 30.8705C570.923 29.0161 572.108 27.7266 573.435 26.8947C574.754 26.0673 576.321 25.6252 578.197 25.6252H649.571C657.835 25.6252 661.93 27.7566 663.438 30.9389C665.022 34.2843 664.246 39.6453 659.779 47.5819L659.778 47.5837L612.567 131.689L612.565 131.692C610.524 135.343 607.804 136.968 604.28 136.968H571.723C570.773 136.968 570.174 136.849 569.828 136.713C569.665 136.649 569.586 136.592 569.556 136.565C569.552 136.562 569.549 136.559 569.547 136.557C569.538 136.549 569.534 136.544 569.533 136.542C569.531 136.54 569.53 136.539 569.529 136.536C569.527 136.532 569.508 136.492 569.501 136.385C569.494 136.274 569.502 136.098 569.557 135.844C569.669 135.322 569.948 134.598 570.479 133.647C570.48 133.646 570.481 133.645 570.481 133.644L624.344 37.8522C624.985 36.7603 625.466 35.6866 625.689 34.6572C625.916 33.6136 625.905 32.4747 625.363 31.4312C624.812 30.3712 623.874 29.7179 622.86 29.3451C621.871 28.9813 620.715 28.844 619.48 28.844C614.581 28.844 610.773 31.3176 608.126 35.846L608.118 35.8606L608.109 35.8753L554.258 131.688L554.256 131.692C552.215 135.343 549.495 136.968 545.971 136.968H513.414H513.367C512.417 136.968 511.817 136.849 511.471 136.713C511.308 136.649 511.23 136.592 511.199 136.565C511.184 136.552 511.178 136.544 511.176 136.542C511.175 136.54 511.174 136.539 511.172 136.536C511.171 136.532 511.151 136.492 511.145 136.385C511.138 136.274 511.146 136.098 511.201 135.844C511.312 135.322 511.591 134.598 512.123 133.646C512.124 133.645 512.124 133.644 512.125 133.644L569.909 30.9057Z" fill="url(#paint4_linear_639_4420)" stroke="#E9557F" stroke-width="4"/>
<path d="M755.692 85.6536L729.656 131.863L729.651 131.861C727.723 135.366 725.001 136.994 721.373 136.994H636.98C633.261 136.994 631.764 135.946 631.2 134.753C630.565 133.409 630.676 131.162 632.764 127.52L632.768 127.512L632.772 127.504L683.517 37.099L683.522 37.0903L683.527 37.0815C685.448 33.5775 688.076 30.8139 691.433 28.7387C694.793 26.6614 698.273 25.6513 701.834 25.6513H784.875C785.825 25.6513 786.425 25.77 786.77 25.9061C786.933 25.9702 787.012 26.0273 787.043 26.0538C787.058 26.0668 787.064 26.0747 787.066 26.0768C787.067 26.0787 787.068 26.0802 787.07 26.0833C787.071 26.0867 787.091 26.1274 787.097 26.234C787.104 26.3453 787.096 26.5212 787.041 26.7755C786.929 27.2971 786.65 28.0212 786.119 28.9729C786.118 28.9738 786.118 28.9746 786.117 28.9755L772.959 52.4135L772.957 52.4168C770.916 56.0681 768.196 57.6926 764.672 57.6926H733.466C732.516 57.6926 731.917 57.5739 731.571 57.4378C731.408 57.3736 731.33 57.3166 731.299 57.2901C731.284 57.277 731.278 57.2691 731.276 57.267C731.274 57.2651 731.274 57.2637 731.272 57.2605C731.27 57.2572 731.251 57.2164 731.245 57.1099C731.238 56.9985 731.246 56.8227 731.3 56.5683C731.412 56.0463 731.692 55.3213 732.224 54.3683L732.225 54.368L741.444 37.8646C741.445 37.8632 741.446 37.8617 741.447 37.8603C742.065 36.7644 742.527 35.6917 742.741 34.6685C742.956 33.639 742.948 32.5202 742.437 31.4908C741.38 29.3601 738.921 28.8701 736.715 28.8701C734.264 28.8701 732.036 29.4512 730.067 30.6686C728.11 31.8786 726.518 33.6499 725.219 35.872L725.21 35.8869L725.202 35.9019L675.269 124.801C674.091 126.846 673.407 129.217 674.595 131.239L674.603 131.253L674.612 131.268C675.765 133.159 677.818 133.801 679.971 133.801H715.374C717.006 133.801 718.525 133.423 719.857 132.601C721.171 131.789 722.19 130.615 722.951 129.185C723.356 128.502 723.687 127.795 723.856 127.087C724.029 126.359 724.064 125.471 723.645 124.619C723.214 123.741 722.464 123.23 721.727 122.956C721.018 122.693 720.228 122.609 719.452 122.609H696.925C696.003 122.609 695.426 122.491 695.095 122.359C694.94 122.296 694.865 122.241 694.835 122.215C694.81 122.193 694.805 122.183 694.803 122.177L694.802 122.177C694.796 122.164 694.714 121.98 694.819 121.456C694.923 120.935 695.186 120.216 695.69 119.274L717.114 81.4418L717.125 81.4219L717.136 81.4016C718.131 79.5471 719.315 78.2577 720.642 77.4258C721.962 76.5984 723.529 76.1563 725.404 76.1563H751.464C755.185 76.1563 756.645 77.204 757.189 78.3816C757.819 79.743 757.69 82.005 755.692 85.6536Z" fill="url(#paint5_linear_639_4420)" stroke="#E9557F" stroke-width="4"/>
<path d="M24.2989 262.455L24.2972 262.452C22.5451 258.783 23.1506 253.54 27.221 246.212L34.1374 234.203L34.1438 234.192L34.1501 234.181C36.191 230.529 38.9109 228.905 42.4347 228.905H74.992C75.9142 228.905 76.4918 229.023 76.8223 229.155C76.9778 229.218 77.0529 229.273 77.0829 229.299C77.0937 229.308 77.1006 229.316 77.1053 229.321C77.1116 229.329 77.1137 229.334 77.1153 229.337C77.1212 229.349 77.2032 229.534 77.0988 230.057C76.9947 230.579 76.7307 231.3 76.2259 232.244L62.9409 255.942C62.3023 257.037 61.8216 258.108 61.592 259.13C61.36 260.162 61.3535 261.294 61.8727 262.338C62.9379 264.478 65.4447 264.946 67.6648 264.946C70.1576 264.946 72.3897 264.368 74.354 263.144C76.3039 261.93 77.869 260.155 79.161 257.944L79.1705 257.928L79.1797 257.912L99.525 221.555L99.5337 221.54L99.5422 221.524C100.158 220.376 100.612 219.264 100.821 218.214C101.031 217.162 101.021 216.034 100.529 214.997C99.4902 212.805 97.0299 212.279 94.7919 212.279H49.6196C48.6974 212.279 48.1198 212.161 47.7892 212.029C47.6338 211.966 47.5587 211.911 47.5287 211.885C47.5042 211.863 47.4994 211.853 47.4966 211.847L47.4963 211.847C47.4904 211.834 47.4083 211.65 47.5128 211.126C47.6169 210.604 47.881 209.884 48.3861 208.939L71.1648 168.242L71.1691 168.234L71.1733 168.226C73.0943 164.722 75.722 161.959 79.0789 159.884C82.4391 157.806 85.9196 156.796 89.4803 156.796H154.334C161.91 156.796 165.957 158.983 167.663 162.494C169.423 166.143 168.792 171.374 164.552 178.736L164.543 178.751L164.534 178.767L157.9 190.78C157.899 190.782 157.898 190.783 157.898 190.784C155.857 194.433 153.138 196.056 149.615 196.056H117.058C116.108 196.056 115.509 195.938 115.163 195.801C115 195.737 114.921 195.68 114.891 195.654C114.875 195.641 114.869 195.633 114.867 195.631C114.866 195.629 114.865 195.627 114.864 195.624C114.862 195.621 114.843 195.58 114.836 195.474C114.829 195.362 114.837 195.186 114.892 194.932C115.004 194.41 115.283 193.685 115.816 192.732L129.108 169.022C129.747 167.933 130.228 166.864 130.458 165.843C130.69 164.81 130.696 163.679 130.178 162.636C129.116 160.494 126.614 160.015 124.385 160.015C121.892 160.015 119.66 160.593 117.696 161.817C115.746 163.032 114.181 164.807 112.889 167.017L112.88 167.032L112.871 167.048L94.4229 199.939L94.4137 199.956L94.4048 199.972C93.7888 201.121 93.335 202.232 93.1255 203.282C92.9157 204.334 92.9256 205.462 93.4176 206.5C94.4568 208.691 96.9171 209.218 99.155 209.218H144.47C145.392 209.218 145.969 209.335 146.3 209.468C146.455 209.53 146.531 209.585 146.561 209.612C146.585 209.633 146.59 209.643 146.593 209.649L146.593 209.65C146.599 209.662 146.681 209.846 146.576 210.37C146.472 210.892 146.209 211.612 145.704 212.555L120.895 256.675C120.894 256.678 120.893 256.68 120.891 256.682C118.87 260.207 116.207 262.98 112.89 265.058C109.584 267.128 106.131 268.139 102.546 268.139H37.5499C29.9686 268.139 25.9597 265.951 24.2989 262.455Z" fill="url(#paint6_linear_639_4420)" stroke="#E9557F" stroke-width="4"/>
<path d="M245.021 244.248L245.015 244.258L245.01 244.268C242.248 249.321 239.629 253.366 237.182 256.454C234.765 259.505 232.181 261.861 229.416 263.586C226.662 265.303 223.534 266.482 220.001 267.15C216.418 267.828 211.999 268.165 206.738 268.165H154.902C146.639 268.165 142.543 266.034 141.036 262.851C139.446 259.495 140.19 254.128 144.58 246.201C144.58 246.2 144.581 246.198 144.582 246.197L181.352 180.718C181.353 180.717 181.353 180.716 181.354 180.715C184.217 175.65 186.865 171.567 189.322 168.416C191.743 165.31 194.305 162.931 197.019 161.211L195.949 159.521L197.019 161.211C199.708 159.507 202.819 158.356 206.391 157.738C210.036 157.108 214.49 156.796 219.756 156.796H271.592C279.855 156.796 283.951 158.928 285.458 162.11C287.043 165.455 286.266 170.816 281.8 178.753L281.799 178.754L245.021 244.248ZM230.099 167.017L230.09 167.032L230.082 167.047L180.152 255.941C179.513 257.036 179.032 258.108 178.802 259.13C178.57 260.162 178.564 261.294 179.083 262.338C180.148 264.478 182.655 264.946 184.875 264.946C187.368 264.946 189.6 264.368 191.564 263.144C193.514 261.93 195.079 260.155 196.371 257.944L196.38 257.929L196.388 257.914L246.317 169.023C246.957 167.933 247.438 166.865 247.668 165.843C247.9 164.81 247.906 163.679 247.389 162.636C246.326 160.494 243.824 160.015 241.595 160.015C239.103 160.015 236.87 160.593 234.906 161.817C232.956 163.032 231.391 164.807 230.099 167.017Z" fill="url(#paint7_linear_639_4420)" stroke="#E9557F" stroke-width="4"/>
<path d="M362.233 244.248L362.227 244.258L362.222 244.268C359.46 249.321 356.841 253.366 354.394 256.454C351.977 259.505 349.393 261.861 346.628 263.586C343.874 265.303 340.746 266.482 337.213 267.15C333.63 267.828 329.211 268.165 323.95 268.165H272.114C263.85 268.165 259.755 266.034 258.248 262.851C256.658 259.495 257.402 254.128 261.792 246.201C261.792 246.2 261.793 246.198 261.794 246.197L298.564 180.718C298.564 180.717 298.565 180.716 298.565 180.715C301.428 175.65 304.077 171.567 306.534 168.416C308.955 165.31 311.517 162.931 314.231 161.211L313.161 159.521L314.231 161.211C316.919 159.507 320.031 158.356 323.603 157.738C327.248 157.108 331.702 156.796 336.968 156.796H388.804C397.067 156.796 401.163 158.928 402.67 162.11C404.255 165.455 403.478 170.816 399.012 178.753L399.011 178.754L362.233 244.248ZM347.311 167.017L347.302 167.032L347.294 167.047L297.364 255.941C296.725 257.036 296.244 258.108 296.014 259.13C295.782 260.162 295.776 261.294 296.295 262.338C297.36 264.478 299.867 264.946 302.087 264.946C304.58 264.946 306.812 264.368 308.776 263.144C310.726 261.93 312.291 260.155 313.583 257.944L313.592 257.929L313.6 257.914L363.529 169.023C364.169 167.933 364.65 166.865 364.88 165.843C365.112 164.81 365.118 163.679 364.6 162.636C363.538 160.494 361.036 160.015 358.807 160.015C356.314 160.015 354.082 160.593 352.118 161.817C350.168 163.032 348.603 164.807 347.311 167.017Z" fill="url(#paint8_linear_639_4420)" stroke="#E9557F" stroke-width="4"/>
<path d="M426.376 162.077L426.386 162.059L426.395 162.042C427.39 160.187 428.575 158.898 429.901 158.066C431.221 157.238 432.788 156.796 434.663 156.796H506.038C514.302 156.796 518.397 158.928 519.905 162.11C521.489 165.455 520.712 170.816 516.246 178.753L516.245 178.755L469.034 262.86L469.032 262.863C466.991 266.514 464.271 268.139 460.747 268.139H428.19C427.24 268.139 426.641 268.02 426.295 267.884C426.132 267.82 426.053 267.763 426.022 267.736C426.007 267.723 426.001 267.715 425.999 267.713C425.999 267.712 425.998 267.711 425.997 267.71C425.997 267.709 425.996 267.708 425.995 267.707C425.994 267.703 425.974 267.663 425.968 267.556C425.961 267.445 425.969 267.269 426.024 267.015C426.136 266.493 426.415 265.769 426.946 264.818C426.947 264.817 426.947 264.816 426.948 264.815L480.811 169.023C481.452 167.931 481.933 166.858 482.156 165.828C482.383 164.785 482.372 163.646 481.83 162.602C481.279 161.542 480.341 160.889 479.327 160.516C478.338 160.152 477.182 160.015 475.947 160.015C471.047 160.015 467.24 162.489 464.593 167.017L464.584 167.032L464.576 167.046L410.725 262.859L410.723 262.863C408.682 266.514 405.962 268.139 402.438 268.139H369.881H369.833C368.883 268.139 368.284 268.02 367.938 267.884C367.775 267.82 367.697 267.763 367.666 267.736C367.651 267.723 367.644 267.715 367.643 267.713C367.641 267.711 367.64 267.71 367.639 267.707C367.637 267.703 367.618 267.663 367.611 267.556C367.605 267.445 367.613 267.269 367.667 267.015C367.779 266.493 368.058 265.769 368.59 264.817C368.59 264.816 368.591 264.815 368.591 264.815L426.376 162.077Z" fill="url(#paint9_linear_639_4420)" stroke="#E9557F" stroke-width="4"/>
</g>
<defs>
<filter id="filter0_d_639_4420" x="15.6053" y="17.8348" width="779.258" height="258.094" filterUnits="userSpaceOnUse" color-interpolation-filters="sRGB">
<feFlood flood-opacity="0" result="BackgroundImageFix"/>
<feColorMatrix in="SourceAlpha" type="matrix" values="0 0 0 0 0 0 0 0 0 0 0 0 0 0 0 0 0 0 127 0" result="hardAlpha"/>
<feOffset/>
<feGaussianBlur stdDeviation="2.88193"/>
<feColorMatrix type="matrix" values="0 0 0 0 0 0 0 0 0 0 0 0 0 0 0 0 0 0 0.23 0"/>
<feBlend mode="normal" in2="BackgroundImageFix" result="effect1_dropShadow_639_4420"/>
<feBlend mode="normal" in="SourceGraphic" in2="effect1_dropShadow_639_4420" result="shape"/>
</filter>
<linearGradient id="paint0_linear_639_4420" x1="126.54" y1="23.6252" x2="126.54" y2="138.968" gradientUnits="userSpaceOnUse">
<stop offset="0.36" stop-color="#AEBC75"/>
<stop offset="0.58" stop-color="#E0D5BA"/>
<stop offset="0.65" stop-color="#E2CBB1"/>
<stop offset="0.76" stop-color="#EAB29A"/>
<stop offset="0.86" stop-color="#F39681"/>
</linearGradient>
<linearGradient id="paint1_linear_639_4420" x1="242.542" y1="23.5987" x2="242.542" y2="138.967" gradientUnits="userSpaceOnUse">
<stop offset="0.36" stop-color="#AEBC75"/>
<stop offset="0.58" stop-color="#E0D5BA"/>
<stop offset="0.65" stop-color="#E2CBB1"/>
<stop offset="0.76" stop-color="#EAB29A"/>
<stop offset="0.86" stop-color="#F39681"/>
</linearGradient>
<linearGradient id="paint2_linear_639_4420" x1="384.029" y1="23.6252" x2="384.029" y2="138.968" gradientUnits="userSpaceOnUse">
<stop offset="0.36" stop-color="#AEBC75"/>
<stop offset="0.58" stop-color="#E0D5BA"/>
<stop offset="0.65" stop-color="#E2CBB1"/>
<stop offset="0.76" stop-color="#EAB29A"/>
<stop offset="0.86" stop-color="#F39681"/>
</linearGradient>
<linearGradient id="paint3_linear_639_4420" x1="503.285" y1="23.6252" x2="503.285" y2="138.968" gradientUnits="userSpaceOnUse">
<stop offset="0.36" stop-color="#AEBC75"/>
<stop offset="0.58" stop-color="#E0D5BA"/>
<stop offset="0.65" stop-color="#E2CBB1"/>
<stop offset="0.76" stop-color="#EAB29A"/>
<stop offset="0.86" stop-color="#F39681"/>
</linearGradient>
<linearGradient id="paint4_linear_639_4420" x1="587.658" y1="23.6252" x2="587.658" y2="138.968" gradientUnits="userSpaceOnUse">
<stop offset="0.36" stop-color="#AEBC75"/>
<stop offset="0.58" stop-color="#E0D5BA"/>
<stop offset="0.65" stop-color="#E2CBB1"/>
<stop offset="0.76" stop-color="#EAB29A"/>
<stop offset="0.86" stop-color="#F39681"/>
</linearGradient>
<linearGradient id="paint5_linear_639_4420" x1="708.968" y1="23.6513" x2="708.968" y2="138.994" gradientUnits="userSpaceOnUse">
<stop offset="0.36" stop-color="#AEBC75"/>
<stop offset="0.58" stop-color="#E0D5BA"/>
<stop offset="0.65" stop-color="#E2CBB1"/>
<stop offset="0.76" stop-color="#EAB29A"/>
<stop offset="0.86" stop-color="#F39681"/>
</linearGradient>
<linearGradient id="paint6_linear_639_4420" x1="96.0013" y1="154.796" x2="96.0013" y2="270.139" gradientUnits="userSpaceOnUse">
<stop offset="0.36" stop-color="#AEBC75"/>
<stop offset="0.58" stop-color="#E0D5BA"/>
<stop offset="0.65" stop-color="#E2CBB1"/>
<stop offset="0.76" stop-color="#EAB29A"/>
<stop offset="0.86" stop-color="#F39681"/>
</linearGradient>
<linearGradient id="paint7_linear_639_4420" x1="213.235" y1="154.796" x2="213.235" y2="270.139" gradientUnits="userSpaceOnUse">
<stop offset="0.36" stop-color="#AEBC75"/>
<stop offset="0.58" stop-color="#E0D5BA"/>
<stop offset="0.65" stop-color="#E2CBB1"/>
<stop offset="0.76" stop-color="#EAB29A"/>
<stop offset="0.86" stop-color="#F39681"/>
</linearGradient>
<linearGradient id="paint8_linear_639_4420" x1="330.471" y1="154.796" x2="330.471" y2="270.139" gradientUnits="userSpaceOnUse">
<stop offset="0.36" stop-color="#AEBC75"/>
<stop offset="0.58" stop-color="#E0D5BA"/>
<stop offset="0.65" stop-color="#E2CBB1"/>
<stop offset="0.76" stop-color="#EAB29A"/>
<stop offset="0.86" stop-color="#F39681"/>
</linearGradient>
<linearGradient id="paint9_linear_639_4420" x1="444.125" y1="154.796" x2="444.125" y2="270.139" gradientUnits="userSpaceOnUse">
<stop offset="0.36" stop-color="#AEBC75"/>
<stop offset="0.58" stop-color="#E0D5BA"/>
<stop offset="0.65" stop-color="#E2CBB1"/>
<stop offset="0.76" stop-color="#EAB29A"/>
<stop offset="0.86" stop-color="#F39681"/>
</linearGradient>
</defs>
</svg>
