<svg width="353" height="321" viewBox="0 0 353 321" fill="none" xmlns="http://www.w3.org/2000/svg">
<g clip-path="url(#clip0_836_6257)">
<rect width="352" height="321" transform="translate(0.5)" fill="#B7BC99"/>
<g opacity="0.4">
<path d="M176.795 161.424C176.827 161.398 176.861 161.376 176.897 161.352C176.883 161.357 176.87 161.36 176.856 161.362C176.836 161.383 176.813 161.405 176.795 161.424Z" fill="#E9557F"/>
<path d="M173.736 65.854C181.541 76.4931 189.295 87.4924 194.268 99.7892C199.067 111.659 200.153 124.577 195.178 136.582C191.342 145.837 184.913 153.403 177.876 160.363C177.843 160.486 177.807 160.611 177.773 160.734C177.782 160.732 177.787 160.729 177.799 160.727C178.093 160.524 178.379 160.319 178.676 160.121C178.518 160.269 178.362 160.425 178.205 160.577C183.955 156.549 189.345 152.222 194.111 146.994C200.284 140.225 204.803 131.862 206.741 122.889C210.322 106.302 205.455 89.3669 199.077 74.0928C192.306 57.878 183.482 42.6364 176.073 26.7255C170.055 13.8073 163.443 -1.33195 164.864 -16H130.744C132.354 1.58391 140.446 18.3774 150.138 33.1957C157.49 44.446 165.794 55.0271 173.736 65.854Z" fill="#E9557F"/>
<path d="M178.143 160.638C178.166 160.617 178.186 160.595 178.205 160.576C178.362 160.424 178.517 160.269 178.676 160.121C178.379 160.319 178.092 160.523 177.799 160.727C177.915 160.698 178.027 160.669 178.143 160.638Z" fill="#E9557F"/>
<path d="M181.264 256.146C173.462 245.507 165.705 234.507 160.732 222.211C155.933 210.341 154.847 197.423 159.822 185.418C163.658 176.163 170.087 168.597 177.124 161.637C177.157 161.514 177.193 161.389 177.227 161.266C177.118 161.295 177.005 161.324 176.897 161.352C176.861 161.375 176.827 161.398 176.795 161.423C171.045 165.451 165.656 169.778 160.889 175.006C154.716 181.775 150.197 190.138 148.259 199.111C144.678 215.698 149.548 232.633 155.925 247.911C162.694 264.122 171.518 279.364 178.931 295.274C184.945 308.193 191.557 323.332 190.136 338H224.258C222.646 320.416 214.554 303.623 204.863 288.804C197.51 277.554 189.206 266.973 181.264 256.146Z" fill="#E9557F"/>
<path d="M39.4459 12.9639C47.287 37.5678 68.6045 53.3369 90.7585 64.4319C102.868 70.4924 115.448 75.5166 127.825 80.9932C139.539 86.1796 151.355 91.7296 161.495 99.6697C171.368 107.401 178.705 117.815 180.517 130.414C181.975 140.539 180.175 150.521 177.509 160.259C177.539 160.385 177.572 160.513 177.606 160.64C177.76 160.309 177.918 159.979 178.079 159.65C178.014 159.866 177.956 160.082 177.896 160.298C180.954 153.738 183.526 147.087 185.017 139.949C186.9 130.945 186.42 121.549 183.581 112.81C178.429 96.9365 165.671 84.8207 152.751 74.9617C138.612 64.1724 123.145 55.3087 108.622 45.0725C96.4195 36.4786 82.9823 26.3397 77.2155 12.0489C73.4222 2.64919 74.7179 -6.87344 77.7635 -16H36.0162C35.5433 -6.223 36.4277 3.50278 39.4459 12.9639Z" fill="#E9557F"/>
<path d="M177.125 161.637C177.118 161.659 177.111 161.683 177.104 161.702C177.176 161.55 177.249 161.396 177.321 161.244C177.29 161.251 177.256 161.258 177.227 161.266C177.193 161.389 177.157 161.514 177.125 161.637Z" fill="#E9557F"/>
<path d="M315.554 309.036C307.713 284.436 286.397 268.663 264.242 257.568C252.136 251.508 239.553 246.483 227.179 241.007C215.461 235.82 203.645 230.27 193.505 222.33C183.632 214.6 176.295 204.185 174.484 191.586C173.026 181.46 174.828 171.479 177.492 161.741C177.451 161.57 177.406 161.401 177.362 161.232C177.348 161.235 177.335 161.241 177.321 161.244C177.249 161.396 177.176 161.55 177.104 161.702C174.046 168.262 171.474 174.913 169.983 182.051C168.1 191.055 168.582 200.451 171.419 209.192C176.571 225.063 189.329 237.179 202.249 247.038C216.388 257.827 231.855 266.691 246.378 276.927C258.581 285.525 272.018 295.66 277.785 309.951C281.578 319.351 280.282 328.873 277.237 338H318.984C319.457 328.223 318.573 318.497 315.554 309.036Z" fill="#E9557F"/>
<path d="M177.773 160.734C177.808 160.611 177.843 160.486 177.876 160.363C177.883 160.341 177.889 160.317 177.896 160.298C177.956 160.081 178.014 159.866 178.079 159.65C177.918 159.979 177.76 160.309 177.606 160.64C177.616 160.682 177.628 160.727 177.639 160.768C177.683 160.756 177.727 160.746 177.773 160.734Z" fill="#E9557F"/>
<path d="M54.0951 120.741C67.6108 119.936 81.0207 117.998 94.4732 116.55C107.583 115.144 120.965 114.034 134.071 116.05C146.298 117.928 157.588 123.553 165.198 133.491C171.288 141.439 174.627 150.786 177.138 160.356C177.227 160.45 177.317 160.541 177.41 160.635C177.381 160.269 177.351 159.907 177.326 159.542C177.379 159.761 177.437 159.979 177.491 160.198C176.863 152.99 175.783 145.924 173.485 139.01C170.514 130.066 165.282 122.066 158.226 115.823C145.574 104.634 128.07 100.696 111.762 98.7018C93.9286 96.5218 75.9213 96.6191 58.0523 94.8709C43.3928 93.4386 26.4661 91.1937 14.9342 81.1213C4.05605 71.6209 1.98866 57.2055 0.718519 43.6317C0.665596 43.1008 0.588773 42.5733 0.5 42.0458V112.824C16.8786 120.479 35.97 121.817 54.0951 120.741Z" fill="#E9557F"/>
<path d="M177.459 161.229C177.452 161.224 177.447 161.219 177.439 161.214C177.415 161.219 177.389 161.224 177.362 161.232C177.406 161.401 177.45 161.57 177.491 161.741C177.497 161.762 177.503 161.782 177.509 161.802C177.491 161.611 177.474 161.42 177.459 161.229Z" fill="#E9557F"/>
<path d="M300.905 201.259C287.389 202.065 273.979 204.002 260.527 205.45C247.417 206.857 234.035 207.966 220.929 205.95C208.702 204.072 197.412 198.447 189.802 188.51C183.712 180.561 180.373 171.216 177.862 161.644C177.729 161.505 177.594 161.367 177.459 161.229C177.474 161.42 177.491 161.611 177.508 161.802C178.137 169.01 179.217 176.076 181.515 182.99C184.486 191.934 189.718 199.934 196.776 206.177C209.426 217.366 226.93 221.304 243.242 223.298C261.071 225.478 279.079 225.381 296.948 227.129C311.611 228.562 328.534 230.807 340.066 240.879C350.944 250.379 353.011 264.795 354.281 278.368C354.334 278.899 354.411 279.427 354.5 279.954V209.18C338.121 201.522 319.032 200.183 300.905 201.259Z" fill="#E9557F"/>
<path d="M177.561 160.787C177.585 160.781 177.611 160.776 177.638 160.768C177.628 160.727 177.616 160.682 177.606 160.64C177.572 160.513 177.539 160.385 177.508 160.259C177.503 160.24 177.497 160.218 177.491 160.198C177.437 159.979 177.379 159.761 177.326 159.542C177.351 159.907 177.38 160.269 177.409 160.635C177.459 160.688 177.51 160.737 177.561 160.787Z" fill="#E9557F"/>
<path d="M82.354 164.764C92.9931 156.963 103.992 149.205 116.289 144.232C128.159 139.433 141.077 138.348 153.082 143.322C162.337 147.158 169.903 153.587 176.863 160.624C176.991 160.66 177.118 160.696 177.249 160.732C177.037 160.428 176.826 160.129 176.617 159.825C176.769 159.983 176.925 160.138 177.077 160.295C173.049 154.545 168.722 149.156 163.494 144.389C156.725 138.216 148.362 133.697 139.389 131.76C122.802 128.178 105.867 133.045 90.5928 139.425C74.378 146.194 59.1364 155.018 43.2255 162.427C30.3073 168.445 15.1681 175.057 0.5 173.637V207.758C18.0839 206.146 34.874 198.054 49.6957 188.363C60.946 181.01 71.5236 172.706 82.354 164.764Z" fill="#E9557F"/>
<path d="M177.459 161.229C177.594 161.367 177.729 161.505 177.862 161.644C177.882 161.666 177.905 161.686 177.923 161.705C177.809 161.545 177.7 161.384 177.589 161.224C177.558 161.215 177.527 161.205 177.497 161.196C177.478 161.201 177.459 161.208 177.439 161.213C177.447 161.218 177.452 161.224 177.459 161.229Z" fill="#E9557F"/>
<path d="M272.646 157.236C262.007 165.038 251.011 172.795 238.711 177.768C226.841 182.567 213.923 183.653 201.918 178.678C192.663 174.842 185.097 168.413 178.137 161.376C177.954 161.326 177.771 161.273 177.589 161.224C177.7 161.384 177.809 161.545 177.923 161.705C181.951 167.455 186.278 172.845 191.506 177.611C198.275 183.784 206.638 188.303 215.611 190.241C232.198 193.822 249.133 188.952 264.411 182.575C280.622 175.806 295.864 166.982 311.774 159.573C324.693 153.555 339.832 146.943 354.5 148.364V114.244C336.916 115.854 320.126 123.946 305.304 133.638C294.057 140.99 283.473 149.294 272.646 157.236Z" fill="#E9557F"/>
<path d="M177.504 160.804C177.522 160.799 177.541 160.794 177.562 160.787C177.51 160.737 177.459 160.688 177.41 160.635C177.317 160.541 177.227 160.45 177.138 160.356C177.118 160.336 177.096 160.314 177.077 160.295C176.925 160.138 176.769 159.983 176.618 159.826C176.826 160.129 177.038 160.428 177.249 160.732C177.331 160.754 177.417 160.778 177.504 160.804Z" fill="#E9557F"/>
<path d="M29.4639 299.054C54.0678 291.213 69.8369 269.897 80.9319 247.742C86.9958 235.636 92.0166 223.053 97.4932 210.679C102.676 198.961 108.23 187.145 116.17 177.005C123.901 167.132 134.315 159.795 146.914 157.984C157.039 156.526 167.021 158.325 176.759 160.992C176.885 160.961 177.013 160.928 177.14 160.894C176.809 160.741 176.479 160.582 176.15 160.421C176.366 160.486 176.582 160.544 176.798 160.604C170.238 157.546 163.587 154.974 156.449 153.483C147.445 151.6 138.049 152.082 129.31 154.919C113.437 160.071 101.321 172.829 91.4617 185.749C80.6724 199.89 71.8087 215.355 61.5725 229.878C52.9752 242.081 42.8397 255.518 28.5489 261.285C19.1492 265.081 9.62656 263.782 0.5 260.737V302.484C10.277 302.96 20.0028 302.073 29.4639 299.054Z" fill="#E9557F"/>
<path d="M177.589 161.224C177.771 161.273 177.954 161.326 178.137 161.376C178.159 161.382 178.183 161.389 178.201 161.396C178.027 161.316 177.853 161.232 177.679 161.152C177.619 161.166 177.558 161.183 177.496 161.196C177.527 161.205 177.558 161.215 177.589 161.224Z" fill="#E9557F"/>
<path d="M325.536 22.9459C300.932 30.787 285.163 52.1045 274.068 74.2585C268.008 86.3675 262.983 98.9477 257.507 111.325C252.32 123.039 246.77 134.855 238.83 144.995C231.1 154.868 220.685 162.205 208.086 164.017C197.961 165.475 187.979 163.672 178.241 161.009C178.053 161.055 177.865 161.103 177.679 161.152C177.853 161.232 178.028 161.316 178.202 161.396C184.762 164.454 191.414 167.026 198.551 168.517C207.555 170.4 216.951 169.92 225.692 167.081C241.564 161.929 253.679 149.171 263.538 136.251C274.324 122.112 283.191 106.645 293.428 92.1224C302.023 79.9195 312.16 66.4823 326.451 60.7155C335.851 56.9222 345.373 58.2179 354.5 61.2635V19.5162C344.723 19.0433 334.997 19.9277 325.536 22.9459Z" fill="#E9557F"/>
<path d="M177.503 160.804C177.416 160.778 177.331 160.754 177.249 160.732C177.118 160.696 176.991 160.66 176.863 160.624C176.841 160.618 176.819 160.611 176.798 160.604C176.581 160.544 176.366 160.486 176.15 160.421C176.479 160.582 176.809 160.741 177.14 160.894C177.259 160.865 177.38 160.834 177.503 160.804Z" fill="#E9557F"/>
<path d="M137.242 284.405C136.436 270.889 134.498 257.479 133.05 244.027C131.644 230.917 130.534 217.535 132.55 204.429C134.432 192.202 140.053 180.912 149.991 173.302C157.939 167.212 167.286 163.873 176.857 161.362C176.87 161.36 176.884 161.357 176.898 161.352C177.005 161.324 177.118 161.295 177.227 161.266C177.256 161.258 177.29 161.251 177.321 161.244C177.335 161.241 177.348 161.235 177.362 161.232C177.389 161.224 177.415 161.218 177.439 161.213C177.459 161.208 177.478 161.201 177.497 161.196C177.558 161.183 177.62 161.165 177.679 161.152C177.866 161.102 178.053 161.054 178.241 161.008C178.262 161.003 178.282 160.996 178.303 160.991C177.55 161.058 176.799 161.119 176.042 161.174C176.261 161.121 176.479 161.063 176.698 161.008C169.49 161.637 162.424 162.717 155.51 165.015C146.566 167.986 138.566 173.218 132.323 180.274C121.134 192.926 117.196 210.429 115.202 226.738C113.022 244.571 113.119 262.579 111.374 280.448C109.939 295.107 107.694 312.034 97.6214 323.566C88.121 334.444 73.7056 336.511 60.1319 337.781C59.6009 337.834 59.0734 337.911 58.5459 338H129.324C136.979 321.621 138.317 302.532 137.242 284.405Z" fill="#E9557F"/>
<path d="M217.759 37.5951C218.564 51.1108 220.502 64.5207 221.95 77.9732C223.356 91.0826 224.466 104.465 222.45 117.571C220.572 129.798 214.947 141.087 205.009 148.698C197.061 154.788 187.714 158.127 178.144 160.638C178.028 160.669 177.915 160.698 177.799 160.727C177.787 160.729 177.782 160.732 177.773 160.734C177.727 160.746 177.683 160.756 177.638 160.768C177.611 160.776 177.585 160.781 177.562 160.787C177.541 160.793 177.522 160.799 177.503 160.804C177.381 160.834 177.259 160.865 177.14 160.894C177.013 160.928 176.885 160.961 176.759 160.991C176.74 160.997 176.718 161.003 176.698 161.009C176.479 161.063 176.261 161.121 176.042 161.174C176.798 161.119 177.55 161.058 178.302 160.991C185.51 160.363 192.576 159.283 199.49 156.985C208.434 154.014 216.434 148.782 222.677 141.724C233.866 129.074 237.801 111.57 239.798 95.2584C241.978 77.4286 241.881 59.4213 243.629 41.5523C245.062 26.8894 247.306 9.96614 257.379 -1.56583C266.879 -12.444 281.295 -14.5113 294.868 -15.7815C295.399 -15.8344 295.927 -15.9112 296.454 -16H225.677C218.022 0.378645 216.683 19.47 217.759 37.5951Z" fill="#E9557F"/>
</g>
<path d="M270.563 174.881L270.762 175.467L270.979 176.413L271.074 177.359V238.99C271.073 240.707 270.45 242.365 269.319 243.658C268.189 244.95 266.628 245.788 264.926 246.017L263.98 246.083H89.0105C87.2963 246.083 85.6401 245.463 84.3482 244.336C83.0563 243.209 82.2161 241.653 81.983 239.954L81.9167 238.99V177.51L81.9357 177.019L82.0302 176.205C82.1395 175.712 82.2882 175.228 82.4748 174.758L108.58 117.828C109.072 116.752 109.826 115.816 110.773 115.106C111.719 114.396 112.828 113.933 113.999 113.761L115.021 113.695L139.045 113.686L131.573 126.644L130.939 127.873H119.561L100.058 170.417H252.829L233.657 129.311L241.81 115.152C242.447 115.631 242.989 116.211 243.437 116.892L243.938 117.791L270.563 174.881ZM189.411 57.4464L190.281 57.872L239.351 86.2754C242.453 88.0725 243.683 91.8653 242.368 95.1L241.942 95.9702L215.393 142.042H226.156C227.966 142.023 229.715 142.698 231.044 143.926C232.373 145.155 233.182 146.846 233.306 148.652C233.429 150.458 232.857 152.243 231.707 153.641C230.558 155.039 228.917 155.945 227.121 156.172L226.156 156.239L207.221 156.229V156.258H168.64L168.612 156.229H126.844C125.058 156.212 123.344 155.523 122.044 154.297C120.744 153.072 119.955 151.402 119.833 149.62C119.711 147.838 120.266 146.075 121.387 144.685C122.508 143.294 124.112 142.377 125.879 142.117L126.844 142.051L144.086 142.042L142.365 141.049C140.882 140.189 139.761 138.822 139.208 137.2C138.655 135.578 138.708 133.81 139.357 132.224L139.773 131.354L180.605 60.4541C182.402 57.3424 186.185 56.1033 189.411 57.4275M189.316 73.6958L155.588 132.3L172.405 142.042H199.049L226.147 95.0054L189.316 73.6958Z" fill="#F8E6D2"/>
<rect x="-10.5" y="152" width="374" height="174" fill="url(#paint0_linear_836_6257)"/>
<path d="M116.26 229.88L101.32 272H88.48L73.54 229.88H84.46L94.9 261.68L105.4 229.88H116.26ZM135.788 272.48C132.508 272.48 129.548 271.78 126.908 270.38C124.308 268.98 122.248 266.98 120.728 264.38C119.248 261.78 118.508 258.74 118.508 255.26C118.508 251.82 119.268 248.8 120.788 246.2C122.308 243.56 124.388 241.54 127.028 240.14C129.668 238.74 132.628 238.04 135.908 238.04C139.188 238.04 142.148 238.74 144.788 240.14C147.428 241.54 149.508 243.56 151.028 246.2C152.548 248.8 153.308 251.82 153.308 255.26C153.308 258.7 152.528 261.74 150.968 264.38C149.448 266.98 147.348 268.98 144.668 270.38C142.028 271.78 139.068 272.48 135.788 272.48ZM135.788 263.6C137.748 263.6 139.408 262.88 140.768 261.44C142.168 260 142.868 257.94 142.868 255.26C142.868 252.58 142.188 250.52 140.828 249.08C139.508 247.64 137.868 246.92 135.908 246.92C133.908 246.92 132.248 247.64 130.928 249.08C129.608 250.48 128.948 252.54 128.948 255.26C128.948 257.94 129.588 260 130.868 261.44C132.188 262.88 133.828 263.6 135.788 263.6ZM177.411 263.3V272H172.191C168.471 272 165.571 271.1 163.491 269.3C161.411 267.46 160.371 264.48 160.371 260.36V247.04H156.291V238.52H160.371V230.36H170.631V238.52H177.351V247.04H170.631V260.48C170.631 261.48 170.871 262.2 171.351 262.64C171.831 263.08 172.631 263.3 173.751 263.3H177.411ZM188.286 235.04C186.486 235.04 185.006 234.52 183.846 233.48C182.726 232.4 182.166 231.08 182.166 229.52C182.166 227.92 182.726 226.6 183.846 225.56C185.006 224.48 186.486 223.94 188.286 223.94C190.046 223.94 191.486 224.48 192.606 225.56C193.766 226.6 194.346 227.92 194.346 229.52C194.346 231.08 193.766 232.4 192.606 233.48C191.486 234.52 190.046 235.04 188.286 235.04ZM193.386 238.52V272H183.126V238.52H193.386ZM221.222 238.16C225.142 238.16 228.262 239.44 230.582 242C232.942 244.52 234.122 248 234.122 252.44V272H223.922V253.82C223.922 251.58 223.342 249.84 222.182 248.6C221.022 247.36 219.462 246.74 217.502 246.74C215.542 246.74 213.982 247.36 212.822 248.6C211.662 249.84 211.082 251.58 211.082 253.82V272H200.822V238.52H211.082V242.96C212.122 241.48 213.522 240.32 215.282 239.48C217.042 238.6 219.022 238.16 221.222 238.16ZM253.971 238.04C256.331 238.04 258.391 238.52 260.151 239.48C261.951 240.44 263.331 241.7 264.291 243.26V238.52H274.551V271.94C274.551 275.02 273.931 277.8 272.691 280.28C271.491 282.8 269.631 284.8 267.111 286.28C264.631 287.76 261.531 288.5 257.811 288.5C252.851 288.5 248.831 287.32 245.751 284.96C242.671 282.64 240.911 279.48 240.471 275.48H250.611C250.931 276.76 251.691 277.76 252.891 278.48C254.091 279.24 255.571 279.62 257.331 279.62C259.451 279.62 261.131 279 262.371 277.76C263.651 276.56 264.291 274.62 264.291 271.94V267.2C263.291 268.76 261.911 270.04 260.151 271.04C258.391 272 256.331 272.48 253.971 272.48C251.211 272.48 248.711 271.78 246.471 270.38C244.231 268.94 242.451 266.92 241.131 264.32C239.851 261.68 239.211 258.64 239.211 255.2C239.211 251.76 239.851 248.74 241.131 246.14C242.451 243.54 244.231 241.54 246.471 240.14C248.711 238.74 251.211 238.04 253.971 238.04ZM264.291 255.26C264.291 252.7 263.571 250.68 262.131 249.2C260.731 247.72 259.011 246.98 256.971 246.98C254.931 246.98 253.191 247.72 251.751 249.2C250.351 250.64 249.651 252.64 249.651 255.2C249.651 257.76 250.351 259.8 251.751 261.32C253.191 262.8 254.931 263.54 256.971 263.54C259.011 263.54 260.731 262.8 262.131 261.32C263.571 259.84 264.291 257.82 264.291 255.26Z" fill="#F8E6D2"/>
<rect width="353" height="44" transform="translate(-1)" fill="#E9557F"/>
<path d="M82.468 25.52C83.492 24.6347 84.2973 23.9093 84.884 23.344C85.4813 22.768 85.9773 22.1707 86.372 21.552C86.7667 20.9333 86.964 20.3147 86.964 19.696C86.964 19.056 86.8093 18.5547 86.5 18.192C86.2013 17.8293 85.7267 17.648 85.076 17.648C84.4467 17.648 83.956 17.8507 83.604 18.256C83.2627 18.6507 83.0813 19.184 83.06 19.856H81.3C81.332 18.64 81.6947 17.712 82.388 17.072C83.092 16.4213 83.9827 16.096 85.06 16.096C86.2227 16.096 87.1293 16.416 87.78 17.056C88.4413 17.696 88.772 18.5493 88.772 19.616C88.772 20.384 88.5747 21.1253 88.18 21.84C87.796 22.544 87.332 23.1787 86.788 23.744C86.2547 24.2987 85.572 24.944 84.74 25.68L84.02 26.32H89.092V27.84H81.316V26.512L82.468 25.52ZM98.0864 17.744L93.6384 28H91.7984L96.2944 17.936H90.3744V16.384H98.0864V17.744ZM109.116 28.112C108.081 28.112 107.126 27.872 106.252 27.392C105.388 26.9013 104.7 26.224 104.188 25.36C103.686 24.4853 103.436 23.504 103.436 22.416C103.436 21.328 103.686 20.352 104.188 19.488C104.7 18.624 105.388 17.952 106.252 17.472C107.126 16.9813 108.081 16.736 109.116 16.736C110.161 16.736 111.116 16.9813 111.98 17.472C112.854 17.952 113.542 18.624 114.044 19.488C114.545 20.352 114.796 21.328 114.796 22.416C114.796 23.504 114.545 24.4853 114.044 25.36C113.542 26.224 112.854 26.9013 111.98 27.392C111.116 27.872 110.161 28.112 109.116 28.112ZM109.116 26.528C109.852 26.528 110.508 26.3627 111.084 26.032C111.66 25.6907 112.108 25.2107 112.428 24.592C112.758 23.9627 112.924 23.2373 112.924 22.416C112.924 21.5947 112.758 20.8747 112.428 20.256C112.108 19.6373 111.66 19.1627 111.084 18.832C110.508 18.5013 109.852 18.336 109.116 18.336C108.38 18.336 107.724 18.5013 107.148 18.832C106.572 19.1627 106.118 19.6373 105.788 20.256C105.468 20.8747 105.308 21.5947 105.308 22.416C105.308 23.2373 105.468 23.9627 105.788 24.592C106.118 25.2107 106.572 25.6907 107.148 26.032C107.724 26.3627 108.38 26.528 109.116 26.528ZM120.079 23.6L124.143 28H121.679L118.415 24.208V28H116.591V16.16H118.415V23.04L121.615 19.184H124.143L120.079 23.6ZM127.578 20.672V25.552C127.578 25.8827 127.653 26.1227 127.802 26.272C127.962 26.4107 128.229 26.48 128.602 26.48H129.722V28H128.282C127.461 28 126.831 27.808 126.394 27.424C125.957 27.04 125.738 26.416 125.738 25.552V20.672H124.698V19.184H125.738V16.992H127.578V19.184H129.722V20.672H127.578ZM142.327 21.44V22.976H135.751V21.44H142.327ZM150.803 21.904C149.694 21.3493 149.139 20.4747 149.139 19.28C149.139 18.704 149.283 18.176 149.571 17.696C149.859 17.216 150.291 16.8373 150.867 16.56C151.443 16.272 152.147 16.128 152.979 16.128C153.8 16.128 154.499 16.272 155.075 16.56C155.662 16.8373 156.099 17.216 156.387 17.696C156.675 18.176 156.819 18.704 156.819 19.28C156.819 19.8773 156.664 20.4053 156.355 20.864C156.056 21.312 155.656 21.6587 155.155 21.904C155.763 22.128 156.243 22.496 156.595 23.008C156.947 23.5093 157.123 24.1013 157.123 24.784C157.123 25.4773 156.947 26.0907 156.595 26.624C156.243 27.1573 155.752 27.568 155.123 27.856C154.494 28.144 153.779 28.288 152.979 28.288C152.179 28.288 151.464 28.144 150.835 27.856C150.216 27.568 149.731 27.1573 149.379 26.624C149.027 26.0907 148.851 25.4773 148.851 24.784C148.851 24.0907 149.027 23.4933 149.379 22.992C149.731 22.4907 150.206 22.128 150.803 21.904ZM155.075 19.504C155.075 18.9067 154.888 18.448 154.515 18.128C154.142 17.808 153.63 17.648 152.979 17.648C152.339 17.648 151.832 17.808 151.459 18.128C151.086 18.448 150.899 18.912 150.899 19.52C150.899 20.0533 151.091 20.4907 151.475 20.832C151.87 21.1627 152.371 21.328 152.979 21.328C153.587 21.328 154.088 21.1573 154.483 20.816C154.878 20.4747 155.075 20.0373 155.075 19.504ZM152.979 22.704C152.275 22.704 151.699 22.88 151.251 23.232C150.814 23.5733 150.595 24.0693 150.595 24.72C150.595 25.328 150.808 25.824 151.235 26.208C151.662 26.5813 152.243 26.768 152.979 26.768C153.704 26.768 154.275 26.576 154.691 26.192C155.118 25.808 155.331 25.3173 155.331 24.72C155.331 24.08 155.112 23.584 154.675 23.232C154.248 22.88 153.683 22.704 152.979 22.704ZM170.138 25.728H165.482L164.682 28H162.778L166.762 16.864H168.874L172.858 28H170.938L170.138 25.728ZM169.626 24.24L167.818 19.072L165.994 24.24H169.626ZM178.143 19.04C178.825 19.04 179.428 19.1787 179.951 19.456C180.484 19.7227 180.9 20.0587 181.199 20.464V19.184H183.039V28.144C183.039 28.9547 182.868 29.6747 182.527 30.304C182.185 30.944 181.689 31.4453 181.039 31.808C180.399 32.1707 179.631 32.352 178.735 32.352C177.54 32.352 176.548 32.0693 175.759 31.504C174.969 30.9493 174.521 30.192 174.415 29.232H176.223C176.361 29.6907 176.655 30.0587 177.103 30.336C177.561 30.624 178.105 30.768 178.735 30.768C179.471 30.768 180.063 30.544 180.511 30.096C180.969 29.648 181.199 28.9973 181.199 28.144V26.672C180.889 27.088 180.468 27.44 179.935 27.728C179.412 28.0053 178.815 28.144 178.143 28.144C177.375 28.144 176.671 27.952 176.031 27.568C175.401 27.1733 174.9 26.6293 174.527 25.936C174.164 25.232 173.983 24.4373 173.983 23.552C173.983 22.6667 174.164 21.8827 174.527 21.2C174.9 20.5173 175.401 19.9893 176.031 19.616C176.671 19.232 177.375 19.04 178.143 19.04ZM181.199 23.584C181.199 22.976 181.071 22.448 180.815 22C180.569 21.552 180.244 21.2107 179.839 20.976C179.433 20.7413 178.996 20.624 178.527 20.624C178.057 20.624 177.62 20.7413 177.215 20.976C176.809 21.2 176.479 21.536 176.223 21.984C175.977 22.4213 175.855 22.944 175.855 23.552C175.855 24.16 175.977 24.6933 176.223 25.152C176.479 25.6107 176.809 25.9627 177.215 26.208C177.631 26.4427 178.068 26.56 178.527 26.56C178.996 26.56 179.433 26.4427 179.839 26.208C180.244 25.9733 180.569 25.632 180.815 25.184C181.071 24.7253 181.199 24.192 181.199 23.584ZM193.418 19.184V28H191.594V26.96C191.306 27.3227 190.928 27.6107 190.458 27.824C190 28.0267 189.509 28.128 188.986 28.128C188.293 28.128 187.669 27.984 187.114 27.696C186.57 27.408 186.138 26.9813 185.818 26.416C185.509 25.8507 185.354 25.168 185.354 24.368V19.184H187.162V24.096C187.162 24.8853 187.36 25.4933 187.754 25.92C188.149 26.336 188.688 26.544 189.37 26.544C190.053 26.544 190.592 26.336 190.986 25.92C191.392 25.4933 191.594 24.8853 191.594 24.096V19.184H193.418ZM199.025 28.144C198.332 28.144 197.708 28.0213 197.153 27.776C196.609 27.52 196.177 27.1787 195.857 26.752C195.537 26.3147 195.366 25.8293 195.345 25.296H197.233C197.265 25.6693 197.441 25.984 197.761 26.24C198.092 26.4853 198.502 26.608 198.993 26.608C199.505 26.608 199.9 26.512 200.177 26.32C200.465 26.1173 200.609 25.8613 200.609 25.552C200.609 25.2213 200.449 24.976 200.129 24.816C199.82 24.656 199.324 24.48 198.641 24.288C197.98 24.1067 197.441 23.9307 197.025 23.76C196.609 23.5893 196.246 23.328 195.937 22.976C195.638 22.624 195.489 22.16 195.489 21.584C195.489 21.1147 195.628 20.688 195.905 20.304C196.182 19.9093 196.577 19.6 197.089 19.376C197.612 19.152 198.209 19.04 198.881 19.04C199.884 19.04 200.689 19.296 201.297 19.808C201.916 20.3093 202.246 20.9973 202.289 21.872H200.465C200.433 21.4773 200.273 21.1627 199.985 20.928C199.697 20.6933 199.308 20.576 198.817 20.576C198.337 20.576 197.969 20.6667 197.713 20.848C197.457 21.0293 197.329 21.2693 197.329 21.568C197.329 21.8027 197.414 22 197.585 22.16C197.756 22.32 197.964 22.448 198.209 22.544C198.454 22.6293 198.817 22.7413 199.297 22.88C199.937 23.0507 200.46 23.2267 200.865 23.408C201.281 23.5787 201.638 23.8347 201.937 24.176C202.236 24.5173 202.39 24.9707 202.401 25.536C202.401 26.0373 202.262 26.4853 201.985 26.88C201.708 27.2747 201.313 27.584 200.801 27.808C200.3 28.032 199.708 28.144 199.025 28.144ZM206.5 20.672V25.552C206.5 25.8827 206.575 26.1227 206.724 26.272C206.884 26.4107 207.151 26.48 207.524 26.48H208.644V28H207.204C206.383 28 205.753 27.808 205.316 27.424C204.879 27.04 204.66 26.416 204.66 25.552V20.672H203.62V19.184H204.66V16.992H206.5V19.184H208.644V20.672H206.5ZM218.309 19.184V28H216.485V26.96C216.197 27.3227 215.818 27.6107 215.349 27.824C214.89 28.0267 214.4 28.128 213.877 28.128C213.184 28.128 212.56 27.984 212.005 27.696C211.461 27.408 211.029 26.9813 210.709 26.416C210.4 25.8507 210.245 25.168 210.245 24.368V19.184H212.053V24.096C212.053 24.8853 212.25 25.4933 212.645 25.92C213.04 26.336 213.578 26.544 214.261 26.544C214.944 26.544 215.482 26.336 215.877 25.92C216.282 25.4933 216.485 24.8853 216.485 24.096V19.184H218.309ZM223.916 28.144C223.222 28.144 222.598 28.0213 222.044 27.776C221.5 27.52 221.068 27.1787 220.748 26.752C220.428 26.3147 220.257 25.8293 220.236 25.296H222.124C222.156 25.6693 222.332 25.984 222.652 26.24C222.982 26.4853 223.393 26.608 223.884 26.608C224.396 26.608 224.79 26.512 225.068 26.32C225.356 26.1173 225.5 25.8613 225.5 25.552C225.5 25.2213 225.34 24.976 225.02 24.816C224.71 24.656 224.214 24.48 223.532 24.288C222.87 24.1067 222.332 23.9307 221.916 23.76C221.5 23.5893 221.137 23.328 220.828 22.976C220.529 22.624 220.38 22.16 220.38 21.584C220.38 21.1147 220.518 20.688 220.796 20.304C221.073 19.9093 221.468 19.6 221.98 19.376C222.502 19.152 223.1 19.04 223.772 19.04C224.774 19.04 225.58 19.296 226.188 19.808C226.806 20.3093 227.137 20.9973 227.18 21.872H225.356C225.324 21.4773 225.164 21.1627 224.876 20.928C224.588 20.6933 224.198 20.576 223.708 20.576C223.228 20.576 222.86 20.6667 222.604 20.848C222.348 21.0293 222.22 21.2693 222.22 21.568C222.22 21.8027 222.305 22 222.476 22.16C222.646 22.32 222.854 22.448 223.1 22.544C223.345 22.6293 223.708 22.7413 224.188 22.88C224.828 23.0507 225.35 23.2267 225.756 23.408C226.172 23.5787 226.529 23.8347 226.828 24.176C227.126 24.5173 227.281 24.9707 227.292 25.536C227.292 26.0373 227.153 26.4853 226.876 26.88C226.598 27.2747 226.204 27.584 225.692 27.808C225.19 28.032 224.598 28.144 223.916 28.144ZM234.187 25.52C235.211 24.6347 236.016 23.9093 236.603 23.344C237.2 22.768 237.696 22.1707 238.091 21.552C238.485 20.9333 238.683 20.3147 238.683 19.696C238.683 19.056 238.528 18.5547 238.219 18.192C237.92 17.8293 237.445 17.648 236.795 17.648C236.165 17.648 235.675 17.8507 235.323 18.256C234.981 18.6507 234.8 19.184 234.779 19.856H233.019C233.051 18.64 233.413 17.712 234.107 17.072C234.811 16.4213 235.701 16.096 236.779 16.096C237.941 16.096 238.848 16.416 239.499 17.056C240.16 17.696 240.491 18.5493 240.491 19.616C240.491 20.384 240.293 21.1253 239.899 21.84C239.515 22.544 239.051 23.1787 238.507 23.744C237.973 24.2987 237.291 24.944 236.459 25.68L235.739 26.32H240.811V27.84H233.035V26.512L234.187 25.52ZM242.413 22.016C242.413 20.1707 242.722 18.7307 243.341 17.696C243.97 16.6507 245.048 16.128 246.573 16.128C248.098 16.128 249.17 16.6507 249.789 17.696C250.418 18.7307 250.733 20.1707 250.733 22.016C250.733 23.8827 250.418 25.344 249.789 26.4C249.17 27.4453 248.098 27.968 246.573 27.968C245.048 27.968 243.97 27.4453 243.341 26.4C242.722 25.344 242.413 23.8827 242.413 22.016ZM248.941 22.016C248.941 21.152 248.882 20.4213 248.765 19.824C248.658 19.2267 248.434 18.7413 248.093 18.368C247.752 17.984 247.245 17.792 246.573 17.792C245.901 17.792 245.394 17.984 245.053 18.368C244.712 18.7413 244.482 19.2267 244.365 19.824C244.258 20.4213 244.205 21.152 244.205 22.016C244.205 22.912 244.258 23.664 244.365 24.272C244.472 24.88 244.696 25.3707 245.037 25.744C245.389 26.1173 245.901 26.304 246.573 26.304C247.245 26.304 247.752 26.1173 248.093 25.744C248.445 25.3707 248.674 24.88 248.781 24.272C248.888 23.664 248.941 22.912 248.941 22.016ZM253.671 25.52C254.695 24.6347 255.5 23.9093 256.087 23.344C256.684 22.768 257.18 22.1707 257.575 21.552C257.97 20.9333 258.167 20.3147 258.167 19.696C258.167 19.056 258.012 18.5547 257.703 18.192C257.404 17.8293 256.93 17.648 256.279 17.648C255.65 17.648 255.159 17.8507 254.807 18.256C254.466 18.6507 254.284 19.184 254.263 19.856H252.503C252.535 18.64 252.898 17.712 253.591 17.072C254.295 16.4213 255.186 16.096 256.263 16.096C257.426 16.096 258.332 16.416 258.983 17.056C259.644 17.696 259.975 18.5493 259.975 19.616C259.975 20.384 259.778 21.1253 259.383 21.84C258.999 22.544 258.535 23.1787 257.991 23.744C257.458 24.2987 256.775 24.944 255.943 25.68L255.223 26.32H260.295V27.84H252.519V26.512L253.671 25.52ZM261.866 19.216C261.93 18.224 262.308 17.4507 263.002 16.896C263.706 16.3413 264.602 16.064 265.69 16.064C266.436 16.064 267.082 16.1973 267.626 16.464C268.17 16.7307 268.58 17.0933 268.858 17.552C269.135 18.0107 269.274 18.528 269.274 19.104C269.274 19.7653 269.098 20.3307 268.746 20.8C268.394 21.2693 267.972 21.584 267.482 21.744V21.808C268.111 22 268.602 22.352 268.954 22.864C269.306 23.3653 269.482 24.0107 269.482 24.8C269.482 25.4293 269.338 25.9893 269.05 26.48C268.762 26.9707 268.335 27.36 267.77 27.648C267.204 27.9253 266.527 28.064 265.738 28.064C264.586 28.064 263.636 27.7707 262.89 27.184C262.154 26.5867 261.759 25.7333 261.706 24.624H263.466C263.508 25.1893 263.727 25.6533 264.122 26.016C264.516 26.368 265.05 26.544 265.722 26.544C266.372 26.544 266.874 26.368 267.226 26.016C267.578 25.6533 267.754 25.1893 267.754 24.624C267.754 23.8773 267.514 23.3493 267.034 23.04C266.564 22.72 265.839 22.56 264.858 22.56H264.442V21.056H264.874C265.738 21.0453 266.394 20.9013 266.842 20.624C267.3 20.3467 267.53 19.9093 267.53 19.312C267.53 18.8 267.364 18.3947 267.034 18.096C266.703 17.7867 266.234 17.632 265.626 17.632C265.028 17.632 264.564 17.7867 264.234 18.096C263.903 18.3947 263.706 18.768 263.642 19.216H261.866Z" fill="white"/>
</g>
<defs>
<linearGradient id="paint0_linear_836_6257" x1="176.5" y1="337.6" x2="176.001" y2="152.001" gradientUnits="userSpaceOnUse">
<stop/>
<stop offset="1" stop-opacity="0"/>
</linearGradient>
<clipPath id="clip0_836_6257">
<rect width="352" height="321" fill="white" transform="translate(0.5)"/>
</clipPath>
</defs>
</svg>
