<svg width="353" height="321" viewBox="0 0 353 321" fill="none" xmlns="http://www.w3.org/2000/svg">
<g clip-path="url(#clip0_836_6219)">
<rect width="352" height="321" transform="translate(0.5)" fill="#B7BC99"/>
<g opacity="0.4">
<path d="M176.795 161.424C176.827 161.398 176.861 161.376 176.897 161.352C176.883 161.357 176.87 161.36 176.856 161.362C176.836 161.383 176.813 161.405 176.795 161.424Z" fill="#E9557F"/>
<path d="M173.736 65.854C181.541 76.4931 189.295 87.4924 194.268 99.7892C199.067 111.659 200.153 124.577 195.178 136.582C191.342 145.837 184.913 153.403 177.876 160.363C177.843 160.486 177.808 160.611 177.773 160.734C177.782 160.732 177.787 160.729 177.799 160.727C178.093 160.524 178.379 160.319 178.677 160.121C178.518 160.269 178.362 160.425 178.205 160.577C183.955 156.549 189.345 152.222 194.111 146.994C200.284 140.225 204.803 131.862 206.741 122.889C210.322 106.302 205.455 89.3669 199.077 74.0928C192.307 57.878 183.482 42.6364 176.073 26.7255C170.055 13.8073 163.443 -1.33195 164.864 -16H130.744C132.354 1.58391 140.446 18.3774 150.138 33.1957C157.49 44.446 165.794 55.0271 173.736 65.854Z" fill="#E9557F"/>
<path d="M178.143 160.638C178.166 160.617 178.186 160.595 178.205 160.576C178.362 160.424 178.517 160.269 178.676 160.121C178.379 160.319 178.092 160.523 177.799 160.727C177.915 160.698 178.027 160.669 178.143 160.638Z" fill="#E9557F"/>
<path d="M181.264 256.146C173.463 245.507 165.705 234.507 160.732 222.211C155.933 210.341 154.848 197.423 159.822 185.418C163.658 176.163 170.088 168.597 177.125 161.637C177.157 161.514 177.193 161.389 177.227 161.266C177.118 161.295 177.005 161.324 176.897 161.352C176.862 161.375 176.827 161.398 176.795 161.423C171.045 165.451 165.656 169.778 160.889 175.006C154.716 181.775 150.197 190.138 148.26 199.111C144.678 215.698 149.548 232.633 155.925 247.911C162.694 264.122 171.518 279.364 178.931 295.274C184.945 308.193 191.557 323.332 190.137 338H224.258C222.646 320.416 214.554 303.623 204.863 288.804C197.51 277.554 189.206 266.973 181.264 256.146Z" fill="#E9557F"/>
<path d="M39.4459 12.9639C47.287 37.5678 68.6045 53.3369 90.7585 64.4319C102.868 70.4924 115.448 75.5166 127.825 80.9932C139.539 86.1796 151.355 91.7296 161.495 99.6697C171.368 107.401 178.705 117.815 180.517 130.414C181.975 140.539 180.175 150.521 177.509 160.259C177.539 160.385 177.572 160.513 177.606 160.64C177.76 160.309 177.918 159.979 178.079 159.65C178.014 159.866 177.956 160.082 177.896 160.298C180.954 153.738 183.526 147.087 185.017 139.949C186.9 130.945 186.42 121.549 183.581 112.81C178.429 96.9365 165.671 84.8207 152.751 74.9617C138.612 64.1724 123.145 55.3087 108.622 45.0725C96.4195 36.4786 82.9823 26.3397 77.2155 12.0489C73.4222 2.64919 74.7179 -6.87344 77.7635 -16H36.0162C35.5433 -6.223 36.4277 3.50278 39.4459 12.9639Z" fill="#E9557F"/>
<path d="M177.125 161.637C177.118 161.659 177.111 161.683 177.104 161.702C177.176 161.55 177.249 161.396 177.321 161.244C177.29 161.251 177.256 161.258 177.227 161.266C177.193 161.389 177.157 161.514 177.125 161.637Z" fill="#E9557F"/>
<path d="M315.554 309.036C307.713 284.436 286.397 268.663 264.242 257.568C252.136 251.508 239.553 246.483 227.179 241.007C215.461 235.82 203.645 230.27 193.505 222.33C183.632 214.6 176.295 204.185 174.484 191.586C173.026 181.46 174.828 171.479 177.492 161.741C177.451 161.57 177.406 161.401 177.362 161.232C177.348 161.235 177.335 161.241 177.321 161.244C177.249 161.396 177.176 161.55 177.104 161.702C174.046 168.262 171.474 174.913 169.983 182.051C168.1 191.055 168.582 200.451 171.419 209.192C176.571 225.063 189.329 237.179 202.249 247.038C216.388 257.827 231.855 266.691 246.378 276.927C258.581 285.525 272.018 295.66 277.785 309.951C281.578 319.351 280.282 328.873 277.237 338H318.984C319.457 328.223 318.573 318.497 315.554 309.036Z" fill="#E9557F"/>
<path d="M177.773 160.734C177.807 160.611 177.843 160.486 177.876 160.363C177.883 160.341 177.889 160.317 177.896 160.298C177.956 160.081 178.014 159.866 178.079 159.65C177.918 159.979 177.76 160.309 177.606 160.64C177.616 160.682 177.628 160.727 177.638 160.768C177.683 160.756 177.727 160.746 177.773 160.734Z" fill="#E9557F"/>
<path d="M54.0951 120.741C67.6108 119.936 81.0207 117.998 94.4732 116.55C107.583 115.144 120.965 114.034 134.071 116.05C146.298 117.928 157.588 123.553 165.198 133.491C171.288 141.439 174.627 150.786 177.138 160.356C177.227 160.45 177.317 160.541 177.41 160.635C177.381 160.269 177.351 159.907 177.326 159.542C177.379 159.761 177.437 159.979 177.491 160.198C176.863 152.99 175.783 145.924 173.485 139.01C170.514 130.066 165.282 122.066 158.226 115.823C145.574 104.634 128.07 100.696 111.762 98.7018C93.9286 96.5218 75.9213 96.6191 58.0523 94.8709C43.3928 93.4386 26.4661 91.1937 14.9342 81.1213C4.05605 71.6209 1.98866 57.2055 0.718519 43.6317C0.665596 43.1008 0.588773 42.5733 0.5 42.0458V112.824C16.8786 120.479 35.97 121.817 54.0951 120.741Z" fill="#E9557F"/>
<path d="M177.459 161.229C177.452 161.224 177.447 161.219 177.439 161.214C177.415 161.219 177.389 161.224 177.362 161.232C177.406 161.401 177.451 161.57 177.492 161.741C177.497 161.762 177.504 161.782 177.509 161.802C177.492 161.611 177.474 161.42 177.459 161.229Z" fill="#E9557F"/>
<path d="M300.905 201.259C287.389 202.065 273.979 204.002 260.527 205.45C247.417 206.857 234.035 207.966 220.929 205.95C208.702 204.072 197.412 198.447 189.802 188.51C183.712 180.561 180.373 171.216 177.862 161.644C177.729 161.505 177.594 161.367 177.459 161.229C177.474 161.42 177.491 161.611 177.508 161.802C178.137 169.01 179.217 176.076 181.515 182.99C184.486 191.934 189.718 199.934 196.776 206.177C209.426 217.366 226.93 221.304 243.242 223.298C261.071 225.478 279.079 225.381 296.948 227.129C311.611 228.562 328.534 230.807 340.066 240.879C350.944 250.379 353.011 264.795 354.281 278.368C354.334 278.899 354.411 279.427 354.5 279.954V209.18C338.121 201.522 319.032 200.183 300.905 201.259Z" fill="#E9557F"/>
<path d="M177.561 160.787C177.585 160.781 177.611 160.776 177.638 160.768C177.628 160.727 177.616 160.682 177.606 160.64C177.572 160.513 177.539 160.385 177.508 160.259C177.503 160.24 177.496 160.218 177.491 160.198C177.437 159.979 177.379 159.761 177.326 159.542C177.351 159.907 177.38 160.269 177.409 160.635C177.459 160.688 177.51 160.737 177.561 160.787Z" fill="#E9557F"/>
<path d="M82.354 164.764C92.9931 156.963 103.992 149.205 116.289 144.232C128.159 139.433 141.077 138.348 153.082 143.322C162.337 147.158 169.903 153.587 176.863 160.624C176.991 160.66 177.118 160.696 177.249 160.732C177.037 160.428 176.826 160.129 176.617 159.825C176.769 159.983 176.925 160.138 177.077 160.295C173.049 154.545 168.722 149.156 163.494 144.389C156.725 138.216 148.362 133.697 139.389 131.76C122.802 128.178 105.867 133.045 90.5928 139.425C74.378 146.194 59.1364 155.018 43.2255 162.427C30.3073 168.445 15.1681 175.057 0.5 173.637V207.758C18.0839 206.146 34.874 198.054 49.6957 188.363C60.946 181.01 71.5236 172.706 82.354 164.764Z" fill="#E9557F"/>
<path d="M177.459 161.229C177.594 161.367 177.729 161.505 177.862 161.644C177.883 161.666 177.905 161.686 177.924 161.705C177.809 161.545 177.7 161.384 177.589 161.224C177.558 161.215 177.527 161.205 177.497 161.196C177.478 161.201 177.459 161.208 177.439 161.213C177.447 161.218 177.452 161.224 177.459 161.229Z" fill="#E9557F"/>
<path d="M272.646 157.236C262.007 165.038 251.011 172.795 238.711 177.768C226.841 182.567 213.922 183.653 201.918 178.678C192.663 174.842 185.097 168.413 178.137 161.376C177.954 161.326 177.771 161.273 177.589 161.224C177.7 161.384 177.809 161.545 177.923 161.705C181.95 167.455 186.278 172.845 191.506 177.611C198.274 183.784 206.638 188.303 215.611 190.241C232.198 193.822 249.133 188.952 264.41 182.575C280.622 175.806 295.863 166.982 311.774 159.573C324.693 153.555 339.832 146.943 354.5 148.364V114.244C336.916 115.854 320.126 123.946 305.304 133.638C294.057 140.99 283.473 149.294 272.646 157.236Z" fill="#E9557F"/>
<path d="M177.504 160.804C177.522 160.799 177.541 160.794 177.562 160.787C177.511 160.737 177.459 160.688 177.41 160.635C177.318 160.541 177.227 160.45 177.138 160.356C177.118 160.336 177.096 160.314 177.077 160.295C176.925 160.138 176.77 159.983 176.618 159.826C176.826 160.129 177.038 160.428 177.249 160.732C177.331 160.754 177.417 160.778 177.504 160.804Z" fill="#E9557F"/>
<path d="M29.4639 299.054C54.0678 291.213 69.8369 269.897 80.9319 247.742C86.9958 235.636 92.0166 223.053 97.4932 210.679C102.676 198.961 108.23 187.145 116.17 177.005C123.901 167.132 134.315 159.795 146.914 157.984C157.039 156.526 167.021 158.325 176.759 160.992C176.885 160.961 177.013 160.928 177.14 160.894C176.809 160.741 176.479 160.582 176.15 160.421C176.366 160.486 176.582 160.544 176.798 160.604C170.238 157.546 163.587 154.974 156.449 153.483C147.445 151.6 138.049 152.082 129.31 154.919C113.437 160.071 101.321 172.829 91.4617 185.749C80.6724 199.89 71.8087 215.355 61.5725 229.878C52.9752 242.081 42.8397 255.518 28.5489 261.285C19.1492 265.081 9.62656 263.782 0.5 260.737V302.484C10.277 302.96 20.0028 302.073 29.4639 299.054Z" fill="#E9557F"/>
<path d="M177.589 161.224C177.771 161.273 177.954 161.326 178.137 161.376C178.159 161.382 178.183 161.389 178.201 161.396C178.027 161.316 177.853 161.232 177.679 161.152C177.619 161.166 177.558 161.183 177.496 161.196C177.527 161.205 177.558 161.215 177.589 161.224Z" fill="#E9557F"/>
<path d="M325.536 22.9459C300.932 30.787 285.163 52.1045 274.068 74.2585C268.008 86.3675 262.983 98.9477 257.507 111.325C252.32 123.039 246.77 134.855 238.83 144.995C231.1 154.868 220.685 162.205 208.086 164.017C197.96 165.475 187.979 163.672 178.241 161.009C178.053 161.055 177.865 161.103 177.679 161.152C177.853 161.232 178.027 161.316 178.202 161.396C184.762 164.454 191.413 167.026 198.551 168.517C207.555 170.4 216.951 169.92 225.692 167.081C241.563 161.929 253.679 149.171 263.538 136.251C274.324 122.112 283.191 106.645 293.427 92.1224C302.023 79.9195 312.16 66.4823 326.451 60.7155C335.851 56.9222 345.373 58.2179 354.5 61.2635V19.5162C344.723 19.0433 334.997 19.9277 325.536 22.9459Z" fill="#E9557F"/>
<path d="M177.503 160.804C177.416 160.778 177.331 160.754 177.249 160.732C177.117 160.696 176.991 160.66 176.863 160.624C176.841 160.618 176.819 160.611 176.798 160.604C176.581 160.544 176.366 160.486 176.149 160.421C176.479 160.582 176.808 160.741 177.14 160.894C177.259 160.865 177.38 160.834 177.503 160.804Z" fill="#E9557F"/>
<path d="M137.242 284.405C136.436 270.889 134.498 257.479 133.05 244.027C131.644 230.917 130.534 217.535 132.55 204.429C134.432 192.202 140.053 180.912 149.991 173.302C157.939 167.212 167.286 163.873 176.857 161.362C176.87 161.36 176.884 161.357 176.898 161.352C177.005 161.324 177.118 161.295 177.227 161.266C177.256 161.258 177.29 161.251 177.321 161.244C177.335 161.241 177.348 161.235 177.362 161.232C177.389 161.224 177.415 161.218 177.439 161.213C177.459 161.208 177.478 161.201 177.497 161.196C177.558 161.183 177.62 161.165 177.679 161.152C177.866 161.102 178.053 161.054 178.241 161.008C178.262 161.003 178.282 160.996 178.303 160.991C177.55 161.058 176.799 161.119 176.042 161.174C176.261 161.121 176.479 161.063 176.698 161.008C169.49 161.637 162.424 162.717 155.51 165.015C146.566 167.986 138.566 173.218 132.323 180.274C121.134 192.926 117.196 210.429 115.202 226.738C113.022 244.571 113.119 262.579 111.374 280.448C109.939 295.107 107.694 312.034 97.6214 323.566C88.121 334.444 73.7056 336.511 60.1319 337.781C59.6009 337.834 59.0734 337.911 58.5459 338H129.324C136.979 321.621 138.317 302.532 137.242 284.405Z" fill="#E9557F"/>
<path d="M217.759 37.5951C218.564 51.1108 220.502 64.5207 221.95 77.9732C223.356 91.0826 224.466 104.465 222.45 117.571C220.572 129.798 214.947 141.087 205.009 148.698C197.061 154.788 187.714 158.127 178.144 160.638C178.027 160.669 177.915 160.698 177.799 160.727C177.787 160.729 177.782 160.732 177.773 160.734C177.727 160.746 177.683 160.756 177.638 160.768C177.611 160.776 177.585 160.781 177.561 160.787C177.541 160.793 177.522 160.799 177.503 160.804C177.38 160.834 177.259 160.865 177.14 160.894C177.013 160.928 176.885 160.961 176.759 160.991C176.74 160.997 176.718 161.003 176.698 161.009C176.479 161.063 176.261 161.121 176.042 161.174C176.798 161.119 177.549 161.058 178.302 160.991C185.51 160.363 192.576 159.283 199.49 156.985C208.434 154.014 216.434 148.782 222.677 141.724C233.866 129.074 237.801 111.57 239.798 95.2584C241.978 77.4286 241.881 59.4213 243.629 41.5523C245.061 26.8894 247.306 9.96614 257.379 -1.56583C266.879 -12.444 281.295 -14.5113 294.868 -15.7815C295.399 -15.8344 295.927 -15.9112 296.454 -16H225.676C218.021 0.378645 216.683 19.47 217.759 37.5951Z" fill="#E9557F"/>
</g>
<path d="M309.866 157.835L306.188 161.513C304.316 163.385 301.777 164.437 299.129 164.437C296.481 164.437 293.942 163.385 292.07 161.513C290.198 159.641 289.146 157.101 289.146 154.454C289.146 151.806 290.198 149.266 292.07 147.394L295.747 143.717L272.311 120.28L242.729 149.862L241.385 153.926L237.32 155.27L171.962 220.629L195.412 244.079L199.09 240.402C200.962 238.529 203.501 237.478 206.149 237.478C208.797 237.478 211.336 238.529 213.208 240.402C215.08 242.274 216.132 244.813 216.132 247.461C216.132 250.109 215.08 252.648 213.208 254.52L209.531 258.198L232.967 281.634L298.316 216.286L299.66 212.222L303.724 210.877L333.306 181.295L309.866 157.835ZM239.758 159.661L247.109 152.309L258.202 163.402L250.847 170.754L239.758 159.661ZM254.212 174.115L261.567 166.76L272.499 177.692L265.144 185.047L254.212 174.115ZM268.519 188.422L275.874 181.067L286.806 191.999L279.464 199.37L268.519 188.422ZM293.922 213.822L282.829 202.729L290.181 195.374L301.274 206.467L293.922 213.822Z" fill="#FCD9C6"/>
<path d="M196.787 99.1379C192.616 98.0196 189.021 95.368 186.721 91.7135C184.421 88.0589 183.585 83.6707 184.381 79.4265C184.446 79.0742 184.376 78.7103 184.184 78.4077C183.992 78.1052 183.693 77.8864 183.346 77.7952L161.215 71.8517C160.849 71.7538 160.46 71.8051 160.132 71.9944C159.804 72.1836 159.565 72.4953 159.467 72.8609L150.019 108.122C149.67 109.423 149.629 110.787 149.899 112.106C150.173 113.427 150.134 114.794 149.787 116.098C149.44 117.401 148.794 118.606 147.9 119.617C147.006 120.625 146.359 121.827 146.008 123.129L121.771 213.545C121.673 213.91 121.724 214.3 121.913 214.628C122.103 214.955 122.414 215.195 122.78 215.293L144.902 221.22C145.248 221.315 145.616 221.275 145.934 221.109C146.251 220.943 146.494 220.663 146.614 220.325C148.045 216.249 150.962 212.864 154.782 210.848C158.603 208.831 163.043 208.332 167.216 209.45C171.388 210.568 174.984 213.221 177.284 216.877C179.584 220.534 180.418 224.924 179.62 229.169C179.555 229.521 179.625 229.885 179.817 230.188C180.009 230.49 180.308 230.709 180.655 230.8L202.777 236.728C203.142 236.826 203.532 236.774 203.86 236.585C204.188 236.396 204.427 236.084 204.525 235.719L228.758 145.288C229.106 143.986 229.146 142.621 228.876 141.3C228.603 139.979 228.641 138.613 228.988 137.309C229.335 136.006 229.981 134.801 230.875 133.79C231.769 132.783 232.415 131.581 232.764 130.28L242.212 95.0188C242.31 94.6532 242.258 94.2637 242.069 93.9359C241.88 93.6081 241.568 93.3689 241.203 93.2709L219.08 87.3433C218.735 87.249 218.366 87.2889 218.049 87.4549C217.731 87.6209 217.488 87.9008 217.368 88.2385C215.942 92.3138 213.029 95.7005 209.214 97.7213C205.398 99.742 200.96 100.248 196.787 99.1379Z" stroke="#FCD9C6" stroke-width="8" stroke-miterlimit="10"/>
<path d="M159.044 118.573L150.768 116.355M181.111 124.486L175.594 123.01M203.18 130.402L197.664 128.921M228.008 137.052L219.731 134.834" stroke="#FCD9C6" stroke-width="8" stroke-miterlimit="10" stroke-linecap="round"/>
<g clip-path="url(#clip1_836_6219)">
<path d="M97.823 94.7012L99.169 99.7248C99.8543 102.282 99.4956 105.007 98.1717 107.3C96.8478 109.593 94.6673 111.267 92.1098 111.952C89.5523 112.637 86.8273 112.278 84.5343 110.954C82.2413 109.631 80.5681 107.45 79.8828 104.893L78.5367 99.8689L46.5216 108.447L57.3492 148.857L60.1965 152.053L59.329 156.245L83.2518 245.526L115.285 236.943L113.939 231.92C113.254 229.362 113.613 226.637 114.937 224.344C116.26 222.051 118.441 220.378 120.999 219.693C123.556 219.007 126.281 219.366 128.574 220.69C130.867 222.014 132.54 224.194 133.226 226.752L134.572 231.775L166.587 223.197L142.668 133.929L139.82 130.733L140.688 126.541L129.86 86.1316L97.823 94.7012ZM64.3495 156.33L61.6586 146.287L76.8121 142.227L79.5013 152.272L64.3495 156.33ZM84.0949 151.039L81.4028 140.992L96.3359 136.99L99.028 147.037L84.0949 151.039ZM103.638 145.802L100.946 135.755L115.879 131.754L118.593 141.798L103.638 145.802ZM138.337 136.502L123.183 140.563L120.49 130.518L135.643 126.458L138.337 136.502Z" fill="#FCD9C6"/>
</g>
<rect x="-10.5" y="152" width="374" height="174" fill="url(#paint0_linear_836_6219)"/>
<path d="M66.52 227.406V235.626H55.36V269.526H45.1V235.626H33.94V227.406H66.52ZM76.8292 232.566C75.0292 232.566 73.5492 232.046 72.3892 231.006C71.2692 229.926 70.7092 228.606 70.7092 227.046C70.7092 225.446 71.2692 224.126 72.3892 223.086C73.5492 222.006 75.0292 221.466 76.8292 221.466C78.5892 221.466 80.0292 222.006 81.1492 223.086C82.3092 224.126 82.8892 225.446 82.8892 227.046C82.8892 228.606 82.3092 229.926 81.1492 231.006C80.0292 232.046 78.5892 232.566 76.8292 232.566ZM81.9292 236.046V269.526H71.6692V236.046H81.9292ZM87.3245 252.786C87.3245 249.306 88.0245 246.266 89.4245 243.666C90.8645 241.066 92.8445 239.066 95.3645 237.666C97.9245 236.266 100.845 235.566 104.125 235.566C108.325 235.566 111.825 236.666 114.625 238.866C117.465 241.066 119.325 244.166 120.205 248.166H109.285C108.365 245.606 106.585 244.326 103.945 244.326C102.065 244.326 100.565 245.066 99.4445 246.546C98.3245 247.986 97.7645 250.066 97.7645 252.786C97.7645 255.506 98.3245 257.606 99.4445 259.086C100.565 260.526 102.065 261.246 103.945 261.246C106.585 261.246 108.365 259.966 109.285 257.406H120.205C119.325 261.326 117.465 264.406 114.625 266.646C111.785 268.886 108.285 270.006 104.125 270.006C100.845 270.006 97.9245 269.306 95.3645 267.906C92.8445 266.506 90.8645 264.506 89.4245 261.906C88.0245 259.306 87.3245 256.266 87.3245 252.786ZM146.153 269.526L135.953 255.486V269.526H125.693V225.126H135.953V249.666L146.093 236.046H158.753L144.833 252.846L158.873 269.526H146.153ZM194.342 252.246C194.342 253.206 194.283 254.206 194.163 255.246H170.943C171.103 257.326 171.763 258.926 172.923 260.046C174.123 261.126 175.583 261.666 177.303 261.666C179.863 261.666 181.643 260.586 182.643 258.426H193.563C193.003 260.626 191.983 262.606 190.503 264.366C189.063 266.126 187.243 267.506 185.043 268.506C182.843 269.506 180.383 270.006 177.663 270.006C174.383 270.006 171.463 269.306 168.903 267.906C166.343 266.506 164.343 264.506 162.903 261.906C161.463 259.306 160.743 256.266 160.743 252.786C160.743 249.306 161.443 246.266 162.843 243.666C164.283 241.066 166.283 239.066 168.843 237.666C171.403 236.266 174.343 235.566 177.663 235.566C180.903 235.566 183.783 236.246 186.303 237.606C188.823 238.966 190.783 240.906 192.183 243.426C193.623 245.946 194.342 248.886 194.342 252.246ZM183.843 249.546C183.843 247.786 183.243 246.386 182.043 245.346C180.843 244.306 179.343 243.786 177.543 243.786C175.823 243.786 174.363 244.286 173.163 245.286C172.003 246.286 171.283 247.706 171.003 249.546H183.843ZM218.415 260.826V269.526H213.195C209.475 269.526 206.575 268.626 204.495 266.826C202.415 264.986 201.375 262.006 201.375 257.886V244.566H197.295V236.046H201.375V227.886H211.635V236.046H218.355V244.566H211.635V258.006C211.635 259.006 211.875 259.726 212.355 260.166C212.835 260.606 213.635 260.826 214.755 260.826H218.415ZM229.29 232.566C227.49 232.566 226.01 232.046 224.85 231.006C223.73 229.926 223.17 228.606 223.17 227.046C223.17 225.446 223.73 224.126 224.85 223.086C226.01 222.006 227.49 221.466 229.29 221.466C231.05 221.466 232.49 222.006 233.61 223.086C234.77 224.126 235.35 225.446 235.35 227.046C235.35 228.606 234.77 229.926 233.61 231.006C232.49 232.046 231.05 232.566 229.29 232.566ZM234.39 236.046V269.526H224.13V236.046H234.39ZM262.225 235.686C266.145 235.686 269.265 236.966 271.585 239.526C273.945 242.046 275.125 245.526 275.125 249.966V269.526H264.925V251.346C264.925 249.106 264.345 247.366 263.185 246.126C262.025 244.886 260.465 244.266 258.505 244.266C256.545 244.266 254.985 244.886 253.825 246.126C252.665 247.366 252.085 249.106 252.085 251.346V269.526H241.825V236.046H252.085V240.486C253.125 239.006 254.525 237.846 256.285 237.006C258.045 236.126 260.025 235.686 262.225 235.686ZM294.975 235.566C297.335 235.566 299.395 236.046 301.155 237.006C302.955 237.966 304.335 239.226 305.295 240.786V236.046H315.555V269.466C315.555 272.546 314.935 275.326 313.695 277.806C312.495 280.326 310.635 282.326 308.115 283.806C305.635 285.286 302.535 286.026 298.815 286.026C293.855 286.026 289.835 284.846 286.755 282.486C283.675 280.166 281.915 277.006 281.475 273.006H291.615C291.935 274.286 292.695 275.286 293.895 276.006C295.095 276.766 296.575 277.146 298.335 277.146C300.455 277.146 302.135 276.526 303.375 275.286C304.655 274.086 305.295 272.146 305.295 269.466V264.726C304.295 266.286 302.915 267.566 301.155 268.566C299.395 269.526 297.335 270.006 294.975 270.006C292.215 270.006 289.715 269.306 287.475 267.906C285.235 266.466 283.455 264.446 282.135 261.846C280.855 259.206 280.215 256.166 280.215 252.726C280.215 249.286 280.855 246.266 282.135 243.666C283.455 241.066 285.235 239.066 287.475 237.666C289.715 236.266 292.215 235.566 294.975 235.566ZM305.295 252.786C305.295 250.226 304.575 248.206 303.135 246.726C301.735 245.246 300.015 244.506 297.975 244.506C295.935 244.506 294.195 245.246 292.755 246.726C291.355 248.166 290.655 250.166 290.655 252.726C290.655 255.286 291.355 257.326 292.755 258.846C294.195 260.326 295.935 261.066 297.975 261.066C300.015 261.066 301.735 260.326 303.135 258.846C304.575 257.366 305.295 255.346 305.295 252.786Z" fill="#F8E6D2"/>
<rect width="353" height="44" transform="translate(0 -3)" fill="#E9557F"/>
<path d="M83.468 22.52C84.492 21.6347 85.2973 20.9093 85.884 20.344C86.4813 19.768 86.9773 19.1707 87.372 18.552C87.7667 17.9333 87.964 17.3147 87.964 16.696C87.964 16.056 87.8093 15.5547 87.5 15.192C87.2013 14.8293 86.7267 14.648 86.076 14.648C85.4467 14.648 84.956 14.8507 84.604 15.256C84.2627 15.6507 84.0813 16.184 84.06 16.856H82.3C82.332 15.64 82.6947 14.712 83.388 14.072C84.092 13.4213 84.9827 13.096 86.06 13.096C87.2227 13.096 88.1293 13.416 88.78 14.056C89.4413 14.696 89.772 15.5493 89.772 16.616C89.772 17.384 89.5747 18.1253 89.18 18.84C88.796 19.544 88.332 20.1787 87.788 20.744C87.2547 21.2987 86.572 21.944 85.74 22.68L85.02 23.32H90.092V24.84H82.316V23.512L83.468 22.52ZM99.0864 14.744L94.6384 25H92.7984L97.2944 14.936H91.3744V13.384H99.0864V14.744ZM110.116 25.112C109.081 25.112 108.126 24.872 107.252 24.392C106.388 23.9013 105.7 23.224 105.188 22.36C104.686 21.4853 104.436 20.504 104.436 19.416C104.436 18.328 104.686 17.352 105.188 16.488C105.7 15.624 106.388 14.952 107.252 14.472C108.126 13.9813 109.081 13.736 110.116 13.736C111.161 13.736 112.116 13.9813 112.98 14.472C113.854 14.952 114.542 15.624 115.044 16.488C115.545 17.352 115.796 18.328 115.796 19.416C115.796 20.504 115.545 21.4853 115.044 22.36C114.542 23.224 113.854 23.9013 112.98 24.392C112.116 24.872 111.161 25.112 110.116 25.112ZM110.116 23.528C110.852 23.528 111.508 23.3627 112.084 23.032C112.66 22.6907 113.108 22.2107 113.428 21.592C113.758 20.9627 113.924 20.2373 113.924 19.416C113.924 18.5947 113.758 17.8747 113.428 17.256C113.108 16.6373 112.66 16.1627 112.084 15.832C111.508 15.5013 110.852 15.336 110.116 15.336C109.38 15.336 108.724 15.5013 108.148 15.832C107.572 16.1627 107.118 16.6373 106.788 17.256C106.468 17.8747 106.308 18.5947 106.308 19.416C106.308 20.2373 106.468 20.9627 106.788 21.592C107.118 22.2107 107.572 22.6907 108.148 23.032C108.724 23.3627 109.38 23.528 110.116 23.528ZM121.079 20.6L125.143 25H122.679L119.415 21.208V25H117.591V13.16H119.415V20.04L122.615 16.184H125.143L121.079 20.6ZM128.578 17.672V22.552C128.578 22.8827 128.653 23.1227 128.802 23.272C128.962 23.4107 129.229 23.48 129.602 23.48H130.722V25H129.282C128.461 25 127.831 24.808 127.394 24.424C126.957 24.04 126.738 23.416 126.738 22.552V17.672H125.698V16.184H126.738V13.992H128.578V16.184H130.722V17.672H128.578ZM143.327 18.44V19.976H136.751V18.44H143.327ZM151.803 18.904C150.694 18.3493 150.139 17.4747 150.139 16.28C150.139 15.704 150.283 15.176 150.571 14.696C150.859 14.216 151.291 13.8373 151.867 13.56C152.443 13.272 153.147 13.128 153.979 13.128C154.8 13.128 155.499 13.272 156.075 13.56C156.662 13.8373 157.099 14.216 157.387 14.696C157.675 15.176 157.819 15.704 157.819 16.28C157.819 16.8773 157.664 17.4053 157.355 17.864C157.056 18.312 156.656 18.6587 156.155 18.904C156.763 19.128 157.243 19.496 157.595 20.008C157.947 20.5093 158.123 21.1013 158.123 21.784C158.123 22.4773 157.947 23.0907 157.595 23.624C157.243 24.1573 156.752 24.568 156.123 24.856C155.494 25.144 154.779 25.288 153.979 25.288C153.179 25.288 152.464 25.144 151.835 24.856C151.216 24.568 150.731 24.1573 150.379 23.624C150.027 23.0907 149.851 22.4773 149.851 21.784C149.851 21.0907 150.027 20.4933 150.379 19.992C150.731 19.4907 151.206 19.128 151.803 18.904ZM156.075 16.504C156.075 15.9067 155.888 15.448 155.515 15.128C155.142 14.808 154.63 14.648 153.979 14.648C153.339 14.648 152.832 14.808 152.459 15.128C152.086 15.448 151.899 15.912 151.899 16.52C151.899 17.0533 152.091 17.4907 152.475 17.832C152.87 18.1627 153.371 18.328 153.979 18.328C154.587 18.328 155.088 18.1573 155.483 17.816C155.878 17.4747 156.075 17.0373 156.075 16.504ZM153.979 19.704C153.275 19.704 152.699 19.88 152.251 20.232C151.814 20.5733 151.595 21.0693 151.595 21.72C151.595 22.328 151.808 22.824 152.235 23.208C152.662 23.5813 153.243 23.768 153.979 23.768C154.704 23.768 155.275 23.576 155.691 23.192C156.118 22.808 156.331 22.3173 156.331 21.72C156.331 21.08 156.112 20.584 155.675 20.232C155.248 19.88 154.683 19.704 153.979 19.704ZM171.138 22.728H166.482L165.682 25H163.778L167.762 13.864H169.874L173.858 25H171.938L171.138 22.728ZM170.626 21.24L168.818 16.072L166.994 21.24H170.626ZM179.143 16.04C179.825 16.04 180.428 16.1787 180.951 16.456C181.484 16.7227 181.9 17.0587 182.199 17.464V16.184H184.039V25.144C184.039 25.9547 183.868 26.6747 183.527 27.304C183.185 27.944 182.689 28.4453 182.039 28.808C181.399 29.1707 180.631 29.352 179.735 29.352C178.54 29.352 177.548 29.0693 176.759 28.504C175.969 27.9493 175.521 27.192 175.415 26.232H177.223C177.361 26.6907 177.655 27.0587 178.103 27.336C178.561 27.624 179.105 27.768 179.735 27.768C180.471 27.768 181.063 27.544 181.511 27.096C181.969 26.648 182.199 25.9973 182.199 25.144V23.672C181.889 24.088 181.468 24.44 180.935 24.728C180.412 25.0053 179.815 25.144 179.143 25.144C178.375 25.144 177.671 24.952 177.031 24.568C176.401 24.1733 175.9 23.6293 175.527 22.936C175.164 22.232 174.983 21.4373 174.983 20.552C174.983 19.6667 175.164 18.8827 175.527 18.2C175.9 17.5173 176.401 16.9893 177.031 16.616C177.671 16.232 178.375 16.04 179.143 16.04ZM182.199 20.584C182.199 19.976 182.071 19.448 181.815 19C181.569 18.552 181.244 18.2107 180.839 17.976C180.433 17.7413 179.996 17.624 179.527 17.624C179.057 17.624 178.62 17.7413 178.215 17.976C177.809 18.2 177.479 18.536 177.223 18.984C176.977 19.4213 176.855 19.944 176.855 20.552C176.855 21.16 176.977 21.6933 177.223 22.152C177.479 22.6107 177.809 22.9627 178.215 23.208C178.631 23.4427 179.068 23.56 179.527 23.56C179.996 23.56 180.433 23.4427 180.839 23.208C181.244 22.9733 181.569 22.632 181.815 22.184C182.071 21.7253 182.199 21.192 182.199 20.584ZM194.418 16.184V25H192.594V23.96C192.306 24.3227 191.928 24.6107 191.458 24.824C191 25.0267 190.509 25.128 189.986 25.128C189.293 25.128 188.669 24.984 188.114 24.696C187.57 24.408 187.138 23.9813 186.818 23.416C186.509 22.8507 186.354 22.168 186.354 21.368V16.184H188.162V21.096C188.162 21.8853 188.36 22.4933 188.754 22.92C189.149 23.336 189.688 23.544 190.37 23.544C191.053 23.544 191.592 23.336 191.986 22.92C192.392 22.4933 192.594 21.8853 192.594 21.096V16.184H194.418ZM200.025 25.144C199.332 25.144 198.708 25.0213 198.153 24.776C197.609 24.52 197.177 24.1787 196.857 23.752C196.537 23.3147 196.366 22.8293 196.345 22.296H198.233C198.265 22.6693 198.441 22.984 198.761 23.24C199.092 23.4853 199.502 23.608 199.993 23.608C200.505 23.608 200.9 23.512 201.177 23.32C201.465 23.1173 201.609 22.8613 201.609 22.552C201.609 22.2213 201.449 21.976 201.129 21.816C200.82 21.656 200.324 21.48 199.641 21.288C198.98 21.1067 198.441 20.9307 198.025 20.76C197.609 20.5893 197.246 20.328 196.937 19.976C196.638 19.624 196.489 19.16 196.489 18.584C196.489 18.1147 196.628 17.688 196.905 17.304C197.182 16.9093 197.577 16.6 198.089 16.376C198.612 16.152 199.209 16.04 199.881 16.04C200.884 16.04 201.689 16.296 202.297 16.808C202.916 17.3093 203.246 17.9973 203.289 18.872H201.465C201.433 18.4773 201.273 18.1627 200.985 17.928C200.697 17.6933 200.308 17.576 199.817 17.576C199.337 17.576 198.969 17.6667 198.713 17.848C198.457 18.0293 198.329 18.2693 198.329 18.568C198.329 18.8027 198.414 19 198.585 19.16C198.756 19.32 198.964 19.448 199.209 19.544C199.454 19.6293 199.817 19.7413 200.297 19.88C200.937 20.0507 201.46 20.2267 201.865 20.408C202.281 20.5787 202.638 20.8347 202.937 21.176C203.236 21.5173 203.39 21.9707 203.401 22.536C203.401 23.0373 203.262 23.4853 202.985 23.88C202.708 24.2747 202.313 24.584 201.801 24.808C201.3 25.032 200.708 25.144 200.025 25.144ZM207.5 17.672V22.552C207.5 22.8827 207.575 23.1227 207.724 23.272C207.884 23.4107 208.151 23.48 208.524 23.48H209.644V25H208.204C207.383 25 206.753 24.808 206.316 24.424C205.879 24.04 205.66 23.416 205.66 22.552V17.672H204.62V16.184H205.66V13.992H207.5V16.184H209.644V17.672H207.5ZM219.309 16.184V25H217.485V23.96C217.197 24.3227 216.818 24.6107 216.349 24.824C215.89 25.0267 215.4 25.128 214.877 25.128C214.184 25.128 213.56 24.984 213.005 24.696C212.461 24.408 212.029 23.9813 211.709 23.416C211.4 22.8507 211.245 22.168 211.245 21.368V16.184H213.053V21.096C213.053 21.8853 213.25 22.4933 213.645 22.92C214.04 23.336 214.578 23.544 215.261 23.544C215.944 23.544 216.482 23.336 216.877 22.92C217.282 22.4933 217.485 21.8853 217.485 21.096V16.184H219.309ZM224.916 25.144C224.222 25.144 223.598 25.0213 223.044 24.776C222.5 24.52 222.068 24.1787 221.748 23.752C221.428 23.3147 221.257 22.8293 221.236 22.296H223.124C223.156 22.6693 223.332 22.984 223.652 23.24C223.982 23.4853 224.393 23.608 224.884 23.608C225.396 23.608 225.79 23.512 226.068 23.32C226.356 23.1173 226.5 22.8613 226.5 22.552C226.5 22.2213 226.34 21.976 226.02 21.816C225.71 21.656 225.214 21.48 224.532 21.288C223.87 21.1067 223.332 20.9307 222.916 20.76C222.5 20.5893 222.137 20.328 221.828 19.976C221.529 19.624 221.38 19.16 221.38 18.584C221.38 18.1147 221.518 17.688 221.796 17.304C222.073 16.9093 222.468 16.6 222.98 16.376C223.502 16.152 224.1 16.04 224.772 16.04C225.774 16.04 226.58 16.296 227.188 16.808C227.806 17.3093 228.137 17.9973 228.18 18.872H226.356C226.324 18.4773 226.164 18.1627 225.876 17.928C225.588 17.6933 225.198 17.576 224.708 17.576C224.228 17.576 223.86 17.6667 223.604 17.848C223.348 18.0293 223.22 18.2693 223.22 18.568C223.22 18.8027 223.305 19 223.476 19.16C223.646 19.32 223.854 19.448 224.1 19.544C224.345 19.6293 224.708 19.7413 225.188 19.88C225.828 20.0507 226.35 20.2267 226.756 20.408C227.172 20.5787 227.529 20.8347 227.828 21.176C228.126 21.5173 228.281 21.9707 228.292 22.536C228.292 23.0373 228.153 23.4853 227.876 23.88C227.598 24.2747 227.204 24.584 226.692 24.808C226.19 25.032 225.598 25.144 224.916 25.144ZM235.187 22.52C236.211 21.6347 237.016 20.9093 237.603 20.344C238.2 19.768 238.696 19.1707 239.091 18.552C239.485 17.9333 239.683 17.3147 239.683 16.696C239.683 16.056 239.528 15.5547 239.219 15.192C238.92 14.8293 238.445 14.648 237.795 14.648C237.165 14.648 236.675 14.8507 236.323 15.256C235.981 15.6507 235.8 16.184 235.779 16.856H234.019C234.051 15.64 234.413 14.712 235.107 14.072C235.811 13.4213 236.701 13.096 237.779 13.096C238.941 13.096 239.848 13.416 240.499 14.056C241.16 14.696 241.491 15.5493 241.491 16.616C241.491 17.384 241.293 18.1253 240.899 18.84C240.515 19.544 240.051 20.1787 239.507 20.744C238.973 21.2987 238.291 21.944 237.459 22.68L236.739 23.32H241.811V24.84H234.035V23.512L235.187 22.52ZM243.413 19.016C243.413 17.1707 243.722 15.7307 244.341 14.696C244.97 13.6507 246.048 13.128 247.573 13.128C249.098 13.128 250.17 13.6507 250.789 14.696C251.418 15.7307 251.733 17.1707 251.733 19.016C251.733 20.8827 251.418 22.344 250.789 23.4C250.17 24.4453 249.098 24.968 247.573 24.968C246.048 24.968 244.97 24.4453 244.341 23.4C243.722 22.344 243.413 20.8827 243.413 19.016ZM249.941 19.016C249.941 18.152 249.882 17.4213 249.765 16.824C249.658 16.2267 249.434 15.7413 249.093 15.368C248.752 14.984 248.245 14.792 247.573 14.792C246.901 14.792 246.394 14.984 246.053 15.368C245.712 15.7413 245.482 16.2267 245.365 16.824C245.258 17.4213 245.205 18.152 245.205 19.016C245.205 19.912 245.258 20.664 245.365 21.272C245.472 21.88 245.696 22.3707 246.037 22.744C246.389 23.1173 246.901 23.304 247.573 23.304C248.245 23.304 248.752 23.1173 249.093 22.744C249.445 22.3707 249.674 21.88 249.781 21.272C249.888 20.664 249.941 19.912 249.941 19.016ZM254.671 22.52C255.695 21.6347 256.5 20.9093 257.087 20.344C257.684 19.768 258.18 19.1707 258.575 18.552C258.97 17.9333 259.167 17.3147 259.167 16.696C259.167 16.056 259.012 15.5547 258.703 15.192C258.404 14.8293 257.93 14.648 257.279 14.648C256.65 14.648 256.159 14.8507 255.807 15.256C255.466 15.6507 255.284 16.184 255.263 16.856H253.503C253.535 15.64 253.898 14.712 254.591 14.072C255.295 13.4213 256.186 13.096 257.263 13.096C258.426 13.096 259.332 13.416 259.983 14.056C260.644 14.696 260.975 15.5493 260.975 16.616C260.975 17.384 260.778 18.1253 260.383 18.84C259.999 19.544 259.535 20.1787 258.991 20.744C258.458 21.2987 257.775 21.944 256.943 22.68L256.223 23.32H261.295V24.84H253.519V23.512L254.671 22.52ZM262.866 16.216C262.93 15.224 263.308 14.4507 264.002 13.896C264.706 13.3413 265.602 13.064 266.69 13.064C267.436 13.064 268.082 13.1973 268.626 13.464C269.17 13.7307 269.58 14.0933 269.858 14.552C270.135 15.0107 270.274 15.528 270.274 16.104C270.274 16.7653 270.098 17.3307 269.746 17.8C269.394 18.2693 268.972 18.584 268.482 18.744V18.808C269.111 19 269.602 19.352 269.954 19.864C270.306 20.3653 270.482 21.0107 270.482 21.8C270.482 22.4293 270.338 22.9893 270.05 23.48C269.762 23.9707 269.335 24.36 268.77 24.648C268.204 24.9253 267.527 25.064 266.738 25.064C265.586 25.064 264.636 24.7707 263.89 24.184C263.154 23.5867 262.759 22.7333 262.706 21.624H264.466C264.508 22.1893 264.727 22.6533 265.122 23.016C265.516 23.368 266.05 23.544 266.722 23.544C267.372 23.544 267.874 23.368 268.226 23.016C268.578 22.6533 268.754 22.1893 268.754 21.624C268.754 20.8773 268.514 20.3493 268.034 20.04C267.564 19.72 266.839 19.56 265.858 19.56H265.442V18.056H265.874C266.738 18.0453 267.394 17.9013 267.842 17.624C268.3 17.3467 268.53 16.9093 268.53 16.312C268.53 15.8 268.364 15.3947 268.034 15.096C267.703 14.7867 267.234 14.632 266.626 14.632C266.028 14.632 265.564 14.7867 265.234 15.096C264.903 15.3947 264.706 15.768 264.642 16.216H262.866Z" fill="white"/>
</g>
<defs>
<linearGradient id="paint0_linear_836_6219" x1="176.5" y1="337.6" x2="176.001" y2="152.001" gradientUnits="userSpaceOnUse">
<stop/>
<stop offset="1" stop-opacity="0"/>
</linearGradient>
<clipPath id="clip0_836_6219">
<rect width="352" height="321" fill="white" transform="translate(0.5)"/>
</clipPath>
<clipPath id="clip1_836_6219">
<rect width="172.111" height="172.111" fill="white" transform="translate(-11 197.321) rotate(-60)"/>
</clipPath>
</defs>
</svg>
