<svg width="1103" height="340" viewBox="0 0 1103 340" fill="none" xmlns="http://www.w3.org/2000/svg">
<path d="M193.741 231.936C172.808 152.813 320.003 61.9724 522.539 29.0106C641.146 9.71785 752.412 14.5606 828.49 37.7588C754.326 3.7816 626.032 -6.52872 487.741 15.9665C285.245 48.9283 138.05 139.807 158.983 218.892C167.653 251.659 203.856 277.278 257.634 293.72C223.188 277.942 200.38 257.048 193.741 231.936Z" fill="#E82676"/>
<path d="M909.88 107.627C930.813 186.751 783.618 277.591 581.083 310.553C462.475 329.846 351.209 325.003 275.132 301.805C349.296 335.782 477.589 346.092 615.841 323.597C818.376 290.635 965.572 199.795 944.638 120.671C935.969 87.9047 899.765 62.2851 845.987 45.8433C880.433 61.6212 903.241 82.5152 909.88 107.627Z" fill="#E82676"/>
<path d="M1075.28 159.716C1078.51 156.892 1081.37 153.525 1083.73 149.644L1090.71 138.145C1104.41 116.322 1099.21 99.7106 1094.88 91.7274C1090.49 83.6297 1079.22 70.0827 1053.26 70.1891L983.436 70.4751C976.812 70.5022 970.364 71.7618 964.18 74.1673C959.956 72.0625 954.673 70.5929 948.077 70.6199L850.318 71.0204C841.8 71.0553 833.953 73.4964 827.375 77.9683C820.878 74.0661 812.063 71.1771 800.076 71.2262L724.684 71.5351C716.396 71.569 708.749 73.8659 702.285 78.1079C695.846 74.4062 687.203 71.6886 675.589 71.7362L598.735 72.051C583.937 72.1116 571.148 79.3907 563.543 92.0113L532.149 142.784C530.571 142.59 528.907 142.453 527.129 142.461L522.971 142.478L535.762 121.778C545.075 105.967 539.659 93.0842 536.887 88.2777C534.143 83.4998 525.781 72.3499 507.685 72.424L472.614 72.5677C465.272 72.5978 458.454 74.4037 452.475 77.7548C446.899 74.8525 439.693 72.8459 430.373 72.8841L353.519 73.1989C344.256 73.2369 335.405 75.6247 327.222 80.2753C326.993 80.4196 326.793 80.5638 326.564 80.7081C319.778 76.3483 310.331 73.2325 297.111 73.2866L160.408 73.8466C145.61 73.9073 132.821 81.1864 125.216 93.8069L62.94 194.519L62.5414 195.238C59.6098 200.641 58.3685 205.636 58.0712 210.082L50.0417 210.115C43.8761 210.14 37.7754 211.972 32.3982 215.435C27.8505 218.379 24.1667 222.179 21.4324 226.75L8.07855 250.149C5.25938 255.007 3.76183 260.461 3.78426 265.939C3.8531 282.743 17.1558 295.852 34.0752 295.783L46.8938 295.73C48.6144 295.723 50.3057 295.573 51.9965 295.279C53.3166 295.503 54.6649 295.612 56.0703 295.664L58.6401 299.955C64.1257 308.966 73.6112 314.318 84.0783 314.275C94.5454 314.232 104.845 308.311 110.511 298.423L112.22 295.434L137.14 295.332C138.516 295.326 139.892 295.206 141.268 295.028C142.588 295.195 143.936 295.304 145.313 295.298L158.131 295.246C159.508 295.24 160.884 295.12 162.26 294.942C163.58 295.109 164.928 295.218 166.304 295.212L202.208 295.065C203.527 295.06 204.875 294.968 206.193 294.791C207.484 294.957 208.775 295.038 210.123 295.033L222.941 294.98C224.662 294.973 226.353 294.823 228.044 294.529C229.364 294.753 230.741 294.862 232.118 294.914L234.341 298.662C239.656 307.903 249.343 313.57 260.04 313.526C270.736 313.482 280.864 307.562 286.53 297.673L289.605 292.269C293.282 293.803 297.358 294.647 301.659 294.629L321.102 294.549L323.326 298.297C328.64 307.538 338.357 313.205 349.082 313.161C359.807 313.117 369.848 307.197 375.515 297.309L377.223 294.348L381.181 294.332C382.586 294.326 383.991 294.206 385.395 294.028C386.744 294.194 388.092 294.304 389.468 294.298L402.258 294.246C407.592 294.224 412.892 292.826 417.756 290.167C422.211 292.701 427.408 294.143 433.029 294.12L468.932 293.972C470.309 293.967 471.685 293.846 473.06 293.669C474.38 293.835 475.729 293.945 477.105 293.939L513.009 293.792C514.328 293.786 515.675 293.695 516.994 293.517C518.285 293.684 519.576 293.765 520.923 293.759L533.742 293.707C535.176 293.701 536.609 293.58 538.042 293.374C539.391 293.54 540.768 293.678 542.202 293.672L578.105 293.525C579.482 293.52 580.858 293.399 582.234 293.222C583.553 293.388 584.902 293.497 586.278 293.492L622.182 293.345C623.501 293.339 624.848 293.248 626.167 293.07C627.458 293.237 628.749 293.318 630.097 293.312L642.915 293.26C648.737 293.236 654.494 291.578 659.643 288.459C664.358 291.423 669.986 293.149 676.094 293.124L688.913 293.071C690.634 293.064 692.325 292.914 694.016 292.62C695.336 292.844 696.684 292.953 698.089 293.005L700.688 297.382C706.174 306.336 715.659 311.659 726.069 311.617C734.414 311.583 742.114 308.081 747.824 302.035C753.384 308.006 761.112 311.473 769.457 311.439C780.383 311.394 790.281 305.475 795.947 295.587L797.656 292.626L801.556 292.61C802.703 292.605 803.821 292.515 804.968 292.395C806.115 292.505 807.263 292.586 808.467 292.582L844.371 292.434C850.221 292.41 856.035 290.723 861.299 287.547C866.043 290.596 871.757 292.322 877.923 292.297L913.826 292.15C915.031 292.145 916.206 292.054 917.381 291.906C918.558 292.045 919.734 292.126 920.938 292.121L956.842 291.974C958.132 291.968 959.394 291.877 960.683 291.7C961.946 291.838 963.208 291.948 964.498 291.942L1000.4 291.795C1005.94 291.773 1011.09 290.461 1015.67 288.119C1019.95 290.396 1024.92 291.695 1030.23 291.673L1043.04 291.621C1049.1 291.596 1055.11 289.822 1060.46 286.473C1065.26 283.471 1069.23 279.325 1071.94 274.497L1085.12 251.501L1085.55 250.753C1088.03 246.126 1089.32 240.959 1089.3 235.854C1089.23 219.05 1075.93 205.941 1059.01 206.01L1048.92 206.052L1070.77 170.632C1073.02 166.808 1074.41 163.161 1075.17 159.774L1075.28 159.716ZM624.005 199.419C622.985 202.348 622.451 205.16 622.261 207.742L608.496 207.799L613.681 199.461L624.034 199.419L624.005 199.419Z" fill="white" stroke="#E82676" stroke-width="5.73544" stroke-miterlimit="10"/>
<path d="M1034.16 207.862L1060.91 164.506C1063.38 160.309 1064.37 156.52 1064.53 153.221C1068.19 150.826 1071.33 147.544 1073.84 143.433L1080.88 131.847C1090.99 115.775 1088.56 103.998 1084.72 96.9309C1080.82 89.7775 1072.21 81.2956 1053.22 81.3734L983.396 81.6594C976.312 81.6884 969.523 83.4943 963.142 86.9617C960.063 84.2786 955.235 81.7748 948.037 81.8043L850.277 82.2047C841.273 82.2416 833.316 86.031 827.751 92.6496C822.825 87.1924 814.402 82.3517 800.007 82.4107L724.615 82.7195C715.897 82.7552 708.197 86.3141 702.66 92.5311C697.648 87.3323 689.342 82.864 675.52 82.9206L598.666 83.2355C587.969 83.2793 578.699 88.5366 573.231 97.707L537.335 155.754C534.634 154.503 531.247 153.657 527.06 153.674L502.254 153.775L525.786 115.681C531.824 105.448 529.038 97.5153 526.843 93.7102C525.081 90.6489 519.718 83.5589 507.645 83.6083L472.573 83.752C464.888 83.7835 457.959 86.5649 452.617 91.4906C448.271 87.5796 441.316 84.0234 430.361 84.0683L353.507 84.3831C346.252 84.4129 339.291 86.3054 332.825 89.9739C330.307 91.4181 328.02 93.0908 325.877 94.9349C321.036 89.42 312.413 84.4081 297.099 84.4708L160.339 85.0311C149.642 85.0749 140.372 90.3322 134.904 99.5027L72.7415 200.014L72.5138 200.445C67.3619 209.901 69.4855 217.262 71.5666 221.24L49.9442 221.328C45.9581 221.345 42.0055 222.537 38.459 224.845C35.4272 226.808 32.9999 229.313 31.2054 232.302L17.8799 255.614C16.0573 258.719 15.125 262.164 15.1391 265.605C15.1817 275.986 23.4165 284.068 33.9123 284.025L46.7309 283.973C48.4515 283.966 50.1998 283.729 51.89 283.292C53.4977 283.716 55.2192 283.938 56.9972 283.931L62.4745 283.908L68.3651 293.778C71.743 299.299 77.5492 302.573 83.9155 302.547C90.6833 302.519 96.8336 298.766 100.421 292.471L105.404 283.733L136.949 283.603C138.296 283.598 139.643 283.42 140.961 283.128C142.282 283.409 143.688 283.576 145.121 283.57L157.94 283.517C159.288 283.512 160.635 283.334 161.953 283.042C163.273 283.323 164.679 283.49 166.113 283.484L202.016 283.337C203.336 283.331 204.625 283.154 205.886 282.891C207.178 283.144 208.526 283.31 209.903 283.304L222.721 283.252C224.471 283.245 226.19 283.008 227.88 282.571C229.488 282.995 231.21 283.217 232.988 283.21L238.465 283.187L244.096 292.628C247.331 298.35 253.281 301.824 259.848 301.798C266.415 301.771 272.824 298.016 276.411 291.721L285.95 275.021C289.296 279.853 294.93 282.927 301.439 282.901L327.421 282.794L333.08 292.263C336.315 297.957 342.295 301.431 348.862 301.404C355.429 301.377 361.78 297.623 365.367 291.328L370.35 282.59L380.932 282.546C382.308 282.541 383.655 282.335 385.002 282.071C386.351 282.352 387.757 282.518 389.219 282.513L402.009 282.46C405.909 282.444 409.862 281.252 413.351 279.03C415.039 277.962 416.554 276.665 417.867 275.254C421.269 279.6 426.614 282.388 432.751 282.363L468.655 282.216C470.031 282.21 471.349 282.033 472.667 281.741C473.988 282.022 475.394 282.188 476.827 282.182L512.731 282.035C514.05 282.03 515.34 281.852 516.601 281.589C517.892 281.842 519.241 282.009 520.617 282.003L533.436 281.95C534.841 281.945 536.245 281.738 537.592 281.446C538.97 281.756 540.404 281.922 541.867 281.916L577.77 281.769C579.147 281.763 580.465 281.586 581.783 281.294C583.103 281.575 584.509 281.741 585.943 281.735L621.847 281.588C623.166 281.583 624.456 281.405 625.716 281.142C627.008 281.395 628.356 281.562 629.733 281.556L642.551 281.503C646.48 281.487 650.29 280.353 653.837 278.131C656.154 276.687 658.153 274.844 659.779 272.715C663.07 277.978 668.934 281.395 675.759 281.367L688.578 281.315C690.299 281.308 692.047 281.071 693.737 280.634C695.345 281.058 697.066 281.28 698.844 281.273L704.322 281.25L710.212 291.12C713.59 296.641 719.396 299.915 725.763 299.889C732.53 299.861 738.709 296.108 742.268 289.813L747.251 281.075L747.738 281.073L753.514 290.857C756.863 296.406 762.699 299.738 769.122 299.711C775.919 299.683 782.098 295.93 785.685 289.635L790.668 280.897L801.192 280.854C802.339 280.849 803.486 280.729 804.604 280.524C805.723 280.72 806.899 280.83 808.075 280.825L843.978 280.678C847.907 280.662 851.688 279.528 855.263 277.277C857.666 275.776 859.752 273.846 861.406 271.631C864.668 277.038 870.591 280.569 877.53 280.541L913.434 280.394C914.81 280.388 916.072 280.268 917.247 280.091C918.309 280.259 919.399 280.369 920.546 280.365L956.449 280.218C957.711 280.212 958.972 280.035 960.204 279.801C961.467 280.054 962.758 280.192 964.106 280.186L1000.01 280.039C1007.9 280.007 1012.76 276.603 1015.58 273.523C1018.98 277.466 1024.04 279.941 1029.83 279.917L1042.65 279.864C1046.58 279.848 1050.5 278.685 1053.99 276.463C1057.2 274.442 1059.83 271.707 1061.62 268.545L1075.09 245.032C1076.68 242.014 1077.5 238.828 1077.49 235.558C1077.44 225.177 1069.21 217.095 1058.71 217.138L1045.89 217.191C1044.14 217.198 1042.43 217.435 1040.73 217.872C1039.13 217.448 1037.41 217.226 1035.63 217.233L1025.73 217.274C1028.82 214.537 1031.56 211.428 1033.81 207.806L1034.16 207.862ZM607.152 187.759L639.127 187.628C640.59 187.622 642.052 187.53 643.514 187.409L637.389 197.299C631.378 207.103 633.618 214.865 635.728 218.9L602.205 219.037C600.857 219.043 599.51 219.22 598.192 219.512C596.843 219.231 595.465 219.065 594.032 219.071L587.493 219.097C588.406 217.918 589.29 216.681 590.059 215.33L607.152 187.73L607.152 187.759Z" fill="#E82676"/>
<path d="M91.1353 216.714C86.6617 216.733 85.535 214.701 87.755 210.591L149.747 110.425C152.167 106.314 155.772 104.264 160.533 104.244L297.293 103.684C306.355 103.647 311.984 105.717 314.181 109.895C316.377 114.073 315.083 120.072 310.24 127.892L259.587 209.916C257.367 214.026 253.82 216.077 248.945 216.097L213.873 216.24C209.399 216.259 208.272 214.227 210.492 210.117L268.267 116.65C270.775 112.74 269.706 110.794 265.032 110.813C260.357 110.832 257.039 112.796 254.531 116.707L196.756 210.173C194.536 214.283 190.989 216.334 186.113 216.354L153.967 216.486C149.493 216.504 148.366 214.473 150.586 210.363L208.361 116.896C210.869 112.985 209.8 111.04 205.125 111.059C200.451 111.078 197.133 113.042 194.625 116.952L136.85 210.419C134.63 214.529 131.082 216.579 126.207 216.599L91.1354 216.743L91.1353 216.714Z" fill="white"/>
<path d="M430.526 103.282C436.863 103.256 440.942 104.902 442.734 108.193C444.554 111.512 443.769 115.874 440.379 121.365L385.507 209.4C383 213.512 379.395 215.562 374.721 215.582L339.649 215.725C334.974 215.744 333.905 213.713 336.412 209.602L355.13 179.586C357.551 175.59 356.425 173.587 351.75 173.606C347.076 173.625 343.815 175.646 341.394 179.642L322.676 209.658C320.169 213.769 316.564 215.82 311.89 215.839L276.818 215.983C272.143 216.002 271.074 213.97 273.581 209.859L332.099 115.787C334.406 112.078 337.52 109.111 341.411 106.916C345.302 104.72 349.37 103.585 353.671 103.568L430.526 103.253L430.526 103.282ZM394.331 116.421C396.753 112.425 395.683 110.422 391.095 110.44C386.507 110.459 383.016 112.481 380.595 116.477L353.017 160.725C350.509 164.635 351.578 166.581 356.252 166.561C360.927 166.542 364.331 164.578 366.753 160.668L394.331 116.421Z" fill="white"/>
<path d="M403.371 215.435C398.697 215.455 397.628 213.423 400.134 209.312L461.954 109.118C464.375 105.007 467.98 102.956 472.74 102.937L507.812 102.793C512.4 102.774 513.47 104.806 511.049 108.917L453.417 202.24C450.795 206.236 451.893 208.239 456.653 208.22C461.413 208.2 464.732 206.179 467.153 202.183L481.369 179.183C483.79 175.072 487.394 173.021 492.155 173.002L527.227 172.858C531.815 172.84 532.884 174.871 530.464 178.982L512.032 208.853C509.525 212.965 505.92 215.015 501.246 215.035L403.343 215.436L403.371 215.435Z" fill="white"/>
<path d="M604.396 172.542C599.636 172.562 596.088 174.67 593.754 178.866L575.322 208.594C573.102 212.704 569.554 214.755 564.679 214.775L529.464 214.919C524.99 214.937 523.863 212.906 526.083 208.796L588.075 108.601C590.496 104.49 594.101 102.439 598.861 102.42L675.715 102.105C684.203 102.07 689.632 104.256 692.031 108.691C694.429 113.127 693.306 118.981 688.662 126.313L671.397 154C668.093 159.577 663.494 164.012 657.571 167.363C651.649 170.685 645.519 172.374 639.181 172.4L604.396 172.542ZM646.689 115.1C649.025 111.19 647.927 109.245 643.454 109.263C638.98 109.281 635.289 111.247 632.953 115.156L605.519 159.547C603.097 163.457 604.138 165.489 608.612 165.671C613.287 165.652 616.834 163.601 619.255 159.49L646.689 115.1Z" fill="white"/>
<path d="M808.504 133.422C803.861 141.04 797.892 147.001 790.597 151.332C783.302 155.664 775.137 157.82 766.076 157.857L766.649 157.854C775.711 157.817 781.34 159.888 783.537 164.065C785.733 168.243 784.439 174.242 779.596 182.062L763.327 207.996C760.705 211.993 757.129 214.015 752.541 214.034L717.469 214.177C712.708 214.197 711.61 212.194 714.232 208.197L741.811 163.95C744.318 159.953 743.392 157.95 739.005 157.968C734.215 157.987 730.639 160.038 728.218 164.149L701.356 208.078C698.648 212.19 695.043 214.241 690.57 214.259L655.354 214.403C650.68 214.422 649.611 212.391 652.117 208.28L713.966 108.085C716.386 103.975 719.991 101.924 724.752 101.904L800.143 101.595C808.632 101.561 814.061 103.747 816.459 108.182C818.857 112.617 817.734 118.472 813.09 125.803L808.447 133.422L808.504 133.422ZM769.258 108.748C764.67 108.767 761.237 110.731 758.901 114.64L740.041 144.972C737.619 148.882 738.603 150.915 742.991 151.097C747.752 151.078 751.357 149.027 753.777 144.916L772.637 114.584C774.973 110.675 773.818 108.729 769.258 108.748Z" fill="white"/>
<path d="M839.657 107.599C842.078 103.488 845.683 101.437 850.443 101.418L948.203 101.017C952.791 100.999 953.86 103.03 951.44 107.141L932.864 137.013C930.444 141.124 926.896 143.174 922.222 143.194L887.293 143.337C882.619 143.356 881.492 141.324 883.913 137.214L898.271 114.069C900.779 110.159 899.653 108.214 894.892 108.233C890.505 108.251 887.071 110.215 884.535 114.126L864.223 146.93C861.802 151.041 862.929 153.072 867.603 153.053L906.46 152.894C909.184 152.883 909.763 154.056 908.224 156.385C906.857 158.742 904.768 159.898 901.958 159.91L863.101 160.069C858.426 160.088 854.821 162.139 852.315 166.25L831.12 200.807C828.613 204.717 829.682 206.663 834.356 206.644C839.03 206.625 842.32 204.661 844.856 200.751L859.072 177.607C861.492 173.496 865.097 171.445 869.858 171.426L904.93 171.282C909.518 171.263 910.587 173.295 908.166 177.406L889.735 207.277C887.228 211.388 883.623 213.439 878.949 213.458L781.045 213.86C776.371 213.879 775.302 211.847 777.808 207.736L839.657 107.542L839.657 107.599Z" fill="white"/>
<path d="M928.043 213.286C919.555 213.321 914.155 211.135 911.785 206.7C909.415 202.293 910.481 196.41 914.925 189.079L922.333 177.348C924.84 173.237 928.445 171.186 933.119 171.167L968.191 171.023C972.779 171.004 973.848 173.036 971.428 177.147L957.212 200.29C954.705 204.201 955.774 206.147 960.448 206.127C965.123 206.108 968.412 204.145 970.949 200.234L992.713 164.786C995.134 160.675 994.064 158.643 989.476 158.662L940.811 158.861C936.223 158.88 935.154 156.848 937.574 152.738L961.96 113.034C964.181 109.326 967.266 106.359 971.215 104.164C975.163 101.968 979.26 100.833 983.561 100.815L1053.39 100.529C1061.88 100.494 1067.31 102.68 1069.71 107.115C1072.1 111.551 1070.98 117.405 1066.34 124.737L1059.21 136.467C1056.71 140.578 1053.1 142.629 1048.43 142.648L1013.36 142.792C1008.68 142.811 1007.61 140.779 1010.12 136.668L1024.34 113.524C1026.84 109.614 1025.77 107.668 1021.1 107.687C1016.42 107.707 1013.11 109.67 1010.6 113.581L990.857 145.665C988.436 149.776 989.505 151.808 994.094 151.789L1042.9 151.589C1047.49 151.57 1048.56 153.602 1046.14 157.713L1019.59 200.781C1017.25 204.489 1014.17 207.456 1010.28 209.651C1006.38 211.847 1002.29 212.982 998.015 212.999L928.015 213.286L928.043 213.286Z" fill="white"/>
<path d="M90.8511 245.451C91.1073 244.991 91.2203 244.56 91.2186 244.159C91.2151 243.298 90.7258 242.87 89.7221 242.874C89.0052 242.877 88.2607 243.138 87.4884 243.629C86.7161 244.12 86.1165 244.753 85.7465 245.443L73.9584 266.024C73.5311 266.743 72.9314 267.348 72.1591 267.838C71.3868 268.329 70.6423 268.59 69.9254 268.593L57.1068 268.645C56.1031 268.65 55.6138 268.221 55.6103 267.361C55.6086 266.96 55.7503 266.529 56.0352 266.069L67.7659 245.488C68.0508 245.028 68.1925 244.597 68.1908 244.196C68.1873 243.335 67.698 242.907 66.6943 242.911C65.9774 242.914 65.2329 243.175 64.4606 243.666C63.6883 244.157 63.0887 244.79 62.6613 245.48L50.9306 266.061C50.5033 266.78 49.9036 267.385 49.1313 267.875C48.359 268.366 47.6145 268.627 46.8976 268.63L34.079 268.682C33.0753 268.687 32.586 268.258 32.5825 267.398C32.5808 266.997 32.7225 266.566 33.0073 266.106L46.2189 242.966C46.6461 242.248 47.2458 241.643 48.0181 241.152C48.7904 240.662 49.5349 240.401 50.2519 240.398L109.269 240.156C110.273 240.152 110.762 240.58 110.765 241.44C110.767 241.842 110.626 242.272 110.341 242.732L85.7111 285.792C85.17 286.712 84.627 287.173 84.0534 287.175C83.738 287.177 83.4505 287.006 83.2482 286.634L76.0871 274.647C75.8848 274.247 75.7681 273.76 75.7656 273.157C75.7619 272.268 75.9594 271.465 76.3866 270.746L90.9368 245.364L90.8511 245.451Z" fill="white"/>
<path d="M153.202 240.062C154.177 240.058 154.638 240.486 154.641 241.347C154.643 241.748 154.53 242.179 154.274 242.639L141.005 265.778C140.606 266.497 140.035 267.101 139.234 267.592C138.433 268.083 137.689 268.344 137.029 268.347L101.126 268.494C100.122 268.498 99.6329 268.07 99.6294 267.209C99.6277 266.808 99.7407 266.377 99.9969 265.918L105.891 255.627C106.318 254.908 106.918 254.303 107.69 253.813C108.462 253.322 109.207 253.061 109.924 253.058L127.876 252.984C128.593 252.982 129.337 252.72 130.138 252.23C130.91 251.739 131.539 251.134 131.966 250.415L134.899 245.299C135.126 244.839 135.239 244.408 135.238 244.007C135.234 243.147 134.745 242.719 133.799 242.722C133.082 242.725 132.366 242.986 131.565 243.477C130.793 243.997 130.193 244.601 129.766 245.32L128.285 247.907C127.887 248.625 127.287 249.23 126.486 249.721C125.685 250.212 124.94 250.473 124.252 250.476L111.405 250.528C110.401 250.532 109.912 250.104 109.908 249.244C109.907 248.843 110.02 248.412 110.276 247.952L113.237 242.807C113.636 242.088 114.207 241.483 115.008 240.993C115.809 240.502 116.553 240.241 117.27 240.238L153.174 240.091L153.202 240.062ZM127.495 258.119C127.751 257.659 127.864 257.229 127.863 256.827C127.859 255.967 127.37 255.539 126.366 255.543C125.649 255.546 124.905 255.807 124.133 256.298C123.36 256.788 122.761 257.422 122.362 258.112L119.401 263.257C119.144 263.717 119.031 264.148 119.033 264.549C119.037 265.409 119.526 265.838 120.472 265.834C121.189 265.831 121.934 265.57 122.735 265.079C123.536 264.588 124.135 263.983 124.505 263.265L127.467 258.119L127.495 258.119Z" fill="white"/>
<path d="M178.355 233.822C178.557 234.165 178.674 234.652 178.677 235.254C178.68 236.143 178.483 236.976 178.056 237.723L162.025 265.692C161.626 266.411 161.055 267.015 160.254 267.506C159.453 267.997 158.709 268.258 158.049 268.261L145.231 268.313C144.227 268.317 143.738 267.889 143.734 267.029C143.733 266.627 143.846 266.197 144.102 265.737L160.275 237.452L168.76 222.677C169.301 221.757 169.844 221.296 170.418 221.294C170.733 221.292 171.021 221.463 171.223 221.778L178.384 233.822L178.355 233.822Z" fill="white"/>
<path d="M218.299 239.795C219.274 239.791 219.735 240.22 219.739 241.08C219.74 241.481 219.627 241.912 219.371 242.372L206.102 265.512C205.704 266.23 205.133 266.835 204.332 267.326C203.531 267.816 202.786 268.077 202.127 268.08L166.223 268.227C165.219 268.231 164.73 267.803 164.727 266.943C164.725 266.541 164.838 266.111 165.094 265.651L170.988 255.36C171.415 254.642 172.015 254.037 172.787 253.546C173.56 253.056 174.304 252.794 175.021 252.791L192.973 252.718C193.69 252.715 194.434 252.454 195.235 251.963C196.008 251.472 196.636 250.868 197.063 250.149L199.996 245.032C200.224 244.572 200.337 244.142 200.335 243.74C200.331 242.88 199.842 242.452 198.896 242.456C198.179 242.459 197.463 242.72 196.662 243.211C195.89 243.73 195.29 244.335 194.863 245.053L193.382 247.64C192.984 248.359 192.384 248.964 191.583 249.454C190.782 249.945 190.037 250.206 189.349 250.209L176.502 250.262C175.498 250.266 175.009 249.838 175.005 248.977C175.004 248.576 175.117 248.145 175.373 247.685L178.334 242.54C178.733 241.821 179.304 241.217 180.105 240.726C180.906 240.235 181.65 239.974 182.367 239.971L218.271 239.824L218.299 239.795ZM192.592 257.853C192.849 257.393 192.962 256.962 192.96 256.561C192.956 255.7 192.467 255.272 191.463 255.276C190.747 255.279 190.002 255.54 189.23 256.031C188.457 256.522 187.858 257.155 187.459 257.845L184.498 262.99C184.242 263.45 184.129 263.881 184.13 264.282C184.134 265.143 184.623 265.571 185.569 265.567C186.286 265.564 187.031 265.303 187.832 264.812C188.633 264.321 189.233 263.717 189.602 262.998L192.564 257.853L192.592 257.853Z" fill="white"/>
<path d="M266.842 244.73C267.098 244.27 267.211 243.839 267.209 243.438C267.206 242.577 266.717 242.149 265.77 242.153C265.053 242.156 264.309 242.417 263.536 242.908C262.764 243.399 262.165 244.032 261.737 244.722L249.978 265.303C249.579 266.022 248.979 266.626 248.179 267.117C247.378 267.608 246.633 267.869 245.945 267.872L233.097 267.925C232.094 267.929 231.605 267.5 231.601 266.64C231.599 266.239 231.712 265.808 231.969 265.348L243.757 244.767C244.013 244.307 244.126 243.876 244.124 243.475C244.121 242.615 243.631 242.186 242.685 242.19C241.968 242.193 241.224 242.454 240.451 242.945C239.679 243.436 239.079 244.069 238.652 244.759L226.864 265.34C226.465 266.059 225.894 266.664 225.093 267.154C224.292 267.645 223.548 267.906 222.888 267.909L210.07 267.962C209.066 267.966 208.577 267.537 208.573 266.677C208.572 266.276 208.684 265.845 208.941 265.385L222.21 242.245C222.608 241.527 223.208 240.922 223.98 240.432C224.781 239.941 225.526 239.68 226.243 239.677L285.26 239.435C286.235 239.431 286.695 239.859 286.699 240.72C286.701 241.121 286.588 241.552 286.331 242.011L261.702 285.071C261.161 285.991 260.589 286.452 259.987 286.455C259.671 286.456 259.413 286.285 259.239 285.913L252.078 273.926C251.875 273.526 251.759 273.039 251.756 272.436C251.753 271.547 251.95 270.744 252.377 270.025L266.87 244.644L266.842 244.73Z" fill="white"/>
<path d="M353.654 239.241C354.629 239.237 355.09 239.665 355.093 240.525C355.095 240.927 354.982 241.358 354.726 241.817L341.457 264.957C341.058 265.676 340.487 266.28 339.686 266.771C338.885 267.262 338.141 267.523 337.481 267.526L301.577 267.673C300.574 267.677 300.085 267.249 300.081 266.388C300.079 265.987 300.192 265.556 300.449 265.096L306.343 254.806C306.77 254.087 307.37 253.482 308.142 252.992C308.914 252.501 309.659 252.24 310.376 252.237L328.327 252.163C329.044 252.161 329.789 251.899 330.59 251.409C331.362 250.918 331.99 250.313 332.418 249.594L335.351 244.478C335.578 244.018 335.691 243.587 335.689 243.186C335.686 242.326 335.197 241.897 334.25 241.901C333.533 241.904 332.817 242.165 332.045 242.656C331.273 243.175 330.673 243.78 330.246 244.499L328.765 247.086C328.367 247.804 327.767 248.409 326.966 248.9C326.165 249.391 325.421 249.652 324.761 249.654L311.914 249.707C310.91 249.711 310.421 249.283 310.417 248.423C310.416 248.021 310.529 247.591 310.785 247.131L313.746 241.985C314.145 241.267 314.744 240.662 315.517 240.171C316.318 239.681 317.062 239.419 317.779 239.417L353.683 239.269L353.654 239.241ZM327.947 257.298C328.203 256.838 328.316 256.408 328.314 256.006C328.311 255.146 327.822 254.718 326.818 254.722C326.101 254.725 325.356 254.986 324.584 255.477C323.812 255.967 323.212 256.601 322.814 257.291L319.852 262.436C319.596 262.896 319.483 263.327 319.485 263.728C319.488 264.588 319.978 265.016 320.924 265.013C321.641 265.01 322.385 264.748 323.186 264.258C323.987 263.767 324.587 263.162 324.957 262.444L327.918 257.298L327.947 257.298Z" fill="white"/>
<path d="M397.272 239.062C398.275 239.058 398.765 239.486 398.768 240.346C398.77 240.748 398.628 241.179 398.343 241.639L385.132 264.778C384.704 265.497 384.105 266.101 383.332 266.592C382.56 267.083 381.816 267.344 381.099 267.347L363.147 267.42C362.43 267.423 361.685 267.685 360.913 268.175C360.141 268.666 359.541 269.299 359.114 269.989L350.657 284.764C350.116 285.684 349.573 286.145 349 286.147C348.655 286.149 348.368 285.978 348.194 285.606L341.033 273.619C340.831 273.219 340.714 272.732 340.712 272.129C340.708 271.24 340.906 270.437 341.333 269.718L357.306 241.749C357.733 241.031 358.333 240.426 359.106 239.935C359.878 239.445 360.622 239.184 361.339 239.181L397.243 239.033L397.272 239.062ZM378.911 244.271C379.196 243.811 379.337 243.38 379.336 242.978C379.332 242.118 378.843 241.69 377.839 241.694C377.122 241.697 376.378 241.958 375.605 242.449C374.833 242.939 374.233 243.573 373.806 244.263L363.527 262.257C363.271 262.717 363.158 263.147 363.16 263.549C363.163 264.409 363.652 264.837 364.656 264.833C365.373 264.83 366.118 264.569 366.89 264.079C367.662 263.588 368.262 262.983 368.661 262.265L378.939 244.27L378.911 244.271Z" fill="white"/>
<path d="M441.492 238.881C442.467 238.877 442.928 239.305 442.931 240.166C442.933 240.567 442.82 240.998 442.564 241.458L439.602 246.603C439.204 247.322 438.633 247.926 437.832 248.417C437.031 248.908 436.286 249.169 435.627 249.172L422.808 249.224C421.805 249.228 421.315 248.8 421.312 247.94C421.31 247.538 421.423 247.108 421.679 246.648L423.16 244.089C423.416 243.629 423.529 243.199 423.527 242.797C423.524 241.937 423.035 241.509 422.088 241.513C421.371 241.516 420.627 241.777 419.855 242.268C419.082 242.758 418.483 243.363 418.055 244.082L406.238 264.634C405.84 265.353 405.269 265.957 404.468 266.477C403.667 266.996 402.922 267.229 402.263 267.232L389.473 267.284C388.469 267.288 387.98 266.86 387.977 266C387.975 265.598 388.088 265.168 388.344 264.708L401.613 241.568C402.011 240.849 402.583 240.245 403.384 239.754C404.184 239.263 404.929 239.002 405.646 238.999L441.549 238.852L441.492 238.881Z" fill="white"/>
<path d="M455.925 254.967C455.153 255.458 454.553 256.063 454.155 256.781L451.193 261.898C450.966 262.358 450.882 262.788 450.883 263.19C450.887 264.05 451.376 264.478 452.322 264.474C453.039 264.471 453.784 264.21 454.585 263.719C455.386 263.229 455.985 262.595 456.355 261.905L457.836 259.347C458.235 258.629 458.806 258.024 459.607 257.533C460.408 257.042 461.152 256.781 461.869 256.778L474.688 256.726C475.663 256.722 476.123 257.15 476.127 258.01C476.129 258.412 476.016 258.842 475.759 259.302L472.798 264.448C472.399 265.166 471.828 265.771 471.027 266.262C470.226 266.752 469.482 267.014 468.822 267.016L432.919 267.163C431.915 267.168 431.426 266.739 431.422 265.879C431.421 265.478 431.534 265.047 431.79 264.587L445.059 241.447C445.457 240.729 446.028 240.124 446.829 239.633C447.63 239.143 448.375 238.882 449.092 238.879L484.995 238.732C485.97 238.728 486.431 239.156 486.434 240.016C486.436 240.418 486.323 240.848 486.067 241.308L480.173 251.599C479.774 252.317 479.175 252.922 478.402 253.413C477.601 253.903 476.857 254.165 476.14 254.168L458.159 254.241C457.442 254.244 456.698 254.505 455.926 254.996L455.925 254.967ZM458.568 249.049C458.312 249.509 458.199 249.939 458.201 250.341C458.204 251.201 458.694 251.629 459.697 251.625C460.414 251.622 461.159 251.361 461.931 250.871C462.703 250.38 463.303 249.775 463.73 249.056L466.634 243.911C466.89 243.451 467.003 243.021 467.002 242.619C466.998 241.759 466.509 241.331 465.563 241.335C464.846 241.338 464.101 241.599 463.3 242.09C462.528 242.58 461.9 243.185 461.472 243.904L458.511 249.02L458.568 249.049Z" fill="white"/>
<path d="M510.416 248.865C509.412 248.869 508.923 248.441 508.919 247.581C508.917 247.179 509.03 246.749 509.287 246.289L510.767 243.73C511.024 243.271 511.137 242.84 511.135 242.439C511.131 241.578 510.642 241.15 509.696 241.154C508.979 241.157 508.234 241.418 507.462 241.909C506.69 242.399 506.09 243.004 505.663 243.723L502.701 248.839C502.445 249.299 502.332 249.73 502.334 250.131C502.337 250.992 502.827 251.42 503.83 251.416L521.782 251.342C522.786 251.338 523.275 251.766 523.279 252.627C523.28 253.028 523.139 253.459 522.854 253.919L516.96 264.209C516.561 264.928 515.99 265.533 515.189 266.023C514.388 266.514 513.644 266.775 512.984 266.778L477.08 266.925C476.077 266.929 475.587 266.501 475.584 265.641C475.582 265.239 475.695 264.809 475.951 264.349L478.913 259.203C479.311 258.485 479.882 257.88 480.683 257.389C481.484 256.899 482.229 256.638 482.946 256.635L495.764 256.582C496.739 256.578 497.2 257.006 497.204 257.867C497.205 258.268 497.092 258.699 496.836 259.159L495.355 261.717C495.099 262.177 494.986 262.608 494.988 263.009C494.991 263.869 495.481 264.297 496.427 264.294C497.144 264.291 497.888 264.03 498.689 263.539C499.49 263.048 500.09 262.443 500.46 261.725L503.421 256.579C503.677 256.12 503.79 255.689 503.789 255.287C503.785 254.427 503.296 253.999 502.292 254.003L484.341 254.077C483.365 254.081 482.905 253.652 482.901 252.792C482.9 252.391 483.013 251.96 483.269 251.5L489.163 241.209C489.561 240.491 490.133 239.886 490.934 239.395C491.735 238.905 492.479 238.643 493.196 238.641L529.099 238.493C530.075 238.489 530.535 238.918 530.539 239.778C530.54 240.18 530.427 240.61 530.171 241.07L527.21 246.215C526.811 246.934 526.24 247.539 525.439 248.029C524.638 248.52 523.894 248.781 523.234 248.784L510.416 248.837L510.416 248.865Z" fill="white"/>
<path d="M520.842 266.774C519.838 266.779 519.349 266.35 519.346 265.49C519.344 265.089 519.457 264.658 519.713 264.198L532.982 241.058C533.381 240.34 533.952 239.735 534.753 239.245C535.554 238.754 536.298 238.493 537.015 238.49L549.834 238.437C550.809 238.433 551.269 238.861 551.273 239.722C551.274 240.123 551.161 240.554 550.905 241.014L537.636 264.153C537.238 264.872 536.667 265.477 535.866 265.967C535.065 266.458 534.32 266.719 533.661 266.722L520.842 266.774Z" fill="white"/>
<path d="M594.225 238.255C595.2 238.251 595.66 238.68 595.664 239.54C595.665 239.941 595.553 240.372 595.296 240.832L582.027 263.972C581.629 264.69 581.058 265.295 580.257 265.785C579.456 266.276 578.711 266.537 578.052 266.54L542.148 266.687C541.145 266.691 540.655 266.263 540.652 265.403C540.65 265.001 540.763 264.571 541.019 264.111L546.913 253.82C547.341 253.102 547.94 252.497 548.713 252.006C549.485 251.515 550.229 251.254 550.946 251.251L568.898 251.178C569.615 251.175 570.36 250.914 571.161 250.423C571.933 249.932 572.561 249.327 572.988 248.609L575.921 243.492C576.149 243.032 576.262 242.602 576.26 242.2C576.257 241.34 575.767 240.912 574.821 240.916C574.104 240.919 573.388 241.18 572.587 241.671C571.815 242.19 571.215 242.795 570.788 243.513L569.307 246.1C568.909 246.819 568.309 247.424 567.508 247.914C566.707 248.405 565.963 248.666 565.275 248.669L552.427 248.722C551.424 248.726 550.934 248.298 550.931 247.437C550.929 247.036 551.042 246.605 551.298 246.145L554.26 241C554.658 240.281 555.229 239.677 556.03 239.186C556.831 238.695 557.576 238.434 558.293 238.431L594.196 238.284L594.225 238.255ZM568.518 256.313C568.774 255.853 568.887 255.422 568.885 255.021C568.882 254.16 568.392 253.732 567.389 253.736C566.672 253.739 565.927 254 565.155 254.491C564.383 254.982 563.783 255.615 563.384 256.305L560.423 261.45C560.167 261.91 560.054 262.341 560.055 262.742C560.059 263.603 560.548 264.031 561.495 264.027C562.212 264.024 562.956 263.763 563.757 263.272C564.558 262.781 565.158 262.177 565.528 261.458L568.489 256.313L568.518 256.313Z" fill="white"/>
<path d="M619.588 248.418C618.585 248.422 618.096 247.994 618.092 247.134C618.09 246.732 618.203 246.301 618.46 245.842L619.94 243.283C620.196 242.823 620.309 242.393 620.308 241.991C620.304 241.131 619.815 240.703 618.869 240.707C618.152 240.71 617.407 240.971 616.635 241.461C615.863 241.952 615.263 242.557 614.836 243.275L611.874 248.392C611.618 248.852 611.505 249.283 611.507 249.684C611.51 250.544 611.999 250.973 613.003 250.969L630.955 250.895C631.959 250.891 632.448 251.319 632.451 252.179C632.453 252.581 632.311 253.012 632.027 253.472L626.132 263.762C625.734 264.481 625.163 265.085 624.362 265.576C623.561 266.067 622.816 266.328 622.157 266.331L586.253 266.478C585.25 266.482 584.76 266.054 584.757 265.194C584.755 264.792 584.868 264.361 585.124 263.902L588.086 258.756C588.484 258.038 589.055 257.433 589.856 256.942C590.657 256.451 591.402 256.19 592.119 256.187L604.937 256.135C605.912 256.131 606.373 256.559 606.376 257.419C606.378 257.821 606.265 258.252 606.009 258.711L604.528 261.27C604.272 261.73 604.159 262.16 604.161 262.562C604.164 263.422 604.653 263.85 605.6 263.846C606.317 263.843 607.061 263.582 607.862 263.091C608.663 262.601 609.263 261.996 609.633 261.278L612.594 256.132C612.85 255.672 612.963 255.242 612.962 254.84C612.958 253.98 612.469 253.552 611.465 253.556L593.513 253.629C592.538 253.633 592.078 253.205 592.074 252.345C592.073 251.943 592.186 251.513 592.442 251.053L598.336 240.762C598.734 240.044 599.305 239.439 600.106 238.948C600.907 238.457 601.652 238.196 602.369 238.193L638.272 238.046C639.219 238.042 639.708 238.47 639.711 239.331C639.713 239.732 639.6 240.163 639.344 240.623L636.383 245.768C635.984 246.487 635.413 247.091 634.612 247.582C633.811 248.073 633.067 248.334 632.407 248.337L619.588 248.389L619.588 248.418Z" fill="white"/>
<path d="M630.043 266.327C629.039 266.331 628.55 265.903 628.546 265.043C628.545 264.641 628.658 264.211 628.914 263.751L642.183 240.611C642.581 239.893 643.181 239.288 643.953 238.797C644.754 238.306 645.499 238.045 646.216 238.042L659.034 237.99C660.009 237.986 660.47 238.414 660.473 239.274C660.475 239.676 660.362 240.107 660.106 240.566L646.837 263.706C646.439 264.425 645.867 265.029 645.066 265.52C644.266 266.011 643.521 266.272 642.861 266.275L630.043 266.327Z" fill="white"/>
<path d="M732.927 242.82C733.183 242.36 733.296 241.93 733.295 241.528C733.291 240.668 732.802 240.24 731.798 240.244C731.081 240.247 730.337 240.508 729.565 240.999C728.792 241.489 728.193 242.123 727.823 242.813L716.035 263.394C715.607 264.113 715.008 264.717 714.235 265.208C713.463 265.699 712.718 265.96 712.002 265.963L699.183 266.015C698.179 266.019 697.69 265.591 697.686 264.731C697.685 264.329 697.826 263.899 698.111 263.439L709.842 242.858C710.127 242.398 710.269 241.967 710.267 241.565C710.263 240.705 709.774 240.277 708.77 240.281C708.054 240.284 707.309 240.545 706.537 241.036C705.764 241.526 705.165 242.16 704.738 242.85L693.007 263.431C692.579 264.15 691.98 264.754 691.207 265.245C690.435 265.736 689.662 265.997 688.974 266L676.155 266.052C675.151 266.056 674.662 265.628 674.659 264.768C674.657 264.366 674.799 263.936 675.083 263.476L688.295 240.336C688.722 239.618 689.322 239.013 690.094 238.522C690.867 238.031 691.611 237.77 692.328 237.767L751.345 237.526C752.349 237.522 752.838 237.95 752.842 238.81C752.843 239.211 752.702 239.642 752.417 240.102L727.787 283.162C727.246 284.082 726.703 284.543 726.13 284.545C725.814 284.546 725.555 284.375 725.324 284.004L718.163 272.017C717.961 271.616 717.844 271.129 717.842 270.527C717.838 269.638 718.064 268.834 718.463 268.116L733.013 242.734L732.927 242.82Z" fill="white"/>
<path d="M742.916 265.865C741.913 265.869 741.423 265.441 741.42 264.58C741.418 264.179 741.531 263.748 741.787 263.288L755.056 240.149C755.455 239.43 756.055 238.826 756.827 238.335C757.628 237.844 758.372 237.583 759.032 237.58L771.85 237.528C772.854 237.524 773.344 237.952 773.347 238.812C773.349 239.214 773.236 239.644 772.98 240.104L759.711 263.244C759.312 263.962 758.741 264.567 757.94 265.058C757.139 265.548 756.394 265.81 755.735 265.812L742.916 265.865Z" fill="white"/>
<path d="M817.733 237.34C818.737 237.336 819.226 237.764 819.23 238.624C819.232 239.026 819.119 239.456 818.862 239.916L805.594 263.056C805.195 263.774 804.595 264.379 803.823 264.87C803.051 265.36 802.277 265.622 801.561 265.625L783.609 265.698C782.921 265.701 782.205 265.962 781.404 266.453C780.603 266.944 780.003 267.577 779.633 268.267L771.177 283.042C770.635 283.961 770.092 284.423 769.462 284.425C769.146 284.426 768.859 284.255 768.656 283.884L761.553 271.897C761.293 271.496 761.176 271.009 761.174 270.407C761.17 269.518 761.396 268.714 761.795 267.996L777.826 240.027C778.224 239.308 778.795 238.704 779.596 238.213C780.368 237.722 781.113 237.461 781.83 237.458L817.733 237.311L817.733 237.34ZM799.401 242.548C799.657 242.088 799.77 241.658 799.769 241.256C799.765 240.396 799.276 239.968 798.33 239.972C797.613 239.974 796.868 240.236 796.067 240.726C795.266 241.217 794.667 241.851 794.297 242.54L784.018 260.535C783.733 260.995 783.591 261.425 783.593 261.827C783.596 262.687 784.086 263.115 785.089 263.111C785.806 263.108 786.551 262.847 787.323 262.356C788.095 261.866 788.695 261.261 789.122 260.542L799.401 242.548Z" fill="white"/>
<path d="M860.548 237.164C861.523 237.16 861.984 237.589 861.987 238.449C861.989 238.85 861.876 239.281 861.62 239.741L848.351 262.881C847.952 263.599 847.381 264.204 846.58 264.695C845.779 265.185 845.035 265.446 844.375 265.449L808.472 265.596C807.468 265.6 806.979 265.172 806.975 264.312C806.973 263.91 807.086 263.48 807.343 263.02L813.237 252.729C813.664 252.011 814.264 251.406 815.036 250.915C815.808 250.425 816.553 250.163 817.27 250.16L835.221 250.087C835.938 250.084 836.683 249.823 837.484 249.332C838.256 248.841 838.885 248.237 839.312 247.518L842.245 242.401C842.472 241.942 842.585 241.511 842.583 241.109C842.58 240.249 842.091 239.821 841.144 239.825C840.427 239.828 839.712 240.089 838.911 240.58C838.138 241.099 837.539 241.704 837.111 242.422L835.631 245.009C835.232 245.728 834.633 246.333 833.832 246.823C833.031 247.314 832.286 247.575 831.598 247.578L818.751 247.631C817.747 247.635 817.258 247.207 817.254 246.346C817.252 245.945 817.365 245.514 817.622 245.054L820.583 239.909C820.981 239.19 821.553 238.586 822.354 238.095C823.154 237.604 823.899 237.343 824.616 237.34L860.519 237.193L860.548 237.164ZM834.841 255.222C835.097 254.762 835.21 254.331 835.209 253.93C835.205 253.069 834.716 252.641 833.712 252.645C832.995 252.648 832.251 252.909 831.478 253.4C830.706 253.891 830.106 254.524 829.736 255.214L826.775 260.359C826.519 260.819 826.406 261.25 826.407 261.651C826.411 262.512 826.9 262.94 827.847 262.936C828.563 262.933 829.308 262.672 830.109 262.181C830.91 261.69 831.51 261.086 831.88 260.367L834.841 255.222Z" fill="white"/>
<path d="M904.678 249.831C903.961 249.834 903.245 250.095 902.444 250.586C901.643 251.077 901.072 251.71 900.645 252.429L896.26 260.161C895.975 260.621 895.834 261.052 895.835 261.424C895.839 262.285 896.328 262.684 897.274 262.68C897.991 262.677 898.736 262.416 899.537 261.925C900.338 261.435 900.937 260.801 901.307 260.111L902.788 257.553C903.187 256.834 903.758 256.23 904.559 255.739C905.36 255.248 906.104 254.987 906.821 254.984L919.64 254.932C920.586 254.928 921.075 255.356 921.079 256.216C921.08 256.618 920.967 257.048 920.711 257.508L917.038 263.947C916.554 264.809 915.438 265.244 913.717 265.251L877.813 265.398C876.81 265.402 876.32 264.974 876.317 264.114C876.315 263.712 876.428 263.282 876.684 262.822L884.059 249.973C884.458 249.254 885.029 248.65 885.83 248.159C886.631 247.668 887.375 247.407 888.092 247.404L906.044 247.331C906.732 247.328 907.448 247.067 908.249 246.576C909.05 246.085 909.65 245.48 910.02 244.762L911.5 242.204C911.757 241.744 911.87 241.313 911.868 240.912C911.864 240.051 911.375 239.623 910.429 239.627C909.712 239.63 908.967 239.891 908.195 240.382C907.423 240.872 906.823 241.506 906.396 242.196C905.997 242.914 905.426 243.519 904.625 244.01C903.824 244.501 903.08 244.762 902.363 244.765L889.544 244.817C888.569 244.821 888.109 244.393 888.105 243.533C888.103 243.131 888.216 242.7 888.473 242.241L890.694 238.389C891.178 237.526 892.294 237.092 894.015 237.085L929.918 236.938C930.893 236.934 931.354 237.362 931.358 238.222C931.359 238.624 931.246 239.054 930.99 239.514L926.577 247.218C926.149 247.936 925.55 248.541 924.777 249.032C924.005 249.522 923.261 249.784 922.544 249.787L904.592 249.86L904.678 249.831Z" fill="white"/>
<path d="M973.047 236.703C974.023 236.699 974.483 237.128 974.487 237.988C974.488 238.389 974.375 238.82 974.119 239.28L960.85 262.42C960.452 263.138 959.881 263.743 959.08 264.234C958.279 264.724 957.534 264.986 956.875 264.988L920.971 265.135C919.967 265.139 919.478 264.711 919.475 263.851C919.473 263.449 919.586 263.019 919.842 262.559L933.111 239.419C933.51 238.701 934.081 238.096 934.882 237.605C935.683 237.115 936.427 236.853 937.144 236.851L973.047 236.703ZM954.687 241.912C954.943 241.452 955.056 241.021 955.054 240.62C955.051 239.76 954.561 239.331 953.615 239.335C952.898 239.338 952.154 239.599 951.381 240.09C950.609 240.581 950.009 241.214 949.582 241.904L939.274 259.898C939.018 260.358 938.905 260.789 938.907 261.19C938.91 262.051 939.4 262.479 940.346 262.475C941.063 262.472 941.808 262.211 942.609 261.72C943.409 261.229 944.009 260.596 944.379 259.906L954.687 241.912Z" fill="white"/>
<path d="M991.253 249.476C990.536 249.479 989.82 249.74 989.019 250.231C988.218 250.722 987.647 251.355 987.22 252.074L982.835 259.806C982.551 260.266 982.409 260.697 982.41 261.07C982.414 261.93 982.903 262.329 983.849 262.326C984.566 262.323 985.311 262.062 986.112 261.571C986.913 261.08 987.513 260.447 987.882 259.757L989.363 257.198C989.762 256.48 990.333 255.875 991.134 255.385C991.935 254.894 992.679 254.633 993.396 254.63L1006.21 254.577C1007.16 254.573 1007.65 255.001 1007.65 255.862C1007.66 256.263 1007.54 256.694 1007.29 257.154L1003.61 263.592C1003.13 264.455 1002.01 264.89 1000.29 264.897L964.389 265.044C963.385 265.048 962.896 264.62 962.892 263.759C962.891 263.358 963.003 262.927 963.26 262.467L970.634 249.618C971.033 248.9 971.604 248.295 972.405 247.804C973.206 247.314 973.95 247.052 974.667 247.049L992.619 246.976C993.307 246.973 994.023 246.712 994.824 246.221C995.625 245.73 996.225 245.126 996.595 244.407L998.076 241.849C998.332 241.389 998.445 240.958 998.443 240.557C998.44 239.697 997.95 239.269 997.004 239.272C996.287 239.275 995.543 239.537 994.77 240.027C993.998 240.518 993.398 241.151 992.971 241.841C992.572 242.56 992.001 243.164 991.2 243.655C990.399 244.146 989.655 244.407 988.938 244.41L976.119 244.463C975.144 244.467 974.684 244.038 974.68 243.178C974.679 242.776 974.792 242.346 975.048 241.886L977.269 238.034C977.753 237.172 978.869 236.737 980.59 236.73L1016.49 236.583C1017.47 236.579 1017.93 237.007 1017.93 237.868C1017.93 238.269 1017.82 238.7 1017.57 239.16L1013.15 246.863C1012.72 247.582 1012.12 248.187 1011.35 248.677C1010.58 249.168 1009.84 249.429 1009.12 249.432L991.167 249.505L991.253 249.476Z" fill="white"/>
<path d="M1059.25 236.35C1060.25 236.346 1060.74 236.774 1060.75 237.635C1060.75 238.036 1060.64 238.467 1060.38 238.927L1047.11 262.066C1046.71 262.785 1046.14 263.39 1045.34 263.88C1044.54 264.371 1043.79 264.632 1043.08 264.635L1030.26 264.688C1029.28 264.692 1028.82 264.263 1028.82 263.403C1028.82 263.002 1028.96 262.6 1029.22 262.111L1035.11 251.82C1035.34 251.361 1035.48 250.93 1035.48 250.528C1035.47 249.668 1034.98 249.24 1034.04 249.244L1016.09 249.317C1015.08 249.321 1014.59 248.893 1014.59 248.033C1014.59 247.632 1014.7 247.201 1014.96 246.741L1019.43 239.037C1019.83 238.319 1020.4 237.714 1021.17 237.223C1021.94 236.733 1022.69 236.472 1023.4 236.469L1036.22 236.416C1037.23 236.412 1037.72 236.84 1037.72 237.7C1037.72 238.102 1037.61 238.533 1037.35 238.992L1034.39 244.138C1034.13 244.598 1034.02 245.028 1034.02 245.43C1034.03 246.29 1034.52 246.718 1035.46 246.714C1036.18 246.711 1036.92 246.45 1037.72 245.96C1038.53 245.469 1039.12 244.835 1039.49 244.146L1042.46 239C1042.85 238.282 1043.43 237.677 1044.23 237.186C1045 236.696 1045.74 236.434 1046.46 236.431L1059.28 236.379L1059.25 236.35Z" fill="white"/>
<path d="M633.716 224.586L579 224.753L600.038 187.186L654.783 187.019L633.716 224.586Z" fill="#E82676"/>
</svg>
