<svg width="140" height="41" viewBox="0 0 140 41" fill="none" xmlns="http://www.w3.org/2000/svg">
<path d="M24.1463 25.4126C24.1454 25.4052 24.1445 25.3966 24.1445 25.3883L24.1454 25.3875C24.1463 25.3957 24.1463 25.4044 24.1463 25.4126Z" fill="#E9557F"/>
<path d="M24.2437 25.9112C24.2035 25.8 24.1758 25.6829 24.1602 25.5618C24.1767 25.6829 24.2044 25.7986 24.2437 25.9112Z" fill="#E9557F"/>
<path d="M6.08344 25.3441C6.08344 25.4438 6.06914 25.5408 6.04232 25.6319C6.02713 25.6865 6.00568 25.7392 5.98199 25.7901C5.97529 25.8053 5.96769 25.821 5.95875 25.8353C5.92881 25.8898 5.8944 25.9416 5.85597 25.9899C5.84256 26.006 5.82915 26.0216 5.81574 26.0368C5.80412 26.0484 5.79251 26.061 5.78133 26.0721C5.61062 26.2428 5.38136 26.3532 5.12573 26.3707L5.12305 26.368C5.65754 26.3304 6.07808 25.8862 6.07808 25.341C6.07808 24.9285 5.81306 24.5491 5.43722 24.39C5.42292 24.3842 5.40951 24.3775 5.39521 24.3726C5.54313 24.4226 5.67452 24.5071 5.78178 24.6152C5.7934 24.6268 5.80502 24.6394 5.81619 24.6505C5.8296 24.6657 5.84301 24.6814 5.85641 24.6975C5.89485 24.7453 5.92926 24.7971 5.9592 24.8521C5.96769 24.8664 5.97573 24.882 5.98244 24.8972C6.00657 24.9482 6.02758 25.0009 6.04277 25.0554C6.06958 25.1466 6.08388 25.2436 6.08388 25.3432L6.08344 25.3441Z" fill="#E9557F"/>
<path d="M20.9928 1.44919C20.8131 1.37903 20.633 1.312 20.4507 1.24854C20.633 1.3111 20.8136 1.37814 20.9928 1.44919Z" fill="#E9557F"/>
<path d="M22.2713 2.02121C22.1332 1.95105 21.9929 1.88401 21.853 1.81787C21.9934 1.88312 22.1332 1.95015 22.2713 2.02121Z" fill="#E9557F"/>
<path d="M4.35787 8.46221C4.36278 8.45461 4.36725 8.44701 4.37306 8.43897C4.38155 8.42377 4.39139 8.40813 4.40077 8.39294C4.38647 8.41618 4.37083 8.43897 4.35742 8.46221H4.35787ZM5.13235 7.36149C5.14397 7.34629 5.15648 7.33155 5.16899 7.31635C5.21592 7.25691 5.26418 7.19748 5.312 7.13804C5.25078 7.21178 5.19089 7.28686 5.13235 7.36149ZM5.58148 6.8194C5.59087 6.81001 5.59981 6.79929 5.6083 6.78946C5.62573 6.76934 5.64271 6.74923 5.66014 6.72912C5.63243 6.75907 5.60651 6.78856 5.58148 6.8194ZM6.00649 6.35373C6.02839 6.33049 6.05162 6.3077 6.07442 6.28446C6.0838 6.27373 6.09453 6.26256 6.10525 6.25183C6.07174 6.28535 6.03911 6.31887 6.00649 6.35373ZM6.5383 5.83085C6.54679 5.82325 6.55662 5.81476 6.56601 5.80583V5.80493C6.55662 5.81342 6.54679 5.82236 6.5383 5.83085Z" fill="#E9557F"/>
<path d="M3.2667 10.6111C3.19743 10.7867 3.13129 10.9641 3.06917 11.1438H3.06738C3.09911 11.0526 3.13174 10.9615 3.16615 10.8712C3.17196 10.8529 3.17866 10.8345 3.18626 10.8176C3.21218 10.7483 3.2381 10.6795 3.2667 10.6111Z" fill="#E9557F"/>
<path d="M3.56536 9.91846C3.48581 10.0892 3.40984 10.2621 3.33789 10.4369C3.40895 10.2621 3.48492 10.0896 3.56536 9.91846Z" fill="#E9557F"/>
<path d="M3.81387 9.4126C3.78527 9.46846 3.75712 9.52388 3.72852 9.57974C3.7379 9.55873 3.74863 9.53773 3.75935 9.51717C3.77678 9.48276 3.79466 9.44701 3.81387 9.4126Z" fill="#E9557F"/>
<path d="M4.22556 8.67725C4.08076 8.91813 3.94357 9.16303 3.81396 9.4124C3.82335 9.39139 3.83408 9.37128 3.84569 9.34983C3.95876 9.13309 4.07898 8.91902 4.20545 8.70987C4.21126 8.69914 4.21796 8.68797 4.22556 8.67725Z" fill="#E9557F"/>
<path d="M4.89058 7.68111C4.71003 7.9278 4.53752 8.18119 4.37351 8.43906C4.32346 8.51771 4.27475 8.59726 4.22559 8.67725C4.23318 8.66295 4.24212 8.64865 4.25151 8.63301C4.28592 8.57536 4.32167 8.5186 4.35787 8.46229C4.37128 8.43906 4.38647 8.41626 4.40122 8.39302C4.5402 8.17404 4.68634 7.95908 4.83873 7.74993C4.85527 7.72669 4.87225 7.7039 4.89058 7.68066V7.68111Z" fill="#E9557F"/>
<path d="M5.02762 7.4978C4.99008 7.54696 4.95254 7.59746 4.91455 7.64751C4.93645 7.61668 4.95879 7.58718 4.98248 7.55635C4.99678 7.53713 5.01108 7.51702 5.02762 7.4978Z" fill="#E9557F"/>
<path d="M5.31194 7.13818C5.26412 7.19762 5.21585 7.25706 5.16893 7.3165C5.14792 7.34242 5.12692 7.36923 5.10547 7.39605C5.11396 7.38443 5.1229 7.37281 5.13228 7.36163C5.19083 7.28655 5.25026 7.21192 5.31194 7.13818Z" fill="#E9557F"/>
<path d="M5.45904 6.9624C5.40988 7.02005 5.36117 7.0786 5.31201 7.13714C5.35313 7.08619 5.39469 7.03659 5.4367 6.98743C5.43938 6.98341 5.4434 6.97894 5.44742 6.97492C5.4501 6.97 5.45323 6.96732 5.45904 6.9624Z" fill="#E9557F"/>
<path d="M5.58139 6.81958C5.54117 6.8665 5.50095 6.91343 5.4585 6.9608C5.47771 6.93756 5.49782 6.91388 5.51883 6.89064C5.53894 6.8665 5.55905 6.84282 5.58139 6.81958Z" fill="#E9557F"/>
<path d="M5.82734 6.54688C5.7536 6.62642 5.68031 6.70731 5.60836 6.78954C5.59987 6.79893 5.59093 6.80965 5.58154 6.81949C5.60657 6.78865 5.63249 6.75915 5.6602 6.72921C5.68031 6.70508 5.70131 6.68229 5.72276 6.65905C5.75717 6.62061 5.79203 6.58441 5.82734 6.54688Z" fill="#E9557F"/>
<path d="M6.23526 6.12276C6.18163 6.17639 6.12756 6.23046 6.07482 6.28499C6.03818 6.32253 6.00198 6.36007 5.96533 6.39805C5.97874 6.38375 5.99215 6.36811 6.00645 6.35381C6.03907 6.3194 6.07169 6.28588 6.10521 6.25192C6.12175 6.23449 6.13784 6.2184 6.15437 6.20186C6.18119 6.17505 6.208 6.14823 6.23481 6.12231L6.23526 6.12276Z" fill="#E9557F"/>
<path d="M6.35687 6.00269C6.31665 6.04291 6.27508 6.08223 6.23486 6.12246C6.24157 6.11486 6.24827 6.10815 6.25497 6.10145C6.28849 6.06793 6.32201 6.03531 6.35687 6.00269Z" fill="#E9557F"/>
<path d="M6.4825 5.88379C6.45479 5.90971 6.42663 5.93563 6.39893 5.96244V5.96155C6.42574 5.93474 6.45479 5.90882 6.4825 5.88379Z" fill="#E9557F"/>
<path d="M6.63843 5.73999L6.56648 5.80613C6.53788 5.83205 6.51062 5.85797 6.48291 5.88389C6.4914 5.87451 6.50123 5.86557 6.51062 5.85708C6.52 5.84769 6.52894 5.83965 6.53833 5.83116C6.54682 5.82267 6.55665 5.81373 6.56603 5.80524C6.59017 5.78334 6.61385 5.76099 6.63798 5.73999H6.63843Z" fill="#E9557F"/>
<path d="M8.29432 4.4541C8.14371 4.55287 7.99579 4.65476 7.8501 4.75934C7.99579 4.65387 8.14371 4.55287 8.29432 4.4541Z" fill="#E9557F"/>
<path d="M12.6226 2.62354C12.2856 2.69951 11.9536 2.78665 11.6265 2.88765C11.9527 2.78576 12.2856 2.69861 12.6226 2.62354Z" fill="#E9557F"/>
<path d="M13.3881 2.47705C13.2165 2.50476 13.0453 2.53559 12.8755 2.57001C13.0453 2.5347 13.216 2.50386 13.3881 2.47705Z" fill="#E9557F"/>
<path d="M6.08311 25.344C6.08311 25.2443 6.06881 25.1473 6.04199 25.0562C6.06791 25.1473 6.08221 25.2443 6.08221 25.344C6.08221 25.4436 6.06791 25.5397 6.04199 25.6318C6.06881 25.5406 6.08311 25.4436 6.08311 25.344Z" fill="#E9557F"/>
<path d="M23.7491 30.5137H7.14453V31.1679H23.7491V30.5137Z" fill="#E9557F"/>
<path d="M13.5883 26.5638L11.8928 30.0264L10.1968 30.0246L12.6757 24.9822L13.5883 26.5638Z" fill="#E9557F"/>
<path d="M20.7185 30.0246H20.7176L18.2534 25.0112L20.7185 30.0246Z" fill="#E9557F"/>
<path d="M30.5511 15.4693L30.5484 15.4635C30.5484 13.7572 30.2642 12.1162 29.7404 10.5874C29.7252 10.5422 29.7104 10.5002 29.6952 10.4551C29.6877 10.4332 29.6778 10.4108 29.6702 10.3858C29.6443 10.3148 29.6184 10.2437 29.5925 10.1726C29.5724 10.1199 29.5522 10.0672 29.5312 10.0144C29.5071 9.95098 29.4812 9.88662 29.4566 9.82361C29.4231 9.74183 29.3896 9.66049 29.3547 9.58005C29.3172 9.49156 29.2787 9.40352 29.2394 9.31593C29.2077 9.24487 29.1751 9.17471 29.1424 9.10365C29.1348 9.08757 29.1272 9.07103 29.1183 9.0536C29.0781 8.96824 29.0365 8.88199 28.9945 8.79663C28.9905 8.78993 28.9878 8.78233 28.9838 8.77473C28.9445 8.69697 28.9051 8.61921 28.8649 8.54145C28.7778 8.37252 28.6866 8.20449 28.5923 8.03958C28.5798 8.01634 28.5664 7.99444 28.5539 7.97255C28.5195 7.91221 28.4837 7.85278 28.4484 7.792C28.4006 7.71022 28.3505 7.62977 28.3005 7.54844C28.2267 7.42956 28.1508 7.31158 28.0739 7.19449V7.1936C27.9961 7.07651 27.9175 6.96121 27.8379 6.84635C27.7575 6.73195 27.6757 6.61799 27.5921 6.50582C27.5086 6.39364 27.4241 6.28237 27.3378 6.17287C27.332 6.16617 27.3262 6.15947 27.3213 6.15276C27.2149 6.01735 27.1055 5.88418 26.9951 5.75279C26.9835 5.74027 26.9718 5.72687 26.9616 5.71346C26.7122 5.42074 26.4521 5.13874 26.1813 4.86613C26.1276 4.81161 26.0727 4.75664 26.0181 4.70302C25.7437 4.43532 25.4586 4.17701 25.1641 3.92943L24.9858 3.7824C24.8669 3.68542 24.7458 3.59068 24.6238 3.49638C24.4406 3.3574 24.2533 3.22109 24.0625 3.08836C23.936 3.00122 23.8082 2.91541 23.6795 2.83095C23.6143 2.78983 23.549 2.74738 23.4838 2.70626C23.3524 2.62448 23.221 2.54493 23.0874 2.46627C22.9542 2.38851 22.8188 2.31254 22.6834 2.23791H22.6825C22.5471 2.16417 22.4099 2.09311 22.2718 2.02205H22.2709C22.1328 1.95189 21.9925 1.88486 21.8526 1.81871C21.5706 1.68733 21.2837 1.56443 20.9927 1.45002C20.8131 1.37986 20.633 1.31282 20.4506 1.24936C20.2683 1.1859 20.0842 1.12557 19.8987 1.06881C19.5515 0.963346 19.198 0.869049 18.84 0.787713C18.7211 0.760899 18.6009 0.734979 18.4803 0.710846C18.3498 0.684926 18.2184 0.6599 18.0856 0.637108C17.245 0.490077 16.3803 0.414551 15.4972 0.414551C7.18438 0.414104 0.448242 7.15293 0.448242 15.4635C0.448242 18.8559 1.56907 21.9847 3.4617 24.5007C3.46349 24.5025 3.46438 24.5048 3.46572 24.5066C3.33344 24.7559 3.25836 25.0419 3.25836 25.3445C3.25836 26.3366 4.06144 27.1401 5.05401 27.1401C6.04657 27.1401 6.84966 26.3371 6.84966 25.3445C6.84966 25.0826 6.79379 24.8328 6.69235 24.6084L9.86803 21.4328C10.0781 21.519 10.3087 21.5673 10.5496 21.5673C10.6005 21.5673 10.6501 21.5655 10.6993 21.5606L12.6764 24.983L10.1974 30.0249L11.8929 30.0267L13.5885 26.5641L14.5654 28.2561C14.4166 28.4424 14.3285 28.6775 14.3285 28.9345C14.3285 29.5382 14.817 30.0267 15.4208 30.0267C16.0245 30.0267 16.513 29.5382 16.513 28.9345C16.513 28.7128 16.4478 28.5072 16.3347 28.3356L17.3416 26.5909L19.0228 30.0267L20.7183 30.0249L18.2537 25.0116V25.0107L20.2486 21.5539C20.3179 21.5633 20.3876 21.5673 20.4596 21.5673C20.7023 21.5673 20.9346 21.5195 21.1456 21.4319L24.3012 24.5874C24.2006 24.8118 24.1447 25.0598 24.1447 25.3217C24.1447 25.3436 24.1447 25.3659 24.1456 25.3878C24.1465 25.3963 24.1465 25.4053 24.1465 25.4138C24.1474 25.4406 24.1505 25.4674 24.1523 25.4933C24.1541 25.5166 24.1572 25.5393 24.1599 25.5626C24.1765 25.6837 24.2042 25.7994 24.2435 25.9121C24.256 25.9487 24.2703 25.9858 24.2855 26.0215C24.2962 26.0466 24.3074 26.0716 24.319 26.0966C24.3199 26.0984 24.3217 26.1015 24.3217 26.1042C24.3257 26.1109 24.3293 26.1185 24.3324 26.1252C24.3557 26.1686 24.3785 26.2115 24.4044 26.2539C24.4187 26.2781 24.4352 26.3031 24.4504 26.3259C24.467 26.35 24.4839 26.3737 24.5014 26.3969C24.5188 26.4211 24.538 26.4439 24.5572 26.4671C24.5747 26.4881 24.5925 26.5091 24.6109 26.5297C24.6117 26.5306 24.6126 26.5315 24.6126 26.5324C24.6319 26.5525 24.6511 26.5726 24.6703 26.5918C24.6904 26.6119 24.7114 26.632 24.7329 26.6512C24.7539 26.6705 24.7762 26.6897 24.7981 26.708C24.82 26.7263 24.8423 26.7433 24.8651 26.7607C24.8879 26.7782 24.9121 26.7951 24.9362 26.8117C24.9371 26.8126 24.938 26.8126 24.9402 26.8144C24.9621 26.8287 24.9854 26.8443 25.0081 26.8577C25.0734 26.897 25.1413 26.9337 25.2115 26.9641C25.434 27.0628 25.6807 27.1178 25.9399 27.1178C26.9321 27.1178 27.7356 26.3147 27.7356 25.3221C27.7356 25.0276 27.6645 24.7492 27.539 24.5043C29.4293 21.9869 30.5515 18.8595 30.5515 15.4698L30.5511 15.4693ZM6.04211 25.6323C6.02691 25.6868 6.00546 25.74 5.98177 25.7905C5.97507 25.8057 5.96747 25.8213 5.95854 25.8356C5.92859 25.8902 5.89418 25.942 5.85575 25.9903C5.84234 26.0068 5.82893 26.022 5.81553 26.0372C5.80391 26.0488 5.79229 26.0613 5.78112 26.0725C5.6104 26.2432 5.38114 26.3536 5.12551 26.371C5.10138 26.3728 5.07769 26.3737 5.05356 26.3737C4.48644 26.3737 4.0239 25.913 4.0239 25.344C4.0239 24.7751 4.48376 24.3144 5.05356 24.3144C5.1197 24.3144 5.18495 24.3211 5.24841 24.3327C5.26941 24.3376 5.28952 24.3421 5.31098 24.347C5.32617 24.351 5.34092 24.3546 5.35522 24.3595C5.36863 24.3635 5.38203 24.368 5.39455 24.3729C5.54247 24.423 5.67386 24.5074 5.78112 24.6156C5.79273 24.6272 5.80435 24.6397 5.81553 24.6509C5.82893 24.6661 5.84234 24.6817 5.85575 24.6978C5.89418 24.7456 5.92859 24.7975 5.95854 24.8525C5.96703 24.8668 5.97507 24.8824 5.98177 24.8976C6.00591 24.9485 6.02691 25.0013 6.04211 25.0558C6.06892 25.147 6.08322 25.2439 6.08322 25.3436C6.08322 25.4433 6.06892 25.5402 6.04211 25.6314V25.6323ZM10.5487 20.8004C9.98243 20.8004 9.51989 20.3405 9.51989 19.7716C9.51989 19.2027 9.97975 18.742 10.5487 18.742C11.1176 18.742 11.5783 19.2018 11.5783 19.7716C11.5783 20.3414 11.1185 20.8004 10.5487 20.8004ZM15.4199 29.5615C15.0744 29.5615 14.7933 29.2812 14.7933 28.9349C14.7933 28.5886 15.0735 28.3092 15.4199 28.3092C15.7662 28.3092 16.0455 28.5886 16.0455 28.9349C16.0455 29.2812 15.7662 29.5615 15.4199 29.5615ZM15.4708 26.8246L14.3835 24.9409L15.4583 22.7462L16.5438 24.9651L15.4708 26.8251V26.8246ZM20.4591 20.8008C19.892 20.8008 19.4295 20.341 19.4295 19.7721C19.4295 19.2032 19.8902 18.7424 20.4591 18.7424C21.028 18.7424 21.4888 19.2023 21.4888 19.7721C21.4888 20.3419 21.028 20.8008 20.4591 20.8008ZM25.9399 26.3514C25.9247 26.3514 25.9091 26.3514 25.8948 26.3505C25.8783 26.3496 25.8613 26.3487 25.8447 26.3464C25.8282 26.3456 25.8112 26.3438 25.7947 26.3406C25.7773 26.3389 25.7612 26.3357 25.7446 26.3321C25.7281 26.3295 25.712 26.3263 25.6955 26.3214C25.6789 26.3187 25.6638 26.3138 25.6477 26.3089C25.6352 26.3049 25.6217 26.3013 25.6092 26.2973C25.6016 26.2946 25.594 26.2915 25.5851 26.2888C25.5659 26.2821 25.5476 26.2745 25.5283 26.2669C25.5118 26.2602 25.4966 26.2526 25.4805 26.245C25.2455 26.1306 25.0622 25.9304 24.972 25.6788C24.9652 25.6596 24.9585 25.6403 24.9527 25.6202C24.9469 25.6001 24.9411 25.5791 24.9362 25.5577C24.9313 25.5344 24.9268 25.5116 24.9228 25.4875C24.9219 25.4826 24.921 25.4781 24.9201 25.4732C24.9161 25.4406 24.9125 25.408 24.9107 25.3744C24.9098 25.357 24.9098 25.34 24.9098 25.3217C24.9098 25.3007 24.9107 25.2806 24.9116 25.2591C24.9125 25.2359 24.9156 25.2131 24.9183 25.1912C24.9201 25.1738 24.9232 25.1568 24.9259 25.1403C24.9308 25.1143 24.9353 25.0893 24.9425 25.0643C24.9509 25.0317 24.9608 24.999 24.9724 24.9673C24.984 24.9365 24.9974 24.9061 25.0117 24.8752C25.0184 24.8609 25.026 24.8453 25.035 24.831C25.0426 24.8167 25.0515 24.8024 25.06 24.7877C25.0765 24.7599 25.0944 24.7318 25.1159 24.7063C25.1243 24.6929 25.1351 24.6795 25.1467 24.667C25.1561 24.6536 25.1668 24.642 25.1784 24.6294C25.1891 24.6169 25.2017 24.6044 25.2128 24.5941C25.2714 24.5356 25.3357 24.4838 25.4068 24.4418C25.4211 24.4333 25.4354 24.4243 25.4501 24.4167C25.4787 24.4002 25.5096 24.3868 25.5404 24.3734C25.6633 24.3215 25.7987 24.2929 25.9404 24.2929C25.9654 24.2929 25.9895 24.2938 26.0141 24.2956H26.0159C26.04 24.2974 26.0637 24.2996 26.0879 24.3032C26.0995 24.305 26.1098 24.3059 26.1214 24.309C26.1348 24.3108 26.1482 24.3139 26.1607 24.3166C26.1839 24.3215 26.2067 24.3273 26.2286 24.334C26.2438 24.3381 26.2586 24.3425 26.2738 24.3484C26.289 24.3533 26.3037 24.3591 26.318 24.3649C26.3323 24.3707 26.3466 24.3765 26.3614 24.3832C26.3757 24.389 26.3891 24.3957 26.4034 24.4033C26.4186 24.41 26.4333 24.4176 26.4476 24.4275C26.4592 24.4333 26.4718 24.4409 26.4829 24.4485C26.4972 24.4569 26.5106 24.4659 26.524 24.4753C26.55 24.4918 26.575 24.5106 26.5978 24.5311C26.6219 24.5504 26.6438 24.5705 26.6657 24.5937C26.6773 24.6031 26.6889 24.6147 26.6983 24.6272C26.7001 24.6281 26.701 24.629 26.701 24.6299C26.7211 24.6518 26.7403 24.675 26.7578 24.6992C26.7672 24.7117 26.777 24.7242 26.7846 24.7367C26.794 24.7492 26.8029 24.7617 26.8105 24.7751C26.8279 24.8011 26.8431 24.8288 26.8565 24.8569C26.8641 24.8703 26.8708 24.8846 26.8766 24.8989C26.8842 24.9132 26.89 24.9275 26.8959 24.9423C26.9026 24.9566 26.9075 24.9722 26.9124 24.9865C26.9182 25.0017 26.9231 25.0165 26.9267 25.0317C26.9401 25.0768 26.9508 25.1228 26.9575 25.1698C26.9602 25.1849 26.9624 25.2015 26.9633 25.2167C26.9674 25.2511 26.9692 25.2868 26.9692 25.3221C26.9692 25.8924 26.5093 26.3518 25.9395 26.3518L25.9399 26.3514ZM25.9024 23.5261L25.9015 23.5269C25.7661 23.5287 25.6356 23.5471 25.51 23.5779L22.1886 20.2556C22.232 20.1019 22.2548 19.9401 22.2548 19.7721C22.2548 18.78 21.4517 17.9764 20.4591 17.9764C19.4666 17.9764 18.6635 18.7795 18.6635 19.7721C18.6635 20.1408 18.7739 20.484 18.9647 20.7682L17.4542 23.3871L16.2958 21.0319L15.4579 19.3265L14.6172 21.0319L13.4714 23.362L12.0051 20.821C12.2192 20.5265 12.3439 20.1636 12.3439 19.7721C12.3439 18.78 11.5408 17.9764 10.5482 17.9764C9.55564 17.9764 8.75346 18.7795 8.75346 19.7721C8.75346 19.941 8.77669 20.105 8.82049 20.2605L5.4799 23.6011C5.36192 23.5712 5.23902 23.5542 5.11344 23.5502L5.11255 23.5493C3.37455 21.3179 2.33998 18.5127 2.33998 15.4671C2.33998 13.9525 2.59516 12.4979 3.06664 11.1447C3.09837 11.0535 3.13099 10.9623 3.1654 10.872C3.17121 10.8537 3.17792 10.8354 3.18551 10.8184C3.21143 10.7491 3.23735 10.6803 3.26595 10.6119C3.29009 10.5534 3.31288 10.4949 3.33701 10.4372C3.40807 10.2625 3.48404 10.09 3.56449 9.9188C3.61633 9.80439 3.67085 9.69133 3.7276 9.58005C3.73699 9.55905 3.74771 9.53804 3.75844 9.51748C3.77587 9.48307 3.79375 9.44732 3.81296 9.41291C3.82235 9.3919 3.83307 9.37179 3.84469 9.35034C3.95776 9.1336 4.07797 8.91953 4.20445 8.71038C4.21026 8.69965 4.21696 8.68848 4.22456 8.67776C4.23216 8.66346 4.24109 8.64915 4.25048 8.63351C4.28489 8.57586 4.32064 8.51911 4.35684 8.4628C4.37025 8.43956 4.38544 8.41677 4.40019 8.39353C4.53918 8.17455 4.68531 7.95959 4.83771 7.75044C4.85424 7.7272 4.87122 7.70441 4.88955 7.68117C4.89357 7.67536 4.89714 7.67044 4.90117 7.66508C4.90608 7.65927 4.90966 7.65346 4.91368 7.64765C4.93558 7.61681 4.95792 7.58732 4.98161 7.55648C4.99591 7.53726 5.01021 7.51715 5.02675 7.49794C5.02764 7.49615 5.02943 7.49526 5.02943 7.49302C5.04686 7.47202 5.06294 7.45101 5.07859 7.42956C5.08708 7.41794 5.09602 7.40766 5.10451 7.39604C5.113 7.38442 5.12194 7.37281 5.13132 7.36163C5.18986 7.287 5.2493 7.21192 5.31098 7.13818V7.13729C5.35209 7.08634 5.39365 7.03673 5.43566 6.98758C5.43834 6.98355 5.44236 6.97908 5.44639 6.97506C5.44907 6.97015 5.4522 6.96746 5.45801 6.96255V6.96076C5.47722 6.93752 5.49733 6.91384 5.51834 6.8906C5.53845 6.86647 5.55856 6.84278 5.5809 6.81954C5.60593 6.7887 5.63185 6.75921 5.65956 6.72927C5.67967 6.70513 5.70067 6.68234 5.72212 6.6591C5.75654 6.62067 5.79139 6.58402 5.8267 6.54693C5.8343 6.53844 5.84189 6.5295 5.84994 6.52101C5.85262 6.51833 5.85485 6.51609 5.85664 6.51341C5.89195 6.47498 5.92859 6.43655 5.96524 6.39811C5.97865 6.38381 5.99205 6.36817 6.00635 6.35387C6.03898 6.31946 6.0716 6.28594 6.10512 6.25198C6.12165 6.23455 6.13774 6.21846 6.15428 6.20192C6.18109 6.17511 6.20791 6.14829 6.23472 6.12237C6.24142 6.11478 6.24813 6.10807 6.25483 6.10137C6.28835 6.06785 6.32187 6.03523 6.35672 6.0026C6.36834 5.99322 6.37862 5.98249 6.39024 5.96998C6.39292 5.96819 6.39605 5.96507 6.39873 5.96238V5.96149C6.42555 5.93468 6.4546 5.90876 6.4823 5.88373C6.49079 5.87434 6.50063 5.86541 6.51001 5.85691C6.5194 5.84753 6.52833 5.83949 6.53772 5.83099C6.54621 5.8225 6.55604 5.81357 6.56543 5.80507C6.58956 5.78318 6.61325 5.76083 6.63738 5.73983C6.64408 5.73402 6.65079 5.72731 6.65749 5.7215C6.66598 5.71391 6.67492 5.70631 6.68341 5.69827C6.71871 5.66385 6.75625 5.63123 6.7929 5.60039C6.79469 5.59861 6.79558 5.59637 6.79782 5.59548C6.82463 5.57135 6.85144 5.54855 6.87826 5.52442C6.94529 5.46588 7.01278 5.40823 7.0807 5.35147C7.13925 5.30231 7.19869 5.25449 7.25812 5.20667C7.3846 5.10478 7.5142 5.00512 7.64469 4.90725C7.71173 4.8572 7.7801 4.80759 7.84803 4.75843H7.84893C7.99462 4.65296 8.14254 4.55196 8.29315 4.4532C8.37582 4.39957 8.46029 4.34549 8.54475 4.29276C8.71368 4.18819 8.8844 4.08629 9.05824 3.98842H9.05914C9.17533 3.92317 9.29152 3.85971 9.40951 3.79849C9.52749 3.73726 9.64547 3.67738 9.76569 3.61883C9.84524 3.57951 9.92612 3.54197 10.0066 3.50443C10.0611 3.4794 10.1152 3.45527 10.1697 3.43158C10.2783 3.38242 10.3873 3.33639 10.4968 3.29125C10.5527 3.26802 10.6072 3.24612 10.6631 3.22422C10.781 3.17729 10.8999 3.13216 11.0201 3.08881C11.1399 3.04546 11.2601 3.00434 11.3821 2.96412C11.4626 2.93641 11.5444 2.91049 11.6257 2.88636C11.9519 2.78447 12.2849 2.69732 12.6218 2.62224C12.7063 2.60303 12.7908 2.5847 12.8752 2.56862C13.045 2.53331 13.2158 2.50247 13.3878 2.47566C13.4732 2.46136 13.5594 2.44795 13.6461 2.43633C13.8142 2.4122 13.9822 2.39209 14.152 2.37511C14.1645 2.37421 14.177 2.37243 14.1905 2.37108C14.3428 2.35589 14.4975 2.34338 14.6521 2.33355C14.682 2.33176 14.7115 2.32952 14.7415 2.32863C14.8041 2.32461 14.8662 2.32103 14.9287 2.31924C14.9488 2.31835 14.969 2.31746 14.9891 2.31656C15.0695 2.31388 15.1504 2.31075 15.2317 2.30986C15.3202 2.30807 15.4083 2.30718 15.4976 2.30718H15.5035C15.5928 2.30718 15.6809 2.30807 15.7694 2.30986C15.8489 2.31075 15.9276 2.31388 16.0062 2.31656C16.0741 2.31924 16.1425 2.32237 16.2105 2.32595C16.2547 2.32774 16.2989 2.33086 16.3427 2.33355C16.3454 2.33355 16.3476 2.33355 16.3503 2.33444C16.4232 2.33846 16.4951 2.34293 16.568 2.34963C16.6314 2.35455 16.6944 2.36036 16.757 2.36617C16.8071 2.37108 16.8576 2.37555 16.9067 2.38136C16.9693 2.38717 17.0314 2.39477 17.0931 2.40237C17.165 2.41086 17.2361 2.4198 17.3071 2.43008C17.5011 2.456 17.6937 2.48683 17.8859 2.52214C17.9435 2.53286 18.0012 2.54314 18.0588 2.55566C18.0897 2.56057 18.1201 2.56727 18.15 2.57398C18.2036 2.5847 18.2577 2.59498 18.3104 2.6075C18.3632 2.61822 18.4141 2.62939 18.466 2.64191C18.5737 2.66693 18.68 2.69285 18.7864 2.72056C18.8355 2.73218 18.8834 2.74469 18.9312 2.759C19.0541 2.79073 19.1761 2.82603 19.2968 2.86268C19.387 2.88949 19.4764 2.9172 19.5653 2.94714C19.6172 2.96234 19.6681 2.97976 19.7191 2.99809C19.8254 3.03339 19.9314 3.07004 20.0359 3.10937C20.082 3.12545 20.128 3.14288 20.174 3.16121C20.2871 3.20322 20.3997 3.24746 20.511 3.29438C20.5476 3.30868 20.5838 3.32433 20.6205 3.34041C20.6705 3.36052 20.7192 3.38153 20.7684 3.40387C20.8095 3.4213 20.8511 3.43918 20.8913 3.4575C20.9977 3.50532 21.1045 3.55537 21.2099 3.60632C21.256 3.62822 21.302 3.65056 21.3471 3.67336C21.4432 3.72028 21.5371 3.76944 21.6314 3.81905C21.6765 3.84228 21.7207 3.86597 21.7645 3.8901C22.0465 4.0425 22.3232 4.20561 22.5918 4.37857C22.653 4.41789 22.7138 4.45722 22.7741 4.49744C23.2858 4.83709 23.772 5.21248 24.2301 5.61827C24.2761 5.65938 24.3222 5.70005 24.3673 5.74206C24.4902 5.85423 24.6109 5.96864 24.7302 6.08573C24.7896 6.14427 24.8482 6.20282 24.9067 6.26225C24.9094 6.26628 24.9125 6.26896 24.9161 6.27164C24.9706 6.3284 25.0256 6.38605 25.0792 6.44236C25.136 6.50358 25.1923 6.56436 25.249 6.62648C25.3049 6.6877 25.3603 6.75027 25.4148 6.81284C25.4707 6.8754 25.5243 6.93842 25.5771 7.00277C25.6307 7.06712 25.6848 7.13148 25.7362 7.19583C25.7746 7.24365 25.813 7.29192 25.8515 7.33973C25.8658 7.35806 25.8801 7.37638 25.8935 7.39426C25.994 7.52386 26.0919 7.65435 26.188 7.78664C26.2023 7.80585 26.2157 7.82596 26.23 7.84607C26.2653 7.89613 26.301 7.94663 26.3354 7.99757C26.3833 8.0655 26.4306 8.13567 26.4767 8.20494C26.5227 8.2751 26.5687 8.34526 26.613 8.41587C26.7032 8.55709 26.7904 8.7001 26.874 8.8449C26.9566 8.98522 27.0362 9.12779 27.1131 9.27214C27.1238 9.29135 27.1341 9.31146 27.1448 9.33157C27.1756 9.39012 27.206 9.44866 27.236 9.5081C27.3128 9.65781 27.3866 9.80931 27.4567 9.96304C27.492 10.0399 27.5269 10.1168 27.5604 10.1945C27.5948 10.2714 27.6274 10.3501 27.6601 10.4287C27.69 10.4989 27.7177 10.5677 27.7454 10.6388C27.7847 10.7384 27.8232 10.8385 27.8598 10.9391C27.8817 11.0003 27.9041 11.062 27.926 11.1241C27.9278 11.1299 27.93 11.1348 27.9318 11.1406C28.4019 12.4938 28.6584 13.9485 28.6584 15.4631C28.6584 18.4993 27.6306 21.2969 25.9024 23.5225V23.5261Z" fill="#E9557F"/>
<path d="M10.0566 31.8076L11.1364 33.5581L11.1372 33.5599L15.4682 40.583L16.5077 38.8977L20.8801 31.8076H10.0566ZM16.0353 36.2833L15.4682 37.2035L13.2207 33.5577H17.717L16.0357 36.2833H16.0353Z" fill="#E9557F"/>
<path d="M16.507 38.8976L15.468 40.5856L11.1357 33.5598H11.1371L15.468 40.5824L16.507 38.8976Z" fill="#E9557F"/>
<path d="M17.7164 33.5576L16.0352 36.2833L17.7128 33.5576H17.7164Z" fill="#E9557F"/>
<path d="M40.0391 24V8.5582H42.4888L48.5692 18.0289H47.3225L53.3811 8.5582H55.8527V24H52.4188V14.3543L53.0312 14.5075L49.0723 20.6754H46.7976L42.8606 14.5075L43.4511 14.3543V24H40.0391ZM57.6549 24L63.7792 8.5582H66.885L72.9436 24H69.3128L64.6759 11.1829H65.9226L61.2201 24H57.6549ZM61.1326 21.2004V18.4007H69.5534V21.2004H61.1326ZM74.5775 24V8.5582H78.0115V24H74.5775ZM77.2241 24V20.9816H84.8575V24H77.2241ZM89.4626 18.3788V15.7104H92.7872C93.2101 15.7104 93.5965 15.6229 93.9464 15.448C94.2964 15.273 94.5734 15.0178 94.7776 14.6824C94.9817 14.3471 95.0838 13.9388 95.0838 13.4576C95.0838 12.991 94.9817 12.59 94.7776 12.2546C94.5734 11.9192 94.2964 11.6641 93.9464 11.4891C93.5965 11.3141 93.2101 11.2266 92.7872 11.2266H89.4626V8.5582H93.2903C94.2672 8.5582 95.1494 8.75505 95.9368 9.14876C96.7242 9.54246 97.3439 10.1111 97.7959 10.8548C98.2626 11.5839 98.4959 12.4515 98.4959 13.4576C98.4959 14.4637 98.2626 15.3386 97.7959 16.0823C97.3439 16.8113 96.7242 17.38 95.9368 17.7883C95.1494 18.182 94.2672 18.3788 93.2903 18.3788H89.4626ZM86.838 24V8.5582H90.2719V24H86.838ZM103.047 17.6352V15.098H106.306C106.992 15.098 107.517 14.923 107.881 14.5731C108.26 14.2231 108.45 13.7492 108.45 13.1514C108.45 12.5973 108.268 12.138 107.903 11.7734C107.538 11.4089 107.013 11.2266 106.328 11.2266H103.047V8.5582H106.722C107.743 8.5582 108.639 8.75505 109.412 9.14876C110.185 9.52787 110.79 10.0601 111.228 10.7454C111.665 11.4308 111.884 12.2182 111.884 13.1076C111.884 14.0117 111.665 14.8064 111.228 15.4917C110.79 16.1625 110.178 16.6874 109.39 17.0665C108.603 17.4456 107.677 17.6352 106.613 17.6352H103.047ZM100.423 24V8.5582H103.857V24H100.423ZM108.822 24L104.01 17.3508L107.159 16.4978L112.89 24H108.822ZM114.392 24V8.5582H117.826V24H114.392ZM117.017 24V21.0254H125.481V24H117.017ZM117.017 17.5477V14.6824H124.716V17.5477H117.017ZM117.017 11.511V8.5582H125.372V11.511H117.017ZM132.101 24.2406C130.832 24.2406 129.739 24.0365 128.82 23.6282C127.916 23.2053 127.085 22.571 126.327 21.7253L128.558 19.5162C129.053 20.0849 129.6 20.5296 130.198 20.8504C130.81 21.1566 131.518 21.3097 132.32 21.3097C133.049 21.3097 133.61 21.1785 134.004 20.916C134.412 20.6535 134.616 20.289 134.616 19.8224C134.616 19.3995 134.485 19.0569 134.222 18.7944C133.96 18.5319 133.61 18.3059 133.173 18.1164C132.75 17.9268 132.276 17.7445 131.751 17.5696C131.241 17.3946 130.73 17.1977 130.22 16.979C129.709 16.7457 129.236 16.4614 128.798 16.126C128.375 15.776 128.033 15.3459 127.77 14.8355C127.508 14.3106 127.376 13.6544 127.376 12.867C127.376 11.9192 127.602 11.1027 128.054 10.4173C128.521 9.73201 129.163 9.21437 129.979 8.86442C130.796 8.49988 131.736 8.31761 132.801 8.31761C133.88 8.31761 134.864 8.50717 135.753 8.88629C136.658 9.26541 137.401 9.78305 137.984 10.4392L135.753 12.6483C135.287 12.1671 134.813 11.8099 134.332 11.5766C133.865 11.3433 133.333 11.2266 132.735 11.2266C132.137 11.2266 131.663 11.3433 131.313 11.5766C130.963 11.7953 130.788 12.1161 130.788 12.539C130.788 12.9327 130.92 13.2534 131.182 13.5013C131.445 13.7346 131.787 13.9388 132.21 14.1138C132.648 14.2887 133.122 14.4637 133.632 14.6387C134.157 14.8137 134.674 15.0178 135.185 15.2511C135.695 15.4844 136.162 15.7833 136.585 16.1479C137.022 16.4978 137.372 16.9499 137.635 17.5039C137.897 18.0435 138.028 18.7142 138.028 19.5162C138.028 20.9889 137.503 22.1482 136.453 22.9939C135.404 23.825 133.953 24.2406 132.101 24.2406Z" fill="#E9557F"/>
<path d="M39.0274 37V32.0619H39.8108L41.7552 35.0905H41.3565L43.294 32.0619H44.0844V37H42.9862V33.9155L43.1821 33.9644L41.9161 35.9368H41.1887L39.9297 33.9644L40.1185 33.9155V37H39.0274ZM44.6607 37L46.6191 32.0619H47.6123L49.5498 37H48.3887L46.9059 32.9013H47.3046L45.8008 37H44.6607ZM45.7728 36.1047V35.2094H48.4657V36.1047H45.7728ZM50.0723 37V32.0619H51.1704V37H50.0723ZM50.9186 37V36.0348H53.3597V37H50.9186ZM53.4857 37L55.4441 32.0619H56.4373L58.3748 37H57.2137L55.7309 32.9013H56.1296L54.6258 37H53.4857ZM54.5978 36.1047V35.2094H57.2907V36.1047H54.5978ZM58.8973 37V32.0619H59.6807L61.6251 35.0905H61.2265L63.1639 32.0619H63.9543V37H62.8562V33.9155L63.052 33.9644L61.786 35.9368H61.0586L59.7996 33.9644L59.9884 33.9155V37H58.8973ZM65.6645 37L67.6229 32.0619H68.6161L70.5536 37H69.3925L67.9097 32.9013H68.3084L66.8046 37H65.6645ZM66.7766 36.1047V35.2094H69.4695V36.1047H66.7766ZM71.9154 35.2024V34.3491H72.9786C73.1138 34.3491 73.2374 34.3211 73.3493 34.2652C73.4612 34.2092 73.5498 34.1276 73.6151 34.0204C73.6804 33.9131 73.713 33.7826 73.713 33.6287C73.713 33.4795 73.6804 33.3512 73.6151 33.244C73.5498 33.1367 73.4612 33.0551 73.3493 32.9992C73.2374 32.9432 73.1138 32.9152 72.9786 32.9152H71.9154V32.0619H73.1395C73.4519 32.0619 73.734 32.1249 73.9858 32.2508C74.2376 32.3767 74.4358 32.5585 74.5803 32.7963C74.7295 33.0295 74.8041 33.3069 74.8041 33.6287C74.8041 33.9504 74.7295 34.2302 74.5803 34.468C74.4358 34.7012 74.2376 34.883 73.9858 35.0136C73.734 35.1395 73.4519 35.2024 73.1395 35.2024H71.9154ZM71.0761 37V32.0619H72.1742V37H71.0761ZM76.2596 34.9646V34.1533H77.3018C77.521 34.1533 77.6888 34.0973 77.8054 33.9854C77.9266 33.8735 77.9873 33.7219 77.9873 33.5308C77.9873 33.3536 77.929 33.2067 77.8124 33.0901C77.6958 32.9735 77.528 32.9152 77.3088 32.9152H76.2596V32.0619H77.4347C77.7611 32.0619 78.0479 32.1249 78.295 32.2508C78.5422 32.372 78.7357 32.5422 78.8756 32.7614C79.0154 32.9805 79.0854 33.2323 79.0854 33.5168C79.0854 33.8059 79.0154 34.06 78.8756 34.2792C78.7357 34.4937 78.5398 34.6615 78.288 34.7828C78.0362 34.904 77.7401 34.9646 77.3997 34.9646H76.2596ZM75.4203 37V32.0619H76.5184V37H75.4203ZM78.1062 37L76.5674 34.8737L77.5746 34.6009L79.4071 37H78.1062ZM79.8875 37V32.0619H80.9856V37H79.8875ZM80.7268 37V36.0488H83.4336V37H80.7268ZM80.7268 34.9366V34.0204H83.1888V34.9366H80.7268ZM80.7268 33.0062V32.0619H83.3987V33.0062H80.7268ZM85.5505 37.0769C85.1449 37.0769 84.7951 37.0117 84.5014 36.8811C84.2123 36.7459 83.9465 36.543 83.704 36.2726L84.4174 35.5661C84.576 35.748 84.7508 35.8902 84.942 35.9928C85.1379 36.0907 85.364 36.1397 85.6205 36.1397C85.8536 36.1397 86.0332 36.0977 86.1591 36.0138C86.2896 35.9299 86.3549 35.8133 86.3549 35.6641C86.3549 35.5288 86.3129 35.4193 86.229 35.3353C86.1451 35.2514 86.0332 35.1791 85.8933 35.1185C85.758 35.0579 85.6065 34.9996 85.4386 34.9436C85.2754 34.8877 85.1122 34.8247 84.949 34.7548C84.7858 34.6802 84.6343 34.5893 84.4944 34.482C84.3592 34.3701 84.2496 34.2325 84.1656 34.0693C84.0817 33.9015 84.0397 33.6916 84.0397 33.4398C84.0397 33.1367 84.112 32.8756 84.2566 32.6565C84.4058 32.4373 84.611 32.2718 84.8721 32.1599C85.1332 32.0433 85.434 31.985 85.7744 31.985C86.1194 31.985 86.4342 32.0456 86.7186 32.1668C87.0077 32.2881 87.2455 32.4536 87.432 32.6634L86.7186 33.3699C86.5694 33.216 86.4179 33.1018 86.264 33.0272C86.1148 32.9526 85.9446 32.9152 85.7534 32.9152C85.5622 32.9152 85.4107 32.9526 85.2987 33.0272C85.1868 33.0971 85.1309 33.1997 85.1309 33.3349C85.1309 33.4608 85.1728 33.5634 85.2568 33.6427C85.3407 33.7173 85.4503 33.7826 85.5855 33.8385C85.7254 33.8945 85.8769 33.9504 86.0402 34.0064C86.208 34.0623 86.3736 34.1276 86.5368 34.2022C86.7 34.2768 86.8492 34.3724 86.9844 34.489C87.1243 34.6009 87.2362 34.7455 87.3201 34.9227C87.4041 35.0952 87.446 35.3097 87.446 35.5661C87.446 36.0371 87.2782 36.4078 86.9424 36.6783C86.6067 36.944 86.1427 37.0769 85.5505 37.0769ZM88.1455 37V32.0619H89.2437V37H88.1455ZM89.824 37L91.7824 32.0619H92.7756L94.7131 37H93.552L92.0692 32.9013H92.4679L90.9641 37H89.824ZM90.9361 36.1047V35.2094H93.6289V36.1047H90.9361ZM96.6228 37.0769C96.2171 37.0769 95.8674 37.0117 95.5736 36.8811C95.2845 36.7459 95.0187 36.543 94.7763 36.2726L95.4897 35.5661C95.6482 35.748 95.8231 35.8902 96.0143 35.9928C96.2101 36.0907 96.4363 36.1397 96.6927 36.1397C96.9259 36.1397 97.1054 36.0977 97.2313 36.0138C97.3619 35.9299 97.4271 35.8133 97.4271 35.6641C97.4271 35.5288 97.3852 35.4193 97.3012 35.3353C97.2173 35.2514 97.1054 35.1791 96.9655 35.1185C96.8303 35.0579 96.6787 34.9996 96.5109 34.9436C96.3477 34.8877 96.1845 34.8247 96.0213 34.7548C95.8581 34.6802 95.7065 34.5893 95.5666 34.482C95.4314 34.3701 95.3218 34.2325 95.2379 34.0693C95.154 33.9015 95.112 33.6916 95.112 33.4398C95.112 33.1367 95.1843 32.8756 95.3288 32.6565C95.478 32.4373 95.6832 32.2718 95.9443 32.1599C96.2055 32.0433 96.5062 31.985 96.8466 31.985C97.1917 31.985 97.5064 32.0456 97.7909 32.1668C98.08 32.2881 98.3178 32.4536 98.5043 32.6634L97.7909 33.3699C97.6416 33.216 97.4901 33.1018 97.3362 33.0272C97.187 32.9526 97.0168 32.9152 96.8256 32.9152C96.6344 32.9152 96.4829 32.9526 96.371 33.0272C96.2591 33.0971 96.2031 33.1997 96.2031 33.3349C96.2031 33.4608 96.2451 33.5634 96.329 33.6427C96.413 33.7173 96.5225 33.7826 96.6578 33.8385C96.7976 33.8945 96.9492 33.9504 97.1124 34.0064C97.2803 34.0623 97.4458 34.1276 97.609 34.2022C97.7722 34.2768 97.9214 34.3724 98.0566 34.489C98.1965 34.6009 98.3084 34.7455 98.3924 34.9227C98.4763 35.0952 98.5183 35.3097 98.5183 35.5661C98.5183 36.0371 98.3504 36.4078 98.0147 36.6783C97.6789 36.944 97.215 37.0769 96.6228 37.0769ZM99.2178 37V32.0619H100.316V37H99.2178ZM102.599 37V32.0619H103.382L105.327 35.0905H104.928L106.865 32.0619H107.656V37H106.558V33.9155L106.754 33.9644L105.488 35.9368H104.76L103.501 33.9644L103.69 33.9155V37H102.599ZM108.603 37V32.0619H109.701V37H108.603ZM111.491 35.2024V34.3491H112.555C112.69 34.3491 112.813 34.3211 112.925 34.2652C113.037 34.2092 113.126 34.1276 113.191 34.0204C113.256 33.9131 113.289 33.7826 113.289 33.6287C113.289 33.4795 113.256 33.3512 113.191 33.244C113.126 33.1367 113.037 33.0551 112.925 32.9992C112.813 32.9432 112.69 32.9152 112.555 32.9152H111.491V32.0619H112.715C113.028 32.0619 113.31 32.1249 113.562 32.2508C113.814 32.3767 114.012 32.5585 114.156 32.7963C114.305 33.0295 114.38 33.3069 114.38 33.6287C114.38 33.9504 114.305 34.2302 114.156 34.468C114.012 34.7012 113.814 34.883 113.562 35.0136C113.31 35.1395 113.028 35.2024 112.715 35.2024H111.491ZM110.652 37V32.0619H111.75V37H110.652ZM114.284 37L116.242 32.0619H117.236L119.173 37H118.012L116.529 32.9013H116.928L115.424 37H114.284ZM115.396 36.1047V35.2094H118.089V36.1047H115.396ZM120.576 36.3845L122.472 34.426C122.588 34.3095 122.682 34.2022 122.752 34.1043C122.822 34.0064 122.873 33.9155 122.906 33.8315C122.938 33.7429 122.954 33.6543 122.954 33.5657C122.954 33.3746 122.892 33.2253 122.766 33.1181C122.644 33.0062 122.484 32.9502 122.283 32.9502C122.087 32.9502 121.91 33.0038 121.751 33.1111C121.598 33.2137 121.448 33.3839 121.304 33.6217L120.569 32.9852C120.765 32.6541 121.015 32.4047 121.318 32.2368C121.621 32.0689 121.968 31.985 122.36 31.985C122.7 31.985 122.994 32.0479 123.241 32.1738C123.493 32.2997 123.687 32.4793 123.822 32.7124C123.962 32.9456 124.032 33.2183 124.032 33.5308C124.032 33.7266 124.006 33.9085 123.955 34.0763C123.903 34.2395 123.819 34.4027 123.703 34.5659C123.591 34.7245 123.439 34.8993 123.248 35.0905L121.933 36.3985L120.576 36.3845ZM120.576 37V36.3845L121.507 36.0627H124.13V37H120.576ZM126.693 37.0769C126.296 37.0769 125.937 36.9697 125.616 36.7552C125.294 36.5407 125.04 36.2423 124.853 35.8599C124.671 35.4729 124.58 35.0276 124.58 34.524C124.58 34.0157 124.671 33.5727 124.853 33.195C125.035 32.8127 125.284 32.5166 125.602 32.3067C125.919 32.0922 126.278 31.985 126.679 31.985C127.084 31.985 127.446 32.0922 127.763 32.3067C128.08 32.5166 128.329 32.8127 128.511 33.195C128.698 33.5774 128.791 34.0227 128.791 34.531C128.791 35.0392 128.698 35.4845 128.511 35.8669C128.329 36.2493 128.08 36.5477 127.763 36.7622C127.45 36.972 127.094 37.0769 126.693 37.0769ZM126.686 36.1047C126.891 36.1047 127.068 36.0464 127.217 35.9299C127.366 35.8086 127.481 35.6314 127.56 35.3983C127.644 35.1605 127.686 34.8714 127.686 34.531C127.686 34.1859 127.644 33.8968 127.56 33.6637C127.481 33.4305 127.366 33.2556 127.217 33.1391C127.068 33.0178 126.889 32.9572 126.679 32.9572C126.478 32.9572 126.301 33.0155 126.147 33.1321C125.998 33.2487 125.884 33.4235 125.804 33.6567C125.725 33.8898 125.685 34.1789 125.685 34.524C125.685 34.869 125.725 35.1581 125.804 35.3913C125.884 35.6244 125.998 35.8016 126.147 35.9229C126.301 36.0441 126.481 36.1047 126.686 36.1047ZM129.183 36.3845L131.078 34.426C131.195 34.3095 131.288 34.2022 131.358 34.1043C131.428 34.0064 131.479 33.9155 131.512 33.8315C131.545 33.7429 131.561 33.6543 131.561 33.5657C131.561 33.3746 131.498 33.2253 131.372 33.1181C131.251 33.0062 131.09 32.9502 130.889 32.9502C130.694 32.9502 130.516 33.0038 130.358 33.1111C130.204 33.2137 130.055 33.3839 129.91 33.6217L129.176 32.9852C129.372 32.6541 129.621 32.4047 129.924 32.2368C130.227 32.0689 130.575 31.985 130.966 31.985C131.307 31.985 131.601 32.0479 131.848 32.1738C132.099 32.2997 132.293 32.4793 132.428 32.7124C132.568 32.9456 132.638 33.2183 132.638 33.5308C132.638 33.7266 132.612 33.9085 132.561 34.0763C132.51 34.2395 132.426 34.4027 132.309 34.5659C132.197 34.7245 132.046 34.8993 131.855 35.0905L130.54 36.3985L129.183 36.3845ZM129.183 37V36.3845L130.113 36.0627H132.736V37H129.183ZM133.11 35.2864L134.733 32.0619H135.929L134.271 35.2864H133.11ZM133.11 35.9019V35.2864L133.474 34.9716H137.069V35.9019H133.11ZM135.439 37V33.9434H136.516V37H135.439Z" fill="#E9557F"/>
</svg>
