<svg width="419" height="123" viewBox="0 0 419 123" fill="none" xmlns="http://www.w3.org/2000/svg">
<path d="M72.2818 76.382C72.2791 76.359 72.2764 76.3319 72.2764 76.3062L72.2791 76.3035C72.2818 76.3292 72.2818 76.3563 72.2818 76.382Z" fill="#F8E6D2"/>
<path d="M72.5754 77.8901C72.4536 77.553 72.3696 77.1984 72.3223 76.8315C72.3724 77.1984 72.4563 77.549 72.5754 77.8901Z" fill="#F8E6D2"/>
<path d="M17.5682 76.1721C17.5682 76.474 17.5249 76.7677 17.4437 77.0439C17.3976 77.209 17.3327 77.3687 17.2609 77.5231C17.2406 77.5691 17.2176 77.6165 17.1905 77.6598C17.0998 77.8249 16.9956 77.9819 16.8792 78.1281C16.8386 78.1769 16.798 78.2243 16.7573 78.2703C16.7222 78.3055 16.687 78.3434 16.6531 78.3772C16.136 78.8943 15.4416 79.2287 14.6673 79.2815L14.6592 79.2733C16.2782 79.1596 17.5519 77.8141 17.5519 76.1626C17.5519 74.9132 16.7492 73.7639 15.6108 73.282C15.5675 73.2644 15.5269 73.2441 15.4836 73.2292C15.9316 73.3809 16.3296 73.6367 16.6545 73.9643C16.6897 73.9995 16.7249 74.0374 16.7587 74.0712C16.7993 74.1173 16.8399 74.1646 16.8805 74.2134C16.9969 74.3582 17.1012 74.5152 17.1919 74.6817C17.2176 74.725 17.242 74.7724 17.2623 74.8184C17.3354 74.9728 17.399 75.1325 17.445 75.2976C17.5262 75.5738 17.5695 75.8675 17.5695 76.1694L17.5682 76.1721Z" fill="#F8E6D2"/>
<path d="M62.7289 3.7948C62.1847 3.58228 61.6392 3.37923 61.0869 3.18701C61.6392 3.37652 62.1861 3.57957 62.7289 3.7948Z" fill="#F8E6D2"/>
<path d="M66.602 5.52754C66.1837 5.31501 65.7587 5.11196 65.335 4.91162C65.76 5.10926 66.1837 5.3123 66.602 5.52754Z" fill="#F8E6D2"/>
<path d="M12.3417 25.0376C12.3566 25.0146 12.3701 24.9916 12.3877 24.9672C12.4134 24.9212 12.4432 24.8738 12.4716 24.8278C12.4283 24.8982 12.3809 24.9672 12.3403 25.0376H12.3417ZM14.6876 21.7036C14.7228 21.6575 14.7607 21.6129 14.7986 21.5668C14.9407 21.3868 15.0869 21.2068 15.2317 21.0267C15.0463 21.2501 14.8649 21.4775 14.6876 21.7036ZM16.048 20.0616C16.0764 20.0331 16.1035 20.0007 16.1292 19.9709C16.182 19.91 16.2335 19.849 16.2862 19.7881C16.2023 19.8788 16.1238 19.9682 16.048 20.0616ZM17.3353 18.6511C17.4017 18.5807 17.472 18.5116 17.5411 18.4412C17.5695 18.4088 17.602 18.3749 17.6345 18.3424C17.533 18.444 17.4341 18.5455 17.3353 18.6511ZM18.9462 17.0673C18.9719 17.0443 19.0017 17.0186 19.0301 16.9915V16.9888C19.0017 17.0145 18.9719 17.0416 18.9462 17.0673Z" fill="#F8E6D2"/>
<path d="M9.03732 31.5464C8.82751 32.0784 8.62717 32.6158 8.43901 33.1599H8.43359C8.5297 32.8838 8.62852 32.6077 8.73275 32.3342C8.75035 32.2787 8.77065 32.2232 8.79367 32.1718C8.87218 31.962 8.95069 31.7535 9.03732 31.5464Z" fill="#F8E6D2"/>
<path d="M9.94194 29.448C9.70099 29.9651 9.47087 30.489 9.25293 31.0182C9.46816 30.489 9.69828 29.9664 9.94194 29.448Z" fill="#F8E6D2"/>
<path d="M10.6941 27.9158C10.6075 28.085 10.5222 28.2528 10.4355 28.422C10.464 28.3584 10.4965 28.2948 10.5289 28.2325C10.5817 28.1283 10.6359 28.02 10.6941 27.9158Z" fill="#F8E6D2"/>
<path d="M11.9411 25.689C11.5025 26.4186 11.0869 27.1604 10.6943 27.9157C10.7228 27.8521 10.7553 27.7912 10.7904 27.7262C11.1329 27.0697 11.4971 26.4213 11.8801 25.7878C11.8977 25.7553 11.918 25.7215 11.9411 25.689Z" fill="#F8E6D2"/>
<path d="M13.9552 22.6718C13.4083 23.419 12.8858 24.1865 12.389 24.9676C12.2374 25.2058 12.0898 25.4468 11.9409 25.6891C11.9639 25.6457 11.991 25.6024 12.0194 25.5551C12.1237 25.3804 12.232 25.2085 12.3416 25.038C12.3822 24.9676 12.4282 24.8985 12.4729 24.8281C12.8939 24.1648 13.3365 23.5137 13.7981 22.8802C13.8482 22.8098 13.8997 22.7408 13.9552 22.6704V22.6718Z" fill="#F8E6D2"/>
<path d="M14.3708 22.1165C14.2571 22.2654 14.1434 22.4183 14.0283 22.5699C14.0946 22.4765 14.1623 22.3872 14.2341 22.2938C14.2774 22.2356 14.3207 22.1747 14.3708 22.1165Z" fill="#F8E6D2"/>
<path d="M15.2318 21.0271C15.087 21.2071 14.9408 21.3872 14.7987 21.5672C14.735 21.6457 14.6714 21.7269 14.6064 21.8082C14.6322 21.773 14.6592 21.7378 14.6877 21.7039C14.865 21.4765 15.045 21.2505 15.2318 21.0271Z" fill="#F8E6D2"/>
<path d="M15.6773 20.4949C15.5284 20.6695 15.3808 20.8468 15.2319 21.0242C15.3565 20.8698 15.4824 20.7196 15.6096 20.5707C15.6177 20.5585 15.6299 20.545 15.6421 20.5328C15.6502 20.5179 15.6597 20.5098 15.6773 20.4949Z" fill="#F8E6D2"/>
<path d="M16.048 20.0618C15.9262 20.2039 15.8044 20.346 15.6758 20.4895C15.734 20.4191 15.7949 20.3474 15.8585 20.277C15.9194 20.2039 15.9804 20.1322 16.048 20.0618Z" fill="#F8E6D2"/>
<path d="M16.7929 19.2361C16.5695 19.477 16.3475 19.722 16.1296 19.9711C16.1038 19.9995 16.0768 20.032 16.0483 20.0618C16.1241 19.9684 16.2027 19.8791 16.2866 19.7884C16.3475 19.7153 16.4111 19.6462 16.4761 19.5759C16.5803 19.4594 16.6859 19.3498 16.7929 19.2361Z" fill="#F8E6D2"/>
<path d="M18.0285 17.9513C17.8661 18.1137 17.7023 18.2775 17.5426 18.4427C17.4316 18.5564 17.3219 18.6701 17.2109 18.7852C17.2515 18.7418 17.2922 18.6945 17.3355 18.6511C17.4343 18.5469 17.5331 18.4454 17.6346 18.3425C17.6847 18.2897 17.7334 18.241 17.7835 18.1909C17.8648 18.1097 17.946 18.0285 18.0272 17.95L18.0285 17.9513Z" fill="#F8E6D2"/>
<path d="M18.3964 17.5874C18.2746 17.7092 18.1487 17.8284 18.0269 17.9502C18.0472 17.9272 18.0675 17.9069 18.0878 17.8866C18.1893 17.785 18.2908 17.6862 18.3964 17.5874Z" fill="#F8E6D2"/>
<path d="M18.7785 17.2271C18.6946 17.3056 18.6093 17.3841 18.5254 17.4653V17.4626C18.6066 17.3814 18.6946 17.3029 18.7785 17.2271Z" fill="#F8E6D2"/>
<path d="M19.2494 16.7915L19.0315 16.9918C18.9448 17.0704 18.8622 17.1489 18.7783 17.2274C18.804 17.199 18.8338 17.1719 18.8622 17.1462C18.8907 17.1177 18.9177 17.0934 18.9462 17.0677C18.9719 17.0419 19.0017 17.0149 19.0301 16.9891C19.1032 16.9228 19.1749 16.8551 19.248 16.7915H19.2494Z" fill="#F8E6D2"/>
<path d="M24.2659 12.897C23.8098 13.1961 23.3617 13.5048 22.9204 13.8215C23.3617 13.5021 23.8098 13.1961 24.2659 12.897Z" fill="#F8E6D2"/>
<path d="M37.3762 7.35229C36.3555 7.58242 35.3498 7.84638 34.3589 8.15231C35.3471 7.84367 36.3555 7.57971 37.3762 7.35229Z" fill="#F8E6D2"/>
<path d="M39.6952 6.9082C39.1754 6.99213 38.657 7.08553 38.1426 7.18976C38.657 7.08283 39.1741 6.98942 39.6952 6.9082Z" fill="#F8E6D2"/>
<path d="M17.5684 76.172C17.5684 75.8702 17.5251 75.5764 17.4438 75.3003C17.5224 75.5764 17.5657 75.8702 17.5657 76.172C17.5657 76.4739 17.5224 76.765 17.4438 77.0438C17.5251 76.7677 17.5684 76.4739 17.5684 76.172Z" fill="#F8E6D2"/>
<path d="M71.0784 91.8313H20.7832V93.813H71.0784V91.8313Z" fill="#F8E6D2"/>
<path d="M40.3007 79.8668L35.165 90.3549L30.0278 90.3495L37.5366 75.0762L40.3007 79.8668Z" fill="#F8E6D2"/>
<path d="M61.8984 90.3494H61.8957L54.4316 75.1641L61.8984 90.3494Z" fill="#F8E6D2"/>
<path d="M91.681 46.2618L91.6729 46.2442C91.6729 41.0759 90.812 36.1053 89.2255 31.4744C89.1795 31.3377 89.1348 31.2105 89.0888 31.0738C89.0658 31.0074 89.036 30.9397 89.013 30.8639C88.9344 30.6487 88.8559 30.4335 88.7774 30.2182C88.7165 30.0585 88.6556 29.8988 88.592 29.7391C88.5189 29.5468 88.4404 29.3519 88.3659 29.161C88.2644 28.9133 88.1629 28.667 88.0573 28.4233C87.9436 28.1553 87.8272 27.8886 87.708 27.6233C87.6119 27.4081 87.5131 27.1955 87.4143 26.9803C87.3913 26.9316 87.3683 26.8815 87.3412 26.8287C87.2194 26.5701 87.0935 26.3089 86.9662 26.0503C86.954 26.03 86.9459 26.007 86.9337 25.984C86.8146 25.7485 86.6955 25.5129 86.5737 25.2774C86.3097 24.7657 86.0336 24.2567 85.7479 23.7572C85.71 23.6868 85.6694 23.6205 85.6315 23.5542C85.5273 23.3714 85.419 23.1914 85.3121 23.0073C85.1672 22.7596 85.0156 22.5159 84.864 22.2696C84.6406 21.9095 84.4105 21.5521 84.1777 21.1975V21.1948C83.9422 20.8401 83.7039 20.4909 83.463 20.143C83.2193 19.7964 82.9716 19.4513 82.7185 19.1115C82.4653 18.7717 82.2095 18.4347 81.9482 18.103C81.9306 18.0827 81.913 18.0624 81.8981 18.0421C81.576 17.6319 81.2443 17.2285 80.91 16.8306C80.8748 16.7927 80.8396 16.7521 80.8084 16.7115C80.0531 15.8248 79.2653 14.9706 78.445 14.1449C78.2825 13.9798 78.116 13.8133 77.9509 13.6508C77.1197 12.84 76.2561 12.0576 75.364 11.3076L74.8239 10.8623C74.4638 10.5686 74.097 10.2816 73.7275 9.99596C73.1725 9.57497 72.6053 9.1621 72.0273 8.76007C71.6442 8.4961 71.257 8.2362 70.8672 7.98036C70.6695 7.85582 70.4719 7.72723 70.2743 7.60269C69.8763 7.35497 69.4783 7.11402 69.0736 6.87577C68.6702 6.64024 68.26 6.41012 67.8499 6.18406H67.8472C67.437 5.9607 67.0214 5.74547 66.6032 5.53024H66.6004C66.1822 5.31771 65.7571 5.11467 65.3334 4.91432C64.4793 4.51635 63.6102 4.14409 62.729 3.79756C62.1848 3.58503 61.6393 3.38198 61.087 3.18977C60.5347 2.99755 59.977 2.8148 59.4152 2.64289C58.3634 2.32342 57.2927 2.0378 56.2084 1.79144C55.8484 1.71022 55.4842 1.63171 55.1187 1.55861C54.7235 1.4801 54.3255 1.40429 53.9235 1.33525C51.3772 0.889901 48.7579 0.661133 46.0831 0.661133C20.9037 0.659779 0.5 21.0716 0.5 46.2442C0.5 56.5198 3.89497 65.9968 9.62771 73.6179C9.63313 73.6233 9.63583 73.63 9.6399 73.6355C9.23921 74.3908 9.0118 75.2571 9.0118 76.1736C9.0118 79.1787 11.4443 81.6126 14.4508 81.6126C17.4573 81.6126 19.8898 79.18 19.8898 76.1736C19.8898 75.3803 19.7206 74.6236 19.4133 73.9441L29.0324 64.325C29.6686 64.5863 30.3671 64.7324 31.0967 64.7324C31.251 64.7324 31.4013 64.727 31.5502 64.7121L37.5388 75.0785L30.03 90.3504L35.1658 90.3558L40.3016 79.8677L43.2607 84.9926C42.8099 85.5571 42.5433 86.2691 42.5433 87.0475C42.5433 88.8763 44.0228 90.3558 45.8516 90.3558C47.6804 90.3558 49.1599 88.8763 49.1599 87.0475C49.1599 86.3761 48.9623 85.7534 48.6198 85.2336L51.6696 79.9489L56.7621 90.3558L61.8978 90.3504L54.4324 75.1651V75.1624L60.4752 64.6918C60.685 64.7203 60.8961 64.7324 61.1141 64.7324C61.8491 64.7324 62.553 64.5876 63.1919 64.3223L72.7501 73.8805C72.4455 74.56 72.2763 75.3113 72.2763 76.1045C72.2763 76.1709 72.2763 76.2385 72.279 76.3049C72.2818 76.3306 72.2818 76.3577 72.2818 76.3834C72.2845 76.4646 72.2939 76.5458 72.2993 76.6243C72.3048 76.6947 72.3142 76.7638 72.3224 76.8341C72.3725 77.201 72.4564 77.5516 72.5755 77.8927C72.6134 78.0037 72.6567 78.1161 72.7027 78.2244C72.7352 78.3002 72.7691 78.376 72.8043 78.4518C72.807 78.4572 72.8124 78.4667 72.8124 78.4748C72.8246 78.4951 72.8354 78.5181 72.8449 78.5384C72.9153 78.6697 72.9843 78.7997 73.0628 78.9283C73.1061 79.0014 73.1562 79.0772 73.2022 79.1462C73.2523 79.2193 73.3038 79.291 73.3566 79.3614C73.4093 79.4345 73.4676 79.5036 73.5258 79.5739C73.5786 79.6376 73.6327 79.7012 73.6882 79.7635C73.6909 79.7662 73.6936 79.7689 73.6936 79.7716C73.7518 79.8325 73.81 79.8934 73.8682 79.9516C73.9292 80.0125 73.9928 80.0735 74.0578 80.1317C74.1214 80.1899 74.1891 80.2481 74.2554 80.3036C74.3217 80.3591 74.3894 80.4105 74.4584 80.4633C74.5275 80.5161 74.6006 80.5675 74.6737 80.6176C74.6764 80.6203 74.6791 80.6203 74.6858 80.6257C74.7522 80.6691 74.8226 80.7164 74.8916 80.757C75.0892 80.8762 75.295 80.9872 75.5075 81.0792C76.1816 81.3784 76.9289 81.5449 77.714 81.5449C80.7191 81.5449 83.153 79.1124 83.153 76.1059C83.153 75.2138 82.9377 74.3705 82.5574 73.6287C88.2833 66.0035 91.6824 56.5306 91.6824 46.2631L91.681 46.2618ZM17.4437 77.0453C17.3977 77.2105 17.3327 77.3716 17.261 77.5245C17.2407 77.5705 17.2177 77.6179 17.1906 77.6612C17.0999 77.8264 16.9957 77.9834 16.8793 78.1296C16.8386 78.1797 16.798 78.2257 16.7574 78.2717C16.7222 78.3069 16.687 78.3448 16.6532 78.3787C16.1361 78.8958 15.4417 79.2301 14.6674 79.2829C14.5943 79.2883 14.5225 79.291 14.4494 79.291C12.7317 79.291 11.3306 77.8954 11.3306 76.1722C11.3306 74.449 12.7235 73.0534 14.4494 73.0534C14.6498 73.0534 14.8474 73.0737 15.0396 73.1089C15.1033 73.1238 15.1642 73.1373 15.2291 73.1522C15.2752 73.1644 15.3198 73.1752 15.3632 73.1901C15.4038 73.2023 15.4444 73.2158 15.4823 73.2307C15.9303 73.3823 16.3283 73.6382 16.6532 73.9657C16.6884 74.0009 16.7236 74.0388 16.7574 74.0727C16.798 74.1187 16.8386 74.1661 16.8793 74.2148C16.9957 74.3597 17.0999 74.5167 17.1906 74.6832C17.2163 74.7265 17.2407 74.7739 17.261 74.8199C17.3341 74.9742 17.3977 75.134 17.4437 75.2991C17.525 75.5752 17.5683 75.869 17.5683 76.1709C17.5683 76.4727 17.525 76.7665 17.4437 77.0426V77.0453ZM31.094 62.4096C29.3789 62.4096 27.9779 61.0167 27.9779 59.2935C27.9779 57.5702 29.3708 56.1746 31.094 56.1746C32.8172 56.1746 34.2128 57.5675 34.2128 59.2935C34.2128 61.0194 32.8199 62.4096 31.094 62.4096ZM45.8489 88.9467C44.8025 88.9467 43.9511 88.0979 43.9511 87.0489C43.9511 85.9998 44.7998 85.1537 45.8489 85.1537C46.898 85.1537 47.744 85.9998 47.744 87.0489C47.744 88.0979 46.898 88.9467 45.8489 88.9467ZM46.0032 80.6569L42.7098 74.9512L45.9653 68.3034L49.2533 75.0243L46.0032 80.6582V80.6569ZM61.1127 62.4109C59.3949 62.4109 57.9939 61.018 57.9939 59.2948C57.9939 57.5716 59.3895 56.176 61.1127 56.176C62.8359 56.176 64.2316 57.5689 64.2316 59.2948C64.2316 61.0207 62.8359 62.4109 61.1127 62.4109ZM77.714 79.2234C77.668 79.2234 77.6206 79.2234 77.5773 79.2206C77.5272 79.2179 77.4757 79.2152 77.4257 79.2085C77.3756 79.2058 77.3241 79.2003 77.274 79.1909C77.2212 79.1855 77.1725 79.176 77.1224 79.1651C77.0723 79.157 77.0236 79.1476 76.9735 79.1327C76.9234 79.1245 76.8774 79.1096 76.8287 79.0948C76.7908 79.0826 76.7502 79.0717 76.7123 79.0596C76.6893 79.0514 76.6662 79.042 76.6392 79.0338C76.581 79.0135 76.5255 78.9905 76.4673 78.9675C76.4172 78.9472 76.3712 78.9242 76.3224 78.9012C75.6104 78.5546 75.0554 77.9482 74.782 77.1861C74.7617 77.1279 74.7413 77.0697 74.7238 77.0088C74.7062 76.9479 74.6886 76.8842 74.6737 76.8193C74.6588 76.7489 74.6452 76.6798 74.6331 76.6067C74.6303 76.5918 74.6276 76.5783 74.6249 76.5634C74.6128 76.4646 74.6019 76.3658 74.5965 76.2643C74.5938 76.2115 74.5938 76.16 74.5938 76.1045C74.5938 76.0409 74.5965 75.98 74.5992 75.915C74.6019 75.8446 74.6114 75.7756 74.6195 75.7093C74.6249 75.6565 74.6344 75.605 74.6425 75.5549C74.6574 75.4764 74.671 75.4006 74.6926 75.3248C74.7183 75.226 74.7481 75.1272 74.7833 75.0311C74.8185 74.9377 74.8591 74.8456 74.9024 74.7522C74.9227 74.7089 74.9457 74.6615 74.9728 74.6182C74.9958 74.5749 75.0229 74.5316 75.0486 74.4869C75.0987 74.403 75.1529 74.3177 75.2178 74.2405C75.2436 74.1999 75.276 74.1593 75.3112 74.1214C75.3397 74.0808 75.3722 74.0456 75.4073 74.0077C75.4398 73.9698 75.4777 73.9319 75.5116 73.9008C75.6889 73.7234 75.8838 73.5664 76.0991 73.4392C76.1424 73.4135 76.1857 73.3864 76.2304 73.3634C76.317 73.3133 76.4104 73.2727 76.5038 73.2321C76.8761 73.075 77.2862 72.9884 77.7153 72.9884C77.7911 72.9884 77.8642 72.9911 77.9387 72.9965H77.9441C78.0172 73.0019 78.0889 73.0087 78.162 73.0195C78.1972 73.025 78.2284 73.0277 78.2636 73.0371C78.3042 73.0426 78.3448 73.052 78.3827 73.0602C78.4531 73.075 78.5221 73.0926 78.5884 73.1129C78.6345 73.1251 78.6791 73.1387 78.7252 73.1563C78.7712 73.1712 78.8159 73.1888 78.8592 73.2063C78.9025 73.2239 78.9458 73.2415 78.9905 73.2618C79.0338 73.2794 79.0744 73.2997 79.1177 73.3228C79.1637 73.3431 79.2084 73.3661 79.2517 73.3959C79.2869 73.4135 79.3248 73.4365 79.3587 73.4595C79.402 73.4852 79.4426 73.5123 79.4832 73.5407C79.5617 73.5908 79.6375 73.6476 79.7066 73.7099C79.7797 73.7681 79.846 73.829 79.9123 73.8994C79.9475 73.9278 79.9827 73.963 80.0111 74.0009C80.0166 74.0036 80.0193 74.0064 80.0193 74.0091C80.0802 74.0754 80.1384 74.1458 80.1912 74.2189C80.2196 74.2568 80.2494 74.2947 80.2724 74.3326C80.3008 74.3705 80.3279 74.4084 80.3509 74.449C80.4037 74.5275 80.4497 74.6114 80.4903 74.6967C80.5133 74.7373 80.5336 74.7806 80.5512 74.824C80.5743 74.8673 80.5919 74.9106 80.6095 74.9553C80.6298 74.9986 80.6446 75.046 80.6595 75.0893C80.6771 75.1353 80.692 75.18 80.7029 75.226C80.7435 75.3627 80.776 75.5022 80.7963 75.6443C80.8044 75.6903 80.8111 75.7404 80.8139 75.7864C80.826 75.8906 80.8315 75.9989 80.8315 76.1059C80.8315 77.8331 79.4385 79.2247 77.7126 79.2247L77.714 79.2234ZM77.6003 70.6655L77.5976 70.6682C77.1874 70.6737 76.7921 70.7292 76.4118 70.8226L66.3514 60.7595C66.4827 60.2938 66.5517 59.8038 66.5517 59.2948C66.5517 56.2897 64.1192 53.8558 61.1127 53.8558C58.1063 53.8558 55.6737 56.2883 55.6737 59.2948C55.6737 60.4116 56.0081 61.4512 56.5861 62.3121L52.0107 70.2445L48.502 63.1108L45.9639 57.9452L43.4177 63.1108L39.9469 70.1687L35.5056 62.4718C36.154 61.5798 36.5317 60.4806 36.5317 59.2948C36.5317 56.2897 34.0991 53.8558 31.0927 53.8558C28.0862 53.8558 25.6564 56.2883 25.6564 59.2948C25.6564 59.8065 25.7268 60.3033 25.8594 60.7744L15.7408 70.893C15.3835 70.8023 15.0112 70.7508 14.6308 70.7386L14.6281 70.7359C9.36375 63.9771 6.23003 55.4802 6.23003 46.255C6.23003 41.6675 7.00297 37.2613 8.43108 33.1625C8.52719 32.8863 8.62601 32.6102 8.73024 32.3367C8.74784 32.2812 8.76814 32.2257 8.79115 32.1743C8.86966 31.9645 8.94818 31.756 9.03481 31.5489C9.10791 31.3716 9.17694 31.1942 9.25004 31.0196C9.46527 30.4903 9.6954 29.9678 9.93905 29.4494C10.0961 29.1028 10.2612 28.7604 10.4331 28.4233C10.4616 28.3597 10.4941 28.2961 10.5265 28.2338C10.5793 28.1296 10.6335 28.0213 10.6917 27.917C10.7201 27.8534 10.7526 27.7925 10.7878 27.7275C11.1303 27.071 11.4944 26.4226 11.8775 25.7891C11.8951 25.7566 11.9154 25.7227 11.9384 25.6903C11.9614 25.6469 11.9885 25.6036 12.0169 25.5562C12.1212 25.3816 12.2294 25.2097 12.3391 25.0392C12.3797 24.9688 12.4257 24.8997 12.4704 24.8293C12.8914 24.166 13.334 23.5149 13.7956 22.8814C13.8457 22.811 13.8971 22.742 13.9526 22.6716C13.9648 22.654 13.9757 22.6391 13.9878 22.6229C14.0027 22.6053 14.0136 22.5877 14.0257 22.5701C14.0921 22.4767 14.1598 22.3873 14.2315 22.2939C14.2748 22.2357 14.3181 22.1748 14.3682 22.1166C14.3709 22.1112 14.3763 22.1085 14.3763 22.1017C14.4291 22.0381 14.4779 21.9745 14.5252 21.9095C14.551 21.8743 14.578 21.8432 14.6038 21.808C14.6295 21.7728 14.6566 21.7376 14.685 21.7037C14.8623 21.4777 15.0423 21.2503 15.2291 21.0269V21.0242C15.3537 20.8699 15.4796 20.7196 15.6068 20.5707C15.6149 20.5585 15.6271 20.545 15.6393 20.5328C15.6474 20.5179 15.6569 20.5098 15.6745 20.4949V20.4895C15.7327 20.4191 15.7936 20.3474 15.8572 20.277C15.9182 20.2039 15.9791 20.1321 16.0468 20.0618C16.1226 19.9684 16.2011 19.879 16.285 19.7883C16.3459 19.7152 16.4095 19.6462 16.4745 19.5758C16.5787 19.4594 16.6843 19.3484 16.7913 19.236C16.8143 19.2103 16.8373 19.1832 16.8617 19.1575C16.8698 19.1494 16.8765 19.1426 16.882 19.1345C16.9889 19.0181 17.0999 18.9017 17.2109 18.7853C17.2515 18.7419 17.2921 18.6946 17.3354 18.6512C17.4343 18.547 17.5331 18.4455 17.6346 18.3426C17.6847 18.2898 17.7334 18.2411 17.7835 18.191C17.8647 18.1098 17.9459 18.0286 18.0272 17.95C18.0475 17.927 18.0678 17.9067 18.0881 17.8864C18.1896 17.7849 18.2911 17.6861 18.3967 17.5873C18.4319 17.5588 18.463 17.5264 18.4982 17.4884C18.5064 17.483 18.5158 17.4736 18.5239 17.4654V17.4627C18.6052 17.3815 18.6932 17.303 18.7771 17.2272C18.8028 17.1988 18.8326 17.1717 18.861 17.146C18.8894 17.1175 18.9165 17.0932 18.9449 17.0675C18.9707 17.0417 19.0004 17.0147 19.0289 16.9889C19.102 16.9226 19.1737 16.8549 19.2468 16.7913C19.2671 16.7737 19.2874 16.7534 19.3077 16.7358C19.3334 16.7128 19.3605 16.6898 19.3862 16.6654C19.4932 16.5612 19.6069 16.4624 19.7179 16.369C19.7233 16.3636 19.726 16.3568 19.7328 16.3541C19.814 16.281 19.8952 16.212 19.9764 16.1389C20.1795 15.9615 20.3839 15.7869 20.5896 15.615C20.767 15.4661 20.947 15.3212 21.127 15.1764C21.5101 14.8678 21.9027 14.5659 22.2979 14.2695C22.501 14.1178 22.7081 13.9676 22.9139 13.8187H22.9166C23.3579 13.4992 23.8059 13.1933 24.2621 12.8941C24.5125 12.7317 24.7684 12.5679 25.0242 12.4082C25.5359 12.0914 26.053 11.7828 26.5796 11.4863H26.5823C26.9342 11.2887 27.2862 11.0965 27.6435 10.911C28.0009 10.7256 28.3583 10.5442 28.7224 10.3669C28.9634 10.2477 29.2084 10.134 29.452 10.0203C29.6172 9.94452 29.781 9.87142 29.9461 9.79967C30.2751 9.65077 30.6053 9.51134 30.937 9.37463C31.1062 9.30424 31.2713 9.23791 31.4406 9.17158C31.7979 9.02944 32.158 8.89272 32.5221 8.76142C32.8849 8.63011 33.249 8.50558 33.6186 8.38375C33.8622 8.29982 34.11 8.22131 34.3563 8.14821C35.3445 7.83958 36.353 7.57562 37.3736 7.3482C37.6295 7.28999 37.8853 7.23449 38.1412 7.18576C38.6555 7.07882 39.1726 6.98542 39.6938 6.9042C39.9524 6.86088 40.2136 6.82027 40.4762 6.78508C40.9852 6.71198 41.4942 6.65107 42.0086 6.59963C42.0465 6.59692 42.0844 6.59151 42.125 6.58745C42.5866 6.54142 43.0549 6.50352 43.5233 6.47374C43.614 6.46832 43.7033 6.46156 43.794 6.45885C43.9835 6.44667 44.1717 6.43584 44.3612 6.43042C44.4221 6.42771 44.483 6.42501 44.544 6.4223C44.7876 6.41418 45.0326 6.4047 45.279 6.40199C45.547 6.39658 45.8137 6.39387 46.0844 6.39387H46.102C46.3727 6.39387 46.6394 6.39658 46.9074 6.40199C47.1484 6.4047 47.3866 6.41418 47.6249 6.4223C47.8306 6.43042 48.0377 6.4399 48.2435 6.45073C48.3775 6.45614 48.5115 6.46562 48.6442 6.47374C48.6523 6.47374 48.6591 6.47374 48.6672 6.47645C48.8878 6.48863 49.1058 6.50217 49.3264 6.52247C49.5187 6.53736 49.7095 6.55496 49.899 6.57256C50.0506 6.58745 50.2036 6.60098 50.3525 6.61858C50.542 6.63618 50.7302 6.65919 50.917 6.6822C51.1349 6.70792 51.3501 6.73499 51.5654 6.76613C52.1529 6.84464 52.7363 6.93804 53.3184 7.04498C53.493 7.07747 53.6676 7.1086 53.8422 7.14651C53.9356 7.1614 54.0277 7.1817 54.1184 7.20201C54.2808 7.23449 54.4446 7.26563 54.6043 7.30353C54.7641 7.33602 54.9184 7.36986 55.0754 7.40776C55.4016 7.48357 55.7238 7.56208 56.046 7.64601C56.1949 7.6812 56.3397 7.7191 56.4846 7.76242C56.8568 7.85853 57.2264 7.96547 57.5919 8.07647C57.8653 8.15769 58.136 8.24162 58.4054 8.33231C58.5624 8.37833 58.7167 8.43113 58.8711 8.48663C59.1932 8.59357 59.5141 8.70457 59.8308 8.82369C59.9702 8.87242 60.1097 8.92521 60.2491 8.98071C60.5916 9.10796 60.9327 9.24197 61.2697 9.3841C61.3807 9.42742 61.4904 9.4748 61.6014 9.52353C61.753 9.58444 61.9006 9.64807 62.0495 9.71575C62.174 9.76854 62.2999 9.82269 62.4217 9.87819C62.7439 10.023 63.0674 10.1746 63.3869 10.329C63.5263 10.3953 63.6657 10.463 63.8024 10.532C64.0935 10.6741 64.3777 10.823 64.6634 10.9733C64.8001 11.0437 64.9341 11.1154 65.0668 11.1885C65.9209 11.6501 66.7588 12.1442 67.5724 12.6681C67.7578 12.7872 67.9419 12.9063 68.1247 13.0281C69.6746 14.0569 71.1474 15.194 72.5349 16.4231C72.6743 16.5477 72.8137 16.6708 72.9505 16.7981C73.3227 17.1379 73.6882 17.4844 74.0496 17.839C74.2297 18.0164 74.407 18.1937 74.5843 18.3737C74.5924 18.3859 74.6019 18.394 74.6127 18.4022C74.7779 18.5741 74.9444 18.7487 75.1068 18.9193C75.2788 19.1047 75.4493 19.2888 75.6212 19.477C75.7904 19.6624 75.9583 19.8519 76.1234 20.0414C76.2926 20.231 76.4551 20.4218 76.6148 20.6168C76.7772 20.8117 76.941 21.0066 77.0967 21.2015C77.2131 21.3464 77.3295 21.4926 77.446 21.6374C77.4893 21.6929 77.5326 21.7484 77.5732 21.8026C77.8778 22.1951 78.1742 22.5904 78.4653 22.9911C78.5086 23.0493 78.5492 23.1102 78.5925 23.1711C78.6994 23.3227 78.8077 23.4757 78.912 23.63C79.0568 23.8358 79.2003 24.0483 79.3397 24.2581C79.4791 24.4706 79.6186 24.6831 79.7526 24.897C80.026 25.3248 80.29 25.7579 80.5431 26.1965C80.7935 26.6216 81.0345 27.0534 81.2673 27.4906C81.2998 27.5488 81.331 27.6097 81.3634 27.6707C81.4568 27.848 81.5489 28.0253 81.6396 28.2054C81.8724 28.6588 82.0958 29.1177 82.3083 29.5834C82.4152 29.8162 82.5208 30.049 82.6223 30.2846C82.7266 30.5174 82.8254 30.7556 82.9242 30.9939C83.0149 31.2064 83.0988 31.4149 83.1828 31.6301C83.3019 31.932 83.4183 32.2352 83.5293 32.5398C83.5956 32.7252 83.6633 32.912 83.7296 33.1002C83.735 33.1178 83.7418 33.1327 83.7472 33.1503C85.1713 37.2491 85.9483 41.6553 85.9483 46.2428C85.9483 55.4396 82.8349 63.9135 77.6003 70.6547V70.6655Z" fill="#F8E6D2"/>
<path d="M29.6035 95.75L32.874 101.052L32.8767 101.058L45.995 122.33L49.1436 117.226L62.3877 95.75H29.6035ZM47.7127 109.307L45.995 112.094L39.1874 101.051H52.8066L47.7141 109.307H47.7127Z" fill="#F8E6D2"/>
<path d="M49.1422 117.226L45.9949 122.339L32.8726 101.058H32.8766L45.9949 122.329L49.1422 117.226Z" fill="#F8E6D2"/>
<path d="M52.8053 101.051L47.7129 109.307L52.7945 101.051H52.8053Z" fill="#F8E6D2"/>
<path d="M119.005 73.6611V26.8882H126.425L144.843 55.5747H141.067L159.418 26.8882H166.904V73.6611H156.503V44.4446L158.358 44.9083L146.367 63.591H139.477L127.551 44.9083L129.34 44.4446V73.6611H119.005ZM172.363 73.6611L190.913 26.8882H200.321L218.672 73.6611H207.675L193.63 34.8382H197.406L183.162 73.6611H172.363ZM182.897 65.181V56.701H208.404V65.181H182.897ZM223.622 73.6611V26.8882H234.023V73.6611H223.622ZM231.638 73.6611V64.5185H254.759V73.6611H231.638ZM268.708 56.6347V48.5521H278.778C280.059 48.5521 281.23 48.2871 282.29 47.7571C283.35 47.2271 284.189 46.4542 284.807 45.4383C285.426 44.4225 285.735 43.1858 285.735 41.7283C285.735 40.315 285.426 39.1004 284.807 38.0845C284.189 37.0687 283.35 36.2958 282.29 35.7657C281.23 35.2357 280.059 34.9707 278.778 34.9707H268.708V26.8882H280.302C283.261 26.8882 285.933 27.4844 288.318 28.6769C290.703 29.8694 292.581 31.592 293.95 33.8445C295.363 36.0528 296.07 38.6808 296.07 41.7283C296.07 44.7758 295.363 47.4259 293.95 49.6784C292.581 51.8867 290.703 53.6093 288.318 54.8459C285.933 56.0385 283.261 56.6347 280.302 56.6347H268.708ZM260.758 73.6611V26.8882H271.16V73.6611H260.758ZM309.856 54.3822V46.6971H319.728C321.803 46.6971 323.393 46.1671 324.498 45.1071C325.646 44.0471 326.22 42.6117 326.22 40.8008C326.22 39.1224 325.668 37.7312 324.564 36.627C323.46 35.5228 321.87 34.9707 319.794 34.9707H309.856V26.8882H320.986C324.078 26.8882 326.794 27.4844 329.135 28.6769C331.476 29.8253 333.309 31.4374 334.634 33.5132C335.959 35.5891 336.621 37.9741 336.621 40.6683C336.621 43.4067 335.959 45.8138 334.634 47.8896C333.309 49.9213 331.454 51.5113 329.069 52.6597C326.684 53.808 323.879 54.3822 320.655 54.3822H309.856ZM301.906 73.6611V26.8882H312.307V73.6611H301.906ZM327.346 73.6611L312.771 53.5209L322.311 50.9372L339.669 73.6611H327.346ZM344.219 73.6611V26.8882H354.62V73.6611H344.219ZM352.169 73.6611V64.651H377.808V73.6611H352.169ZM352.169 54.1172V45.4383H375.489V54.1172H352.169ZM352.169 35.832V26.8882H377.476V35.832H352.169ZM397.859 74.3899C394.016 74.3899 390.704 73.7716 387.921 72.5349C385.183 71.254 382.665 69.3328 380.369 66.7711L387.126 60.0797C388.628 61.8023 390.284 63.1494 392.095 64.121C393.95 65.0485 396.092 65.5123 398.521 65.5123C400.73 65.5123 402.43 65.1148 403.623 64.3198C404.859 63.5248 405.478 62.4206 405.478 61.0073C405.478 59.7264 405.08 58.6885 404.285 57.8935C403.49 57.0985 402.43 56.4139 401.105 55.8397C399.824 55.2655 398.389 54.7134 396.799 54.1834C395.253 53.6534 393.707 53.0572 392.161 52.3947C390.615 51.688 389.18 50.8267 387.855 49.8109C386.574 48.7509 385.536 47.4479 384.741 45.9021C383.946 44.3121 383.549 42.3246 383.549 39.9395C383.549 37.0687 384.233 34.5953 385.602 32.5195C387.016 30.4436 388.959 28.8757 391.432 27.8157C393.906 26.7115 396.755 26.1594 399.979 26.1594C403.247 26.1594 406.228 26.7336 408.923 27.8819C411.661 29.0303 413.914 30.5982 415.68 32.5857L408.923 39.277C407.509 37.8195 406.074 36.7374 404.616 36.0308C403.203 35.3241 401.591 34.9707 399.78 34.9707C397.969 34.9707 396.534 35.3241 395.474 36.0308C394.414 36.6933 393.884 37.6649 393.884 38.9458C393.884 40.1383 394.281 41.11 395.076 41.8608C395.871 42.5675 396.909 43.1858 398.19 43.7158C399.515 44.2458 400.95 44.7758 402.496 45.3058C404.086 45.8358 405.654 46.4542 407.2 47.1609C408.746 47.8675 410.159 48.773 411.44 49.8771C412.765 50.9372 413.825 52.3063 414.62 53.9847C415.415 55.6189 415.813 57.6506 415.813 60.0797C415.813 64.5406 414.223 68.0519 411.043 70.6136C407.863 73.1311 403.468 74.3899 397.859 74.3899Z" fill="#F8E6D2"/>
<path d="M119.941 96.9932V82.0358H122.313L128.203 91.2094H126.996L132.864 82.0358H135.258V96.9932H131.932V87.6501L132.525 87.7984L128.69 93.7729H126.487L122.674 87.7984L123.246 87.6501V96.9932H119.941ZM137.004 96.9932L142.936 82.0358H145.944L151.813 96.9932H148.296L143.805 84.5781H145.012L140.457 96.9932H137.004ZM140.372 94.2814V91.5695H148.529V94.2814H140.372ZM153.396 96.9932V82.0358H156.722V96.9932H153.396ZM155.959 96.9932V94.0695H163.353V96.9932H155.959ZM163.735 96.9932L169.667 82.0358H172.675L178.544 96.9932H175.027L170.535 84.5781H171.743L167.188 96.9932H163.735ZM167.103 94.2814V91.5695H175.26V94.2814H167.103ZM180.126 96.9932V82.0358H182.499L188.389 91.2094H187.181L193.05 82.0358H195.444V96.9932H192.118V87.6501L192.711 87.7984L188.876 93.7729H186.673L182.859 87.7984L183.431 87.6501V96.9932H180.126ZM200.624 96.9932L206.556 82.0358H209.565L215.433 96.9932H211.916L207.425 84.5781H208.632L204.077 96.9932H200.624ZM203.993 94.2814V91.5695H212.149V94.2814H203.993ZM219.558 91.5484V88.9637H222.778C223.188 88.9637 223.562 88.8789 223.901 88.7094C224.24 88.5399 224.509 88.2928 224.706 87.9679C224.904 87.6431 225.003 87.2476 225.003 86.7815C225.003 86.3295 224.904 85.9411 224.706 85.6163C224.509 85.2914 224.24 85.0442 223.901 84.8747C223.562 84.7053 223.188 84.6205 222.778 84.6205H219.558V82.0358H223.266C224.212 82.0358 225.066 82.2265 225.829 82.6078C226.592 82.9892 227.192 83.54 227.63 84.2604C228.082 84.9666 228.308 85.8069 228.308 86.7815C228.308 87.756 228.082 88.6035 227.63 89.3238C227.192 90.03 226.592 90.5809 225.829 90.9763C225.066 91.3577 224.212 91.5484 223.266 91.5484H219.558ZM217.016 96.9932V82.0358H220.342V96.9932H217.016ZM232.717 90.828V88.3704H235.873C236.537 88.3704 237.046 88.201 237.399 87.862C237.766 87.523 237.95 87.064 237.95 86.4849C237.95 85.9482 237.773 85.5033 237.42 85.1502C237.067 84.7971 236.558 84.6205 235.895 84.6205H232.717V82.0358H236.276C237.265 82.0358 238.133 82.2265 238.882 82.6078C239.63 82.9751 240.216 83.4906 240.64 84.1544C241.064 84.8183 241.276 85.5809 241.276 86.4425C241.276 87.3182 241.064 88.088 240.64 88.7518C240.216 89.4015 239.623 89.91 238.861 90.2772C238.098 90.6444 237.201 90.828 236.17 90.828H232.717ZM230.174 96.9932V82.0358H233.5V96.9932H230.174ZM238.31 96.9932L233.649 90.5526L236.7 89.7264L242.25 96.9932H238.31ZM243.705 96.9932V82.0358H247.031V96.9932H243.705ZM246.248 96.9932V94.1119H254.447V96.9932H246.248ZM246.248 90.7433V87.9679H253.705V90.7433H246.248ZM246.248 84.8959V82.0358H254.341V84.8959H246.248ZM260.859 97.2262C259.63 97.2262 258.571 97.0285 257.681 96.633C256.805 96.2234 256 95.609 255.266 94.7898L257.426 92.65C257.907 93.2009 258.436 93.6316 259.015 93.9424C259.609 94.239 260.294 94.3873 261.07 94.3873C261.777 94.3873 262.32 94.2602 262.702 94.0059C263.097 93.7517 263.295 93.3986 263.295 92.9466C263.295 92.537 263.168 92.2051 262.914 91.9509C262.659 91.6967 262.32 91.4777 261.897 91.2941C261.487 91.1105 261.028 90.934 260.52 90.7645C260.025 90.595 259.531 90.4043 259.037 90.1924C258.542 89.9665 258.083 89.691 257.66 89.3662C257.25 89.0272 256.918 88.6106 256.664 88.1162C256.41 87.6077 256.282 86.9722 256.282 86.2095C256.282 85.2914 256.501 84.5005 256.939 83.8366C257.391 83.1728 258.013 82.6714 258.804 82.3324C259.595 81.9793 260.506 81.8028 261.537 81.8028C262.582 81.8028 263.535 81.9864 264.397 82.3536C265.272 82.7208 265.993 83.2222 266.558 83.8578L264.397 85.9976C263.945 85.5315 263.486 85.1855 263.02 84.9595C262.568 84.7335 262.052 84.6205 261.473 84.6205C260.894 84.6205 260.435 84.7335 260.096 84.9595C259.757 85.1714 259.587 85.4821 259.587 85.8917C259.587 86.273 259.715 86.5838 259.969 86.8239C260.223 87.0498 260.555 87.2476 260.965 87.4171C261.388 87.5866 261.847 87.756 262.342 87.9255C262.85 88.095 263.352 88.2928 263.846 88.5187C264.34 88.7447 264.792 89.0343 265.202 89.3874C265.625 89.7264 265.964 90.1642 266.219 90.7009C266.473 91.2235 266.6 91.8732 266.6 92.65C266.6 94.0766 266.092 95.1994 265.075 96.0186C264.058 96.8237 262.652 97.2262 260.859 97.2262ZM268.719 96.9932V82.0358H272.045V96.9932H268.719ZM273.803 96.9932L279.735 82.0358H282.743L288.612 96.9932H285.095L280.604 84.5781H281.811L277.256 96.9932H273.803ZM277.171 94.2814V91.5695H285.328V94.2814H277.171ZM294.396 97.2262C293.168 97.2262 292.108 97.0285 291.218 96.633C290.343 96.2234 289.538 95.609 288.803 94.7898L290.964 92.65C291.444 93.2009 291.974 93.6316 292.553 93.9424C293.146 94.239 293.831 94.3873 294.608 94.3873C295.314 94.3873 295.858 94.2602 296.239 94.0059C296.635 93.7517 296.833 93.3986 296.833 92.9466C296.833 92.537 296.706 92.2051 296.451 91.9509C296.197 91.6967 295.858 91.4777 295.434 91.2941C295.025 91.1105 294.566 90.934 294.057 90.7645C293.563 90.595 293.069 90.4043 292.574 90.1924C292.08 89.9665 291.621 89.691 291.197 89.3662C290.788 89.0272 290.456 88.6106 290.201 88.1162C289.947 87.6077 289.82 86.9722 289.82 86.2095C289.82 85.2914 290.039 84.5005 290.477 83.8366C290.929 83.1728 291.55 82.6714 292.341 82.3324C293.132 81.9793 294.043 81.8028 295.074 81.8028C296.119 81.8028 297.073 81.9864 297.934 82.3536C298.81 82.7208 299.53 83.2222 300.095 83.8578L297.934 85.9976C297.482 85.5315 297.023 85.1855 296.557 84.9595C296.105 84.7335 295.59 84.6205 295.011 84.6205C294.432 84.6205 293.973 84.7335 293.634 84.9595C293.295 85.1714 293.125 85.4821 293.125 85.8917C293.125 86.273 293.252 86.5838 293.506 86.8239C293.761 87.0498 294.093 87.2476 294.502 87.4171C294.926 87.5866 295.385 87.756 295.879 87.9255C296.388 88.095 296.889 88.2928 297.384 88.5187C297.878 88.7447 298.33 89.0343 298.739 89.3874C299.163 89.7264 299.502 90.1642 299.756 90.7009C300.011 91.2235 300.138 91.8732 300.138 92.65C300.138 94.0766 299.629 95.1994 298.612 96.0186C297.595 96.8237 296.19 97.2262 294.396 97.2262ZM302.256 96.9932V82.0358H305.583V96.9932H302.256ZM312.498 96.9932V82.0358H314.871L320.76 91.2094H319.553L325.421 82.0358H327.815V96.9932H324.489V87.6501L325.082 87.7984L321.248 93.7729H319.044L315.231 87.7984L315.803 87.6501V96.9932H312.498ZM330.684 96.9932V82.0358H334.01V96.9932H330.684ZM339.433 91.5484V88.9637H342.653C343.063 88.9637 343.437 88.8789 343.776 88.7094C344.115 88.5399 344.384 88.2928 344.581 87.9679C344.779 87.6431 344.878 87.2476 344.878 86.7815C344.878 86.3295 344.779 85.9411 344.581 85.6163C344.384 85.2914 344.115 85.0442 343.776 84.8747C343.437 84.7053 343.063 84.6205 342.653 84.6205H339.433V82.0358H343.141C344.087 82.0358 344.941 82.2265 345.704 82.6078C346.467 82.9892 347.067 83.54 347.505 84.2604C347.957 84.9666 348.183 85.8069 348.183 86.7815C348.183 87.756 347.957 88.6035 347.505 89.3238C347.067 90.03 346.467 90.5809 345.704 90.9763C344.941 91.3577 344.087 91.5484 343.141 91.5484H339.433ZM336.891 96.9932V82.0358H340.217V96.9932H336.891ZM347.892 96.9932L353.824 82.0358H356.832L362.701 96.9932H359.184L354.693 84.5781H355.9L351.345 96.9932H347.892ZM351.26 94.2814V91.5695H359.417V94.2814H351.26ZM366.951 95.1288L372.693 89.1967C373.046 88.8436 373.328 88.5187 373.54 88.2221C373.752 87.9255 373.907 87.6501 374.006 87.3959C374.105 87.1275 374.155 86.8592 374.155 86.5908C374.155 86.0117 373.964 85.5598 373.583 85.2349C373.215 84.8959 372.728 84.7264 372.121 84.7264C371.528 84.7264 370.991 84.8889 370.511 85.2137C370.045 85.5245 369.593 86.04 369.155 86.7603L366.93 84.8324C367.523 83.8296 368.279 83.0739 369.197 82.5655C370.115 82.057 371.167 81.8028 372.354 81.8028C373.385 81.8028 374.275 81.9934 375.023 82.3748C375.786 82.7561 376.372 83.2999 376.782 84.0061C377.205 84.7123 377.417 85.5386 377.417 86.4849C377.417 87.0781 377.34 87.6289 377.184 88.1374C377.029 88.6317 376.775 89.1261 376.422 89.6204C376.083 90.1006 375.624 90.6303 375.044 91.2094L371.061 95.1712L366.951 95.1288ZM366.951 96.9932V95.1288L369.769 94.1542H377.714V96.9932H366.951ZM385.478 97.2262C384.277 97.2262 383.19 96.9014 382.215 96.2517C381.24 95.6019 380.471 94.698 379.906 93.5398C379.355 92.3675 379.079 91.0187 379.079 89.4933C379.079 87.9538 379.355 86.612 379.906 85.468C380.457 84.3098 381.212 83.4129 382.173 82.7773C383.133 82.1276 384.221 81.8028 385.435 81.8028C386.664 81.8028 387.759 82.1276 388.719 82.7773C389.679 83.4129 390.435 84.3098 390.986 85.468C391.551 86.6261 391.833 87.975 391.833 89.5145C391.833 91.054 391.551 92.4029 390.986 93.561C390.435 94.7192 389.679 95.6231 388.719 96.2728C387.773 96.9084 386.692 97.2262 385.478 97.2262ZM385.456 94.2814C386.078 94.2814 386.615 94.1048 387.067 93.7517C387.519 93.3845 387.865 92.8478 388.105 92.1416C388.359 91.4212 388.486 90.5455 388.486 89.5145C388.486 88.4693 388.359 87.5936 388.105 86.8874C387.865 86.1812 387.519 85.6516 387.067 85.2985C386.615 84.9312 386.071 84.7476 385.435 84.7476C384.828 84.7476 384.291 84.9242 383.825 85.2773C383.373 85.6304 383.027 86.16 382.787 86.8662C382.547 87.5724 382.427 88.4481 382.427 89.4933C382.427 90.5385 382.547 91.4142 382.787 92.1204C383.027 92.8266 383.373 93.3633 383.825 93.7305C384.291 94.0977 384.835 94.2814 385.456 94.2814ZM393.02 95.1288L398.762 89.1967C399.115 88.8436 399.397 88.5187 399.609 88.2221C399.821 87.9255 399.976 87.6501 400.075 87.3959C400.174 87.1275 400.223 86.8592 400.223 86.5908C400.223 86.0117 400.033 85.5598 399.651 85.2349C399.284 84.8959 398.797 84.7264 398.19 84.7264C397.596 84.7264 397.06 84.8889 396.579 85.2137C396.113 85.5245 395.661 86.04 395.224 86.7603L392.999 84.8324C393.592 83.8296 394.348 83.0739 395.266 82.5655C396.184 82.057 397.236 81.8028 398.423 81.8028C399.454 81.8028 400.343 81.9934 401.092 82.3748C401.855 82.7561 402.441 83.2999 402.85 84.0061C403.274 84.7123 403.486 85.5386 403.486 86.4849C403.486 87.0781 403.408 87.6289 403.253 88.1374C403.098 88.6317 402.843 89.1261 402.49 89.6204C402.151 90.1006 401.692 90.6303 401.113 91.2094L397.13 95.1712L393.02 95.1288ZM393.02 96.9932V95.1288L395.838 94.1542H403.783V96.9932H393.02ZM404.915 91.8026L409.83 82.0358H413.453L408.432 91.8026H404.915ZM404.915 93.667V91.8026L406.017 90.8492H416.906V93.667H404.915ZM411.97 96.9932V87.7349H415.233V96.9932H411.97Z" fill="#F8E6D2"/>
</svg>
