<svg width="340" height="177" viewBox="0 0 340 177" fill="none" xmlns="http://www.w3.org/2000/svg">
<g clip-path="url(#clip0_561_2949)">
<rect width="340" height="177" fill="#E9557F"/>
<circle cx="170" cy="144" r="68" fill="url(#paint0_linear_561_2949)"/>
<path d="M156.29 77.8451C156.283 78.0005 156.309 78.1557 156.364 78.3009C156.42 78.4462 156.505 78.5786 156.613 78.69C156.722 78.8013 156.852 78.8892 156.996 78.9484C157.14 79.0075 157.294 79.0366 157.45 79.0338H161.42C162.084 79.0338 162.614 78.49 162.7 77.8307C163.133 74.6737 165.299 72.3733 169.159 72.3733C172.46 72.3733 175.482 74.024 175.482 77.9943C175.482 81.0502 173.682 82.4555 170.838 84.5923C167.599 86.9456 165.034 89.6935 165.217 94.1547L165.232 95.199C165.237 95.5147 165.366 95.8158 165.591 96.0373C165.816 96.2588 166.119 96.3829 166.435 96.3829H170.338C170.657 96.3829 170.963 96.2561 171.189 96.0305C171.414 95.8049 171.541 95.4988 171.541 95.1797V94.6744C171.541 91.2191 172.855 90.2132 176.402 87.5231C179.332 85.2949 182.388 82.8213 182.388 77.6286C182.388 70.3569 176.248 66.8438 169.524 66.8438C163.427 66.8438 156.747 69.6831 156.29 77.8451ZM163.783 105.58C163.783 108.145 165.828 110.041 168.644 110.041C171.575 110.041 173.591 108.145 173.591 105.58C173.591 102.923 171.57 101.056 168.639 101.056C165.828 101.056 163.783 102.923 163.783 105.58Z" fill="white"/>
</g>
<defs>
<linearGradient id="paint0_linear_561_2949" x1="168.812" y1="212" x2="180.115" y2="76.7461" gradientUnits="userSpaceOnUse">
<stop stop-color="#FF3987"/>
<stop offset="1" stop-color="#FAA4AE" stop-opacity="0.933333"/>
</linearGradient>
<clipPath id="clip0_561_2949">
<rect width="340" height="177" fill="white"/>
</clipPath>
</defs>
</svg>
