<svg width="340" height="177" viewBox="0 0 340 177" fill="none" xmlns="http://www.w3.org/2000/svg">
<g clip-path="url(#clip0_571_3203)">
<rect width="340" height="177" fill="#E9557F"/>
<circle cx="170" cy="144" r="68" fill="url(#paint0_linear_571_3203)"/>
<path d="M169.5 128.083C191.327 128.083 209.084 110.326 209.084 88.5C209.084 66.6737 191.327 48.9166 169.5 48.9166C147.674 48.9166 129.917 66.6737 129.917 88.5C129.917 110.326 147.674 128.083 169.5 128.083ZM183.327 76.625C184.116 76.6048 184.901 76.7429 185.636 77.031C186.371 77.3192 187.041 77.7516 187.606 78.3028C188.172 78.8539 188.621 79.5127 188.927 80.2402C189.234 80.9677 189.392 81.7493 189.392 82.5388C189.391 83.3282 189.233 84.1097 188.926 84.837C188.619 85.5643 188.169 86.2228 187.604 86.7736C187.038 87.3243 186.368 87.7563 185.633 88.044C184.897 88.3316 184.112 88.4692 183.323 88.4485C181.781 88.4081 180.317 87.7673 179.241 86.6626C178.165 85.5579 177.564 84.0767 177.564 82.5348C177.565 80.9929 178.167 79.5121 179.244 78.4081C180.32 77.3042 181.785 76.6643 183.327 76.625ZM166.302 104.013C168.413 104.437 170.588 104.437 172.699 104.013C173.704 103.804 174.694 103.497 175.667 103.09C176.594 102.695 177.504 102.204 178.355 101.634C179.181 101.069 179.961 100.424 180.694 99.6981C181.42 98.975 182.065 98.1939 182.63 97.3548L189.193 101.776C187.489 104.307 185.313 106.485 182.784 108.193C180.21 109.93 177.32 111.146 174.278 111.771C171.124 112.406 167.876 112.405 164.723 111.767C161.679 111.153 158.788 109.937 156.22 108.193C153.695 106.477 151.517 104.299 149.804 101.772L156.367 97.3508C156.937 98.19 157.58 98.9684 158.298 99.6862C160.485 101.88 163.268 103.385 166.302 104.013ZM155.646 76.625C156.426 76.6252 157.198 76.7791 157.919 77.0778C158.639 77.3766 159.294 77.8143 159.845 78.366C160.397 78.9177 160.834 79.5726 161.132 80.2933C161.431 81.014 161.584 81.7864 161.584 82.5664C161.583 83.3464 161.43 84.1187 161.131 84.8392C160.832 85.5597 160.394 86.2143 159.843 86.7657C159.291 87.317 158.636 87.7543 157.915 88.0526C157.195 88.3508 156.422 88.5042 155.642 88.5039C154.067 88.5034 152.556 87.8771 151.443 86.7629C150.329 85.6486 149.704 84.1377 149.705 82.5625C149.705 80.9872 150.331 79.4767 151.446 78.3632C152.56 77.2497 154.071 76.6244 155.646 76.625Z" fill="#F8E6D2"/>
</g>
<defs>
<linearGradient id="paint0_linear_571_3203" x1="168.812" y1="212" x2="180.115" y2="76.7461" gradientUnits="userSpaceOnUse">
<stop stop-color="#FF3987"/>
<stop offset="1" stop-color="#FAA4AE" stop-opacity="0.933333"/>
</linearGradient>
<clipPath id="clip0_571_3203">
<rect width="340" height="177" fill="white"/>
</clipPath>
</defs>
</svg>
