<svg width="340" height="177" viewBox="0 0 340 177" fill="none" xmlns="http://www.w3.org/2000/svg">
<g clip-path="url(#clip0_1010_5891)">
<rect width="340" height="177" fill="#E9557F"/>
<circle cx="170" cy="144" r="68" fill="url(#paint0_linear_1010_5891)"/>
<path d="M169.5 48.9167C191.327 48.9167 209.084 66.6738 209.084 88.5C209.084 110.326 191.327 128.083 169.5 128.083C147.674 128.083 129.917 110.326 129.917 88.5C129.917 66.6738 147.674 48.9167 169.5 48.9167ZM183.327 100.375C184.116 100.395 184.901 100.257 185.636 99.969C186.371 99.6808 187.041 99.2484 187.606 98.6972C188.172 98.1461 188.621 97.4873 188.927 96.7598C189.234 96.0323 189.392 95.2507 189.392 94.4612C189.391 93.6718 189.233 92.8903 188.926 92.163C188.619 91.4357 188.169 90.7772 187.604 90.2264C187.038 89.6757 186.368 89.2437 185.633 88.956C184.897 88.6684 184.112 88.5308 183.323 88.5515C181.781 88.5919 180.317 89.2327 179.241 90.3374C178.165 91.4421 177.564 92.9233 177.564 94.4652C177.565 96.0071 178.167 97.4879 179.244 98.5919C180.32 99.6958 181.785 100.336 183.327 100.375ZM166.302 72.9873C168.413 72.563 170.588 72.563 172.699 72.9873C173.704 73.1958 174.694 73.5032 175.667 73.9096C176.594 74.3055 177.504 74.7963 178.355 75.3663C179.181 75.931 179.961 76.5762 180.694 77.3019C181.42 78.025 182.065 78.8061 182.63 79.6452L189.193 75.2238C187.489 72.6932 185.313 70.5147 182.784 68.8073C180.21 67.0698 177.32 65.8541 174.278 65.229C171.124 64.5938 167.876 64.5951 164.723 65.233C161.679 65.8474 158.788 67.0625 156.22 68.8073C153.695 70.5226 151.517 72.7012 149.804 75.2278L156.367 79.6492C156.937 78.81 157.58 78.0316 158.298 77.3138C160.485 75.1197 163.268 73.6154 166.302 72.9873ZM155.646 100.375C156.426 100.375 157.198 100.221 157.919 99.9222C158.639 99.6234 159.294 99.1857 159.845 98.634C160.397 98.0823 160.834 97.4274 161.132 96.7067C161.431 95.986 161.584 95.2136 161.584 94.4336C161.583 93.6536 161.43 92.8813 161.131 92.1608C160.832 91.4403 160.394 90.7857 159.843 90.2343C159.291 89.683 158.636 89.2457 157.915 88.9474C157.195 88.6492 156.422 88.4958 155.642 88.4961C154.067 88.4966 152.556 89.1229 151.443 90.2371C150.329 91.3514 149.704 92.8623 149.705 94.4375C149.705 96.0128 150.331 97.5233 151.446 98.6368C152.56 99.7503 154.071 100.376 155.646 100.375Z" fill="#F8E6D2"/>
</g>
<defs>
<linearGradient id="paint0_linear_1010_5891" x1="168.812" y1="212" x2="180.115" y2="76.7461" gradientUnits="userSpaceOnUse">
<stop stop-color="#FF3987"/>
<stop offset="1" stop-color="#FAA4AE" stop-opacity="0.933333"/>
</linearGradient>
<clipPath id="clip0_1010_5891">
<rect width="340" height="177" fill="white"/>
</clipPath>
</defs>
</svg>
