<svg width="1440" height="1965" viewBox="0 0 1440 1965" fill="none" xmlns="http://www.w3.org/2000/svg">
<g opacity="0.4">
<path d="M714.575 1017.43C714.808 1017.28 715.053 1017.15 715.31 1017.02C715.212 1017.05 715.114 1017.07 715.016 1017.08C714.869 1017.19 714.71 1017.32 714.575 1017.43Z" fill="white" fill-opacity="0.2"/>
<path d="M692.633 469.389C748.621 530.398 804.241 593.474 839.912 663.989C874.335 732.057 882.123 806.136 846.439 874.977C818.923 928.048 772.806 971.436 722.329 1011.35C722.097 1012.05 721.839 1012.77 721.595 1013.47C721.656 1013.46 721.693 1013.44 721.778 1013.43C723.884 1012.27 725.942 1011.09 728.073 1009.96C726.934 1010.81 725.819 1011.7 724.693 1012.57C765.936 989.478 804.596 964.661 838.786 934.685C883.066 895.869 915.481 847.909 929.38 796.454C955.071 701.337 920.159 604.223 874.409 516.634C825.842 423.651 762.544 336.248 709.398 245.008C666.232 170.929 618.804 84.1134 628.993 0H384.25C395.798 100.834 453.842 197.136 523.361 282.111C576.103 346.625 635.666 407.302 692.633 469.389Z" fill="white" fill-opacity="0.2"/>
<path d="M724.25 1012.92C724.409 1012.81 724.556 1012.68 724.691 1012.57C725.817 1011.7 726.932 1010.81 728.071 1009.96C725.94 1011.09 723.883 1012.27 721.776 1013.43C722.609 1013.27 723.417 1013.1 724.25 1012.92Z" fill="white" fill-opacity="0.2"/>
<path d="M746.635 1560.61C690.673 1499.6 635.028 1436.53 599.356 1366.01C564.934 1297.94 557.146 1223.86 592.829 1155.02C620.346 1101.95 666.463 1058.56 716.94 1018.65C717.172 1017.95 717.429 1017.23 717.674 1016.53C716.891 1016.69 716.082 1016.86 715.311 1017.02C715.054 1017.15 714.809 1017.28 714.576 1017.43C673.333 1040.52 634.673 1065.34 600.483 1095.32C556.203 1134.13 523.788 1182.09 509.889 1233.55C484.198 1328.66 519.135 1425.78 564.873 1513.39C613.427 1606.35 676.725 1693.75 729.896 1784.99C773.037 1859.07 820.465 1945.89 810.276 2030H1055.03C1043.47 1929.17 985.427 1832.86 915.908 1747.89C863.166 1683.37 803.602 1622.7 746.635 1560.61Z" fill="white" fill-opacity="0.2"/>
<path d="M-270.638 166.093C-214.393 307.182 -61.4813 397.61 97.4312 461.234C184.29 495.987 274.528 524.798 363.31 556.204C447.34 585.945 532.092 617.772 604.832 663.304C675.648 707.641 728.281 767.359 741.273 839.607C751.731 897.67 738.824 954.911 719.696 1010.75C719.917 1011.48 720.149 1012.21 720.394 1012.93C721.496 1011.04 722.635 1009.15 723.786 1007.26C723.321 1008.5 722.905 1009.73 722.476 1010.98C744.408 973.354 762.862 935.214 773.553 894.283C787.06 842.652 783.619 788.769 763.254 738.655C726.297 647.63 634.785 578.152 542.109 521.617C440.69 459.746 329.744 408.917 225.57 350.218C138.038 300.937 41.652 242.795 0.286041 160.845C-26.9239 106.943 -17.6294 52.3359 4.21689 0H-295.239C-298.631 56.0658 -292.288 111.838 -270.638 166.093Z" fill="white" fill-opacity="0.2"/>
<path d="M716.941 1018.65C716.892 1018.78 716.843 1018.92 716.794 1019.02C717.309 1018.15 717.835 1017.27 718.35 1016.4C718.129 1016.44 717.884 1016.48 717.676 1016.53C717.431 1017.23 717.174 1017.95 716.941 1018.65Z" fill="white" fill-opacity="0.2"/>
<path d="M1709.91 1863.91C1653.66 1722.84 1500.76 1632.39 1341.84 1568.77C1255 1534.01 1164.74 1505.2 1075.98 1473.8C991.929 1444.05 907.177 1412.23 834.438 1366.7C763.621 1322.37 710.989 1262.64 697.996 1190.39C687.538 1132.33 700.47 1075.09 719.573 1019.25C719.279 1018.27 718.961 1017.3 718.642 1016.33C718.544 1016.35 718.446 1016.38 718.348 1016.4C717.834 1017.27 717.307 1018.15 716.793 1019.02C694.861 1056.64 676.407 1094.79 665.716 1135.72C652.209 1187.35 655.663 1241.23 676.015 1291.35C712.972 1382.37 804.485 1451.85 897.16 1508.38C998.579 1570.25 1109.52 1621.08 1213.7 1679.78C1301.23 1729.08 1397.62 1787.2 1438.98 1869.15C1466.19 1923.06 1456.9 1977.66 1435.05 2030H1734.51C1737.9 1973.93 1731.56 1918.16 1709.91 1863.91Z" fill="white" fill-opacity="0.2"/>
<path d="M721.594 1013.47C721.839 1012.77 722.096 1012.05 722.329 1011.35C722.378 1011.22 722.427 1011.08 722.476 1010.98C722.904 1009.73 723.321 1008.5 723.786 1007.26C722.635 1009.15 721.496 1011.03 720.394 1012.93C720.468 1013.18 720.553 1013.43 720.627 1013.67C720.945 1013.6 721.263 1013.54 721.594 1013.47Z" fill="white" fill-opacity="0.2"/>
<path d="M-165.559 784.139C-68.6093 779.518 27.5807 768.407 124.077 760.105C218.112 752.039 314.106 745.675 408.116 757.237C495.819 768.006 576.8 800.263 631.392 857.249C675.072 902.83 699.025 956.429 717.038 1011.31C717.675 1011.85 718.324 1012.37 718.985 1012.91C718.777 1010.81 718.569 1008.74 718.385 1006.64C718.765 1007.89 719.181 1009.15 719.573 1010.4C715.067 969.067 707.315 928.547 690.832 888.899C669.525 837.611 631.992 791.736 581.38 755.935C490.627 691.773 365.072 669.188 248.089 657.754C120.17 645.252 -8.99725 645.81 -137.173 635.785C-242.327 627.572 -363.743 614.698 -446.463 556.939C-524.492 502.459 -539.322 419.794 -548.433 341.956C-548.812 338.912 -549.363 335.887 -550 332.862V738.734C-432.515 782.631 -295.571 790.307 -165.559 784.139Z" fill="white" fill-opacity="0.2"/>
<path d="M719.34 1016.31C719.291 1016.28 719.254 1016.25 719.193 1016.22C719.021 1016.25 718.838 1016.28 718.642 1016.33C718.96 1017.3 719.279 1018.27 719.573 1019.25C719.609 1019.37 719.658 1019.48 719.695 1019.6C719.573 1018.51 719.45 1017.41 719.34 1016.31Z" fill="white" fill-opacity="0.2"/>
<path d="M1604.83 1245.86C1507.88 1250.48 1411.69 1261.59 1315.19 1269.9C1221.16 1277.96 1125.16 1284.33 1031.15 1272.76C943.448 1262 862.467 1229.74 807.876 1172.75C764.196 1127.17 740.243 1073.58 722.23 1018.69C721.274 1017.9 720.307 1017.11 719.34 1016.31C719.45 1017.41 719.572 1018.51 719.695 1019.6C724.201 1060.93 731.953 1101.45 748.435 1141.1C769.743 1192.39 807.276 1238.27 857.9 1274.07C948.64 1338.23 1074.2 1360.81 1191.2 1372.25C1319.1 1384.75 1448.26 1384.19 1576.44 1394.22C1681.62 1402.43 1803.01 1415.3 1885.73 1473.06C1963.76 1527.54 1978.59 1610.21 1987.7 1688.04C1988.08 1691.09 1988.63 1694.11 1989.27 1697.14V1291.29C1871.78 1247.37 1734.85 1239.69 1604.83 1245.86Z" fill="white" fill-opacity="0.2"/>
<path d="M720.075 1013.78C720.246 1013.75 720.43 1013.72 720.626 1013.67C720.552 1013.43 720.467 1013.18 720.393 1012.93C720.148 1012.21 719.915 1011.48 719.695 1010.75C719.658 1010.64 719.609 1010.52 719.573 1010.4C719.181 1009.15 718.764 1007.89 718.385 1006.64C718.568 1008.73 718.777 1010.81 718.985 1012.9C719.34 1013.21 719.707 1013.49 720.075 1013.78Z" fill="white" fill-opacity="0.2"/>
<path d="M37.1445 1036.59C113.46 991.848 192.359 947.363 280.564 918.846C365.709 891.327 458.372 885.1 544.484 913.628C610.868 935.625 665.141 972.493 715.066 1012.85C715.985 1013.05 716.891 1013.26 717.834 1013.46C716.315 1011.72 714.797 1010.01 713.303 1008.26C714.393 1009.17 715.507 1010.06 716.597 1010.96C687.709 977.985 656.667 947.079 619.17 919.746C570.616 884.346 510.624 858.433 446.261 847.322C327.282 826.783 205.805 854.693 96.2422 891.278C-20.0674 930.094 -129.397 980.697 -243.527 1023.18C-336.19 1057.69 -444.785 1095.61 -550 1087.46V1283.13C-423.869 1273.89 -303.433 1227.49 -197.116 1171.91C-116.417 1129.75 -40.5422 1082.13 37.1445 1036.59Z" fill="white" fill-opacity="0.2"/>
<path d="M719.34 1016.31C720.307 1017.1 721.275 1017.9 722.23 1018.69C722.377 1018.82 722.536 1018.93 722.671 1019.04C721.85 1018.12 721.066 1017.2 720.27 1016.28C720.05 1016.23 719.83 1016.17 719.609 1016.13C719.475 1016.15 719.34 1016.19 719.193 1016.22C719.254 1016.25 719.291 1016.28 719.34 1016.31Z" fill="white" fill-opacity="0.2"/>
<path d="M1402.12 993.415C1325.81 1038.15 1246.93 1082.64 1158.7 1111.16C1073.56 1138.67 980.895 1144.9 894.784 1116.37C828.4 1094.38 774.127 1057.51 724.201 1017.15C722.891 1016.87 721.581 1016.57 720.27 1016.28C721.066 1017.2 721.85 1018.12 722.67 1019.04C751.558 1052.02 782.601 1082.92 820.097 1110.26C868.651 1145.65 928.643 1171.57 993.006 1182.68C1111.99 1203.22 1233.46 1175.29 1343.05 1138.72C1459.33 1099.91 1568.66 1049.3 1682.79 1006.82C1775.46 972.308 1884.05 934.392 1989.27 942.537V746.88C1863.14 756.111 1742.7 802.515 1636.38 858.091C1555.71 900.255 1479.79 947.873 1402.12 993.415Z" fill="white" fill-opacity="0.2"/>
<path d="M719.659 1013.87C719.794 1013.85 719.929 1013.82 720.076 1013.78C719.708 1013.49 719.341 1013.21 718.986 1012.91C718.324 1012.37 717.675 1011.85 717.039 1011.31C716.892 1011.19 716.733 1011.07 716.598 1010.96C715.508 1010.06 714.394 1009.17 713.304 1008.27C714.798 1010.01 716.316 1011.72 717.835 1013.46C718.422 1013.59 719.035 1013.73 719.659 1013.87Z" fill="white" fill-opacity="0.2"/>
<path d="M-342.239 1806.67C-165.754 1761.7 -52.6409 1639.47 26.9438 1512.42C70.4406 1443 106.455 1370.84 145.739 1299.88C182.917 1232.68 222.753 1164.93 279.707 1106.78C335.168 1050.16 409.867 1008.09 500.24 997.701C572.869 989.341 644.47 999.659 714.319 1014.95C715.226 1014.77 716.144 1014.59 717.05 1014.39C714.675 1013.51 712.311 1012.6 709.948 1011.68C711.503 1012.05 713.046 1012.39 714.601 1012.73C667.541 995.195 619.832 980.442 568.632 971.896C504.049 961.098 436.648 963.858 373.962 980.129C260.102 1009.67 173.194 1082.83 102.475 1156.92C25.0825 1238.01 -38.4972 1326.7 -111.922 1409.98C-173.592 1479.95 -246.294 1557.01 -348.803 1590.08C-416.228 1611.85 -484.534 1604.4 -550 1586.94V1826.33C-479.869 1829.07 -410.105 1823.97 -342.239 1806.67Z" fill="white" fill-opacity="0.2"/>
<path d="M720.269 1016.28C721.579 1016.57 722.89 1016.87 724.2 1017.15C724.359 1017.19 724.53 1017.23 724.665 1017.27C723.416 1016.81 722.167 1016.33 720.918 1015.87C720.489 1015.95 720.049 1016.05 719.608 1016.13C719.828 1016.18 720.049 1016.23 720.269 1016.28Z" fill="white" fill-opacity="0.2"/>
<path d="M1781.51 223.334C1605.02 268.298 1491.91 390.542 1412.32 517.584C1368.85 587.022 1332.81 659.163 1293.53 730.139C1256.33 797.316 1216.52 865.07 1159.56 923.221C1104.11 979.836 1029.4 1021.91 939.028 1032.3C866.399 1040.66 794.798 1030.32 724.949 1015.05C723.602 1015.31 722.255 1015.59 720.92 1015.87C722.169 1016.33 723.418 1016.81 724.667 1017.27C771.727 1034.8 819.437 1049.56 870.636 1058.1C935.22 1068.9 1002.62 1066.15 1065.32 1049.87C1179.17 1020.33 1266.07 947.167 1336.79 873.078C1414.16 792 1477.77 703.305 1551.19 620.024C1612.85 550.047 1685.56 472.992 1788.07 439.922C1855.5 418.169 1923.8 425.599 1989.27 443.064V203.666C1919.14 200.954 1849.37 206.025 1781.51 223.334Z" fill="white" fill-opacity="0.2"/>
<path d="M719.657 1013.87C719.033 1013.73 718.421 1013.59 717.833 1013.46C716.89 1013.26 715.984 1013.05 715.065 1012.85C714.906 1012.81 714.747 1012.77 714.6 1012.73C713.045 1012.39 711.502 1012.05 709.947 1011.68C712.31 1012.6 714.673 1013.51 717.049 1014.39C717.906 1014.23 718.776 1014.05 719.657 1013.87Z" fill="white" fill-opacity="0.2"/>
<path d="M430.857 1722.66C425.077 1645.16 411.179 1568.26 400.794 1491.11C390.704 1415.94 382.744 1339.2 397.206 1264.04C410.701 1193.93 451.026 1129.19 522.308 1085.54C579.324 1050.62 646.369 1031.48 715.019 1017.07C715.117 1017.07 715.215 1017.05 715.313 1017.02C716.084 1016.86 716.892 1016.69 717.676 1016.53C717.884 1016.48 718.129 1016.44 718.35 1016.4C718.448 1016.38 718.546 1016.35 718.643 1016.33C718.839 1016.28 719.023 1016.25 719.195 1016.22C719.341 1016.19 719.476 1016.15 719.611 1016.13C720.052 1016.05 720.493 1015.95 720.921 1015.87C722.256 1015.59 723.603 1015.31 724.95 1015.05C725.097 1015.02 725.244 1014.98 725.391 1014.95C719.991 1015.33 714.602 1015.68 709.178 1016C710.745 1015.69 712.312 1015.36 713.88 1015.05C662.179 1018.65 611.494 1024.85 561.899 1038.02C497.743 1055.06 440.36 1085.06 395.578 1125.53C315.319 1198.08 287.068 1298.45 272.765 1391.97C257.128 1494.24 257.826 1597.5 245.311 1699.97C235.012 1784.03 218.909 1881.1 146.659 1947.23C78.5119 2009.61 -24.8908 2021.46 -122.256 2028.75C-126.065 2029.05 -129.849 2029.49 -133.633 2030H374.062C428.972 1936.08 438.572 1826.61 430.857 1722.66Z" fill="white" fill-opacity="0.2"/>
<path d="M1008.41 307.339C1014.19 384.844 1028.09 461.743 1038.47 538.886C1048.57 614.061 1056.52 690.803 1042.06 765.959C1028.59 836.073 988.243 900.812 916.961 944.455C859.945 979.375 792.9 998.524 724.25 1012.92C723.418 1013.1 722.609 1013.27 721.777 1013.43C721.691 1013.44 721.654 1013.46 721.593 1013.47C721.262 1013.54 720.944 1013.6 720.626 1013.67C720.43 1013.72 720.246 1013.75 720.074 1013.78C719.928 1013.82 719.793 1013.84 719.658 1013.87C718.776 1014.05 717.907 1014.23 717.05 1014.39C716.144 1014.59 715.225 1014.77 714.319 1014.95C714.184 1014.98 714.025 1015.02 713.878 1015.05C712.311 1015.36 710.743 1015.7 709.176 1016C714.601 1015.69 719.989 1015.33 725.389 1014.95C777.09 1011.35 827.775 1005.15 877.37 991.974C941.526 974.94 998.909 944.935 1043.69 904.464C1123.95 831.922 1152.18 731.548 1166.5 638.007C1182.14 535.763 1181.44 432.501 1193.98 330.032C1204.26 245.948 1220.36 148.902 1292.61 82.7722C1360.76 20.392 1464.16 8.53665 1561.53 1.25309C1565.33 0.949604 1569.12 0.509066 1572.9 0H1065.21C1010.3 93.9227 1000.7 203.401 1008.41 307.339Z" fill="white" fill-opacity="0.2"/>
</g>
</svg>
