<svg width="352" height="321" viewBox="0 0 352 321" fill="none" xmlns="http://www.w3.org/2000/svg">
<g clip-path="url(#clip0_836_5929)">
<rect width="352" height="321" fill="#E9557F"/>
<g opacity="0.4">
<path d="M176.295 161.424C176.327 161.398 176.361 161.376 176.397 161.352C176.383 161.357 176.37 161.36 176.356 161.362C176.336 161.383 176.313 161.405 176.295 161.424Z" fill="url(#paint0_radial_836_5929)" fill-opacity="0.5"/>
<path d="M173.236 65.854C181.041 76.4931 188.795 87.4924 193.768 99.7892C198.567 111.659 199.653 124.577 194.678 136.582C190.842 145.837 184.413 153.403 177.376 160.363C177.343 160.486 177.308 160.611 177.273 160.734C177.282 160.732 177.287 160.729 177.299 160.727C177.593 160.524 177.879 160.319 178.177 160.121C178.018 160.269 177.862 160.425 177.705 160.577C183.455 156.549 188.845 152.222 193.611 146.994C199.784 140.225 204.303 131.862 206.241 122.889C209.822 106.302 204.955 89.3669 198.577 74.0928C191.807 57.878 182.982 42.6364 175.573 26.7255C169.555 13.8073 162.943 -1.33195 164.364 -16H130.244C131.854 1.58391 139.946 18.3774 149.638 33.1957C156.99 44.446 165.294 55.0271 173.236 65.854Z" fill="url(#paint1_radial_836_5929)" fill-opacity="0.5"/>
<path d="M177.643 160.638C177.666 160.617 177.686 160.595 177.705 160.576C177.862 160.424 178.017 160.269 178.176 160.121C177.879 160.319 177.592 160.523 177.299 160.727C177.415 160.698 177.527 160.669 177.643 160.638Z" fill="url(#paint2_radial_836_5929)" fill-opacity="0.5"/>
<path d="M180.764 256.146C172.963 245.507 165.205 234.507 160.232 222.211C155.433 210.341 154.348 197.423 159.322 185.418C163.158 176.163 169.588 168.597 176.625 161.637C176.657 161.514 176.693 161.389 176.727 161.266C176.618 161.295 176.505 161.324 176.397 161.352C176.362 161.375 176.327 161.398 176.295 161.423C170.545 165.451 165.156 169.778 160.389 175.006C154.216 181.775 149.697 190.138 147.76 199.111C144.178 215.698 149.048 232.633 155.425 247.911C162.194 264.122 171.018 279.364 178.431 295.274C184.445 308.193 191.057 323.332 189.637 338H223.758C222.146 320.416 214.054 303.623 204.363 288.804C197.01 277.554 188.706 266.973 180.764 256.146Z" fill="url(#paint3_radial_836_5929)" fill-opacity="0.5"/>
<path d="M38.9459 12.9639C46.787 37.5678 68.1045 53.3369 90.2585 64.4319C102.368 70.4924 114.948 75.5166 127.325 80.9932C139.039 86.1796 150.855 91.7296 160.995 99.6697C170.868 107.401 178.205 117.815 180.017 130.414C181.475 140.539 179.675 150.521 177.009 160.259C177.039 160.385 177.072 160.513 177.106 160.64C177.26 160.309 177.418 159.979 177.579 159.65C177.514 159.866 177.456 160.082 177.396 160.298C180.454 153.738 183.026 147.087 184.517 139.949C186.4 130.945 185.92 121.549 183.081 112.81C177.929 96.9365 165.171 84.8207 152.251 74.9617C138.112 64.1724 122.645 55.3087 108.122 45.0725C95.9195 36.4786 82.4823 26.3397 76.7155 12.0489C72.9222 2.64919 74.2179 -6.87344 77.2635 -16H35.5162C35.0433 -6.223 35.9277 3.50278 38.9459 12.9639Z" fill="url(#paint4_radial_836_5929)" fill-opacity="0.5"/>
<path d="M176.625 161.637C176.618 161.659 176.611 161.683 176.604 161.702C176.676 161.55 176.749 161.396 176.821 161.244C176.79 161.251 176.756 161.258 176.727 161.266C176.693 161.389 176.657 161.514 176.625 161.637Z" fill="url(#paint5_radial_836_5929)" fill-opacity="0.5"/>
<path d="M315.054 309.036C307.213 284.436 285.897 268.663 263.742 257.568C251.636 251.508 239.053 246.483 226.679 241.007C214.961 235.82 203.145 230.27 193.005 222.33C183.132 214.6 175.795 204.185 173.984 191.586C172.526 181.46 174.328 171.479 176.992 161.741C176.951 161.57 176.906 161.401 176.862 161.232C176.848 161.235 176.835 161.241 176.821 161.244C176.749 161.396 176.676 161.55 176.604 161.702C173.546 168.262 170.974 174.913 169.483 182.051C167.6 191.055 168.082 200.451 170.919 209.192C176.071 225.063 188.829 237.179 201.749 247.038C215.888 257.827 231.355 266.691 245.878 276.927C258.081 285.525 271.518 295.66 277.285 309.951C281.078 319.351 279.782 328.873 276.737 338H318.484C318.957 328.223 318.073 318.497 315.054 309.036Z" fill="url(#paint6_radial_836_5929)" fill-opacity="0.5"/>
<path d="M177.273 160.734C177.307 160.611 177.343 160.486 177.376 160.363C177.383 160.341 177.389 160.317 177.396 160.298C177.456 160.081 177.514 159.866 177.579 159.65C177.418 159.979 177.26 160.309 177.106 160.64C177.116 160.682 177.128 160.727 177.138 160.768C177.183 160.756 177.227 160.746 177.273 160.734Z" fill="url(#paint7_radial_836_5929)" fill-opacity="0.5"/>
<path d="M53.5951 120.741C67.1108 119.936 80.5207 117.998 93.9732 116.55C107.083 115.144 120.465 114.034 133.571 116.05C145.798 117.928 157.088 123.553 164.698 133.491C170.788 141.439 174.127 150.786 176.638 160.356C176.727 160.45 176.817 160.541 176.91 160.635C176.881 160.269 176.851 159.907 176.826 159.542C176.879 159.761 176.937 159.979 176.991 160.198C176.363 152.99 175.283 145.924 172.985 139.01C170.014 130.066 164.782 122.066 157.726 115.823C145.074 104.634 127.57 100.696 111.262 98.7018C93.4286 96.5218 75.4213 96.6191 57.5523 94.8709C42.8928 93.4386 25.9661 91.1937 14.4342 81.1213C3.55605 71.6209 1.48866 57.2055 0.218519 43.6317C0.165596 43.1008 0.0887732 42.5733 0 42.0458V112.824C16.3786 120.479 35.47 121.817 53.5951 120.741Z" fill="url(#paint8_radial_836_5929)" fill-opacity="0.5"/>
<path d="M176.959 161.229C176.952 161.224 176.947 161.219 176.939 161.214C176.915 161.219 176.889 161.224 176.862 161.232C176.906 161.401 176.951 161.57 176.992 161.741C176.997 161.762 177.004 161.782 177.009 161.802C176.992 161.611 176.974 161.42 176.959 161.229Z" fill="url(#paint9_radial_836_5929)" fill-opacity="0.5"/>
<path d="M300.405 201.259C286.889 202.065 273.479 204.002 260.027 205.45C246.917 206.857 233.535 207.966 220.429 205.95C208.202 204.072 196.912 198.447 189.302 188.51C183.212 180.561 179.873 171.216 177.362 161.644C177.229 161.505 177.094 161.367 176.959 161.229C176.974 161.42 176.991 161.611 177.008 161.802C177.637 169.01 178.717 176.076 181.015 182.99C183.986 191.934 189.218 199.934 196.276 206.177C208.926 217.366 226.43 221.304 242.742 223.298C260.571 225.478 278.579 225.381 296.448 227.129C311.111 228.562 328.034 230.807 339.566 240.879C350.444 250.379 352.511 264.795 353.781 278.368C353.834 278.899 353.911 279.427 354 279.954V209.18C337.621 201.522 318.532 200.183 300.405 201.259Z" fill="url(#paint10_radial_836_5929)" fill-opacity="0.5"/>
<path d="M177.061 160.787C177.085 160.781 177.111 160.776 177.138 160.768C177.128 160.727 177.116 160.682 177.106 160.64C177.072 160.513 177.039 160.385 177.008 160.259C177.003 160.24 176.996 160.218 176.991 160.198C176.937 159.979 176.879 159.761 176.826 159.542C176.851 159.907 176.88 160.269 176.909 160.635C176.959 160.688 177.01 160.737 177.061 160.787Z" fill="url(#paint11_radial_836_5929)" fill-opacity="0.5"/>
<path d="M81.854 164.764C92.4931 156.963 103.492 149.205 115.789 144.232C127.659 139.433 140.577 138.348 152.582 143.322C161.837 147.158 169.403 153.587 176.363 160.624C176.491 160.66 176.618 160.696 176.749 160.732C176.537 160.428 176.326 160.129 176.117 159.825C176.269 159.983 176.425 160.138 176.577 160.295C172.549 154.545 168.222 149.156 162.994 144.389C156.225 138.216 147.862 133.697 138.889 131.76C122.302 128.178 105.367 133.045 90.0928 139.425C73.878 146.194 58.6364 155.018 42.7255 162.427C29.8073 168.445 14.6681 175.057 0 173.637V207.758C17.5839 206.146 34.374 198.054 49.1957 188.363C60.446 181.01 71.0236 172.706 81.854 164.764Z" fill="url(#paint12_radial_836_5929)" fill-opacity="0.5"/>
<path d="M176.959 161.229C177.094 161.367 177.229 161.505 177.362 161.644C177.383 161.666 177.405 161.686 177.424 161.705C177.309 161.545 177.2 161.384 177.089 161.224C177.058 161.215 177.027 161.205 176.997 161.196C176.978 161.201 176.959 161.208 176.939 161.213C176.947 161.218 176.952 161.224 176.959 161.229Z" fill="url(#paint13_radial_836_5929)" fill-opacity="0.5"/>
<path d="M272.146 157.236C261.507 165.038 250.511 172.795 238.211 177.768C226.341 182.567 213.422 183.653 201.418 178.678C192.163 174.842 184.597 168.413 177.637 161.376C177.454 161.326 177.271 161.273 177.089 161.224C177.2 161.384 177.309 161.545 177.423 161.705C181.45 167.455 185.778 172.845 191.006 177.611C197.774 183.784 206.138 188.303 215.111 190.241C231.698 193.822 248.633 188.952 263.91 182.575C280.122 175.806 295.363 166.982 311.274 159.573C324.193 153.555 339.332 146.943 354 148.364V114.244C336.416 115.854 319.626 123.946 304.804 133.638C293.557 140.99 282.973 149.294 272.146 157.236Z" fill="url(#paint14_radial_836_5929)" fill-opacity="0.5"/>
<path d="M177.004 160.804C177.022 160.799 177.041 160.794 177.062 160.787C177.011 160.737 176.959 160.688 176.91 160.635C176.818 160.541 176.727 160.45 176.638 160.356C176.618 160.336 176.596 160.314 176.577 160.295C176.425 160.138 176.27 159.983 176.118 159.826C176.326 160.129 176.538 160.428 176.749 160.732C176.831 160.754 176.917 160.778 177.004 160.804Z" fill="url(#paint15_radial_836_5929)" fill-opacity="0.5"/>
<path d="M28.9639 299.054C53.5678 291.213 69.3369 269.897 80.4319 247.742C86.4958 235.636 91.5166 223.053 96.9932 210.679C102.176 198.961 107.73 187.145 115.67 177.005C123.401 167.132 133.815 159.795 146.414 157.984C156.539 156.526 166.521 158.325 176.259 160.992C176.385 160.961 176.513 160.928 176.64 160.894C176.309 160.741 175.979 160.582 175.65 160.421C175.866 160.486 176.082 160.544 176.298 160.604C169.738 157.546 163.087 154.974 155.949 153.483C146.945 151.6 137.549 152.082 128.81 154.919C112.937 160.071 100.821 172.829 90.9617 185.749C80.1724 199.89 71.3087 215.355 61.0725 229.878C52.4752 242.081 42.3397 255.518 28.0489 261.285C18.6492 265.081 9.12656 263.782 0 260.737V302.484C9.777 302.96 19.5028 302.073 28.9639 299.054Z" fill="url(#paint16_radial_836_5929)" fill-opacity="0.5"/>
<path d="M177.089 161.224C177.271 161.273 177.454 161.326 177.637 161.376C177.659 161.382 177.683 161.389 177.701 161.396C177.527 161.316 177.353 161.232 177.179 161.152C177.119 161.166 177.058 161.183 176.996 161.196C177.027 161.205 177.058 161.215 177.089 161.224Z" fill="url(#paint17_radial_836_5929)" fill-opacity="0.5"/>
<path d="M325.036 22.9459C300.432 30.787 284.663 52.1045 273.568 74.2585C267.508 86.3675 262.483 98.9477 257.007 111.325C251.82 123.039 246.27 134.855 238.33 144.995C230.6 154.868 220.185 162.205 207.586 164.017C197.46 165.475 187.479 163.672 177.741 161.009C177.553 161.055 177.365 161.103 177.179 161.152C177.353 161.232 177.527 161.316 177.702 161.396C184.262 164.454 190.913 167.026 198.051 168.517C207.055 170.4 216.451 169.92 225.192 167.081C241.063 161.929 253.179 149.171 263.038 136.251C273.824 122.112 282.691 106.645 292.927 92.1224C301.523 79.9195 311.66 66.4823 325.951 60.7155C335.351 56.9222 344.873 58.2179 354 61.2635V19.5162C344.223 19.0433 334.497 19.9277 325.036 22.9459Z" fill="url(#paint18_radial_836_5929)" fill-opacity="0.5"/>
<path d="M177.003 160.804C176.916 160.778 176.831 160.754 176.749 160.732C176.617 160.696 176.491 160.66 176.363 160.624C176.341 160.618 176.319 160.611 176.298 160.604C176.081 160.544 175.866 160.486 175.649 160.421C175.979 160.582 176.308 160.741 176.64 160.894C176.759 160.865 176.88 160.834 177.003 160.804Z" fill="url(#paint19_radial_836_5929)" fill-opacity="0.5"/>
<path d="M136.742 284.405C135.936 270.889 133.998 257.479 132.55 244.027C131.144 230.917 130.034 217.535 132.05 204.429C133.932 192.202 139.553 180.912 149.491 173.302C157.439 167.212 166.786 163.873 176.357 161.362C176.37 161.36 176.384 161.357 176.398 161.352C176.505 161.324 176.618 161.295 176.727 161.266C176.756 161.258 176.79 161.251 176.821 161.244C176.835 161.241 176.848 161.235 176.862 161.232C176.889 161.224 176.915 161.218 176.939 161.213C176.959 161.208 176.978 161.201 176.997 161.196C177.058 161.183 177.12 161.165 177.179 161.152C177.366 161.102 177.553 161.054 177.741 161.008C177.762 161.003 177.782 160.996 177.803 160.991C177.05 161.058 176.299 161.119 175.542 161.174C175.761 161.121 175.979 161.063 176.198 161.008C168.99 161.637 161.924 162.717 155.01 165.015C146.066 167.986 138.066 173.218 131.823 180.274C120.634 192.926 116.696 210.429 114.702 226.738C112.522 244.571 112.619 262.579 110.874 280.448C109.439 295.107 107.194 312.034 97.1214 323.566C87.621 334.444 73.2056 336.511 59.6319 337.781C59.1009 337.834 58.5734 337.911 58.0459 338H128.824C136.479 321.621 137.817 302.532 136.742 284.405Z" fill="url(#paint20_radial_836_5929)" fill-opacity="0.5"/>
<path d="M217.259 37.5951C218.064 51.1108 220.002 64.5207 221.45 77.9732C222.856 91.0826 223.966 104.465 221.95 117.571C220.072 129.798 214.447 141.087 204.509 148.698C196.561 154.788 187.214 158.127 177.644 160.638C177.527 160.669 177.415 160.698 177.299 160.727C177.287 160.729 177.282 160.732 177.273 160.734C177.227 160.746 177.183 160.756 177.138 160.768C177.111 160.776 177.085 160.781 177.061 160.787C177.041 160.793 177.022 160.799 177.003 160.804C176.88 160.834 176.759 160.865 176.64 160.894C176.513 160.928 176.385 160.961 176.259 160.991C176.24 160.997 176.218 161.003 176.198 161.009C175.979 161.063 175.761 161.121 175.542 161.174C176.298 161.119 177.049 161.058 177.802 160.991C185.01 160.363 192.076 159.283 198.99 156.985C207.934 154.014 215.934 148.782 222.177 141.724C233.366 129.074 237.301 111.57 239.298 95.2584C241.478 77.4286 241.381 59.4213 243.129 41.5523C244.561 26.8894 246.806 9.96614 256.879 -1.56583C266.379 -12.444 280.795 -14.5113 294.368 -15.7815C294.899 -15.8344 295.427 -15.9112 295.954 -16H225.176C217.521 0.378645 216.183 19.47 217.259 37.5951Z" fill="url(#paint21_radial_836_5929)" fill-opacity="0.5"/>
</g>
<path d="M170.622 266.2L148.166 155.916C147.887 154.502 147.138 153.225 146.041 152.291C144.945 151.356 143.565 150.82 142.125 150.769L2.51239 144.957H2.23864C1.30209 144.949 0.375377 145.148 -0.47586 145.538C-1.3271 145.929 -2.08202 146.502 -2.68715 147.217C-3.29228 147.932 -3.73281 148.771 -3.97752 149.675C-4.22224 150.579 -4.26516 151.526 -4.10323 152.448L16.1725 274.559C16.4315 276.109 17.2478 277.51 18.4678 278.5C19.6879 279.49 21.2276 280 22.7973 279.934L164.582 273.92C165.513 273.881 166.424 273.64 167.253 273.214C168.082 272.788 168.808 272.188 169.383 271.454C169.957 270.72 170.365 269.87 170.579 268.963C170.793 268.056 170.808 267.114 170.622 266.2ZM156.314 268.199L29.641 273.51C27.898 273.591 26.1853 273.033 24.8243 271.941C23.4634 270.849 22.548 269.298 22.2498 267.578L4.16401 159.611C3.99594 158.564 4.06363 157.492 4.36215 156.474C4.66067 155.455 5.18251 154.516 5.88967 153.725C6.59683 152.934 7.47151 152.311 8.45002 151.901C9.42853 151.49 10.4862 151.303 11.5461 151.353L136.248 156.491C137.846 156.55 139.377 157.142 140.599 158.172C141.821 159.202 142.663 160.611 142.992 162.175L163.067 259.676C163.268 260.691 163.247 261.737 163.004 262.742C162.762 263.747 162.303 264.688 161.661 265.499C161.019 266.309 160.208 266.971 159.285 267.437C158.361 267.903 157.348 268.163 156.314 268.199ZM88.2783 317.538H3.36101C2.52091 317.582 1.72983 317.947 1.15084 318.557C0.57185 319.168 0.24909 319.977 0.24909 320.818C0.24909 321.659 0.57185 322.469 1.15084 323.079C1.72983 323.689 2.52091 324.054 3.36101 324.099H88.2783C89.1184 324.054 89.9095 323.689 90.4884 323.079C91.0674 322.469 91.3902 321.659 91.3902 320.818C91.3902 319.977 91.0674 319.168 90.4884 318.557C89.9095 317.947 89.1184 317.582 88.2783 317.538ZM22.5144 283.136C20.2356 283.128 18.0331 282.314 16.2952 280.84C14.5574 279.366 13.3958 277.326 13.0153 275.079L4.07277 221.169C-0.560796 222.82 -4.56951 225.865 -7.40269 229.886C-10.2359 233.907 -11.7545 238.706 -11.75 243.625V290.957C-11.7536 294.087 -11.1399 297.188 -9.94407 300.081C-8.74823 302.975 -6.9937 305.604 -4.78083 307.818C-2.56796 310.033 0.0598145 311.789 2.95218 312.987C5.84453 314.185 8.94472 314.801 12.0754 314.8H79.6004C82.7303 314.803 85.83 314.188 88.7222 312.992C91.6144 311.795 94.2425 310.041 96.456 307.828C98.6696 305.615 100.425 302.988 101.623 300.096C102.82 297.204 103.436 294.105 103.435 290.975V279.715L22.925 283.127L22.5144 283.136Z" fill="#3C3741"/>
<path d="M350.5 140L-19.5 79.5L27.5 268.5L156.5 262.5L350.5 140Z" fill="url(#paint22_linear_836_5929)"/>
<path d="M54.792 143.67L41.5327 144.08L39.6014 150.422L30.5425 150.702L42.2972 114.777L52.3176 114.467L66.272 149.596L57.1119 149.88L54.792 143.67ZM52.3585 137.059L47.5529 124.188L43.6032 137.33L52.3585 137.059ZM86.5074 120.399C89.8138 120.297 92.4789 121.295 94.5026 123.394C96.559 125.458 97.6451 128.362 97.7611 132.107L98.2718 148.605L89.6684 148.872L89.1937 133.537C89.1352 131.648 88.6006 130.195 87.5898 129.18C86.579 128.164 85.247 127.682 83.5937 127.733C81.9405 127.784 80.6409 128.348 79.6949 129.424C78.7488 130.5 78.305 131.983 78.3635 133.873L78.8382 149.207L70.1842 149.475L69.31 121.235L77.964 120.967L78.08 124.713C78.9185 123.437 80.0691 122.422 81.5317 121.668C82.9932 120.879 84.6518 120.457 86.5074 120.399ZM120.609 119.343C123.915 119.241 126.58 120.239 128.604 122.338C130.66 124.402 131.746 127.306 131.862 131.051L132.373 147.55L123.77 147.816L123.295 132.482C123.237 130.592 122.702 129.14 121.691 128.124C120.68 127.109 119.348 126.626 117.695 126.678C116.042 126.729 114.742 127.292 113.796 128.369C112.85 129.445 112.406 130.928 112.465 132.817L112.94 148.151L104.286 148.419L103.411 120.18L112.065 119.912L112.181 123.657C113.02 122.381 114.17 121.366 115.633 120.612C117.094 119.824 118.753 119.401 120.609 119.343ZM151.254 147.37C148.487 147.456 145.972 146.943 143.709 145.831C141.479 144.718 139.69 143.085 138.34 140.932C137.023 138.777 136.32 136.232 136.229 133.297C136.139 130.395 136.701 127.828 137.916 125.596C139.129 123.329 140.83 121.571 143.021 120.321C145.211 119.071 147.689 118.404 150.456 118.318C153.222 118.232 155.737 118.746 158.001 119.858C160.264 120.969 162.071 122.619 163.422 124.806C164.772 126.959 165.492 129.487 165.582 132.388C165.672 135.29 165.093 137.874 163.846 140.142C162.632 142.375 160.913 144.116 158.689 145.367C156.499 146.617 154.02 147.285 151.254 147.37ZM151.022 139.88C152.675 139.829 154.057 139.179 155.166 137.928C156.309 136.677 156.846 134.921 156.776 132.661C156.706 130.4 156.079 128.681 154.894 127.502C153.743 126.321 152.341 125.757 150.688 125.808C149.001 125.86 147.619 126.511 146.544 127.76C145.467 128.975 144.964 130.73 145.035 133.024C145.105 135.285 145.698 137.006 146.816 138.187C147.967 139.367 149.369 139.932 151.022 139.88ZM197.621 117.263L198.495 145.503L189.841 145.771L189.722 141.924C188.884 143.2 187.717 144.249 186.223 145.072C184.761 145.86 183.12 146.283 181.298 146.339C179.139 146.406 177.218 145.992 175.535 145.099C173.852 144.172 172.526 142.811 171.559 141.018C170.592 139.224 170.07 137.096 169.994 134.633L169.483 118.134L178.086 117.868L178.561 133.202C178.619 135.092 179.154 136.544 180.165 137.56C181.176 138.575 182.508 139.058 184.161 139.006C185.848 138.954 187.164 138.39 188.11 137.314C189.056 136.238 189.5 134.755 189.442 132.865L188.967 117.531L197.621 117.263ZM221.035 116.234C224.341 116.132 227.006 117.13 229.03 119.229C231.086 121.293 232.172 124.197 232.288 127.942L232.799 144.441L224.196 144.707L223.721 129.373C223.662 127.483 223.128 126.031 222.117 125.015C221.106 124 219.774 123.517 218.121 123.569C216.468 123.62 215.168 124.183 214.222 125.26C213.276 126.336 212.832 127.819 212.891 129.708L213.365 145.042L204.711 145.31L203.837 117.071L212.491 116.803L212.607 120.548C213.446 119.272 214.596 118.257 216.059 117.503C217.52 116.715 219.179 116.292 221.035 116.234ZM236.655 130.188C236.564 127.253 237.075 124.67 238.188 122.441C239.335 120.21 240.953 118.472 243.042 117.225C245.164 115.977 247.609 115.31 250.376 115.225C253.918 115.115 256.899 115.952 259.318 117.734C261.771 119.516 263.421 122.082 264.268 125.433L255.057 125.718C254.214 123.583 252.679 122.549 250.452 122.618C248.867 122.667 247.621 123.331 246.715 124.608C245.808 125.852 245.39 127.621 245.461 129.915C245.532 132.21 246.059 133.966 247.042 135.185C248.025 136.371 249.309 136.939 250.894 136.89C253.121 136.821 254.589 135.695 255.298 133.512L264.509 133.226C263.869 136.556 262.38 139.202 260.044 141.166C257.707 143.129 254.784 144.165 251.275 144.274C248.508 144.36 246.027 143.845 243.831 142.731C241.669 141.616 239.947 139.981 238.664 137.826C237.416 135.669 236.746 133.123 236.655 130.188ZM295.623 127.907C295.648 128.716 295.624 129.561 295.55 130.442L275.964 131.048C276.153 132.798 276.752 134.131 277.76 135.045C278.8 135.925 280.046 136.342 281.496 136.297C283.656 136.23 285.129 135.273 285.916 133.425L295.127 133.14C294.712 135.01 293.903 136.707 292.701 138.23C291.532 139.752 290.033 140.963 288.203 141.864C286.374 142.765 284.312 143.251 282.018 143.322C279.251 143.408 276.77 142.894 274.574 141.78C272.378 140.666 270.639 139.031 269.357 136.876C268.074 134.72 267.387 132.175 267.297 129.24C267.206 126.304 267.717 123.722 268.83 121.492C269.976 119.262 271.611 117.522 273.734 116.275C275.857 115.027 278.318 114.36 281.118 114.273C283.851 114.189 286.298 114.687 288.459 115.768C290.62 116.85 292.324 118.435 293.571 120.524C294.851 122.612 295.535 125.073 295.623 127.907ZM286.696 125.903C286.65 124.419 286.108 123.254 285.068 122.408C284.029 121.562 282.75 121.163 281.232 121.21C279.781 121.255 278.563 121.714 277.577 122.589C276.624 123.463 276.054 124.679 275.866 126.239L286.696 125.903ZM298.48 128.223C298.391 125.322 298.852 122.758 299.863 120.531C300.909 118.304 302.358 116.571 304.211 115.331C306.064 114.092 308.154 113.436 310.482 113.364C312.338 113.307 314.037 113.642 315.579 114.371C317.155 115.099 318.402 116.108 319.32 117.396L318.914 104.289L327.568 104.021L328.727 141.471L320.073 141.739L319.948 137.69C319.18 139.065 318.049 140.181 316.556 141.037C315.097 141.893 313.372 142.352 311.381 142.413C309.053 142.485 306.926 141.96 305 140.838C303.073 139.682 301.519 138.024 300.338 135.866C299.189 133.672 298.57 131.125 298.48 128.223ZM319.636 127.619C319.569 125.46 318.909 123.775 317.656 122.564C316.437 121.352 314.966 120.773 313.246 120.826C311.525 120.88 310.077 121.549 308.901 122.835C307.758 124.086 307.219 125.792 307.286 127.951C307.353 130.11 307.997 131.813 309.217 133.058C310.471 134.269 311.958 134.848 313.678 134.794C315.399 134.741 316.83 134.072 317.973 132.787C319.148 131.501 319.703 129.779 319.636 127.619Z" fill="#F8E6D2"/>
<path d="M93.9548 58.0336L94.6531 67.4333L81.8915 68.3814L84.7714 107.147L73.039 108.018L70.159 69.253L57.3974 70.2011L56.6991 60.8014L93.9548 58.0336ZM120.889 105.015C117.138 105.294 113.694 104.745 110.556 103.368C107.464 101.988 104.939 99.8762 102.98 97.0322C101.066 94.1847 99.962 90.7713 99.6664 86.7919C99.3741 82.8582 99.9866 79.3402 101.504 76.2379C103.018 73.0899 105.225 70.6033 108.125 68.7781C111.025 66.9529 114.35 65.901 118.101 65.6224C121.851 65.3437 125.296 65.8927 128.433 67.2693C131.571 68.646 134.121 70.7792 136.084 73.6689C138.043 76.5129 139.168 79.9018 139.461 83.8355C139.753 87.7692 139.119 91.3117 137.56 94.4631C136.042 97.5654 133.811 100.031 130.865 101.859C127.965 103.685 124.64 104.737 120.889 105.015ZM120.135 94.8608C122.376 94.6943 124.213 93.7299 125.646 91.9677C127.125 90.2021 127.75 87.787 127.522 84.7224C127.295 81.6578 126.342 79.3599 124.665 77.8288C123.033 76.2943 121.096 75.6103 118.855 75.7768C116.568 75.9467 114.731 76.911 113.344 78.6698C111.953 80.3829 111.374 82.7946 111.605 85.905C111.832 88.9696 112.739 91.2709 114.325 92.8088C115.957 94.3433 117.894 95.0273 120.135 94.8608Z" fill="#F8E6D2"/>
<path d="M182.209 84.1286C185.044 84.516 187.388 85.7445 189.244 87.8143C191.096 89.8384 192.126 92.2456 192.333 95.0357C192.632 99.0609 191.452 102.368 188.793 104.957C186.176 107.497 182.352 108.954 177.32 109.328L154.885 110.995L151.306 62.83L172.987 61.2193C177.882 60.8557 181.784 61.6926 184.695 63.73C187.652 65.764 189.273 68.7021 189.558 72.5443C189.769 75.3802 189.189 77.7919 187.819 79.7794C186.495 81.7635 184.625 83.2133 182.209 84.1286ZM164.486 81.4439L172.171 80.873C174.092 80.7303 175.525 80.2099 176.47 79.3118C177.458 78.3645 177.89 77.0676 177.768 75.4209C177.646 73.7743 177.026 72.5555 175.909 71.7646C174.839 70.9703 173.343 70.6445 171.422 70.7872L163.737 71.3581L164.486 81.4439ZM174.559 100.013C176.525 99.8666 178.003 99.3199 178.99 98.3727C180.02 97.3763 180.472 96.0319 180.346 94.3395C180.22 92.6471 179.55 91.3631 178.335 90.4875C177.166 89.6085 175.598 89.2421 173.631 89.3882L165.124 90.0202L165.914 100.655L174.559 100.013ZM234.733 85.1938C234.814 86.2916 234.831 87.4402 234.782 88.6396L208.229 90.6123C208.589 92.9772 209.48 94.7507 210.901 95.9329C212.365 97.066 214.081 97.5594 216.048 97.4133C218.975 97.1958 220.919 95.8096 221.879 93.2547L234.366 92.327C233.912 94.8903 232.914 97.2411 231.371 99.3794C229.874 101.514 227.91 103.247 225.479 104.577C223.049 105.908 220.278 106.689 217.168 106.92C213.417 107.198 210.019 106.646 206.972 105.262C203.926 103.879 201.469 101.762 199.601 98.9111C197.734 96.0603 196.652 92.6452 196.357 88.6657C196.061 84.6863 196.603 81.1505 197.983 78.0585C199.409 74.963 201.526 72.5061 204.335 70.6877C207.143 68.8692 210.445 67.819 214.242 67.537C217.947 67.2617 221.298 67.7946 224.295 69.1357C227.292 70.4768 229.699 72.5287 231.514 75.2915C233.374 78.0508 234.447 81.3516 234.733 85.1938ZM222.497 82.9983C222.347 80.9857 221.542 79.4358 220.081 78.3485C218.621 77.2611 216.861 76.7939 214.803 76.9469C212.836 77.093 211.209 77.7888 209.922 79.0342C208.68 80.2763 207.978 81.9613 207.814 84.0891L222.497 82.9983Z" fill="#F8E6D2"/>
</g>
<defs>
<radialGradient id="paint0_radial_836_5929" cx="0" cy="0" r="1" gradientUnits="userSpaceOnUse" gradientTransform="translate(176.346 161.388) rotate(-90) scale(0.0358507 0.0512153)">
<stop stop-color="#DCC5A9"/>
<stop offset="1" stop-color="#FFA6B5"/>
</radialGradient>
<radialGradient id="paint1_radial_836_5929" cx="0" cy="0" r="1" gradientUnits="userSpaceOnUse" gradientTransform="translate(168.85 72.3668) rotate(-90) scale(88.3668 38.606)">
<stop stop-color="#DCC5A9"/>
<stop offset="1" stop-color="#FFA6B5"/>
</radialGradient>
<radialGradient id="paint2_radial_836_5929" cx="0" cy="0" r="1" gradientUnits="userSpaceOnUse" gradientTransform="translate(177.737 160.424) rotate(-90) scale(0.303024 0.438744)">
<stop stop-color="#DCC5A9"/>
<stop offset="1" stop-color="#FFA6B5"/>
</radialGradient>
<radialGradient id="paint3_radial_836_5929" cx="0" cy="0" r="1" gradientUnits="userSpaceOnUse" gradientTransform="translate(185.151 249.633) rotate(-90) scale(88.3668 38.6066)">
<stop stop-color="#DCC5A9"/>
<stop offset="1" stop-color="#FFA6B5"/>
</radialGradient>
<radialGradient id="paint4_radial_836_5929" cx="0" cy="0" r="1" gradientUnits="userSpaceOnUse" gradientTransform="translate(110.52 72.3199) rotate(-90) scale(88.3199 75.123)">
<stop stop-color="#DCC5A9"/>
<stop offset="1" stop-color="#FFA6B5"/>
</radialGradient>
<radialGradient id="paint5_radial_836_5929" cx="0" cy="0" r="1" gradientUnits="userSpaceOnUse" gradientTransform="translate(176.713 161.473) rotate(-90) scale(0.228762 0.108406)">
<stop stop-color="#DCC5A9"/>
<stop offset="1" stop-color="#FFA6B5"/>
</radialGradient>
<radialGradient id="paint6_radial_836_5929" cx="0" cy="0" r="1" gradientUnits="userSpaceOnUse" gradientTransform="translate(243.481 249.616) rotate(-90) scale(88.3839 75.1228)">
<stop stop-color="#DCC5A9"/>
<stop offset="1" stop-color="#FFA6B5"/>
</radialGradient>
<radialGradient id="paint7_radial_836_5929" cx="0" cy="0" r="1" gradientUnits="userSpaceOnUse" gradientTransform="translate(177.342 160.209) rotate(-90) scale(0.5591 0.236444)">
<stop stop-color="#DCC5A9"/>
<stop offset="1" stop-color="#FFA6B5"/>
</radialGradient>
<radialGradient id="paint8_radial_836_5929" cx="0" cy="0" r="1" gradientUnits="userSpaceOnUse" gradientTransform="translate(88.4957 101.34) rotate(-90) scale(59.2945 88.4957)">
<stop stop-color="#DCC5A9"/>
<stop offset="1" stop-color="#FFA6B5"/>
</radialGradient>
<radialGradient id="paint9_radial_836_5929" cx="0" cy="0" r="1" gradientUnits="userSpaceOnUse" gradientTransform="translate(176.935 161.508) rotate(-90) scale(0.294488 0.0734086)">
<stop stop-color="#DCC5A9"/>
<stop offset="1" stop-color="#FFA6B5"/>
</radialGradient>
<radialGradient id="paint10_radial_836_5929" cx="0" cy="0" r="1" gradientUnits="userSpaceOnUse" gradientTransform="translate(265.479 220.592) rotate(-90) scale(59.3628 88.5205)">
<stop stop-color="#DCC5A9"/>
<stop offset="1" stop-color="#FFA6B5"/>
</radialGradient>
<radialGradient id="paint11_radial_836_5929" cx="0" cy="0" r="1" gradientUnits="userSpaceOnUse" gradientTransform="translate(176.982 160.164) rotate(-90) scale(0.622266 0.156207)">
<stop stop-color="#DCC5A9"/>
<stop offset="1" stop-color="#FFA6B5"/>
</radialGradient>
<radialGradient id="paint12_radial_836_5929" cx="0" cy="0" r="1" gradientUnits="userSpaceOnUse" gradientTransform="translate(88.3745 169.151) rotate(-90) scale(38.6068 88.3745)">
<stop stop-color="#DCC5A9"/>
<stop offset="1" stop-color="#FFA6B5"/>
</radialGradient>
<radialGradient id="paint13_radial_836_5929" cx="0" cy="0" r="1" gradientUnits="userSpaceOnUse" gradientTransform="translate(177.181 161.451) rotate(-90) scale(0.254369 0.242419)">
<stop stop-color="#DCC5A9"/>
<stop offset="1" stop-color="#FFA6B5"/>
</radialGradient>
<radialGradient id="paint14_radial_836_5929" cx="0" cy="0" r="1" gradientUnits="userSpaceOnUse" gradientTransform="translate(265.544 152.85) rotate(-90) scale(38.6058 88.4556)">
<stop stop-color="#DCC5A9"/>
<stop offset="1" stop-color="#FFA6B5"/>
</radialGradient>
<radialGradient id="paint15_radial_836_5929" cx="0" cy="0" r="1" gradientUnits="userSpaceOnUse" gradientTransform="translate(176.59 160.315) rotate(-90) scale(0.489106 0.472034)">
<stop stop-color="#DCC5A9"/>
<stop offset="1" stop-color="#FFA6B5"/>
</radialGradient>
<radialGradient id="paint16_radial_836_5929" cx="0" cy="0" r="1" gradientUnits="userSpaceOnUse" gradientTransform="translate(88.3199 227.482) rotate(-90) scale(75.1234 88.3199)">
<stop stop-color="#DCC5A9"/>
<stop offset="1" stop-color="#FFA6B5"/>
</radialGradient>
<radialGradient id="paint17_radial_836_5929" cx="0" cy="0" r="1" gradientUnits="userSpaceOnUse" gradientTransform="translate(177.349 161.274) rotate(-90) scale(0.122063 0.352532)">
<stop stop-color="#DCC5A9"/>
<stop offset="1" stop-color="#FFA6B5"/>
</radialGradient>
<radialGradient id="paint18_radial_836_5929" cx="0" cy="0" r="1" gradientUnits="userSpaceOnUse" gradientTransform="translate(265.59 94.5195) rotate(-90) scale(75.123 88.4104)">
<stop stop-color="#DCC5A9"/>
<stop offset="1" stop-color="#FFA6B5"/>
</radialGradient>
<radialGradient id="paint19_radial_836_5929" cx="0" cy="0" r="1" gradientUnits="userSpaceOnUse" gradientTransform="translate(176.326 160.658) rotate(-90) scale(0.236444 0.676895)">
<stop stop-color="#DCC5A9"/>
<stop offset="1" stop-color="#FFA6B5"/>
</radialGradient>
<radialGradient id="paint20_radial_836_5929" cx="0" cy="0" r="1" gradientUnits="userSpaceOnUse" gradientTransform="translate(117.924 249.496) rotate(-90) scale(88.5043 59.8783)">
<stop stop-color="#DCC5A9"/>
<stop offset="1" stop-color="#FFA6B5"/>
</radialGradient>
<radialGradient id="paint21_radial_836_5929" cx="0" cy="0" r="1" gradientUnits="userSpaceOnUse" gradientTransform="translate(235.748 72.5871) rotate(-90) scale(88.5871 60.2061)">
<stop stop-color="#DCC5A9"/>
<stop offset="1" stop-color="#FFA6B5"/>
</radialGradient>
<linearGradient id="paint22_linear_836_5929" x1="85.7465" y1="268.5" x2="273.753" y2="118" gradientUnits="userSpaceOnUse">
<stop stop-color="#F8E6D2" stop-opacity="0.5"/>
<stop offset="1" stop-color="#DFDFDF" stop-opacity="0"/>
</linearGradient>
<clipPath id="clip0_836_5929">
<rect width="352" height="321" fill="white"/>
</clipPath>
</defs>
</svg>
