<svg width="353" height="321" viewBox="0 0 353 321" fill="none" xmlns="http://www.w3.org/2000/svg">
<g clip-path="url(#clip0_836_6219)">
<rect width="352" height="321" transform="translate(0.5)" fill="#B7BC99"/>
<g opacity="0.4">
<path d="M176.795 161.424C176.827 161.398 176.861 161.376 176.897 161.352C176.883 161.357 176.87 161.36 176.856 161.362C176.836 161.383 176.813 161.405 176.795 161.424Z" fill="#E9557F"/>
<path d="M173.736 65.854C181.541 76.4931 189.295 87.4924 194.268 99.7892C199.067 111.659 200.153 124.577 195.178 136.582C191.342 145.837 184.913 153.403 177.876 160.363C177.843 160.486 177.807 160.611 177.773 160.734C177.782 160.732 177.787 160.729 177.799 160.727C178.093 160.524 178.379 160.319 178.676 160.121C178.518 160.269 178.362 160.425 178.205 160.577C183.955 156.549 189.345 152.222 194.111 146.994C200.284 140.225 204.803 131.862 206.741 122.889C210.322 106.302 205.455 89.3669 199.077 74.0928C192.306 57.878 183.482 42.6364 176.073 26.7255C170.055 13.8073 163.443 -1.33195 164.864 -16H130.744C132.354 1.58391 140.446 18.3774 150.138 33.1957C157.49 44.446 165.794 55.0271 173.736 65.854Z" fill="#E9557F"/>
<path d="M178.143 160.638C178.166 160.617 178.186 160.595 178.205 160.576C178.362 160.424 178.517 160.269 178.676 160.121C178.379 160.319 178.092 160.523 177.799 160.727C177.915 160.698 178.027 160.669 178.143 160.638Z" fill="#E9557F"/>
<path d="M181.264 256.146C173.462 245.507 165.705 234.508 160.732 222.211C155.933 210.341 154.847 197.423 159.822 185.418C163.658 176.163 170.087 168.597 177.124 161.637C177.157 161.514 177.193 161.389 177.227 161.266C177.118 161.295 177.005 161.324 176.897 161.352C176.861 161.376 176.827 161.398 176.795 161.423C171.045 165.451 165.656 169.778 160.889 175.006C154.716 181.775 150.197 190.138 148.259 199.111C144.678 215.698 149.548 232.633 155.925 247.911C162.694 264.122 171.518 279.364 178.931 295.275C184.945 308.193 191.557 323.332 190.136 338H224.258C222.646 320.416 214.554 303.623 204.863 288.804C197.51 277.554 189.206 266.973 181.264 256.146Z" fill="#E9557F"/>
<path d="M39.4459 12.9639C47.287 37.5678 68.6045 53.3369 90.7585 64.4319C102.868 70.4924 115.448 75.5166 127.825 80.9932C139.539 86.1796 151.355 91.7296 161.495 99.6697C171.368 107.401 178.705 117.815 180.517 130.414C181.975 140.539 180.175 150.521 177.509 160.259C177.539 160.385 177.572 160.513 177.606 160.64C177.76 160.309 177.918 159.979 178.079 159.65C178.014 159.866 177.956 160.082 177.896 160.298C180.954 153.738 183.526 147.087 185.017 139.949C186.9 130.945 186.42 121.549 183.581 112.81C178.429 96.9365 165.671 84.8207 152.751 74.9617C138.612 64.1724 123.145 55.3087 108.622 45.0725C96.4195 36.4786 82.9823 26.3397 77.2155 12.0489C73.4222 2.64919 74.7179 -6.87344 77.7635 -16H36.0162C35.5433 -6.223 36.4277 3.50278 39.4459 12.9639Z" fill="#E9557F"/>
<path d="M177.125 161.637C177.118 161.659 177.111 161.683 177.104 161.702C177.176 161.55 177.249 161.396 177.321 161.244C177.29 161.251 177.256 161.258 177.227 161.266C177.193 161.389 177.157 161.514 177.125 161.637Z" fill="#E9557F"/>
<path d="M315.554 309.036C307.713 284.436 286.397 268.663 264.242 257.568C252.136 251.508 239.553 246.483 227.179 241.007C215.461 235.82 203.645 230.27 193.505 222.33C183.632 214.6 176.295 204.185 174.484 191.586C173.026 181.461 174.828 171.479 177.492 161.741C177.451 161.57 177.406 161.401 177.362 161.232C177.348 161.236 177.335 161.241 177.321 161.244C177.249 161.396 177.176 161.55 177.104 161.702C174.046 168.262 171.474 174.913 169.983 182.051C168.1 191.055 168.582 200.451 171.419 209.192C176.571 225.063 189.329 237.179 202.249 247.038C216.388 257.828 231.855 266.691 246.378 276.928C258.581 285.525 272.018 295.66 277.785 309.951C281.578 319.351 280.282 328.873 277.237 338H318.984C319.457 328.223 318.573 318.497 315.554 309.036Z" fill="#E9557F"/>
<path d="M177.773 160.733C177.808 160.611 177.843 160.486 177.876 160.363C177.883 160.341 177.889 160.317 177.896 160.298C177.956 160.081 178.014 159.866 178.079 159.649C177.918 159.979 177.76 160.308 177.606 160.64C177.616 160.682 177.628 160.727 177.639 160.768C177.683 160.756 177.727 160.745 177.773 160.733Z" fill="#E9557F"/>
<path d="M54.0951 120.742C67.6108 119.936 81.0207 117.998 94.4732 116.55C107.583 115.144 120.965 114.034 134.071 116.05C146.298 117.928 157.588 123.553 165.198 133.491C171.288 141.439 174.627 150.786 177.138 160.357C177.227 160.45 177.317 160.541 177.41 160.635C177.381 160.27 177.351 159.908 177.326 159.542C177.379 159.761 177.437 159.979 177.491 160.198C176.863 152.99 175.783 145.924 173.485 139.01C170.514 130.066 165.282 122.066 158.226 115.823C145.574 104.634 128.07 100.696 111.762 98.7019C93.9286 96.5219 75.9213 96.6192 58.0523 94.871C43.3928 93.4387 26.4661 91.1938 14.9342 81.1214C4.05605 71.621 1.98866 57.2056 0.718519 43.6319C0.665596 43.1009 0.588773 42.5734 0.5 42.0459V112.824C16.8786 120.479 35.97 121.817 54.0951 120.742Z" fill="#E9557F"/>
<path d="M177.459 161.229C177.452 161.224 177.447 161.219 177.439 161.213C177.415 161.219 177.389 161.224 177.362 161.232C177.406 161.401 177.45 161.57 177.491 161.741C177.497 161.761 177.503 161.782 177.509 161.802C177.491 161.611 177.474 161.42 177.459 161.229Z" fill="#E9557F"/>
<path d="M300.905 201.259C287.389 202.064 273.979 204.002 260.527 205.45C247.417 206.856 234.035 207.966 220.929 205.95C208.702 204.072 197.412 198.447 189.802 188.509C183.712 180.561 180.373 171.216 177.862 161.644C177.729 161.505 177.594 161.367 177.459 161.229C177.474 161.42 177.491 161.611 177.508 161.802C178.137 169.01 179.217 176.076 181.515 182.99C184.486 191.934 189.718 199.934 196.776 206.177C209.426 217.366 226.93 221.304 243.242 223.298C261.071 225.478 279.079 225.381 296.948 227.129C311.611 228.561 328.534 230.806 340.066 240.879C350.944 250.379 353.011 264.795 354.281 278.368C354.334 278.899 354.411 279.427 354.5 279.954V209.18C338.121 201.522 319.032 200.183 300.905 201.259Z" fill="#E9557F"/>
<path d="M177.561 160.787C177.585 160.781 177.611 160.776 177.638 160.768C177.628 160.727 177.616 160.682 177.606 160.64C177.572 160.513 177.539 160.385 177.508 160.259C177.503 160.24 177.497 160.218 177.491 160.198C177.437 159.979 177.379 159.761 177.326 159.542C177.351 159.907 177.38 160.269 177.409 160.635C177.459 160.688 177.51 160.737 177.561 160.787Z" fill="#E9557F"/>
<path d="M82.354 164.764C92.9931 156.963 103.992 149.205 116.289 144.232C128.159 139.433 141.077 138.348 153.082 143.322C162.337 147.158 169.903 153.587 176.863 160.624C176.991 160.66 177.118 160.696 177.249 160.732C177.037 160.428 176.826 160.129 176.617 159.825C176.769 159.983 176.925 160.138 177.077 160.295C173.049 154.545 168.722 149.156 163.494 144.389C156.725 138.216 148.362 133.697 139.389 131.76C122.802 128.178 105.867 133.045 90.5928 139.425C74.378 146.194 59.1364 155.018 43.2255 162.427C30.3073 168.445 15.1681 175.057 0.5 173.637V207.758C18.0839 206.146 34.874 198.054 49.6957 188.363C60.946 181.01 71.5236 172.706 82.354 164.764Z" fill="#E9557F"/>
<path d="M177.459 161.229C177.594 161.367 177.729 161.505 177.862 161.644C177.882 161.666 177.905 161.686 177.923 161.705C177.809 161.545 177.7 161.384 177.589 161.224C177.558 161.215 177.527 161.205 177.497 161.196C177.478 161.201 177.459 161.208 177.439 161.213C177.447 161.218 177.452 161.224 177.459 161.229Z" fill="#E9557F"/>
<path d="M272.646 157.236C262.007 165.038 251.011 172.795 238.711 177.768C226.841 182.567 213.923 183.653 201.918 178.678C192.663 174.842 185.097 168.413 178.137 161.376C177.954 161.326 177.771 161.273 177.589 161.224C177.7 161.384 177.809 161.545 177.923 161.705C181.951 167.455 186.278 172.845 191.506 177.611C198.275 183.784 206.638 188.303 215.611 190.241C232.198 193.822 249.133 188.952 264.411 182.576C280.622 175.807 295.864 166.982 311.774 159.573C324.693 153.555 339.832 146.943 354.5 148.364V114.244C336.916 115.854 320.126 123.946 305.304 133.638C294.057 140.99 283.473 149.294 272.646 157.236Z" fill="#E9557F"/>
<path d="M177.504 160.804C177.522 160.799 177.541 160.794 177.562 160.787C177.51 160.737 177.459 160.688 177.41 160.635C177.317 160.541 177.227 160.451 177.138 160.357C177.118 160.336 177.096 160.314 177.077 160.295C176.925 160.138 176.769 159.983 176.618 159.826C176.826 160.13 177.038 160.428 177.249 160.732C177.331 160.754 177.417 160.778 177.504 160.804Z" fill="#E9557F"/>
<path d="M29.4639 299.054C54.0678 291.213 69.8369 269.897 80.9319 247.742C86.9958 235.636 92.0166 223.053 97.4932 210.679C102.676 198.961 108.23 187.145 116.17 177.005C123.901 167.132 134.315 159.795 146.914 157.984C157.039 156.526 167.021 158.325 176.759 160.992C176.885 160.961 177.013 160.928 177.14 160.894C176.809 160.741 176.479 160.582 176.15 160.421C176.366 160.486 176.582 160.544 176.798 160.604C170.238 157.546 163.587 154.974 156.449 153.483C147.445 151.6 138.049 152.082 129.31 154.919C113.437 160.071 101.321 172.829 91.4617 185.749C80.6724 199.89 71.8087 215.355 61.5725 229.878C52.9752 242.081 42.8397 255.518 28.5489 261.285C19.1492 265.081 9.62656 263.782 0.5 260.737V302.484C10.277 302.96 20.0028 302.073 29.4639 299.054Z" fill="#E9557F"/>
<path d="M177.589 161.224C177.771 161.273 177.954 161.326 178.137 161.376C178.159 161.383 178.183 161.389 178.201 161.396C178.027 161.316 177.853 161.232 177.679 161.152C177.619 161.166 177.558 161.183 177.496 161.196C177.527 161.205 177.558 161.215 177.589 161.224Z" fill="#E9557F"/>
<path d="M325.536 22.9459C300.932 30.787 285.163 52.1045 274.068 74.2585C268.008 86.3675 262.983 98.9477 257.507 111.325C252.32 123.039 246.77 134.855 238.83 144.995C231.1 154.868 220.685 162.205 208.086 164.017C197.961 165.475 187.979 163.672 178.241 161.009C178.053 161.055 177.865 161.103 177.679 161.152C177.853 161.232 178.028 161.316 178.202 161.396C184.762 164.454 191.414 167.026 198.551 168.517C207.555 170.4 216.951 169.92 225.692 167.081C241.564 161.929 253.679 149.171 263.538 136.251C274.324 122.112 283.191 106.645 293.428 92.1224C302.023 79.9195 312.16 66.4823 326.451 60.7155C335.851 56.9222 345.373 58.2179 354.5 61.2635V19.5162C344.723 19.0433 334.997 19.9277 325.536 22.9459Z" fill="#E9557F"/>
<path d="M177.503 160.804C177.416 160.778 177.331 160.754 177.249 160.732C177.118 160.696 176.991 160.66 176.863 160.625C176.841 160.618 176.819 160.611 176.798 160.604C176.581 160.544 176.366 160.486 176.15 160.421C176.479 160.582 176.809 160.741 177.14 160.894C177.259 160.865 177.38 160.835 177.503 160.804Z" fill="#E9557F"/>
<path d="M137.242 284.405C136.436 270.889 134.498 257.479 133.05 244.027C131.644 230.917 130.534 217.535 132.55 204.429C134.432 192.202 140.053 180.912 149.991 173.302C157.939 167.212 167.286 163.873 176.857 161.362C176.87 161.36 176.884 161.357 176.898 161.352C177.005 161.324 177.118 161.295 177.227 161.266C177.256 161.258 177.29 161.251 177.321 161.244C177.335 161.241 177.348 161.236 177.362 161.232C177.389 161.224 177.415 161.219 177.439 161.213C177.459 161.208 177.478 161.201 177.497 161.196C177.558 161.183 177.62 161.166 177.679 161.152C177.866 161.102 178.053 161.055 178.241 161.009C178.262 161.003 178.282 160.997 178.303 160.991C177.55 161.058 176.799 161.119 176.042 161.174C176.261 161.121 176.479 161.063 176.698 161.009C169.49 161.637 162.424 162.717 155.51 165.015C146.566 167.986 138.566 173.218 132.323 180.274C121.134 192.926 117.196 210.43 115.202 226.738C113.022 244.571 113.119 262.579 111.374 280.448C109.939 295.107 107.694 312.034 97.6214 323.566C88.121 334.444 73.7056 336.511 60.1319 337.781C59.6009 337.834 59.0734 337.911 58.5459 338H129.324C136.979 321.621 138.317 302.532 137.242 284.405Z" fill="#E9557F"/>
<path d="M217.759 37.5951C218.564 51.1108 220.502 64.5207 221.95 77.9732C223.356 91.0826 224.466 104.465 222.45 117.571C220.572 129.798 214.947 141.087 205.009 148.698C197.061 154.788 187.714 158.127 178.144 160.638C178.028 160.669 177.915 160.698 177.799 160.727C177.787 160.729 177.782 160.732 177.773 160.734C177.727 160.746 177.683 160.756 177.638 160.768C177.611 160.776 177.585 160.781 177.562 160.787C177.541 160.793 177.522 160.799 177.503 160.804C177.381 160.834 177.259 160.865 177.14 160.894C177.013 160.928 176.885 160.961 176.759 160.991C176.74 160.997 176.718 161.003 176.698 161.009C176.479 161.063 176.261 161.121 176.042 161.174C176.798 161.119 177.55 161.058 178.302 160.991C185.51 160.363 192.576 159.283 199.49 156.985C208.434 154.014 216.434 148.782 222.677 141.724C233.866 129.074 237.801 111.57 239.798 95.2584C241.978 77.4286 241.881 59.4213 243.629 41.5523C245.062 26.8894 247.306 9.96614 257.379 -1.56583C266.879 -12.444 281.295 -14.5113 294.868 -15.7815C295.399 -15.8344 295.927 -15.9112 296.454 -16H225.677C218.022 0.378645 216.683 19.47 217.759 37.5951Z" fill="#E9557F"/>
</g>
<path d="M309.866 157.835L306.188 161.513C304.316 163.385 301.777 164.437 299.129 164.437C296.481 164.437 293.942 163.385 292.07 161.513C290.198 159.641 289.146 157.101 289.146 154.454C289.146 151.806 290.198 149.266 292.07 147.394L295.747 143.717L272.311 120.28L242.729 149.862L241.385 153.926L237.32 155.27L171.962 220.629L195.412 244.079L199.09 240.402C200.962 238.529 203.501 237.478 206.149 237.478C208.797 237.478 211.336 238.529 213.208 240.402C215.08 242.274 216.132 244.813 216.132 247.461C216.132 250.109 215.08 252.648 213.208 254.52L209.531 258.198L232.967 281.634L298.316 216.286L299.66 212.222L303.724 210.877L333.306 181.295L309.866 157.835ZM239.758 159.661L247.109 152.309L258.202 163.402L250.847 170.754L239.758 159.661ZM254.212 174.115L261.567 166.76L272.499 177.692L265.144 185.047L254.212 174.115ZM268.519 188.422L275.874 181.067L286.806 191.999L279.464 199.37L268.519 188.422ZM293.922 213.822L282.829 202.729L290.181 195.374L301.274 206.467L293.922 213.822Z" fill="#FCD9C6"/>
<path d="M196.787 99.1381C192.616 98.0198 189.022 95.3682 186.721 91.7136C184.421 88.059 183.586 83.6708 184.381 79.4266C184.446 79.0743 184.376 78.7104 184.184 78.4079C183.992 78.1053 183.693 77.8865 183.346 77.7953L161.215 71.8518C160.849 71.7539 160.46 71.8053 160.132 71.9945C159.804 72.1837 159.565 72.4954 159.467 72.861L150.019 108.122C149.67 109.423 149.629 110.787 149.9 112.106C150.173 113.428 150.134 114.794 149.787 116.098C149.44 117.401 148.794 118.606 147.901 119.617C147.006 120.625 146.359 121.827 146.009 123.129L121.771 213.545C121.673 213.91 121.724 214.3 121.914 214.628C122.103 214.956 122.414 215.195 122.78 215.293L144.902 221.22C145.248 221.315 145.616 221.275 145.934 221.109C146.251 220.943 146.495 220.663 146.614 220.325C148.045 216.249 150.963 212.865 154.783 210.848C158.603 208.832 163.043 208.332 167.216 209.45C171.388 210.568 174.984 213.221 177.284 216.877C179.584 220.534 180.418 224.924 179.62 229.169C179.555 229.521 179.625 229.885 179.817 230.188C180.009 230.49 180.308 230.709 180.655 230.8L202.777 236.728C203.143 236.826 203.532 236.774 203.86 236.585C204.188 236.396 204.427 236.084 204.525 235.719L228.758 145.288C229.106 143.986 229.146 142.621 228.876 141.301C228.603 139.979 228.641 138.613 228.988 137.309C229.335 136.006 229.981 134.801 230.875 133.79C231.769 132.783 232.416 131.581 232.764 130.28L242.212 95.019C242.31 94.6534 242.258 94.2638 242.069 93.9361C241.88 93.6083 241.568 93.3691 241.203 93.271L219.08 87.3434C218.735 87.2491 218.366 87.289 218.049 87.455C217.731 87.6211 217.488 87.901 217.368 88.2386C215.942 92.314 213.029 95.7006 209.214 97.7214C205.398 99.7422 200.96 100.248 196.787 99.1381Z" stroke="#FCD9C6" stroke-width="8" stroke-miterlimit="10"/>
<path d="M159.044 118.573L150.768 116.355M181.111 124.486L175.594 123.01M203.18 130.402L197.664 128.921M228.008 137.052L219.731 134.834" stroke="#FCD9C6" stroke-width="8" stroke-miterlimit="10" stroke-linecap="round"/>
<g clip-path="url(#clip1_836_6219)">
<path d="M97.823 94.7012L99.169 99.7248C99.8543 102.282 99.4956 105.007 98.1717 107.3C96.8478 109.593 94.6673 111.267 92.1098 111.952C89.5523 112.637 86.8273 112.278 84.5343 110.954C82.2413 109.631 80.5681 107.45 79.8828 104.893L78.5367 99.8689L46.5216 108.447L57.3492 148.857L60.1965 152.053L59.329 156.245L83.2518 245.526L115.285 236.943L113.939 231.92C113.254 229.362 113.613 226.637 114.937 224.344C116.26 222.051 118.441 220.378 120.999 219.693C123.556 219.007 126.281 219.366 128.574 220.69C130.867 222.014 132.54 224.194 133.226 226.752L134.572 231.775L166.587 223.197L142.668 133.929L139.82 130.733L140.688 126.541L129.86 86.1316L97.823 94.7012ZM64.3495 156.33L61.6586 146.287L76.8121 142.227L79.5013 152.272L64.3495 156.33ZM84.0949 151.039L81.4028 140.992L96.3359 136.99L99.028 147.037L84.0949 151.039ZM103.638 145.802L100.946 135.755L115.879 131.754L118.593 141.798L103.638 145.802ZM138.337 136.502L123.183 140.563L120.49 130.518L135.643 126.458L138.337 136.502Z" fill="#FCD9C6"/>
</g>
<rect x="-10.5" y="152" width="374" height="174" fill="url(#paint0_linear_836_6219)"/>
</g>
<defs>
<linearGradient id="paint0_linear_836_6219" x1="176.5" y1="337.6" x2="176.001" y2="152.001" gradientUnits="userSpaceOnUse">
<stop/>
<stop offset="1" stop-opacity="0"/>
</linearGradient>
<clipPath id="clip0_836_6219">
<rect width="352" height="321" fill="white" transform="translate(0.5)"/>
</clipPath>
<clipPath id="clip1_836_6219">
<rect width="172.111" height="172.111" fill="white" transform="translate(-11 197.321) rotate(-60)"/>
</clipPath>
</defs>
</svg>
